%TF.GenerationSoftware,KiCad,Pcbnew,8.0.6*%
%TF.CreationDate,2024-12-23T22:30:20+01:00*%
%TF.ProjectId,right,72696768-742e-46b6-9963-61645f706362,v1.0.0*%
%TF.SameCoordinates,Original*%
%TF.FileFunction,Legend,Bot*%
%TF.FilePolarity,Positive*%
%FSLAX46Y46*%
G04 Gerber Fmt 4.6, Leading zero omitted, Abs format (unit mm)*
G04 Created by KiCad (PCBNEW 8.0.6) date 2024-12-23 22:30:20*
%MOMM*%
%LPD*%
G01*
G04 APERTURE LIST*
%ADD10C,0.150000*%
%ADD11C,0.381000*%
%ADD12C,0.100000*%
%ADD13C,1.752600*%
G04 APERTURE END LIST*
D10*
X209026095Y-103392295D02*
X209292762Y-103011342D01*
X209483238Y-103392295D02*
X209483238Y-102592295D01*
X209483238Y-102592295D02*
X209178476Y-102592295D01*
X209178476Y-102592295D02*
X209102286Y-102630390D01*
X209102286Y-102630390D02*
X209064191Y-102668485D01*
X209064191Y-102668485D02*
X209026095Y-102744676D01*
X209026095Y-102744676D02*
X209026095Y-102858961D01*
X209026095Y-102858961D02*
X209064191Y-102935152D01*
X209064191Y-102935152D02*
X209102286Y-102973247D01*
X209102286Y-102973247D02*
X209178476Y-103011342D01*
X209178476Y-103011342D02*
X209483238Y-103011342D01*
X208721334Y-103163723D02*
X208340381Y-103163723D01*
X208797524Y-103392295D02*
X208530857Y-102592295D01*
X208530857Y-102592295D02*
X208264191Y-103392295D01*
X208073715Y-102592295D02*
X207883239Y-103392295D01*
X207883239Y-103392295D02*
X207730858Y-102820866D01*
X207730858Y-102820866D02*
X207578477Y-103392295D01*
X207578477Y-103392295D02*
X207388001Y-102592295D01*
X209064190Y-105170390D02*
X209140380Y-105132295D01*
X209140380Y-105132295D02*
X209254666Y-105132295D01*
X209254666Y-105132295D02*
X209368952Y-105170390D01*
X209368952Y-105170390D02*
X209445142Y-105246580D01*
X209445142Y-105246580D02*
X209483237Y-105322771D01*
X209483237Y-105322771D02*
X209521333Y-105475152D01*
X209521333Y-105475152D02*
X209521333Y-105589438D01*
X209521333Y-105589438D02*
X209483237Y-105741819D01*
X209483237Y-105741819D02*
X209445142Y-105818009D01*
X209445142Y-105818009D02*
X209368952Y-105894200D01*
X209368952Y-105894200D02*
X209254666Y-105932295D01*
X209254666Y-105932295D02*
X209178475Y-105932295D01*
X209178475Y-105932295D02*
X209064190Y-105894200D01*
X209064190Y-105894200D02*
X209026094Y-105856104D01*
X209026094Y-105856104D02*
X209026094Y-105589438D01*
X209026094Y-105589438D02*
X209178475Y-105589438D01*
X208683237Y-105932295D02*
X208683237Y-105132295D01*
X208683237Y-105132295D02*
X208226094Y-105932295D01*
X208226094Y-105932295D02*
X208226094Y-105132295D01*
X207845142Y-105932295D02*
X207845142Y-105132295D01*
X207845142Y-105132295D02*
X207654666Y-105132295D01*
X207654666Y-105132295D02*
X207540380Y-105170390D01*
X207540380Y-105170390D02*
X207464190Y-105246580D01*
X207464190Y-105246580D02*
X207426095Y-105322771D01*
X207426095Y-105322771D02*
X207387999Y-105475152D01*
X207387999Y-105475152D02*
X207387999Y-105589438D01*
X207387999Y-105589438D02*
X207426095Y-105741819D01*
X207426095Y-105741819D02*
X207464190Y-105818009D01*
X207464190Y-105818009D02*
X207540380Y-105894200D01*
X207540380Y-105894200D02*
X207654666Y-105932295D01*
X207654666Y-105932295D02*
X207845142Y-105932295D01*
X209026094Y-108472295D02*
X209292761Y-108091342D01*
X209483237Y-108472295D02*
X209483237Y-107672295D01*
X209483237Y-107672295D02*
X209178475Y-107672295D01*
X209178475Y-107672295D02*
X209102285Y-107710390D01*
X209102285Y-107710390D02*
X209064190Y-107748485D01*
X209064190Y-107748485D02*
X209026094Y-107824676D01*
X209026094Y-107824676D02*
X209026094Y-107938961D01*
X209026094Y-107938961D02*
X209064190Y-108015152D01*
X209064190Y-108015152D02*
X209102285Y-108053247D01*
X209102285Y-108053247D02*
X209178475Y-108091342D01*
X209178475Y-108091342D02*
X209483237Y-108091342D01*
X208721333Y-108434200D02*
X208607047Y-108472295D01*
X208607047Y-108472295D02*
X208416571Y-108472295D01*
X208416571Y-108472295D02*
X208340380Y-108434200D01*
X208340380Y-108434200D02*
X208302285Y-108396104D01*
X208302285Y-108396104D02*
X208264190Y-108319914D01*
X208264190Y-108319914D02*
X208264190Y-108243723D01*
X208264190Y-108243723D02*
X208302285Y-108167533D01*
X208302285Y-108167533D02*
X208340380Y-108129438D01*
X208340380Y-108129438D02*
X208416571Y-108091342D01*
X208416571Y-108091342D02*
X208568952Y-108053247D01*
X208568952Y-108053247D02*
X208645142Y-108015152D01*
X208645142Y-108015152D02*
X208683237Y-107977057D01*
X208683237Y-107977057D02*
X208721333Y-107900866D01*
X208721333Y-107900866D02*
X208721333Y-107824676D01*
X208721333Y-107824676D02*
X208683237Y-107748485D01*
X208683237Y-107748485D02*
X208645142Y-107710390D01*
X208645142Y-107710390D02*
X208568952Y-107672295D01*
X208568952Y-107672295D02*
X208378475Y-107672295D01*
X208378475Y-107672295D02*
X208264190Y-107710390D01*
X208035618Y-107672295D02*
X207578475Y-107672295D01*
X207807047Y-108472295D02*
X207807047Y-107672295D01*
X209603857Y-110212295D02*
X209337190Y-111012295D01*
X209337190Y-111012295D02*
X209070524Y-110212295D01*
X208346714Y-110936104D02*
X208384810Y-110974200D01*
X208384810Y-110974200D02*
X208499095Y-111012295D01*
X208499095Y-111012295D02*
X208575286Y-111012295D01*
X208575286Y-111012295D02*
X208689572Y-110974200D01*
X208689572Y-110974200D02*
X208765762Y-110898009D01*
X208765762Y-110898009D02*
X208803857Y-110821819D01*
X208803857Y-110821819D02*
X208841953Y-110669438D01*
X208841953Y-110669438D02*
X208841953Y-110555152D01*
X208841953Y-110555152D02*
X208803857Y-110402771D01*
X208803857Y-110402771D02*
X208765762Y-110326580D01*
X208765762Y-110326580D02*
X208689572Y-110250390D01*
X208689572Y-110250390D02*
X208575286Y-110212295D01*
X208575286Y-110212295D02*
X208499095Y-110212295D01*
X208499095Y-110212295D02*
X208384810Y-110250390D01*
X208384810Y-110250390D02*
X208346714Y-110288485D01*
X207546714Y-110936104D02*
X207584810Y-110974200D01*
X207584810Y-110974200D02*
X207699095Y-111012295D01*
X207699095Y-111012295D02*
X207775286Y-111012295D01*
X207775286Y-111012295D02*
X207889572Y-110974200D01*
X207889572Y-110974200D02*
X207965762Y-110898009D01*
X207965762Y-110898009D02*
X208003857Y-110821819D01*
X208003857Y-110821819D02*
X208041953Y-110669438D01*
X208041953Y-110669438D02*
X208041953Y-110555152D01*
X208041953Y-110555152D02*
X208003857Y-110402771D01*
X208003857Y-110402771D02*
X207965762Y-110326580D01*
X207965762Y-110326580D02*
X207889572Y-110250390D01*
X207889572Y-110250390D02*
X207775286Y-110212295D01*
X207775286Y-110212295D02*
X207699095Y-110212295D01*
X207699095Y-110212295D02*
X207584810Y-110250390D01*
X207584810Y-110250390D02*
X207546714Y-110288485D01*
X209337190Y-112752295D02*
X209261000Y-112752295D01*
X209261000Y-112752295D02*
X209184809Y-112790390D01*
X209184809Y-112790390D02*
X209146714Y-112828485D01*
X209146714Y-112828485D02*
X209108619Y-112904676D01*
X209108619Y-112904676D02*
X209070524Y-113057057D01*
X209070524Y-113057057D02*
X209070524Y-113247533D01*
X209070524Y-113247533D02*
X209108619Y-113399914D01*
X209108619Y-113399914D02*
X209146714Y-113476104D01*
X209146714Y-113476104D02*
X209184809Y-113514200D01*
X209184809Y-113514200D02*
X209261000Y-113552295D01*
X209261000Y-113552295D02*
X209337190Y-113552295D01*
X209337190Y-113552295D02*
X209413381Y-113514200D01*
X209413381Y-113514200D02*
X209451476Y-113476104D01*
X209451476Y-113476104D02*
X209489571Y-113399914D01*
X209489571Y-113399914D02*
X209527667Y-113247533D01*
X209527667Y-113247533D02*
X209527667Y-113057057D01*
X209527667Y-113057057D02*
X209489571Y-112904676D01*
X209489571Y-112904676D02*
X209451476Y-112828485D01*
X209451476Y-112828485D02*
X209413381Y-112790390D01*
X209413381Y-112790390D02*
X209337190Y-112752295D01*
X208803857Y-112752295D02*
X208308619Y-112752295D01*
X208308619Y-112752295D02*
X208575285Y-113057057D01*
X208575285Y-113057057D02*
X208461000Y-113057057D01*
X208461000Y-113057057D02*
X208384809Y-113095152D01*
X208384809Y-113095152D02*
X208346714Y-113133247D01*
X208346714Y-113133247D02*
X208308619Y-113209438D01*
X208308619Y-113209438D02*
X208308619Y-113399914D01*
X208308619Y-113399914D02*
X208346714Y-113476104D01*
X208346714Y-113476104D02*
X208384809Y-113514200D01*
X208384809Y-113514200D02*
X208461000Y-113552295D01*
X208461000Y-113552295D02*
X208689571Y-113552295D01*
X208689571Y-113552295D02*
X208765762Y-113514200D01*
X208765762Y-113514200D02*
X208803857Y-113476104D01*
X207546714Y-113552295D02*
X208003857Y-113552295D01*
X207775285Y-113552295D02*
X207775285Y-112752295D01*
X207775285Y-112752295D02*
X207851476Y-112866580D01*
X207851476Y-112866580D02*
X207927666Y-112942771D01*
X207927666Y-112942771D02*
X208003857Y-112980866D01*
X209337190Y-115292295D02*
X209261000Y-115292295D01*
X209261000Y-115292295D02*
X209184809Y-115330390D01*
X209184809Y-115330390D02*
X209146714Y-115368485D01*
X209146714Y-115368485D02*
X209108619Y-115444676D01*
X209108619Y-115444676D02*
X209070524Y-115597057D01*
X209070524Y-115597057D02*
X209070524Y-115787533D01*
X209070524Y-115787533D02*
X209108619Y-115939914D01*
X209108619Y-115939914D02*
X209146714Y-116016104D01*
X209146714Y-116016104D02*
X209184809Y-116054200D01*
X209184809Y-116054200D02*
X209261000Y-116092295D01*
X209261000Y-116092295D02*
X209337190Y-116092295D01*
X209337190Y-116092295D02*
X209413381Y-116054200D01*
X209413381Y-116054200D02*
X209451476Y-116016104D01*
X209451476Y-116016104D02*
X209489571Y-115939914D01*
X209489571Y-115939914D02*
X209527667Y-115787533D01*
X209527667Y-115787533D02*
X209527667Y-115597057D01*
X209527667Y-115597057D02*
X209489571Y-115444676D01*
X209489571Y-115444676D02*
X209451476Y-115368485D01*
X209451476Y-115368485D02*
X209413381Y-115330390D01*
X209413381Y-115330390D02*
X209337190Y-115292295D01*
X208765762Y-115368485D02*
X208727666Y-115330390D01*
X208727666Y-115330390D02*
X208651476Y-115292295D01*
X208651476Y-115292295D02*
X208461000Y-115292295D01*
X208461000Y-115292295D02*
X208384809Y-115330390D01*
X208384809Y-115330390D02*
X208346714Y-115368485D01*
X208346714Y-115368485D02*
X208308619Y-115444676D01*
X208308619Y-115444676D02*
X208308619Y-115520866D01*
X208308619Y-115520866D02*
X208346714Y-115635152D01*
X208346714Y-115635152D02*
X208803857Y-116092295D01*
X208803857Y-116092295D02*
X208308619Y-116092295D01*
X207927666Y-116092295D02*
X207775285Y-116092295D01*
X207775285Y-116092295D02*
X207699095Y-116054200D01*
X207699095Y-116054200D02*
X207660999Y-116016104D01*
X207660999Y-116016104D02*
X207584809Y-115901819D01*
X207584809Y-115901819D02*
X207546714Y-115749438D01*
X207546714Y-115749438D02*
X207546714Y-115444676D01*
X207546714Y-115444676D02*
X207584809Y-115368485D01*
X207584809Y-115368485D02*
X207622904Y-115330390D01*
X207622904Y-115330390D02*
X207699095Y-115292295D01*
X207699095Y-115292295D02*
X207851476Y-115292295D01*
X207851476Y-115292295D02*
X207927666Y-115330390D01*
X207927666Y-115330390D02*
X207965761Y-115368485D01*
X207965761Y-115368485D02*
X208003857Y-115444676D01*
X208003857Y-115444676D02*
X208003857Y-115635152D01*
X208003857Y-115635152D02*
X207965761Y-115711342D01*
X207965761Y-115711342D02*
X207927666Y-115749438D01*
X207927666Y-115749438D02*
X207851476Y-115787533D01*
X207851476Y-115787533D02*
X207699095Y-115787533D01*
X207699095Y-115787533D02*
X207622904Y-115749438D01*
X207622904Y-115749438D02*
X207584809Y-115711342D01*
X207584809Y-115711342D02*
X207546714Y-115635152D01*
X209337190Y-117832295D02*
X209261000Y-117832295D01*
X209261000Y-117832295D02*
X209184809Y-117870390D01*
X209184809Y-117870390D02*
X209146714Y-117908485D01*
X209146714Y-117908485D02*
X209108619Y-117984676D01*
X209108619Y-117984676D02*
X209070524Y-118137057D01*
X209070524Y-118137057D02*
X209070524Y-118327533D01*
X209070524Y-118327533D02*
X209108619Y-118479914D01*
X209108619Y-118479914D02*
X209146714Y-118556104D01*
X209146714Y-118556104D02*
X209184809Y-118594200D01*
X209184809Y-118594200D02*
X209261000Y-118632295D01*
X209261000Y-118632295D02*
X209337190Y-118632295D01*
X209337190Y-118632295D02*
X209413381Y-118594200D01*
X209413381Y-118594200D02*
X209451476Y-118556104D01*
X209451476Y-118556104D02*
X209489571Y-118479914D01*
X209489571Y-118479914D02*
X209527667Y-118327533D01*
X209527667Y-118327533D02*
X209527667Y-118137057D01*
X209527667Y-118137057D02*
X209489571Y-117984676D01*
X209489571Y-117984676D02*
X209451476Y-117908485D01*
X209451476Y-117908485D02*
X209413381Y-117870390D01*
X209413381Y-117870390D02*
X209337190Y-117832295D01*
X208575285Y-117832295D02*
X208499095Y-117832295D01*
X208499095Y-117832295D02*
X208422904Y-117870390D01*
X208422904Y-117870390D02*
X208384809Y-117908485D01*
X208384809Y-117908485D02*
X208346714Y-117984676D01*
X208346714Y-117984676D02*
X208308619Y-118137057D01*
X208308619Y-118137057D02*
X208308619Y-118327533D01*
X208308619Y-118327533D02*
X208346714Y-118479914D01*
X208346714Y-118479914D02*
X208384809Y-118556104D01*
X208384809Y-118556104D02*
X208422904Y-118594200D01*
X208422904Y-118594200D02*
X208499095Y-118632295D01*
X208499095Y-118632295D02*
X208575285Y-118632295D01*
X208575285Y-118632295D02*
X208651476Y-118594200D01*
X208651476Y-118594200D02*
X208689571Y-118556104D01*
X208689571Y-118556104D02*
X208727666Y-118479914D01*
X208727666Y-118479914D02*
X208765762Y-118327533D01*
X208765762Y-118327533D02*
X208765762Y-118137057D01*
X208765762Y-118137057D02*
X208727666Y-117984676D01*
X208727666Y-117984676D02*
X208689571Y-117908485D01*
X208689571Y-117908485D02*
X208651476Y-117870390D01*
X208651476Y-117870390D02*
X208575285Y-117832295D01*
X208003857Y-117908485D02*
X207965761Y-117870390D01*
X207965761Y-117870390D02*
X207889571Y-117832295D01*
X207889571Y-117832295D02*
X207699095Y-117832295D01*
X207699095Y-117832295D02*
X207622904Y-117870390D01*
X207622904Y-117870390D02*
X207584809Y-117908485D01*
X207584809Y-117908485D02*
X207546714Y-117984676D01*
X207546714Y-117984676D02*
X207546714Y-118060866D01*
X207546714Y-118060866D02*
X207584809Y-118175152D01*
X207584809Y-118175152D02*
X208041952Y-118632295D01*
X208041952Y-118632295D02*
X207546714Y-118632295D01*
X209070524Y-121172295D02*
X209527667Y-121172295D01*
X209299095Y-121172295D02*
X209299095Y-120372295D01*
X209299095Y-120372295D02*
X209375286Y-120486580D01*
X209375286Y-120486580D02*
X209451476Y-120562771D01*
X209451476Y-120562771D02*
X209527667Y-120600866D01*
X208308619Y-121172295D02*
X208765762Y-121172295D01*
X208537190Y-121172295D02*
X208537190Y-120372295D01*
X208537190Y-120372295D02*
X208613381Y-120486580D01*
X208613381Y-120486580D02*
X208689571Y-120562771D01*
X208689571Y-120562771D02*
X208765762Y-120600866D01*
X207584809Y-120372295D02*
X207965761Y-120372295D01*
X207965761Y-120372295D02*
X208003857Y-120753247D01*
X208003857Y-120753247D02*
X207965761Y-120715152D01*
X207965761Y-120715152D02*
X207889571Y-120677057D01*
X207889571Y-120677057D02*
X207699095Y-120677057D01*
X207699095Y-120677057D02*
X207622904Y-120715152D01*
X207622904Y-120715152D02*
X207584809Y-120753247D01*
X207584809Y-120753247D02*
X207546714Y-120829438D01*
X207546714Y-120829438D02*
X207546714Y-121019914D01*
X207546714Y-121019914D02*
X207584809Y-121096104D01*
X207584809Y-121096104D02*
X207622904Y-121134200D01*
X207622904Y-121134200D02*
X207699095Y-121172295D01*
X207699095Y-121172295D02*
X207889571Y-121172295D01*
X207889571Y-121172295D02*
X207965761Y-121134200D01*
X207965761Y-121134200D02*
X208003857Y-121096104D01*
X209070524Y-123712295D02*
X209527667Y-123712295D01*
X209299095Y-123712295D02*
X209299095Y-122912295D01*
X209299095Y-122912295D02*
X209375286Y-123026580D01*
X209375286Y-123026580D02*
X209451476Y-123102771D01*
X209451476Y-123102771D02*
X209527667Y-123140866D01*
X208308619Y-123712295D02*
X208765762Y-123712295D01*
X208537190Y-123712295D02*
X208537190Y-122912295D01*
X208537190Y-122912295D02*
X208613381Y-123026580D01*
X208613381Y-123026580D02*
X208689571Y-123102771D01*
X208689571Y-123102771D02*
X208765762Y-123140866D01*
X208041952Y-122912295D02*
X207546714Y-122912295D01*
X207546714Y-122912295D02*
X207813380Y-123217057D01*
X207813380Y-123217057D02*
X207699095Y-123217057D01*
X207699095Y-123217057D02*
X207622904Y-123255152D01*
X207622904Y-123255152D02*
X207584809Y-123293247D01*
X207584809Y-123293247D02*
X207546714Y-123369438D01*
X207546714Y-123369438D02*
X207546714Y-123559914D01*
X207546714Y-123559914D02*
X207584809Y-123636104D01*
X207584809Y-123636104D02*
X207622904Y-123674200D01*
X207622904Y-123674200D02*
X207699095Y-123712295D01*
X207699095Y-123712295D02*
X207927666Y-123712295D01*
X207927666Y-123712295D02*
X208003857Y-123674200D01*
X208003857Y-123674200D02*
X208041952Y-123636104D01*
X209070524Y-126252295D02*
X209527667Y-126252295D01*
X209299095Y-126252295D02*
X209299095Y-125452295D01*
X209299095Y-125452295D02*
X209375286Y-125566580D01*
X209375286Y-125566580D02*
X209451476Y-125642771D01*
X209451476Y-125642771D02*
X209527667Y-125680866D01*
X208308619Y-126252295D02*
X208765762Y-126252295D01*
X208537190Y-126252295D02*
X208537190Y-125452295D01*
X208537190Y-125452295D02*
X208613381Y-125566580D01*
X208613381Y-125566580D02*
X208689571Y-125642771D01*
X208689571Y-125642771D02*
X208765762Y-125680866D01*
X207546714Y-126252295D02*
X208003857Y-126252295D01*
X207775285Y-126252295D02*
X207775285Y-125452295D01*
X207775285Y-125452295D02*
X207851476Y-125566580D01*
X207851476Y-125566580D02*
X207927666Y-125642771D01*
X207927666Y-125642771D02*
X208003857Y-125680866D01*
X209337190Y-127992295D02*
X209261000Y-127992295D01*
X209261000Y-127992295D02*
X209184809Y-128030390D01*
X209184809Y-128030390D02*
X209146714Y-128068485D01*
X209146714Y-128068485D02*
X209108619Y-128144676D01*
X209108619Y-128144676D02*
X209070524Y-128297057D01*
X209070524Y-128297057D02*
X209070524Y-128487533D01*
X209070524Y-128487533D02*
X209108619Y-128639914D01*
X209108619Y-128639914D02*
X209146714Y-128716104D01*
X209146714Y-128716104D02*
X209184809Y-128754200D01*
X209184809Y-128754200D02*
X209261000Y-128792295D01*
X209261000Y-128792295D02*
X209337190Y-128792295D01*
X209337190Y-128792295D02*
X209413381Y-128754200D01*
X209413381Y-128754200D02*
X209451476Y-128716104D01*
X209451476Y-128716104D02*
X209489571Y-128639914D01*
X209489571Y-128639914D02*
X209527667Y-128487533D01*
X209527667Y-128487533D02*
X209527667Y-128297057D01*
X209527667Y-128297057D02*
X209489571Y-128144676D01*
X209489571Y-128144676D02*
X209451476Y-128068485D01*
X209451476Y-128068485D02*
X209413381Y-128030390D01*
X209413381Y-128030390D02*
X209337190Y-127992295D01*
X208308619Y-128792295D02*
X208765762Y-128792295D01*
X208537190Y-128792295D02*
X208537190Y-127992295D01*
X208537190Y-127992295D02*
X208613381Y-128106580D01*
X208613381Y-128106580D02*
X208689571Y-128182771D01*
X208689571Y-128182771D02*
X208765762Y-128220866D01*
X207813380Y-127992295D02*
X207737190Y-127992295D01*
X207737190Y-127992295D02*
X207660999Y-128030390D01*
X207660999Y-128030390D02*
X207622904Y-128068485D01*
X207622904Y-128068485D02*
X207584809Y-128144676D01*
X207584809Y-128144676D02*
X207546714Y-128297057D01*
X207546714Y-128297057D02*
X207546714Y-128487533D01*
X207546714Y-128487533D02*
X207584809Y-128639914D01*
X207584809Y-128639914D02*
X207622904Y-128716104D01*
X207622904Y-128716104D02*
X207660999Y-128754200D01*
X207660999Y-128754200D02*
X207737190Y-128792295D01*
X207737190Y-128792295D02*
X207813380Y-128792295D01*
X207813380Y-128792295D02*
X207889571Y-128754200D01*
X207889571Y-128754200D02*
X207927666Y-128716104D01*
X207927666Y-128716104D02*
X207965761Y-128639914D01*
X207965761Y-128639914D02*
X208003857Y-128487533D01*
X208003857Y-128487533D02*
X208003857Y-128297057D01*
X208003857Y-128297057D02*
X207965761Y-128144676D01*
X207965761Y-128144676D02*
X207927666Y-128068485D01*
X207927666Y-128068485D02*
X207889571Y-128030390D01*
X207889571Y-128030390D02*
X207813380Y-127992295D01*
X198262809Y-102592295D02*
X198186619Y-102592295D01*
X198186619Y-102592295D02*
X198110428Y-102630390D01*
X198110428Y-102630390D02*
X198072333Y-102668485D01*
X198072333Y-102668485D02*
X198034238Y-102744676D01*
X198034238Y-102744676D02*
X197996143Y-102897057D01*
X197996143Y-102897057D02*
X197996143Y-103087533D01*
X197996143Y-103087533D02*
X198034238Y-103239914D01*
X198034238Y-103239914D02*
X198072333Y-103316104D01*
X198072333Y-103316104D02*
X198110428Y-103354200D01*
X198110428Y-103354200D02*
X198186619Y-103392295D01*
X198186619Y-103392295D02*
X198262809Y-103392295D01*
X198262809Y-103392295D02*
X198339000Y-103354200D01*
X198339000Y-103354200D02*
X198377095Y-103316104D01*
X198377095Y-103316104D02*
X198415190Y-103239914D01*
X198415190Y-103239914D02*
X198453286Y-103087533D01*
X198453286Y-103087533D02*
X198453286Y-102897057D01*
X198453286Y-102897057D02*
X198415190Y-102744676D01*
X198415190Y-102744676D02*
X198377095Y-102668485D01*
X198377095Y-102668485D02*
X198339000Y-102630390D01*
X198339000Y-102630390D02*
X198262809Y-102592295D01*
X197500904Y-102592295D02*
X197424714Y-102592295D01*
X197424714Y-102592295D02*
X197348523Y-102630390D01*
X197348523Y-102630390D02*
X197310428Y-102668485D01*
X197310428Y-102668485D02*
X197272333Y-102744676D01*
X197272333Y-102744676D02*
X197234238Y-102897057D01*
X197234238Y-102897057D02*
X197234238Y-103087533D01*
X197234238Y-103087533D02*
X197272333Y-103239914D01*
X197272333Y-103239914D02*
X197310428Y-103316104D01*
X197310428Y-103316104D02*
X197348523Y-103354200D01*
X197348523Y-103354200D02*
X197424714Y-103392295D01*
X197424714Y-103392295D02*
X197500904Y-103392295D01*
X197500904Y-103392295D02*
X197577095Y-103354200D01*
X197577095Y-103354200D02*
X197615190Y-103316104D01*
X197615190Y-103316104D02*
X197653285Y-103239914D01*
X197653285Y-103239914D02*
X197691381Y-103087533D01*
X197691381Y-103087533D02*
X197691381Y-102897057D01*
X197691381Y-102897057D02*
X197653285Y-102744676D01*
X197653285Y-102744676D02*
X197615190Y-102668485D01*
X197615190Y-102668485D02*
X197577095Y-102630390D01*
X197577095Y-102630390D02*
X197500904Y-102592295D01*
X196548523Y-102592295D02*
X196700904Y-102592295D01*
X196700904Y-102592295D02*
X196777095Y-102630390D01*
X196777095Y-102630390D02*
X196815190Y-102668485D01*
X196815190Y-102668485D02*
X196891380Y-102782771D01*
X196891380Y-102782771D02*
X196929476Y-102935152D01*
X196929476Y-102935152D02*
X196929476Y-103239914D01*
X196929476Y-103239914D02*
X196891380Y-103316104D01*
X196891380Y-103316104D02*
X196853285Y-103354200D01*
X196853285Y-103354200D02*
X196777095Y-103392295D01*
X196777095Y-103392295D02*
X196624714Y-103392295D01*
X196624714Y-103392295D02*
X196548523Y-103354200D01*
X196548523Y-103354200D02*
X196510428Y-103316104D01*
X196510428Y-103316104D02*
X196472333Y-103239914D01*
X196472333Y-103239914D02*
X196472333Y-103049438D01*
X196472333Y-103049438D02*
X196510428Y-102973247D01*
X196510428Y-102973247D02*
X196548523Y-102935152D01*
X196548523Y-102935152D02*
X196624714Y-102897057D01*
X196624714Y-102897057D02*
X196777095Y-102897057D01*
X196777095Y-102897057D02*
X196853285Y-102935152D01*
X196853285Y-102935152D02*
X196891380Y-102973247D01*
X196891380Y-102973247D02*
X196929476Y-103049438D01*
X198262809Y-105062295D02*
X198186619Y-105062295D01*
X198186619Y-105062295D02*
X198110428Y-105100390D01*
X198110428Y-105100390D02*
X198072333Y-105138485D01*
X198072333Y-105138485D02*
X198034238Y-105214676D01*
X198034238Y-105214676D02*
X197996143Y-105367057D01*
X197996143Y-105367057D02*
X197996143Y-105557533D01*
X197996143Y-105557533D02*
X198034238Y-105709914D01*
X198034238Y-105709914D02*
X198072333Y-105786104D01*
X198072333Y-105786104D02*
X198110428Y-105824200D01*
X198110428Y-105824200D02*
X198186619Y-105862295D01*
X198186619Y-105862295D02*
X198262809Y-105862295D01*
X198262809Y-105862295D02*
X198339000Y-105824200D01*
X198339000Y-105824200D02*
X198377095Y-105786104D01*
X198377095Y-105786104D02*
X198415190Y-105709914D01*
X198415190Y-105709914D02*
X198453286Y-105557533D01*
X198453286Y-105557533D02*
X198453286Y-105367057D01*
X198453286Y-105367057D02*
X198415190Y-105214676D01*
X198415190Y-105214676D02*
X198377095Y-105138485D01*
X198377095Y-105138485D02*
X198339000Y-105100390D01*
X198339000Y-105100390D02*
X198262809Y-105062295D01*
X197500904Y-105062295D02*
X197424714Y-105062295D01*
X197424714Y-105062295D02*
X197348523Y-105100390D01*
X197348523Y-105100390D02*
X197310428Y-105138485D01*
X197310428Y-105138485D02*
X197272333Y-105214676D01*
X197272333Y-105214676D02*
X197234238Y-105367057D01*
X197234238Y-105367057D02*
X197234238Y-105557533D01*
X197234238Y-105557533D02*
X197272333Y-105709914D01*
X197272333Y-105709914D02*
X197310428Y-105786104D01*
X197310428Y-105786104D02*
X197348523Y-105824200D01*
X197348523Y-105824200D02*
X197424714Y-105862295D01*
X197424714Y-105862295D02*
X197500904Y-105862295D01*
X197500904Y-105862295D02*
X197577095Y-105824200D01*
X197577095Y-105824200D02*
X197615190Y-105786104D01*
X197615190Y-105786104D02*
X197653285Y-105709914D01*
X197653285Y-105709914D02*
X197691381Y-105557533D01*
X197691381Y-105557533D02*
X197691381Y-105367057D01*
X197691381Y-105367057D02*
X197653285Y-105214676D01*
X197653285Y-105214676D02*
X197615190Y-105138485D01*
X197615190Y-105138485D02*
X197577095Y-105100390D01*
X197577095Y-105100390D02*
X197500904Y-105062295D01*
X196777095Y-105405152D02*
X196853285Y-105367057D01*
X196853285Y-105367057D02*
X196891380Y-105328961D01*
X196891380Y-105328961D02*
X196929476Y-105252771D01*
X196929476Y-105252771D02*
X196929476Y-105214676D01*
X196929476Y-105214676D02*
X196891380Y-105138485D01*
X196891380Y-105138485D02*
X196853285Y-105100390D01*
X196853285Y-105100390D02*
X196777095Y-105062295D01*
X196777095Y-105062295D02*
X196624714Y-105062295D01*
X196624714Y-105062295D02*
X196548523Y-105100390D01*
X196548523Y-105100390D02*
X196510428Y-105138485D01*
X196510428Y-105138485D02*
X196472333Y-105214676D01*
X196472333Y-105214676D02*
X196472333Y-105252771D01*
X196472333Y-105252771D02*
X196510428Y-105328961D01*
X196510428Y-105328961D02*
X196548523Y-105367057D01*
X196548523Y-105367057D02*
X196624714Y-105405152D01*
X196624714Y-105405152D02*
X196777095Y-105405152D01*
X196777095Y-105405152D02*
X196853285Y-105443247D01*
X196853285Y-105443247D02*
X196891380Y-105481342D01*
X196891380Y-105481342D02*
X196929476Y-105557533D01*
X196929476Y-105557533D02*
X196929476Y-105709914D01*
X196929476Y-105709914D02*
X196891380Y-105786104D01*
X196891380Y-105786104D02*
X196853285Y-105824200D01*
X196853285Y-105824200D02*
X196777095Y-105862295D01*
X196777095Y-105862295D02*
X196624714Y-105862295D01*
X196624714Y-105862295D02*
X196548523Y-105824200D01*
X196548523Y-105824200D02*
X196510428Y-105786104D01*
X196510428Y-105786104D02*
X196472333Y-105709914D01*
X196472333Y-105709914D02*
X196472333Y-105557533D01*
X196472333Y-105557533D02*
X196510428Y-105481342D01*
X196510428Y-105481342D02*
X196548523Y-105443247D01*
X196548523Y-105443247D02*
X196624714Y-105405152D01*
X198148523Y-107710390D02*
X198224713Y-107672295D01*
X198224713Y-107672295D02*
X198338999Y-107672295D01*
X198338999Y-107672295D02*
X198453285Y-107710390D01*
X198453285Y-107710390D02*
X198529475Y-107786580D01*
X198529475Y-107786580D02*
X198567570Y-107862771D01*
X198567570Y-107862771D02*
X198605666Y-108015152D01*
X198605666Y-108015152D02*
X198605666Y-108129438D01*
X198605666Y-108129438D02*
X198567570Y-108281819D01*
X198567570Y-108281819D02*
X198529475Y-108358009D01*
X198529475Y-108358009D02*
X198453285Y-108434200D01*
X198453285Y-108434200D02*
X198338999Y-108472295D01*
X198338999Y-108472295D02*
X198262808Y-108472295D01*
X198262808Y-108472295D02*
X198148523Y-108434200D01*
X198148523Y-108434200D02*
X198110427Y-108396104D01*
X198110427Y-108396104D02*
X198110427Y-108129438D01*
X198110427Y-108129438D02*
X198262808Y-108129438D01*
X197767570Y-108472295D02*
X197767570Y-107672295D01*
X197767570Y-107672295D02*
X197310427Y-108472295D01*
X197310427Y-108472295D02*
X197310427Y-107672295D01*
X196929475Y-108472295D02*
X196929475Y-107672295D01*
X196929475Y-107672295D02*
X196738999Y-107672295D01*
X196738999Y-107672295D02*
X196624713Y-107710390D01*
X196624713Y-107710390D02*
X196548523Y-107786580D01*
X196548523Y-107786580D02*
X196510428Y-107862771D01*
X196510428Y-107862771D02*
X196472332Y-108015152D01*
X196472332Y-108015152D02*
X196472332Y-108129438D01*
X196472332Y-108129438D02*
X196510428Y-108281819D01*
X196510428Y-108281819D02*
X196548523Y-108358009D01*
X196548523Y-108358009D02*
X196624713Y-108434200D01*
X196624713Y-108434200D02*
X196738999Y-108472295D01*
X196738999Y-108472295D02*
X196929475Y-108472295D01*
X198148523Y-110250390D02*
X198224713Y-110212295D01*
X198224713Y-110212295D02*
X198338999Y-110212295D01*
X198338999Y-110212295D02*
X198453285Y-110250390D01*
X198453285Y-110250390D02*
X198529475Y-110326580D01*
X198529475Y-110326580D02*
X198567570Y-110402771D01*
X198567570Y-110402771D02*
X198605666Y-110555152D01*
X198605666Y-110555152D02*
X198605666Y-110669438D01*
X198605666Y-110669438D02*
X198567570Y-110821819D01*
X198567570Y-110821819D02*
X198529475Y-110898009D01*
X198529475Y-110898009D02*
X198453285Y-110974200D01*
X198453285Y-110974200D02*
X198338999Y-111012295D01*
X198338999Y-111012295D02*
X198262808Y-111012295D01*
X198262808Y-111012295D02*
X198148523Y-110974200D01*
X198148523Y-110974200D02*
X198110427Y-110936104D01*
X198110427Y-110936104D02*
X198110427Y-110669438D01*
X198110427Y-110669438D02*
X198262808Y-110669438D01*
X197767570Y-111012295D02*
X197767570Y-110212295D01*
X197767570Y-110212295D02*
X197310427Y-111012295D01*
X197310427Y-111012295D02*
X197310427Y-110212295D01*
X196929475Y-111012295D02*
X196929475Y-110212295D01*
X196929475Y-110212295D02*
X196738999Y-110212295D01*
X196738999Y-110212295D02*
X196624713Y-110250390D01*
X196624713Y-110250390D02*
X196548523Y-110326580D01*
X196548523Y-110326580D02*
X196510428Y-110402771D01*
X196510428Y-110402771D02*
X196472332Y-110555152D01*
X196472332Y-110555152D02*
X196472332Y-110669438D01*
X196472332Y-110669438D02*
X196510428Y-110821819D01*
X196510428Y-110821819D02*
X196548523Y-110898009D01*
X196548523Y-110898009D02*
X196624713Y-110974200D01*
X196624713Y-110974200D02*
X196738999Y-111012295D01*
X196738999Y-111012295D02*
X196929475Y-111012295D01*
X198262809Y-112762295D02*
X198186619Y-112762295D01*
X198186619Y-112762295D02*
X198110428Y-112800390D01*
X198110428Y-112800390D02*
X198072333Y-112838485D01*
X198072333Y-112838485D02*
X198034238Y-112914676D01*
X198034238Y-112914676D02*
X197996143Y-113067057D01*
X197996143Y-113067057D02*
X197996143Y-113257533D01*
X197996143Y-113257533D02*
X198034238Y-113409914D01*
X198034238Y-113409914D02*
X198072333Y-113486104D01*
X198072333Y-113486104D02*
X198110428Y-113524200D01*
X198110428Y-113524200D02*
X198186619Y-113562295D01*
X198186619Y-113562295D02*
X198262809Y-113562295D01*
X198262809Y-113562295D02*
X198339000Y-113524200D01*
X198339000Y-113524200D02*
X198377095Y-113486104D01*
X198377095Y-113486104D02*
X198415190Y-113409914D01*
X198415190Y-113409914D02*
X198453286Y-113257533D01*
X198453286Y-113257533D02*
X198453286Y-113067057D01*
X198453286Y-113067057D02*
X198415190Y-112914676D01*
X198415190Y-112914676D02*
X198377095Y-112838485D01*
X198377095Y-112838485D02*
X198339000Y-112800390D01*
X198339000Y-112800390D02*
X198262809Y-112762295D01*
X197234238Y-113562295D02*
X197691381Y-113562295D01*
X197462809Y-113562295D02*
X197462809Y-112762295D01*
X197462809Y-112762295D02*
X197539000Y-112876580D01*
X197539000Y-112876580D02*
X197615190Y-112952771D01*
X197615190Y-112952771D02*
X197691381Y-112990866D01*
X196967571Y-112762295D02*
X196434237Y-112762295D01*
X196434237Y-112762295D02*
X196777095Y-113562295D01*
X198262809Y-115362295D02*
X198186619Y-115362295D01*
X198186619Y-115362295D02*
X198110428Y-115400390D01*
X198110428Y-115400390D02*
X198072333Y-115438485D01*
X198072333Y-115438485D02*
X198034238Y-115514676D01*
X198034238Y-115514676D02*
X197996143Y-115667057D01*
X197996143Y-115667057D02*
X197996143Y-115857533D01*
X197996143Y-115857533D02*
X198034238Y-116009914D01*
X198034238Y-116009914D02*
X198072333Y-116086104D01*
X198072333Y-116086104D02*
X198110428Y-116124200D01*
X198110428Y-116124200D02*
X198186619Y-116162295D01*
X198186619Y-116162295D02*
X198262809Y-116162295D01*
X198262809Y-116162295D02*
X198339000Y-116124200D01*
X198339000Y-116124200D02*
X198377095Y-116086104D01*
X198377095Y-116086104D02*
X198415190Y-116009914D01*
X198415190Y-116009914D02*
X198453286Y-115857533D01*
X198453286Y-115857533D02*
X198453286Y-115667057D01*
X198453286Y-115667057D02*
X198415190Y-115514676D01*
X198415190Y-115514676D02*
X198377095Y-115438485D01*
X198377095Y-115438485D02*
X198339000Y-115400390D01*
X198339000Y-115400390D02*
X198262809Y-115362295D01*
X197691381Y-115438485D02*
X197653285Y-115400390D01*
X197653285Y-115400390D02*
X197577095Y-115362295D01*
X197577095Y-115362295D02*
X197386619Y-115362295D01*
X197386619Y-115362295D02*
X197310428Y-115400390D01*
X197310428Y-115400390D02*
X197272333Y-115438485D01*
X197272333Y-115438485D02*
X197234238Y-115514676D01*
X197234238Y-115514676D02*
X197234238Y-115590866D01*
X197234238Y-115590866D02*
X197272333Y-115705152D01*
X197272333Y-115705152D02*
X197729476Y-116162295D01*
X197729476Y-116162295D02*
X197234238Y-116162295D01*
X196738999Y-115362295D02*
X196662809Y-115362295D01*
X196662809Y-115362295D02*
X196586618Y-115400390D01*
X196586618Y-115400390D02*
X196548523Y-115438485D01*
X196548523Y-115438485D02*
X196510428Y-115514676D01*
X196510428Y-115514676D02*
X196472333Y-115667057D01*
X196472333Y-115667057D02*
X196472333Y-115857533D01*
X196472333Y-115857533D02*
X196510428Y-116009914D01*
X196510428Y-116009914D02*
X196548523Y-116086104D01*
X196548523Y-116086104D02*
X196586618Y-116124200D01*
X196586618Y-116124200D02*
X196662809Y-116162295D01*
X196662809Y-116162295D02*
X196738999Y-116162295D01*
X196738999Y-116162295D02*
X196815190Y-116124200D01*
X196815190Y-116124200D02*
X196853285Y-116086104D01*
X196853285Y-116086104D02*
X196891380Y-116009914D01*
X196891380Y-116009914D02*
X196929476Y-115857533D01*
X196929476Y-115857533D02*
X196929476Y-115667057D01*
X196929476Y-115667057D02*
X196891380Y-115514676D01*
X196891380Y-115514676D02*
X196853285Y-115438485D01*
X196853285Y-115438485D02*
X196815190Y-115400390D01*
X196815190Y-115400390D02*
X196738999Y-115362295D01*
X198262809Y-117862295D02*
X198186619Y-117862295D01*
X198186619Y-117862295D02*
X198110428Y-117900390D01*
X198110428Y-117900390D02*
X198072333Y-117938485D01*
X198072333Y-117938485D02*
X198034238Y-118014676D01*
X198034238Y-118014676D02*
X197996143Y-118167057D01*
X197996143Y-118167057D02*
X197996143Y-118357533D01*
X197996143Y-118357533D02*
X198034238Y-118509914D01*
X198034238Y-118509914D02*
X198072333Y-118586104D01*
X198072333Y-118586104D02*
X198110428Y-118624200D01*
X198110428Y-118624200D02*
X198186619Y-118662295D01*
X198186619Y-118662295D02*
X198262809Y-118662295D01*
X198262809Y-118662295D02*
X198339000Y-118624200D01*
X198339000Y-118624200D02*
X198377095Y-118586104D01*
X198377095Y-118586104D02*
X198415190Y-118509914D01*
X198415190Y-118509914D02*
X198453286Y-118357533D01*
X198453286Y-118357533D02*
X198453286Y-118167057D01*
X198453286Y-118167057D02*
X198415190Y-118014676D01*
X198415190Y-118014676D02*
X198377095Y-117938485D01*
X198377095Y-117938485D02*
X198339000Y-117900390D01*
X198339000Y-117900390D02*
X198262809Y-117862295D01*
X197691381Y-117938485D02*
X197653285Y-117900390D01*
X197653285Y-117900390D02*
X197577095Y-117862295D01*
X197577095Y-117862295D02*
X197386619Y-117862295D01*
X197386619Y-117862295D02*
X197310428Y-117900390D01*
X197310428Y-117900390D02*
X197272333Y-117938485D01*
X197272333Y-117938485D02*
X197234238Y-118014676D01*
X197234238Y-118014676D02*
X197234238Y-118090866D01*
X197234238Y-118090866D02*
X197272333Y-118205152D01*
X197272333Y-118205152D02*
X197729476Y-118662295D01*
X197729476Y-118662295D02*
X197234238Y-118662295D01*
X196929476Y-117938485D02*
X196891380Y-117900390D01*
X196891380Y-117900390D02*
X196815190Y-117862295D01*
X196815190Y-117862295D02*
X196624714Y-117862295D01*
X196624714Y-117862295D02*
X196548523Y-117900390D01*
X196548523Y-117900390D02*
X196510428Y-117938485D01*
X196510428Y-117938485D02*
X196472333Y-118014676D01*
X196472333Y-118014676D02*
X196472333Y-118090866D01*
X196472333Y-118090866D02*
X196510428Y-118205152D01*
X196510428Y-118205152D02*
X196967571Y-118662295D01*
X196967571Y-118662295D02*
X196472333Y-118662295D01*
X198262809Y-120372295D02*
X198186619Y-120372295D01*
X198186619Y-120372295D02*
X198110428Y-120410390D01*
X198110428Y-120410390D02*
X198072333Y-120448485D01*
X198072333Y-120448485D02*
X198034238Y-120524676D01*
X198034238Y-120524676D02*
X197996143Y-120677057D01*
X197996143Y-120677057D02*
X197996143Y-120867533D01*
X197996143Y-120867533D02*
X198034238Y-121019914D01*
X198034238Y-121019914D02*
X198072333Y-121096104D01*
X198072333Y-121096104D02*
X198110428Y-121134200D01*
X198110428Y-121134200D02*
X198186619Y-121172295D01*
X198186619Y-121172295D02*
X198262809Y-121172295D01*
X198262809Y-121172295D02*
X198339000Y-121134200D01*
X198339000Y-121134200D02*
X198377095Y-121096104D01*
X198377095Y-121096104D02*
X198415190Y-121019914D01*
X198415190Y-121019914D02*
X198453286Y-120867533D01*
X198453286Y-120867533D02*
X198453286Y-120677057D01*
X198453286Y-120677057D02*
X198415190Y-120524676D01*
X198415190Y-120524676D02*
X198377095Y-120448485D01*
X198377095Y-120448485D02*
X198339000Y-120410390D01*
X198339000Y-120410390D02*
X198262809Y-120372295D01*
X197691381Y-120448485D02*
X197653285Y-120410390D01*
X197653285Y-120410390D02*
X197577095Y-120372295D01*
X197577095Y-120372295D02*
X197386619Y-120372295D01*
X197386619Y-120372295D02*
X197310428Y-120410390D01*
X197310428Y-120410390D02*
X197272333Y-120448485D01*
X197272333Y-120448485D02*
X197234238Y-120524676D01*
X197234238Y-120524676D02*
X197234238Y-120600866D01*
X197234238Y-120600866D02*
X197272333Y-120715152D01*
X197272333Y-120715152D02*
X197729476Y-121172295D01*
X197729476Y-121172295D02*
X197234238Y-121172295D01*
X196548523Y-120638961D02*
X196548523Y-121172295D01*
X196738999Y-120334200D02*
X196929476Y-120905628D01*
X196929476Y-120905628D02*
X196434237Y-120905628D01*
X197996143Y-123712295D02*
X198453286Y-123712295D01*
X198224714Y-123712295D02*
X198224714Y-122912295D01*
X198224714Y-122912295D02*
X198300905Y-123026580D01*
X198300905Y-123026580D02*
X198377095Y-123102771D01*
X198377095Y-123102771D02*
X198453286Y-123140866D01*
X197500904Y-122912295D02*
X197424714Y-122912295D01*
X197424714Y-122912295D02*
X197348523Y-122950390D01*
X197348523Y-122950390D02*
X197310428Y-122988485D01*
X197310428Y-122988485D02*
X197272333Y-123064676D01*
X197272333Y-123064676D02*
X197234238Y-123217057D01*
X197234238Y-123217057D02*
X197234238Y-123407533D01*
X197234238Y-123407533D02*
X197272333Y-123559914D01*
X197272333Y-123559914D02*
X197310428Y-123636104D01*
X197310428Y-123636104D02*
X197348523Y-123674200D01*
X197348523Y-123674200D02*
X197424714Y-123712295D01*
X197424714Y-123712295D02*
X197500904Y-123712295D01*
X197500904Y-123712295D02*
X197577095Y-123674200D01*
X197577095Y-123674200D02*
X197615190Y-123636104D01*
X197615190Y-123636104D02*
X197653285Y-123559914D01*
X197653285Y-123559914D02*
X197691381Y-123407533D01*
X197691381Y-123407533D02*
X197691381Y-123217057D01*
X197691381Y-123217057D02*
X197653285Y-123064676D01*
X197653285Y-123064676D02*
X197615190Y-122988485D01*
X197615190Y-122988485D02*
X197577095Y-122950390D01*
X197577095Y-122950390D02*
X197500904Y-122912295D01*
X196738999Y-122912295D02*
X196662809Y-122912295D01*
X196662809Y-122912295D02*
X196586618Y-122950390D01*
X196586618Y-122950390D02*
X196548523Y-122988485D01*
X196548523Y-122988485D02*
X196510428Y-123064676D01*
X196510428Y-123064676D02*
X196472333Y-123217057D01*
X196472333Y-123217057D02*
X196472333Y-123407533D01*
X196472333Y-123407533D02*
X196510428Y-123559914D01*
X196510428Y-123559914D02*
X196548523Y-123636104D01*
X196548523Y-123636104D02*
X196586618Y-123674200D01*
X196586618Y-123674200D02*
X196662809Y-123712295D01*
X196662809Y-123712295D02*
X196738999Y-123712295D01*
X196738999Y-123712295D02*
X196815190Y-123674200D01*
X196815190Y-123674200D02*
X196853285Y-123636104D01*
X196853285Y-123636104D02*
X196891380Y-123559914D01*
X196891380Y-123559914D02*
X196929476Y-123407533D01*
X196929476Y-123407533D02*
X196929476Y-123217057D01*
X196929476Y-123217057D02*
X196891380Y-123064676D01*
X196891380Y-123064676D02*
X196853285Y-122988485D01*
X196853285Y-122988485D02*
X196815190Y-122950390D01*
X196815190Y-122950390D02*
X196738999Y-122912295D01*
X197996143Y-128792295D02*
X198453286Y-128792295D01*
X198224714Y-128792295D02*
X198224714Y-127992295D01*
X198224714Y-127992295D02*
X198300905Y-128106580D01*
X198300905Y-128106580D02*
X198377095Y-128182771D01*
X198377095Y-128182771D02*
X198453286Y-128220866D01*
X197500904Y-127992295D02*
X197424714Y-127992295D01*
X197424714Y-127992295D02*
X197348523Y-128030390D01*
X197348523Y-128030390D02*
X197310428Y-128068485D01*
X197310428Y-128068485D02*
X197272333Y-128144676D01*
X197272333Y-128144676D02*
X197234238Y-128297057D01*
X197234238Y-128297057D02*
X197234238Y-128487533D01*
X197234238Y-128487533D02*
X197272333Y-128639914D01*
X197272333Y-128639914D02*
X197310428Y-128716104D01*
X197310428Y-128716104D02*
X197348523Y-128754200D01*
X197348523Y-128754200D02*
X197424714Y-128792295D01*
X197424714Y-128792295D02*
X197500904Y-128792295D01*
X197500904Y-128792295D02*
X197577095Y-128754200D01*
X197577095Y-128754200D02*
X197615190Y-128716104D01*
X197615190Y-128716104D02*
X197653285Y-128639914D01*
X197653285Y-128639914D02*
X197691381Y-128487533D01*
X197691381Y-128487533D02*
X197691381Y-128297057D01*
X197691381Y-128297057D02*
X197653285Y-128144676D01*
X197653285Y-128144676D02*
X197615190Y-128068485D01*
X197615190Y-128068485D02*
X197577095Y-128030390D01*
X197577095Y-128030390D02*
X197500904Y-127992295D01*
X196548523Y-128258961D02*
X196548523Y-128792295D01*
X196738999Y-127954200D02*
X196929476Y-128525628D01*
X196929476Y-128525628D02*
X196434237Y-128525628D01*
D11*
%TO.C,MCU1*%
X211890000Y-132240000D02*
X211890000Y-99220000D01*
X194110000Y-132240000D02*
X211890000Y-132240000D01*
X194110000Y-99220000D02*
X194110000Y-132240000D01*
X211890000Y-99220000D02*
X194110000Y-99220000D01*
D12*
%TO.C,D1*%
X289500000Y-164250000D02*
X289500000Y-163750000D01*
X289900000Y-164250000D02*
X289500000Y-164850000D01*
X289100000Y-164250000D02*
X289900000Y-164250000D01*
X289500000Y-164850000D02*
X289100000Y-164250000D01*
X289500000Y-164850000D02*
X290050000Y-164850000D01*
X289500000Y-164850000D02*
X288950000Y-164850000D01*
X289500000Y-165250000D02*
X289500000Y-164850000D01*
%TO.C,D2*%
X289500000Y-145250000D02*
X289500000Y-144750000D01*
X289900000Y-145250000D02*
X289500000Y-145850000D01*
X289100000Y-145250000D02*
X289900000Y-145250000D01*
X289500000Y-145850000D02*
X289100000Y-145250000D01*
X289500000Y-145850000D02*
X290050000Y-145850000D01*
X289500000Y-145850000D02*
X288950000Y-145850000D01*
X289500000Y-146250000D02*
X289500000Y-145850000D01*
%TO.C,D3*%
X289500000Y-126250000D02*
X289500000Y-125750000D01*
X289900000Y-126250000D02*
X289500000Y-126850000D01*
X289100000Y-126250000D02*
X289900000Y-126250000D01*
X289500000Y-126850000D02*
X289100000Y-126250000D01*
X289500000Y-126850000D02*
X290050000Y-126850000D01*
X289500000Y-126850000D02*
X288950000Y-126850000D01*
X289500000Y-127250000D02*
X289500000Y-126850000D01*
%TO.C,D4*%
X270500000Y-164250000D02*
X270500000Y-163750000D01*
X270900000Y-164250000D02*
X270500000Y-164850000D01*
X270100000Y-164250000D02*
X270900000Y-164250000D01*
X270500000Y-164850000D02*
X270100000Y-164250000D01*
X270500000Y-164850000D02*
X271050000Y-164850000D01*
X270500000Y-164850000D02*
X269950000Y-164850000D01*
X270500000Y-165250000D02*
X270500000Y-164850000D01*
%TO.C,D5*%
X270500000Y-145250000D02*
X270500000Y-144750000D01*
X270900000Y-145250000D02*
X270500000Y-145850000D01*
X270100000Y-145250000D02*
X270900000Y-145250000D01*
X270500000Y-145850000D02*
X270100000Y-145250000D01*
X270500000Y-145850000D02*
X271050000Y-145850000D01*
X270500000Y-145850000D02*
X269950000Y-145850000D01*
X270500000Y-146250000D02*
X270500000Y-145850000D01*
%TO.C,D6*%
X270500000Y-126250000D02*
X270500000Y-125750000D01*
X270900000Y-126250000D02*
X270500000Y-126850000D01*
X270100000Y-126250000D02*
X270900000Y-126250000D01*
X270500000Y-126850000D02*
X270100000Y-126250000D01*
X270500000Y-126850000D02*
X271050000Y-126850000D01*
X270500000Y-126850000D02*
X269950000Y-126850000D01*
X270500000Y-127250000D02*
X270500000Y-126850000D01*
%TO.C,D7*%
X251500000Y-156250000D02*
X251500000Y-155750000D01*
X251900000Y-156250000D02*
X251500000Y-156850000D01*
X251100000Y-156250000D02*
X251900000Y-156250000D01*
X251500000Y-156850000D02*
X251100000Y-156250000D01*
X251500000Y-156850000D02*
X252050000Y-156850000D01*
X251500000Y-156850000D02*
X250950000Y-156850000D01*
X251500000Y-157250000D02*
X251500000Y-156850000D01*
%TO.C,D8*%
X251500000Y-137250000D02*
X251500000Y-136750000D01*
X251900000Y-137250000D02*
X251500000Y-137850000D01*
X251100000Y-137250000D02*
X251900000Y-137250000D01*
X251500000Y-137850000D02*
X251100000Y-137250000D01*
X251500000Y-137850000D02*
X252050000Y-137850000D01*
X251500000Y-137850000D02*
X250950000Y-137850000D01*
X251500000Y-138250000D02*
X251500000Y-137850000D01*
%TO.C,D9*%
X251500000Y-118250000D02*
X251500000Y-117750000D01*
X251900000Y-118250000D02*
X251500000Y-118850000D01*
X251100000Y-118250000D02*
X251900000Y-118250000D01*
X251500000Y-118850000D02*
X251100000Y-118250000D01*
X251500000Y-118850000D02*
X252050000Y-118850000D01*
X251500000Y-118850000D02*
X250950000Y-118850000D01*
X251500000Y-119250000D02*
X251500000Y-118850000D01*
%TO.C,D10*%
X232500000Y-151250000D02*
X232500000Y-150750000D01*
X232900000Y-151250000D02*
X232500000Y-151850000D01*
X232100000Y-151250000D02*
X232900000Y-151250000D01*
X232500000Y-151850000D02*
X232100000Y-151250000D01*
X232500000Y-151850000D02*
X233050000Y-151850000D01*
X232500000Y-151850000D02*
X231950000Y-151850000D01*
X232500000Y-152250000D02*
X232500000Y-151850000D01*
%TO.C,D11*%
X232500000Y-132250000D02*
X232500000Y-131750000D01*
X232900000Y-132250000D02*
X232500000Y-132850000D01*
X232100000Y-132250000D02*
X232900000Y-132250000D01*
X232500000Y-132850000D02*
X232100000Y-132250000D01*
X232500000Y-132850000D02*
X233050000Y-132850000D01*
X232500000Y-132850000D02*
X231950000Y-132850000D01*
X232500000Y-133250000D02*
X232500000Y-132850000D01*
%TO.C,D12*%
X232500000Y-113250000D02*
X232500000Y-112750000D01*
X232900000Y-113250000D02*
X232500000Y-113850000D01*
X232100000Y-113250000D02*
X232900000Y-113250000D01*
X232500000Y-113850000D02*
X232100000Y-113250000D01*
X232500000Y-113850000D02*
X233050000Y-113850000D01*
X232500000Y-113850000D02*
X231950000Y-113850000D01*
X232500000Y-114250000D02*
X232500000Y-113850000D01*
%TO.C,D13*%
X213500000Y-156250000D02*
X213500000Y-155750000D01*
X213900000Y-156250000D02*
X213500000Y-156850000D01*
X213100000Y-156250000D02*
X213900000Y-156250000D01*
X213500000Y-156850000D02*
X213100000Y-156250000D01*
X213500000Y-156850000D02*
X214050000Y-156850000D01*
X213500000Y-156850000D02*
X212950000Y-156850000D01*
X213500000Y-157250000D02*
X213500000Y-156850000D01*
%TO.C,D14*%
X194500000Y-159250000D02*
X194500000Y-158750000D01*
X194900000Y-159250000D02*
X194500000Y-159850000D01*
X194100000Y-159250000D02*
X194900000Y-159250000D01*
X194500000Y-159850000D02*
X194100000Y-159250000D01*
X194500000Y-159850000D02*
X195050000Y-159850000D01*
X194500000Y-159850000D02*
X193950000Y-159850000D01*
X194500000Y-160250000D02*
X194500000Y-159850000D01*
%TO.C,D15*%
X223000000Y-180000000D02*
X223000000Y-179500000D01*
X223400000Y-180000000D02*
X223000000Y-180600000D01*
X222600000Y-180000000D02*
X223400000Y-180000000D01*
X223000000Y-180600000D02*
X222600000Y-180000000D01*
X223000000Y-180600000D02*
X223550000Y-180600000D01*
X223000000Y-180600000D02*
X222450000Y-180600000D01*
X223000000Y-181000000D02*
X223000000Y-180600000D01*
%TO.C,D16*%
X201972017Y-183400493D02*
X201902430Y-182905359D01*
X202368124Y-183344824D02*
X202055521Y-183994654D01*
X201575909Y-183456162D02*
X202368124Y-183344824D01*
X202055521Y-183994654D02*
X201575909Y-183456162D01*
X202055521Y-183994654D02*
X202600168Y-183918109D01*
X202055521Y-183994654D02*
X201510873Y-184071199D01*
X202111190Y-184390761D02*
X202055521Y-183994654D01*
%TO.C,D17*%
X179296226Y-186521758D02*
X179100861Y-186061505D01*
X179664428Y-186365465D02*
X179530665Y-187074061D01*
X178928024Y-186678050D02*
X179664428Y-186365465D01*
X179530665Y-187074061D02*
X178928024Y-186678050D01*
X179530665Y-187074061D02*
X180036943Y-186859159D01*
X179530665Y-187074061D02*
X179024387Y-187288963D01*
X179686957Y-187442263D02*
X179530665Y-187074061D01*
%TO.C,D18*%
X198250000Y-144000000D02*
X197750000Y-144000000D01*
X198250000Y-143600000D02*
X198850000Y-144000000D01*
X198250000Y-144400000D02*
X198250000Y-143600000D01*
X198850000Y-144000000D02*
X198250000Y-144400000D01*
X198850000Y-144000000D02*
X198850000Y-143450000D01*
X198850000Y-144000000D02*
X198850000Y-144550000D01*
X199250000Y-144000000D02*
X198850000Y-144000000D01*
%TO.C,D19*%
X198500000Y-118750000D02*
X198500000Y-118250000D01*
X198900000Y-118750000D02*
X198500000Y-119350000D01*
X198100000Y-118750000D02*
X198900000Y-118750000D01*
X198500000Y-119350000D02*
X198100000Y-118750000D01*
X198500000Y-119350000D02*
X199050000Y-119350000D01*
X198500000Y-119350000D02*
X197950000Y-119350000D01*
X198500000Y-119750000D02*
X198500000Y-119350000D01*
%TO.C,D20*%
X216500000Y-119250000D02*
X216500000Y-118750000D01*
X216900000Y-119250000D02*
X216500000Y-119850000D01*
X216100000Y-119250000D02*
X216900000Y-119250000D01*
X216500000Y-119850000D02*
X216100000Y-119250000D01*
X216500000Y-119850000D02*
X217050000Y-119850000D01*
X216500000Y-119850000D02*
X215950000Y-119850000D01*
X216500000Y-120250000D02*
X216500000Y-119850000D01*
%TO.C,D21*%
X213500000Y-137250000D02*
X213500000Y-136750000D01*
X213900000Y-137250000D02*
X213500000Y-137850000D01*
X213100000Y-137250000D02*
X213900000Y-137250000D01*
X213500000Y-137850000D02*
X213100000Y-137250000D01*
X213500000Y-137850000D02*
X214050000Y-137850000D01*
X213500000Y-137850000D02*
X212950000Y-137850000D01*
X213500000Y-138250000D02*
X213500000Y-137850000D01*
D10*
%TO.C,JST1*%
X255750000Y-105750000D02*
X257350000Y-105750000D01*
X257350000Y-105750000D02*
X257350000Y-105050000D01*
X257350000Y-105050000D02*
X249750000Y-105050000D01*
X249750000Y-105050000D02*
X249750000Y-110950000D01*
X249750000Y-110950000D02*
X257350000Y-110950000D01*
X257350000Y-110950000D02*
X257350000Y-110250000D01*
X257350000Y-110250000D02*
X255750000Y-110250000D01*
X255750000Y-110250000D02*
X255750000Y-105750000D01*
X254500000Y-107000000D02*
X254000000Y-107000000D01*
X254250000Y-106750000D02*
X254250000Y-107250000D01*
%TO.C,T1*%
X216950000Y-98150000D02*
X213050000Y-98150000D01*
X215000000Y-98150000D02*
X211700000Y-98150000D01*
X211700000Y-98150000D02*
X211700000Y-101000000D01*
X211700000Y-101000000D02*
X218300000Y-101000000D01*
X218300000Y-101000000D02*
X218300000Y-98150000D01*
X215000000Y-98150000D02*
X218300000Y-98150000D01*
%TD*%
D13*
%TO.C,MCU1*%
X195380000Y-103030000D03*
X195380000Y-105570000D03*
X195380000Y-108110000D03*
X195380000Y-110650000D03*
X195380000Y-113190000D03*
X195380000Y-115730000D03*
X195380000Y-118270000D03*
X195380000Y-120810000D03*
X195380000Y-123350000D03*
X195380000Y-125890000D03*
X195380000Y-128430000D03*
X195380000Y-130970000D03*
X210620000Y-130970000D03*
X210620000Y-128430000D03*
X210620000Y-125890000D03*
X210620000Y-123350000D03*
X210620000Y-120810000D03*
X210620000Y-118270000D03*
X210620000Y-115730000D03*
X210620000Y-113190000D03*
X210620000Y-110650000D03*
X210620000Y-108110000D03*
X210620000Y-105570000D03*
X210620000Y-103030000D03*
X197920000Y-125890000D03*
X200460000Y-125890000D03*
X203000000Y-125890000D03*
%TD*%
M02*
