%TF.GenerationSoftware,KiCad,Pcbnew,8.0.6*%
%TF.CreationDate,2024-12-23T22:30:20+01:00*%
%TF.ProjectId,right,72696768-742e-46b6-9963-61645f706362,v1.0.0*%
%TF.SameCoordinates,Original*%
%TF.FileFunction,Profile,NP*%
%FSLAX46Y46*%
G04 Gerber Fmt 4.6, Leading zero omitted, Abs format (unit mm)*
G04 Created by KiCad (PCBNEW 8.0.6) date 2024-12-23 22:30:20*
%MOMM*%
%LPD*%
G01*
G04 APERTURE LIST*
%TA.AperFunction,Profile*%
%ADD10C,0.150000*%
%TD*%
G04 APERTURE END LIST*
D10*
X249838230Y-171500000D02*
X306500000Y-171500000D01*
X308500000Y-169500000D02*
X308500000Y-112500000D01*
X306500000Y-110500000D02*
X272500000Y-110500000D01*
X270500000Y-108500000D02*
X270500000Y-104500000D01*
X268500000Y-102500000D02*
X253500000Y-102500000D01*
X251500000Y-100500000D02*
X251500000Y-99500000D01*
X249500000Y-97500000D02*
X230500000Y-97500000D01*
X228500000Y-99500000D02*
X228500000Y-100500000D01*
X226500000Y-102500000D02*
X223000000Y-102500000D01*
X221000000Y-100500000D02*
X221000000Y-99500000D01*
X219000000Y-97500000D02*
X192500000Y-97500000D01*
X190500000Y-99500000D02*
X190500000Y-155804840D01*
X190068841Y-157045298D02*
X187251784Y-160608107D01*
X186464405Y-161208658D02*
X169445229Y-168432870D01*
X168385681Y-171055342D02*
X179521518Y-197289730D01*
X182143990Y-198349278D02*
X199380530Y-191032801D01*
X199906231Y-190890231D02*
X210352484Y-189543301D01*
X210463894Y-189532096D02*
X240767150Y-187339215D01*
X242471547Y-186107406D02*
X247989482Y-172737025D01*
X308500000Y-169500000D02*
G75*
G02*
X306500000Y-171500000I-2000000J0D01*
G01*
X306500000Y-110500000D02*
G75*
G02*
X308500000Y-112500000I0J-2000000D01*
G01*
X272500000Y-110500000D02*
G75*
G02*
X270500000Y-108500000I0J2000000D01*
G01*
X268500000Y-102500000D02*
G75*
G02*
X270500000Y-104500000I0J-2000000D01*
G01*
X253500000Y-102500000D02*
G75*
G02*
X251500000Y-100500000I0J2000000D01*
G01*
X249500000Y-97500000D02*
G75*
G02*
X251500000Y-99500000I0J-2000000D01*
G01*
X228500000Y-99500000D02*
G75*
G02*
X230500000Y-97500000I2000000J0D01*
G01*
X228500000Y-100500000D02*
G75*
G02*
X226500000Y-102500000I-2000000J0D01*
G01*
X223000000Y-102500000D02*
G75*
G02*
X221000000Y-100500000I0J2000000D01*
G01*
X219000000Y-97500000D02*
G75*
G02*
X221000000Y-99500000I0J-2000000D01*
G01*
X190500000Y-99500000D02*
G75*
G02*
X192500000Y-97500000I2000000J0D01*
G01*
X190500000Y-155804840D02*
G75*
G02*
X190068841Y-157045298I-2000000J0D01*
G01*
X187251784Y-160608106D02*
G75*
G02*
X186464405Y-161208658I-1568842J1240457D01*
G01*
X168385681Y-171055342D02*
G75*
G02*
X169445229Y-168432870I1841010J781462D01*
G01*
X182143990Y-198349278D02*
G75*
G02*
X179521518Y-197289730I-781462J1841010D01*
G01*
X199380530Y-191032800D02*
G75*
G02*
X199906231Y-190890231I781462J-1841010D01*
G01*
X210352485Y-189543301D02*
G75*
G02*
X210463894Y-189532096I255760J-1983579D01*
G01*
X242471547Y-186107407D02*
G75*
G02*
X240767150Y-187339215I-1848748J762976D01*
G01*
X247989482Y-172737025D02*
G75*
G02*
X249838230Y-171500000I1848748J-762975D01*
G01*
M02*
