%TF.GenerationSoftware,KiCad,Pcbnew,8.0.6*%
%TF.CreationDate,2024-12-23T22:30:20+01:00*%
%TF.ProjectId,right,72696768-742e-46b6-9963-61645f706362,v1.0.0*%
%TF.SameCoordinates,Original*%
%TF.FileFunction,Soldermask,Top*%
%TF.FilePolarity,Negative*%
%FSLAX46Y46*%
G04 Gerber Fmt 4.6, Leading zero omitted, Abs format (unit mm)*
G04 Created by KiCad (PCBNEW 8.0.6) date 2024-12-23 22:30:20*
%MOMM*%
%LPD*%
G01*
G04 APERTURE LIST*
G04 Aperture macros list*
%AMRoundRect*
0 Rectangle with rounded corners*
0 $1 Rounding radius*
0 $2 $3 $4 $5 $6 $7 $8 $9 X,Y pos of 4 corners*
0 Add a 4 corners polygon primitive as box body*
4,1,4,$2,$3,$4,$5,$6,$7,$8,$9,$2,$3,0*
0 Add four circle primitives for the rounded corners*
1,1,$1+$1,$2,$3*
1,1,$1+$1,$4,$5*
1,1,$1+$1,$6,$7*
1,1,$1+$1,$8,$9*
0 Add four rect primitives between the rounded corners*
20,1,$1+$1,$2,$3,$4,$5,0*
20,1,$1+$1,$4,$5,$6,$7,0*
20,1,$1+$1,$6,$7,$8,$9,0*
20,1,$1+$1,$8,$9,$2,$3,0*%
G04 Aperture macros list end*
%ADD10C,4.087800*%
%ADD11C,1.801800*%
%ADD12C,3.100000*%
%ADD13C,1.852600*%
%ADD14RoundRect,0.050000X0.600000X-0.450000X0.600000X0.450000X-0.600000X0.450000X-0.600000X-0.450000X0*%
%ADD15RoundRect,0.050000X0.889000X-0.889000X0.889000X0.889000X-0.889000X0.889000X-0.889000X-0.889000X0*%
%ADD16C,2.005000*%
%ADD17RoundRect,0.050000X0.656789X-0.362117X0.531533X0.529124X-0.656789X0.362117X-0.531533X-0.529124X0*%
%ADD18RoundRect,0.050000X1.004073X-0.756623X0.756623X1.004073X-1.004073X0.756623X-0.756623X-1.004073X0*%
%ADD19RoundRect,0.050000X0.728132X-0.179789X0.376474X0.648666X-0.728132X0.179789X-0.376474X-0.648666X0*%
%ADD20RoundRect,0.050000X1.165689X-0.470969X0.470969X1.165689X-1.165689X0.470969X-0.470969X-1.165689X0*%
%ADD21RoundRect,0.050000X0.450000X0.600000X-0.450000X0.600000X-0.450000X-0.600000X0.450000X-0.600000X0*%
%ADD22RoundRect,0.050000X0.889000X0.889000X-0.889000X0.889000X-0.889000X-0.889000X0.889000X-0.889000X0*%
%ADD23RoundRect,0.050000X-0.850000X0.600000X-0.850000X-0.600000X0.850000X-0.600000X0.850000X0.600000X0*%
%ADD24O,1.800000X1.300000*%
%ADD25C,0.850000*%
%ADD26RoundRect,0.050000X-0.775000X-0.500000X0.775000X-0.500000X0.775000X0.500000X-0.775000X0.500000X0*%
%ADD27C,1.100000*%
G04 APERTURE END LIST*
D10*
%TO.C,S1*%
X297000000Y-160000000D03*
D11*
X297000000Y-165080000D03*
X297000000Y-154920000D03*
D12*
X302080000Y-162540000D03*
X299540000Y-156190000D03*
%TD*%
D10*
%TO.C,S2*%
X297000000Y-141000000D03*
D11*
X297000000Y-146080000D03*
X297000000Y-135920000D03*
D12*
X302080000Y-143540000D03*
X299540000Y-137190000D03*
%TD*%
D10*
%TO.C,S3*%
X297000000Y-122000000D03*
D11*
X297000000Y-127080000D03*
X297000000Y-116920000D03*
D12*
X302080000Y-124540000D03*
X299540000Y-118190000D03*
%TD*%
D10*
%TO.C,S4*%
X278000000Y-160000000D03*
D11*
X278000000Y-165080000D03*
X278000000Y-154920000D03*
D12*
X283080000Y-162540000D03*
X280540000Y-156190000D03*
%TD*%
D10*
%TO.C,S5*%
X278000000Y-141000000D03*
D11*
X278000000Y-146080000D03*
X278000000Y-135920000D03*
D12*
X283080000Y-143540000D03*
X280540000Y-137190000D03*
%TD*%
D10*
%TO.C,S6*%
X278000000Y-122000000D03*
D11*
X278000000Y-127080000D03*
X278000000Y-116920000D03*
D12*
X283080000Y-124540000D03*
X280540000Y-118190000D03*
%TD*%
D10*
%TO.C,S7*%
X259000000Y-152000000D03*
D11*
X259000000Y-157080000D03*
X259000000Y-146920000D03*
D12*
X264080000Y-154540000D03*
X261540000Y-148190000D03*
%TD*%
D10*
%TO.C,S8*%
X259000000Y-133000000D03*
D11*
X259000000Y-138080000D03*
X259000000Y-127920000D03*
D12*
X264080000Y-135540000D03*
X261540000Y-129190000D03*
%TD*%
D10*
%TO.C,S9*%
X259000000Y-114000000D03*
D11*
X259000000Y-119080000D03*
X259000000Y-108920000D03*
D12*
X264080000Y-116540000D03*
X261540000Y-110190000D03*
%TD*%
D10*
%TO.C,S10*%
X240000000Y-147000000D03*
D11*
X240000000Y-152080000D03*
X240000000Y-141920000D03*
D12*
X245080000Y-149540000D03*
X242540000Y-143190000D03*
%TD*%
D10*
%TO.C,S11*%
X240000000Y-128000000D03*
D11*
X240000000Y-133080000D03*
X240000000Y-122920000D03*
D12*
X245080000Y-130540000D03*
X242540000Y-124190000D03*
%TD*%
D10*
%TO.C,S12*%
X240000000Y-109000000D03*
D11*
X240000000Y-114080000D03*
X240000000Y-103920000D03*
D12*
X245080000Y-111540000D03*
X242540000Y-105190000D03*
%TD*%
D10*
%TO.C,S13*%
X221000000Y-152000000D03*
D11*
X221000000Y-157080000D03*
X221000000Y-146920000D03*
D12*
X226080000Y-154540000D03*
X223540000Y-148190000D03*
%TD*%
D10*
%TO.C,S14*%
X221000000Y-133000000D03*
D11*
X221000000Y-138080000D03*
X221000000Y-127920000D03*
D12*
X226080000Y-135540000D03*
X223540000Y-129190000D03*
%TD*%
D10*
%TO.C,S15*%
X221000000Y-114000000D03*
D11*
X221000000Y-119080000D03*
X221000000Y-108920000D03*
D12*
X226080000Y-116540000D03*
X223540000Y-110190000D03*
%TD*%
D10*
%TO.C,S16*%
X202000000Y-155000000D03*
D11*
X202000000Y-160080000D03*
X202000000Y-149920000D03*
D12*
X207080000Y-157540000D03*
X204540000Y-151190000D03*
%TD*%
D10*
%TO.C,S17*%
X202000000Y-117000000D03*
D11*
X202000000Y-122080000D03*
X202000000Y-111920000D03*
D12*
X207080000Y-119540000D03*
X204540000Y-113190000D03*
%TD*%
D10*
%TO.C,S18*%
X230500000Y-175750000D03*
D11*
X230500000Y-180830000D03*
X230500000Y-170670000D03*
D12*
X235580000Y-178290000D03*
X233040000Y-171940000D03*
%TD*%
D10*
%TO.C,S19*%
X208807542Y-178148055D03*
D11*
X209514541Y-183178617D03*
X208100543Y-173117493D03*
D12*
X214191603Y-179956337D03*
X210792573Y-174021634D03*
%TD*%
D10*
%TO.C,S20*%
X184539406Y-179679128D03*
D11*
X186524320Y-184355293D03*
X182554492Y-175002963D03*
D12*
X190208028Y-180032296D03*
X185388803Y-175179547D03*
%TD*%
D10*
%TO.C,S21*%
X202000000Y-136000000D03*
D11*
X196920000Y-136000000D03*
X207080000Y-136000000D03*
D12*
X199460000Y-141080000D03*
X205810000Y-138540000D03*
%TD*%
D13*
%TO.C,MCU1*%
X195380000Y-103030000D03*
X195380000Y-105570000D03*
X195380000Y-108110000D03*
X195380000Y-110650000D03*
X195380000Y-113190000D03*
X195380000Y-115730000D03*
X195380000Y-118270000D03*
X195380000Y-120810000D03*
X195380000Y-123350000D03*
X195380000Y-125890000D03*
X195380000Y-128430000D03*
X195380000Y-130970000D03*
X210620000Y-130970000D03*
X210620000Y-128430000D03*
X210620000Y-125890000D03*
X210620000Y-123350000D03*
X210620000Y-120810000D03*
X210620000Y-118270000D03*
X210620000Y-115730000D03*
X210620000Y-113190000D03*
X210620000Y-110650000D03*
X210620000Y-108110000D03*
X210620000Y-105570000D03*
X210620000Y-103030000D03*
X197920000Y-125890000D03*
X200460000Y-125890000D03*
X203000000Y-125890000D03*
%TD*%
D14*
%TO.C,D1*%
X289500000Y-166150000D03*
X289500000Y-162850000D03*
D15*
X289500000Y-168310000D03*
D16*
X289500000Y-160690000D03*
%TD*%
D14*
%TO.C,D2*%
X289500000Y-147150000D03*
X289500000Y-143850000D03*
D15*
X289500000Y-149310000D03*
D16*
X289500000Y-141690000D03*
%TD*%
D14*
%TO.C,D3*%
X289500000Y-128150000D03*
X289500000Y-124850000D03*
D15*
X289500000Y-130310000D03*
D16*
X289500000Y-122690000D03*
%TD*%
D14*
%TO.C,D4*%
X270500000Y-166150000D03*
X270500000Y-162850000D03*
D15*
X270500000Y-168310000D03*
D16*
X270500000Y-160690000D03*
%TD*%
D14*
%TO.C,D5*%
X270500000Y-147150000D03*
X270500000Y-143850000D03*
D15*
X270500000Y-149310000D03*
D16*
X270500000Y-141690000D03*
%TD*%
D14*
%TO.C,D6*%
X270500000Y-128150000D03*
X270500000Y-124850000D03*
D15*
X270500000Y-130310000D03*
D16*
X270500000Y-122690000D03*
%TD*%
D14*
%TO.C,D7*%
X251500000Y-158150000D03*
X251500000Y-154850000D03*
D15*
X251500000Y-160310000D03*
D16*
X251500000Y-152690000D03*
%TD*%
D14*
%TO.C,D8*%
X251500000Y-139150000D03*
X251500000Y-135850000D03*
D15*
X251500000Y-141310000D03*
D16*
X251500000Y-133690000D03*
%TD*%
D14*
%TO.C,D9*%
X251500000Y-120150000D03*
X251500000Y-116850000D03*
D15*
X251500000Y-122310000D03*
D16*
X251500000Y-114690000D03*
%TD*%
D14*
%TO.C,D10*%
X232500000Y-153150000D03*
X232500000Y-149850000D03*
D15*
X232500000Y-155310000D03*
D16*
X232500000Y-147690000D03*
%TD*%
D14*
%TO.C,D11*%
X232500000Y-134150000D03*
X232500000Y-130850000D03*
D15*
X232500000Y-136310000D03*
D16*
X232500000Y-128690000D03*
%TD*%
D14*
%TO.C,D12*%
X232500000Y-115150000D03*
X232500000Y-111850000D03*
D15*
X232500000Y-117310000D03*
D16*
X232500000Y-109690000D03*
%TD*%
D14*
%TO.C,D13*%
X213500000Y-158150000D03*
X213500000Y-154850000D03*
D15*
X213500000Y-160310000D03*
D16*
X213500000Y-152690000D03*
%TD*%
D14*
%TO.C,D14*%
X194500000Y-161150000D03*
X194500000Y-157850000D03*
D15*
X194500000Y-163310000D03*
D16*
X194500000Y-155690000D03*
%TD*%
D14*
%TO.C,D15*%
X223000000Y-181900000D03*
X223000000Y-178600000D03*
D15*
X223000000Y-184060000D03*
D16*
X223000000Y-176440000D03*
%TD*%
D17*
%TO.C,D16*%
X202236446Y-185282002D03*
X201777174Y-182014118D03*
D18*
X202537060Y-187420981D03*
D16*
X201476560Y-179875139D03*
%TD*%
D19*
%TO.C,D17*%
X180038615Y-188270717D03*
X178749203Y-185233051D03*
D20*
X180882595Y-190259007D03*
D16*
X177905223Y-183244761D03*
%TD*%
D21*
%TO.C,D18*%
X200150000Y-144000000D03*
X196850000Y-144000000D03*
D22*
X202310000Y-144000000D03*
D16*
X194690000Y-144000000D03*
%TD*%
D14*
%TO.C,D19*%
X198500000Y-120650000D03*
X198500000Y-117350000D03*
D15*
X198500000Y-122810000D03*
D16*
X198500000Y-115190000D03*
%TD*%
D14*
%TO.C,D20*%
X216500000Y-121150000D03*
X216500000Y-117850000D03*
D15*
X216500000Y-123310000D03*
D16*
X216500000Y-115690000D03*
%TD*%
D14*
%TO.C,D21*%
X213500000Y-139150000D03*
X213500000Y-135850000D03*
D15*
X213500000Y-141310000D03*
D16*
X213500000Y-133690000D03*
%TD*%
D23*
%TO.C,JST1*%
X256000000Y-107000000D03*
D24*
X256000000Y-109000000D03*
%TD*%
D25*
%TO.C,B1*%
X202800000Y-98625000D03*
X202800000Y-101375000D03*
D26*
X200175000Y-99150000D03*
X205425000Y-99150000D03*
X200175000Y-100850000D03*
X205425000Y-100850000D03*
%TD*%
D27*
%TO.C,T1*%
X216500000Y-99500000D03*
X213500000Y-99500000D03*
%TD*%
M02*
