%TF.GenerationSoftware,KiCad,Pcbnew,8.0.6*%
%TF.CreationDate,2024-12-23T22:30:20+01:00*%
%TF.ProjectId,right,72696768-742e-46b6-9963-61645f706362,v1.0.0*%
%TF.SameCoordinates,Original*%
%TF.FileFunction,Legend,Top*%
%TF.FilePolarity,Positive*%
%FSLAX46Y46*%
G04 Gerber Fmt 4.6, Leading zero omitted, Abs format (unit mm)*
G04 Created by KiCad (PCBNEW 8.0.6) date 2024-12-23 22:30:20*
%MOMM*%
%LPD*%
G01*
G04 APERTURE LIST*
%ADD10C,0.400000*%
%ADD11C,0.150000*%
%ADD12C,0.300000*%
%ADD13C,0.381000*%
%ADD14C,0.100000*%
%ADD15C,0.120000*%
%ADD16C,1.752600*%
G04 APERTURE END LIST*
D10*
X245727442Y-166152141D02*
X245727442Y-163152141D01*
X247441728Y-166152141D02*
X246156014Y-164437855D01*
X247441728Y-163152141D02*
X245727442Y-164866426D01*
X248727442Y-166152141D02*
X248727442Y-164152141D01*
X248727442Y-163152141D02*
X248584585Y-163294998D01*
X248584585Y-163294998D02*
X248727442Y-163437855D01*
X248727442Y-163437855D02*
X248870299Y-163294998D01*
X248870299Y-163294998D02*
X248727442Y-163152141D01*
X248727442Y-163152141D02*
X248727442Y-163437855D01*
X249870299Y-164152141D02*
X250441728Y-166152141D01*
X250441728Y-166152141D02*
X251013156Y-164723569D01*
X251013156Y-164723569D02*
X251584585Y-166152141D01*
X251584585Y-166152141D02*
X252156013Y-164152141D01*
X253298870Y-166152141D02*
X253298870Y-164152141D01*
X253298870Y-163152141D02*
X253156013Y-163294998D01*
X253156013Y-163294998D02*
X253298870Y-163437855D01*
X253298870Y-163437855D02*
X253441727Y-163294998D01*
X253441727Y-163294998D02*
X253298870Y-163152141D01*
X253298870Y-163152141D02*
X253298870Y-163437855D01*
X255727441Y-164580712D02*
X256156013Y-164723569D01*
X256156013Y-164723569D02*
X256298870Y-164866426D01*
X256298870Y-164866426D02*
X256441727Y-165152141D01*
X256441727Y-165152141D02*
X256441727Y-165580712D01*
X256441727Y-165580712D02*
X256298870Y-165866426D01*
X256298870Y-165866426D02*
X256156013Y-166009284D01*
X256156013Y-166009284D02*
X255870298Y-166152141D01*
X255870298Y-166152141D02*
X254727441Y-166152141D01*
X254727441Y-166152141D02*
X254727441Y-163152141D01*
X254727441Y-163152141D02*
X255727441Y-163152141D01*
X255727441Y-163152141D02*
X256013156Y-163294998D01*
X256013156Y-163294998D02*
X256156013Y-163437855D01*
X256156013Y-163437855D02*
X256298870Y-163723569D01*
X256298870Y-163723569D02*
X256298870Y-164009284D01*
X256298870Y-164009284D02*
X256156013Y-164294998D01*
X256156013Y-164294998D02*
X256013156Y-164437855D01*
X256013156Y-164437855D02*
X255727441Y-164580712D01*
X255727441Y-164580712D02*
X254727441Y-164580712D01*
X258156013Y-166152141D02*
X257870298Y-166009284D01*
X257870298Y-166009284D02*
X257727441Y-165866426D01*
X257727441Y-165866426D02*
X257584584Y-165580712D01*
X257584584Y-165580712D02*
X257584584Y-164723569D01*
X257584584Y-164723569D02*
X257727441Y-164437855D01*
X257727441Y-164437855D02*
X257870298Y-164294998D01*
X257870298Y-164294998D02*
X258156013Y-164152141D01*
X258156013Y-164152141D02*
X258584584Y-164152141D01*
X258584584Y-164152141D02*
X258870298Y-164294998D01*
X258870298Y-164294998D02*
X259013156Y-164437855D01*
X259013156Y-164437855D02*
X259156013Y-164723569D01*
X259156013Y-164723569D02*
X259156013Y-165580712D01*
X259156013Y-165580712D02*
X259013156Y-165866426D01*
X259013156Y-165866426D02*
X258870298Y-166009284D01*
X258870298Y-166009284D02*
X258584584Y-166152141D01*
X258584584Y-166152141D02*
X258156013Y-166152141D01*
X261727442Y-166152141D02*
X261727442Y-164580712D01*
X261727442Y-164580712D02*
X261584584Y-164294998D01*
X261584584Y-164294998D02*
X261298870Y-164152141D01*
X261298870Y-164152141D02*
X260727442Y-164152141D01*
X260727442Y-164152141D02*
X260441727Y-164294998D01*
X261727442Y-166009284D02*
X261441727Y-166152141D01*
X261441727Y-166152141D02*
X260727442Y-166152141D01*
X260727442Y-166152141D02*
X260441727Y-166009284D01*
X260441727Y-166009284D02*
X260298870Y-165723569D01*
X260298870Y-165723569D02*
X260298870Y-165437855D01*
X260298870Y-165437855D02*
X260441727Y-165152141D01*
X260441727Y-165152141D02*
X260727442Y-165009284D01*
X260727442Y-165009284D02*
X261441727Y-165009284D01*
X261441727Y-165009284D02*
X261727442Y-164866426D01*
X263156013Y-166152141D02*
X263156013Y-164152141D01*
X263156013Y-164723569D02*
X263298870Y-164437855D01*
X263298870Y-164437855D02*
X263441728Y-164294998D01*
X263441728Y-164294998D02*
X263727442Y-164152141D01*
X263727442Y-164152141D02*
X264013156Y-164152141D01*
X266298871Y-166152141D02*
X266298871Y-163152141D01*
X266298871Y-166009284D02*
X266013156Y-166152141D01*
X266013156Y-166152141D02*
X265441728Y-166152141D01*
X265441728Y-166152141D02*
X265156013Y-166009284D01*
X265156013Y-166009284D02*
X265013156Y-165866426D01*
X265013156Y-165866426D02*
X264870299Y-165580712D01*
X264870299Y-165580712D02*
X264870299Y-164723569D01*
X264870299Y-164723569D02*
X265013156Y-164437855D01*
X265013156Y-164437855D02*
X265156013Y-164294998D01*
X265156013Y-164294998D02*
X265441728Y-164152141D01*
X265441728Y-164152141D02*
X266013156Y-164152141D01*
X266013156Y-164152141D02*
X266298871Y-164294998D01*
X247441728Y-170981973D02*
X246441728Y-169553401D01*
X245727442Y-170981973D02*
X245727442Y-167981973D01*
X245727442Y-167981973D02*
X246870299Y-167981973D01*
X246870299Y-167981973D02*
X247156014Y-168124830D01*
X247156014Y-168124830D02*
X247298871Y-168267687D01*
X247298871Y-168267687D02*
X247441728Y-168553401D01*
X247441728Y-168553401D02*
X247441728Y-168981973D01*
X247441728Y-168981973D02*
X247298871Y-169267687D01*
X247298871Y-169267687D02*
X247156014Y-169410544D01*
X247156014Y-169410544D02*
X246870299Y-169553401D01*
X246870299Y-169553401D02*
X245727442Y-169553401D01*
X249870299Y-170839116D02*
X249584585Y-170981973D01*
X249584585Y-170981973D02*
X249013157Y-170981973D01*
X249013157Y-170981973D02*
X248727442Y-170839116D01*
X248727442Y-170839116D02*
X248584585Y-170553401D01*
X248584585Y-170553401D02*
X248584585Y-169410544D01*
X248584585Y-169410544D02*
X248727442Y-169124830D01*
X248727442Y-169124830D02*
X249013157Y-168981973D01*
X249013157Y-168981973D02*
X249584585Y-168981973D01*
X249584585Y-168981973D02*
X249870299Y-169124830D01*
X249870299Y-169124830D02*
X250013157Y-169410544D01*
X250013157Y-169410544D02*
X250013157Y-169696258D01*
X250013157Y-169696258D02*
X248584585Y-169981973D01*
X251013157Y-168981973D02*
X251727443Y-170981973D01*
X251727443Y-170981973D02*
X252441728Y-168981973D01*
X255156014Y-170981973D02*
X253441728Y-170981973D01*
X254298871Y-170981973D02*
X254298871Y-167981973D01*
X254298871Y-167981973D02*
X254013157Y-168410544D01*
X254013157Y-168410544D02*
X253727442Y-168696258D01*
X253727442Y-168696258D02*
X253441728Y-168839116D01*
D11*
X207921334Y-103392295D02*
X207654667Y-103011342D01*
X207464191Y-103392295D02*
X207464191Y-102592295D01*
X207464191Y-102592295D02*
X207768953Y-102592295D01*
X207768953Y-102592295D02*
X207845143Y-102630390D01*
X207845143Y-102630390D02*
X207883238Y-102668485D01*
X207883238Y-102668485D02*
X207921334Y-102744676D01*
X207921334Y-102744676D02*
X207921334Y-102858961D01*
X207921334Y-102858961D02*
X207883238Y-102935152D01*
X207883238Y-102935152D02*
X207845143Y-102973247D01*
X207845143Y-102973247D02*
X207768953Y-103011342D01*
X207768953Y-103011342D02*
X207464191Y-103011342D01*
X208226095Y-103163723D02*
X208607048Y-103163723D01*
X208149905Y-103392295D02*
X208416572Y-102592295D01*
X208416572Y-102592295D02*
X208683238Y-103392295D01*
X208873714Y-102592295D02*
X209064190Y-103392295D01*
X209064190Y-103392295D02*
X209216571Y-102820866D01*
X209216571Y-102820866D02*
X209368952Y-103392295D01*
X209368952Y-103392295D02*
X209559429Y-102592295D01*
X207845143Y-105170390D02*
X207768953Y-105132295D01*
X207768953Y-105132295D02*
X207654667Y-105132295D01*
X207654667Y-105132295D02*
X207540381Y-105170390D01*
X207540381Y-105170390D02*
X207464191Y-105246580D01*
X207464191Y-105246580D02*
X207426096Y-105322771D01*
X207426096Y-105322771D02*
X207388000Y-105475152D01*
X207388000Y-105475152D02*
X207388000Y-105589438D01*
X207388000Y-105589438D02*
X207426096Y-105741819D01*
X207426096Y-105741819D02*
X207464191Y-105818009D01*
X207464191Y-105818009D02*
X207540381Y-105894200D01*
X207540381Y-105894200D02*
X207654667Y-105932295D01*
X207654667Y-105932295D02*
X207730858Y-105932295D01*
X207730858Y-105932295D02*
X207845143Y-105894200D01*
X207845143Y-105894200D02*
X207883239Y-105856104D01*
X207883239Y-105856104D02*
X207883239Y-105589438D01*
X207883239Y-105589438D02*
X207730858Y-105589438D01*
X208226096Y-105932295D02*
X208226096Y-105132295D01*
X208226096Y-105132295D02*
X208683239Y-105932295D01*
X208683239Y-105932295D02*
X208683239Y-105132295D01*
X209064191Y-105932295D02*
X209064191Y-105132295D01*
X209064191Y-105132295D02*
X209254667Y-105132295D01*
X209254667Y-105132295D02*
X209368953Y-105170390D01*
X209368953Y-105170390D02*
X209445143Y-105246580D01*
X209445143Y-105246580D02*
X209483238Y-105322771D01*
X209483238Y-105322771D02*
X209521334Y-105475152D01*
X209521334Y-105475152D02*
X209521334Y-105589438D01*
X209521334Y-105589438D02*
X209483238Y-105741819D01*
X209483238Y-105741819D02*
X209445143Y-105818009D01*
X209445143Y-105818009D02*
X209368953Y-105894200D01*
X209368953Y-105894200D02*
X209254667Y-105932295D01*
X209254667Y-105932295D02*
X209064191Y-105932295D01*
X208149905Y-108472295D02*
X207883238Y-108091342D01*
X207692762Y-108472295D02*
X207692762Y-107672295D01*
X207692762Y-107672295D02*
X207997524Y-107672295D01*
X207997524Y-107672295D02*
X208073714Y-107710390D01*
X208073714Y-107710390D02*
X208111809Y-107748485D01*
X208111809Y-107748485D02*
X208149905Y-107824676D01*
X208149905Y-107824676D02*
X208149905Y-107938961D01*
X208149905Y-107938961D02*
X208111809Y-108015152D01*
X208111809Y-108015152D02*
X208073714Y-108053247D01*
X208073714Y-108053247D02*
X207997524Y-108091342D01*
X207997524Y-108091342D02*
X207692762Y-108091342D01*
X208454666Y-108434200D02*
X208568952Y-108472295D01*
X208568952Y-108472295D02*
X208759428Y-108472295D01*
X208759428Y-108472295D02*
X208835619Y-108434200D01*
X208835619Y-108434200D02*
X208873714Y-108396104D01*
X208873714Y-108396104D02*
X208911809Y-108319914D01*
X208911809Y-108319914D02*
X208911809Y-108243723D01*
X208911809Y-108243723D02*
X208873714Y-108167533D01*
X208873714Y-108167533D02*
X208835619Y-108129438D01*
X208835619Y-108129438D02*
X208759428Y-108091342D01*
X208759428Y-108091342D02*
X208607047Y-108053247D01*
X208607047Y-108053247D02*
X208530857Y-108015152D01*
X208530857Y-108015152D02*
X208492762Y-107977057D01*
X208492762Y-107977057D02*
X208454666Y-107900866D01*
X208454666Y-107900866D02*
X208454666Y-107824676D01*
X208454666Y-107824676D02*
X208492762Y-107748485D01*
X208492762Y-107748485D02*
X208530857Y-107710390D01*
X208530857Y-107710390D02*
X208607047Y-107672295D01*
X208607047Y-107672295D02*
X208797524Y-107672295D01*
X208797524Y-107672295D02*
X208911809Y-107710390D01*
X209140381Y-107672295D02*
X209597524Y-107672295D01*
X209368952Y-108472295D02*
X209368952Y-107672295D01*
X207470524Y-110212295D02*
X207737191Y-111012295D01*
X207737191Y-111012295D02*
X208003857Y-110212295D01*
X208727667Y-110936104D02*
X208689571Y-110974200D01*
X208689571Y-110974200D02*
X208575286Y-111012295D01*
X208575286Y-111012295D02*
X208499095Y-111012295D01*
X208499095Y-111012295D02*
X208384809Y-110974200D01*
X208384809Y-110974200D02*
X208308619Y-110898009D01*
X208308619Y-110898009D02*
X208270524Y-110821819D01*
X208270524Y-110821819D02*
X208232428Y-110669438D01*
X208232428Y-110669438D02*
X208232428Y-110555152D01*
X208232428Y-110555152D02*
X208270524Y-110402771D01*
X208270524Y-110402771D02*
X208308619Y-110326580D01*
X208308619Y-110326580D02*
X208384809Y-110250390D01*
X208384809Y-110250390D02*
X208499095Y-110212295D01*
X208499095Y-110212295D02*
X208575286Y-110212295D01*
X208575286Y-110212295D02*
X208689571Y-110250390D01*
X208689571Y-110250390D02*
X208727667Y-110288485D01*
X209527667Y-110936104D02*
X209489571Y-110974200D01*
X209489571Y-110974200D02*
X209375286Y-111012295D01*
X209375286Y-111012295D02*
X209299095Y-111012295D01*
X209299095Y-111012295D02*
X209184809Y-110974200D01*
X209184809Y-110974200D02*
X209108619Y-110898009D01*
X209108619Y-110898009D02*
X209070524Y-110821819D01*
X209070524Y-110821819D02*
X209032428Y-110669438D01*
X209032428Y-110669438D02*
X209032428Y-110555152D01*
X209032428Y-110555152D02*
X209070524Y-110402771D01*
X209070524Y-110402771D02*
X209108619Y-110326580D01*
X209108619Y-110326580D02*
X209184809Y-110250390D01*
X209184809Y-110250390D02*
X209299095Y-110212295D01*
X209299095Y-110212295D02*
X209375286Y-110212295D01*
X209375286Y-110212295D02*
X209489571Y-110250390D01*
X209489571Y-110250390D02*
X209527667Y-110288485D01*
X207737191Y-112752295D02*
X207813381Y-112752295D01*
X207813381Y-112752295D02*
X207889572Y-112790390D01*
X207889572Y-112790390D02*
X207927667Y-112828485D01*
X207927667Y-112828485D02*
X207965762Y-112904676D01*
X207965762Y-112904676D02*
X208003857Y-113057057D01*
X208003857Y-113057057D02*
X208003857Y-113247533D01*
X208003857Y-113247533D02*
X207965762Y-113399914D01*
X207965762Y-113399914D02*
X207927667Y-113476104D01*
X207927667Y-113476104D02*
X207889572Y-113514200D01*
X207889572Y-113514200D02*
X207813381Y-113552295D01*
X207813381Y-113552295D02*
X207737191Y-113552295D01*
X207737191Y-113552295D02*
X207661000Y-113514200D01*
X207661000Y-113514200D02*
X207622905Y-113476104D01*
X207622905Y-113476104D02*
X207584810Y-113399914D01*
X207584810Y-113399914D02*
X207546714Y-113247533D01*
X207546714Y-113247533D02*
X207546714Y-113057057D01*
X207546714Y-113057057D02*
X207584810Y-112904676D01*
X207584810Y-112904676D02*
X207622905Y-112828485D01*
X207622905Y-112828485D02*
X207661000Y-112790390D01*
X207661000Y-112790390D02*
X207737191Y-112752295D01*
X208270524Y-112752295D02*
X208765762Y-112752295D01*
X208765762Y-112752295D02*
X208499096Y-113057057D01*
X208499096Y-113057057D02*
X208613381Y-113057057D01*
X208613381Y-113057057D02*
X208689572Y-113095152D01*
X208689572Y-113095152D02*
X208727667Y-113133247D01*
X208727667Y-113133247D02*
X208765762Y-113209438D01*
X208765762Y-113209438D02*
X208765762Y-113399914D01*
X208765762Y-113399914D02*
X208727667Y-113476104D01*
X208727667Y-113476104D02*
X208689572Y-113514200D01*
X208689572Y-113514200D02*
X208613381Y-113552295D01*
X208613381Y-113552295D02*
X208384810Y-113552295D01*
X208384810Y-113552295D02*
X208308619Y-113514200D01*
X208308619Y-113514200D02*
X208270524Y-113476104D01*
X209527667Y-113552295D02*
X209070524Y-113552295D01*
X209299096Y-113552295D02*
X209299096Y-112752295D01*
X209299096Y-112752295D02*
X209222905Y-112866580D01*
X209222905Y-112866580D02*
X209146715Y-112942771D01*
X209146715Y-112942771D02*
X209070524Y-112980866D01*
X207737191Y-115292295D02*
X207813381Y-115292295D01*
X207813381Y-115292295D02*
X207889572Y-115330390D01*
X207889572Y-115330390D02*
X207927667Y-115368485D01*
X207927667Y-115368485D02*
X207965762Y-115444676D01*
X207965762Y-115444676D02*
X208003857Y-115597057D01*
X208003857Y-115597057D02*
X208003857Y-115787533D01*
X208003857Y-115787533D02*
X207965762Y-115939914D01*
X207965762Y-115939914D02*
X207927667Y-116016104D01*
X207927667Y-116016104D02*
X207889572Y-116054200D01*
X207889572Y-116054200D02*
X207813381Y-116092295D01*
X207813381Y-116092295D02*
X207737191Y-116092295D01*
X207737191Y-116092295D02*
X207661000Y-116054200D01*
X207661000Y-116054200D02*
X207622905Y-116016104D01*
X207622905Y-116016104D02*
X207584810Y-115939914D01*
X207584810Y-115939914D02*
X207546714Y-115787533D01*
X207546714Y-115787533D02*
X207546714Y-115597057D01*
X207546714Y-115597057D02*
X207584810Y-115444676D01*
X207584810Y-115444676D02*
X207622905Y-115368485D01*
X207622905Y-115368485D02*
X207661000Y-115330390D01*
X207661000Y-115330390D02*
X207737191Y-115292295D01*
X208308619Y-115368485D02*
X208346715Y-115330390D01*
X208346715Y-115330390D02*
X208422905Y-115292295D01*
X208422905Y-115292295D02*
X208613381Y-115292295D01*
X208613381Y-115292295D02*
X208689572Y-115330390D01*
X208689572Y-115330390D02*
X208727667Y-115368485D01*
X208727667Y-115368485D02*
X208765762Y-115444676D01*
X208765762Y-115444676D02*
X208765762Y-115520866D01*
X208765762Y-115520866D02*
X208727667Y-115635152D01*
X208727667Y-115635152D02*
X208270524Y-116092295D01*
X208270524Y-116092295D02*
X208765762Y-116092295D01*
X209146715Y-116092295D02*
X209299096Y-116092295D01*
X209299096Y-116092295D02*
X209375286Y-116054200D01*
X209375286Y-116054200D02*
X209413382Y-116016104D01*
X209413382Y-116016104D02*
X209489572Y-115901819D01*
X209489572Y-115901819D02*
X209527667Y-115749438D01*
X209527667Y-115749438D02*
X209527667Y-115444676D01*
X209527667Y-115444676D02*
X209489572Y-115368485D01*
X209489572Y-115368485D02*
X209451477Y-115330390D01*
X209451477Y-115330390D02*
X209375286Y-115292295D01*
X209375286Y-115292295D02*
X209222905Y-115292295D01*
X209222905Y-115292295D02*
X209146715Y-115330390D01*
X209146715Y-115330390D02*
X209108620Y-115368485D01*
X209108620Y-115368485D02*
X209070524Y-115444676D01*
X209070524Y-115444676D02*
X209070524Y-115635152D01*
X209070524Y-115635152D02*
X209108620Y-115711342D01*
X209108620Y-115711342D02*
X209146715Y-115749438D01*
X209146715Y-115749438D02*
X209222905Y-115787533D01*
X209222905Y-115787533D02*
X209375286Y-115787533D01*
X209375286Y-115787533D02*
X209451477Y-115749438D01*
X209451477Y-115749438D02*
X209489572Y-115711342D01*
X209489572Y-115711342D02*
X209527667Y-115635152D01*
X207737191Y-117832295D02*
X207813381Y-117832295D01*
X207813381Y-117832295D02*
X207889572Y-117870390D01*
X207889572Y-117870390D02*
X207927667Y-117908485D01*
X207927667Y-117908485D02*
X207965762Y-117984676D01*
X207965762Y-117984676D02*
X208003857Y-118137057D01*
X208003857Y-118137057D02*
X208003857Y-118327533D01*
X208003857Y-118327533D02*
X207965762Y-118479914D01*
X207965762Y-118479914D02*
X207927667Y-118556104D01*
X207927667Y-118556104D02*
X207889572Y-118594200D01*
X207889572Y-118594200D02*
X207813381Y-118632295D01*
X207813381Y-118632295D02*
X207737191Y-118632295D01*
X207737191Y-118632295D02*
X207661000Y-118594200D01*
X207661000Y-118594200D02*
X207622905Y-118556104D01*
X207622905Y-118556104D02*
X207584810Y-118479914D01*
X207584810Y-118479914D02*
X207546714Y-118327533D01*
X207546714Y-118327533D02*
X207546714Y-118137057D01*
X207546714Y-118137057D02*
X207584810Y-117984676D01*
X207584810Y-117984676D02*
X207622905Y-117908485D01*
X207622905Y-117908485D02*
X207661000Y-117870390D01*
X207661000Y-117870390D02*
X207737191Y-117832295D01*
X208499096Y-117832295D02*
X208575286Y-117832295D01*
X208575286Y-117832295D02*
X208651477Y-117870390D01*
X208651477Y-117870390D02*
X208689572Y-117908485D01*
X208689572Y-117908485D02*
X208727667Y-117984676D01*
X208727667Y-117984676D02*
X208765762Y-118137057D01*
X208765762Y-118137057D02*
X208765762Y-118327533D01*
X208765762Y-118327533D02*
X208727667Y-118479914D01*
X208727667Y-118479914D02*
X208689572Y-118556104D01*
X208689572Y-118556104D02*
X208651477Y-118594200D01*
X208651477Y-118594200D02*
X208575286Y-118632295D01*
X208575286Y-118632295D02*
X208499096Y-118632295D01*
X208499096Y-118632295D02*
X208422905Y-118594200D01*
X208422905Y-118594200D02*
X208384810Y-118556104D01*
X208384810Y-118556104D02*
X208346715Y-118479914D01*
X208346715Y-118479914D02*
X208308619Y-118327533D01*
X208308619Y-118327533D02*
X208308619Y-118137057D01*
X208308619Y-118137057D02*
X208346715Y-117984676D01*
X208346715Y-117984676D02*
X208384810Y-117908485D01*
X208384810Y-117908485D02*
X208422905Y-117870390D01*
X208422905Y-117870390D02*
X208499096Y-117832295D01*
X209070524Y-117908485D02*
X209108620Y-117870390D01*
X209108620Y-117870390D02*
X209184810Y-117832295D01*
X209184810Y-117832295D02*
X209375286Y-117832295D01*
X209375286Y-117832295D02*
X209451477Y-117870390D01*
X209451477Y-117870390D02*
X209489572Y-117908485D01*
X209489572Y-117908485D02*
X209527667Y-117984676D01*
X209527667Y-117984676D02*
X209527667Y-118060866D01*
X209527667Y-118060866D02*
X209489572Y-118175152D01*
X209489572Y-118175152D02*
X209032429Y-118632295D01*
X209032429Y-118632295D02*
X209527667Y-118632295D01*
X208003857Y-121172295D02*
X207546714Y-121172295D01*
X207775286Y-121172295D02*
X207775286Y-120372295D01*
X207775286Y-120372295D02*
X207699095Y-120486580D01*
X207699095Y-120486580D02*
X207622905Y-120562771D01*
X207622905Y-120562771D02*
X207546714Y-120600866D01*
X208765762Y-121172295D02*
X208308619Y-121172295D01*
X208537191Y-121172295D02*
X208537191Y-120372295D01*
X208537191Y-120372295D02*
X208461000Y-120486580D01*
X208461000Y-120486580D02*
X208384810Y-120562771D01*
X208384810Y-120562771D02*
X208308619Y-120600866D01*
X209489572Y-120372295D02*
X209108620Y-120372295D01*
X209108620Y-120372295D02*
X209070524Y-120753247D01*
X209070524Y-120753247D02*
X209108620Y-120715152D01*
X209108620Y-120715152D02*
X209184810Y-120677057D01*
X209184810Y-120677057D02*
X209375286Y-120677057D01*
X209375286Y-120677057D02*
X209451477Y-120715152D01*
X209451477Y-120715152D02*
X209489572Y-120753247D01*
X209489572Y-120753247D02*
X209527667Y-120829438D01*
X209527667Y-120829438D02*
X209527667Y-121019914D01*
X209527667Y-121019914D02*
X209489572Y-121096104D01*
X209489572Y-121096104D02*
X209451477Y-121134200D01*
X209451477Y-121134200D02*
X209375286Y-121172295D01*
X209375286Y-121172295D02*
X209184810Y-121172295D01*
X209184810Y-121172295D02*
X209108620Y-121134200D01*
X209108620Y-121134200D02*
X209070524Y-121096104D01*
X208003857Y-123712295D02*
X207546714Y-123712295D01*
X207775286Y-123712295D02*
X207775286Y-122912295D01*
X207775286Y-122912295D02*
X207699095Y-123026580D01*
X207699095Y-123026580D02*
X207622905Y-123102771D01*
X207622905Y-123102771D02*
X207546714Y-123140866D01*
X208765762Y-123712295D02*
X208308619Y-123712295D01*
X208537191Y-123712295D02*
X208537191Y-122912295D01*
X208537191Y-122912295D02*
X208461000Y-123026580D01*
X208461000Y-123026580D02*
X208384810Y-123102771D01*
X208384810Y-123102771D02*
X208308619Y-123140866D01*
X209032429Y-122912295D02*
X209527667Y-122912295D01*
X209527667Y-122912295D02*
X209261001Y-123217057D01*
X209261001Y-123217057D02*
X209375286Y-123217057D01*
X209375286Y-123217057D02*
X209451477Y-123255152D01*
X209451477Y-123255152D02*
X209489572Y-123293247D01*
X209489572Y-123293247D02*
X209527667Y-123369438D01*
X209527667Y-123369438D02*
X209527667Y-123559914D01*
X209527667Y-123559914D02*
X209489572Y-123636104D01*
X209489572Y-123636104D02*
X209451477Y-123674200D01*
X209451477Y-123674200D02*
X209375286Y-123712295D01*
X209375286Y-123712295D02*
X209146715Y-123712295D01*
X209146715Y-123712295D02*
X209070524Y-123674200D01*
X209070524Y-123674200D02*
X209032429Y-123636104D01*
X208003857Y-126252295D02*
X207546714Y-126252295D01*
X207775286Y-126252295D02*
X207775286Y-125452295D01*
X207775286Y-125452295D02*
X207699095Y-125566580D01*
X207699095Y-125566580D02*
X207622905Y-125642771D01*
X207622905Y-125642771D02*
X207546714Y-125680866D01*
X208765762Y-126252295D02*
X208308619Y-126252295D01*
X208537191Y-126252295D02*
X208537191Y-125452295D01*
X208537191Y-125452295D02*
X208461000Y-125566580D01*
X208461000Y-125566580D02*
X208384810Y-125642771D01*
X208384810Y-125642771D02*
X208308619Y-125680866D01*
X209527667Y-126252295D02*
X209070524Y-126252295D01*
X209299096Y-126252295D02*
X209299096Y-125452295D01*
X209299096Y-125452295D02*
X209222905Y-125566580D01*
X209222905Y-125566580D02*
X209146715Y-125642771D01*
X209146715Y-125642771D02*
X209070524Y-125680866D01*
X207737191Y-127992295D02*
X207813381Y-127992295D01*
X207813381Y-127992295D02*
X207889572Y-128030390D01*
X207889572Y-128030390D02*
X207927667Y-128068485D01*
X207927667Y-128068485D02*
X207965762Y-128144676D01*
X207965762Y-128144676D02*
X208003857Y-128297057D01*
X208003857Y-128297057D02*
X208003857Y-128487533D01*
X208003857Y-128487533D02*
X207965762Y-128639914D01*
X207965762Y-128639914D02*
X207927667Y-128716104D01*
X207927667Y-128716104D02*
X207889572Y-128754200D01*
X207889572Y-128754200D02*
X207813381Y-128792295D01*
X207813381Y-128792295D02*
X207737191Y-128792295D01*
X207737191Y-128792295D02*
X207661000Y-128754200D01*
X207661000Y-128754200D02*
X207622905Y-128716104D01*
X207622905Y-128716104D02*
X207584810Y-128639914D01*
X207584810Y-128639914D02*
X207546714Y-128487533D01*
X207546714Y-128487533D02*
X207546714Y-128297057D01*
X207546714Y-128297057D02*
X207584810Y-128144676D01*
X207584810Y-128144676D02*
X207622905Y-128068485D01*
X207622905Y-128068485D02*
X207661000Y-128030390D01*
X207661000Y-128030390D02*
X207737191Y-127992295D01*
X208765762Y-128792295D02*
X208308619Y-128792295D01*
X208537191Y-128792295D02*
X208537191Y-127992295D01*
X208537191Y-127992295D02*
X208461000Y-128106580D01*
X208461000Y-128106580D02*
X208384810Y-128182771D01*
X208384810Y-128182771D02*
X208308619Y-128220866D01*
X209261001Y-127992295D02*
X209337191Y-127992295D01*
X209337191Y-127992295D02*
X209413382Y-128030390D01*
X209413382Y-128030390D02*
X209451477Y-128068485D01*
X209451477Y-128068485D02*
X209489572Y-128144676D01*
X209489572Y-128144676D02*
X209527667Y-128297057D01*
X209527667Y-128297057D02*
X209527667Y-128487533D01*
X209527667Y-128487533D02*
X209489572Y-128639914D01*
X209489572Y-128639914D02*
X209451477Y-128716104D01*
X209451477Y-128716104D02*
X209413382Y-128754200D01*
X209413382Y-128754200D02*
X209337191Y-128792295D01*
X209337191Y-128792295D02*
X209261001Y-128792295D01*
X209261001Y-128792295D02*
X209184810Y-128754200D01*
X209184810Y-128754200D02*
X209146715Y-128716104D01*
X209146715Y-128716104D02*
X209108620Y-128639914D01*
X209108620Y-128639914D02*
X209070524Y-128487533D01*
X209070524Y-128487533D02*
X209070524Y-128297057D01*
X209070524Y-128297057D02*
X209108620Y-128144676D01*
X209108620Y-128144676D02*
X209146715Y-128068485D01*
X209146715Y-128068485D02*
X209184810Y-128030390D01*
X209184810Y-128030390D02*
X209261001Y-127992295D01*
X196662810Y-102592295D02*
X196739000Y-102592295D01*
X196739000Y-102592295D02*
X196815191Y-102630390D01*
X196815191Y-102630390D02*
X196853286Y-102668485D01*
X196853286Y-102668485D02*
X196891381Y-102744676D01*
X196891381Y-102744676D02*
X196929476Y-102897057D01*
X196929476Y-102897057D02*
X196929476Y-103087533D01*
X196929476Y-103087533D02*
X196891381Y-103239914D01*
X196891381Y-103239914D02*
X196853286Y-103316104D01*
X196853286Y-103316104D02*
X196815191Y-103354200D01*
X196815191Y-103354200D02*
X196739000Y-103392295D01*
X196739000Y-103392295D02*
X196662810Y-103392295D01*
X196662810Y-103392295D02*
X196586619Y-103354200D01*
X196586619Y-103354200D02*
X196548524Y-103316104D01*
X196548524Y-103316104D02*
X196510429Y-103239914D01*
X196510429Y-103239914D02*
X196472333Y-103087533D01*
X196472333Y-103087533D02*
X196472333Y-102897057D01*
X196472333Y-102897057D02*
X196510429Y-102744676D01*
X196510429Y-102744676D02*
X196548524Y-102668485D01*
X196548524Y-102668485D02*
X196586619Y-102630390D01*
X196586619Y-102630390D02*
X196662810Y-102592295D01*
X197424715Y-102592295D02*
X197500905Y-102592295D01*
X197500905Y-102592295D02*
X197577096Y-102630390D01*
X197577096Y-102630390D02*
X197615191Y-102668485D01*
X197615191Y-102668485D02*
X197653286Y-102744676D01*
X197653286Y-102744676D02*
X197691381Y-102897057D01*
X197691381Y-102897057D02*
X197691381Y-103087533D01*
X197691381Y-103087533D02*
X197653286Y-103239914D01*
X197653286Y-103239914D02*
X197615191Y-103316104D01*
X197615191Y-103316104D02*
X197577096Y-103354200D01*
X197577096Y-103354200D02*
X197500905Y-103392295D01*
X197500905Y-103392295D02*
X197424715Y-103392295D01*
X197424715Y-103392295D02*
X197348524Y-103354200D01*
X197348524Y-103354200D02*
X197310429Y-103316104D01*
X197310429Y-103316104D02*
X197272334Y-103239914D01*
X197272334Y-103239914D02*
X197234238Y-103087533D01*
X197234238Y-103087533D02*
X197234238Y-102897057D01*
X197234238Y-102897057D02*
X197272334Y-102744676D01*
X197272334Y-102744676D02*
X197310429Y-102668485D01*
X197310429Y-102668485D02*
X197348524Y-102630390D01*
X197348524Y-102630390D02*
X197424715Y-102592295D01*
X198377096Y-102592295D02*
X198224715Y-102592295D01*
X198224715Y-102592295D02*
X198148524Y-102630390D01*
X198148524Y-102630390D02*
X198110429Y-102668485D01*
X198110429Y-102668485D02*
X198034239Y-102782771D01*
X198034239Y-102782771D02*
X197996143Y-102935152D01*
X197996143Y-102935152D02*
X197996143Y-103239914D01*
X197996143Y-103239914D02*
X198034239Y-103316104D01*
X198034239Y-103316104D02*
X198072334Y-103354200D01*
X198072334Y-103354200D02*
X198148524Y-103392295D01*
X198148524Y-103392295D02*
X198300905Y-103392295D01*
X198300905Y-103392295D02*
X198377096Y-103354200D01*
X198377096Y-103354200D02*
X198415191Y-103316104D01*
X198415191Y-103316104D02*
X198453286Y-103239914D01*
X198453286Y-103239914D02*
X198453286Y-103049438D01*
X198453286Y-103049438D02*
X198415191Y-102973247D01*
X198415191Y-102973247D02*
X198377096Y-102935152D01*
X198377096Y-102935152D02*
X198300905Y-102897057D01*
X198300905Y-102897057D02*
X198148524Y-102897057D01*
X198148524Y-102897057D02*
X198072334Y-102935152D01*
X198072334Y-102935152D02*
X198034239Y-102973247D01*
X198034239Y-102973247D02*
X197996143Y-103049438D01*
X196662810Y-105062295D02*
X196739000Y-105062295D01*
X196739000Y-105062295D02*
X196815191Y-105100390D01*
X196815191Y-105100390D02*
X196853286Y-105138485D01*
X196853286Y-105138485D02*
X196891381Y-105214676D01*
X196891381Y-105214676D02*
X196929476Y-105367057D01*
X196929476Y-105367057D02*
X196929476Y-105557533D01*
X196929476Y-105557533D02*
X196891381Y-105709914D01*
X196891381Y-105709914D02*
X196853286Y-105786104D01*
X196853286Y-105786104D02*
X196815191Y-105824200D01*
X196815191Y-105824200D02*
X196739000Y-105862295D01*
X196739000Y-105862295D02*
X196662810Y-105862295D01*
X196662810Y-105862295D02*
X196586619Y-105824200D01*
X196586619Y-105824200D02*
X196548524Y-105786104D01*
X196548524Y-105786104D02*
X196510429Y-105709914D01*
X196510429Y-105709914D02*
X196472333Y-105557533D01*
X196472333Y-105557533D02*
X196472333Y-105367057D01*
X196472333Y-105367057D02*
X196510429Y-105214676D01*
X196510429Y-105214676D02*
X196548524Y-105138485D01*
X196548524Y-105138485D02*
X196586619Y-105100390D01*
X196586619Y-105100390D02*
X196662810Y-105062295D01*
X197424715Y-105062295D02*
X197500905Y-105062295D01*
X197500905Y-105062295D02*
X197577096Y-105100390D01*
X197577096Y-105100390D02*
X197615191Y-105138485D01*
X197615191Y-105138485D02*
X197653286Y-105214676D01*
X197653286Y-105214676D02*
X197691381Y-105367057D01*
X197691381Y-105367057D02*
X197691381Y-105557533D01*
X197691381Y-105557533D02*
X197653286Y-105709914D01*
X197653286Y-105709914D02*
X197615191Y-105786104D01*
X197615191Y-105786104D02*
X197577096Y-105824200D01*
X197577096Y-105824200D02*
X197500905Y-105862295D01*
X197500905Y-105862295D02*
X197424715Y-105862295D01*
X197424715Y-105862295D02*
X197348524Y-105824200D01*
X197348524Y-105824200D02*
X197310429Y-105786104D01*
X197310429Y-105786104D02*
X197272334Y-105709914D01*
X197272334Y-105709914D02*
X197234238Y-105557533D01*
X197234238Y-105557533D02*
X197234238Y-105367057D01*
X197234238Y-105367057D02*
X197272334Y-105214676D01*
X197272334Y-105214676D02*
X197310429Y-105138485D01*
X197310429Y-105138485D02*
X197348524Y-105100390D01*
X197348524Y-105100390D02*
X197424715Y-105062295D01*
X198148524Y-105405152D02*
X198072334Y-105367057D01*
X198072334Y-105367057D02*
X198034239Y-105328961D01*
X198034239Y-105328961D02*
X197996143Y-105252771D01*
X197996143Y-105252771D02*
X197996143Y-105214676D01*
X197996143Y-105214676D02*
X198034239Y-105138485D01*
X198034239Y-105138485D02*
X198072334Y-105100390D01*
X198072334Y-105100390D02*
X198148524Y-105062295D01*
X198148524Y-105062295D02*
X198300905Y-105062295D01*
X198300905Y-105062295D02*
X198377096Y-105100390D01*
X198377096Y-105100390D02*
X198415191Y-105138485D01*
X198415191Y-105138485D02*
X198453286Y-105214676D01*
X198453286Y-105214676D02*
X198453286Y-105252771D01*
X198453286Y-105252771D02*
X198415191Y-105328961D01*
X198415191Y-105328961D02*
X198377096Y-105367057D01*
X198377096Y-105367057D02*
X198300905Y-105405152D01*
X198300905Y-105405152D02*
X198148524Y-105405152D01*
X198148524Y-105405152D02*
X198072334Y-105443247D01*
X198072334Y-105443247D02*
X198034239Y-105481342D01*
X198034239Y-105481342D02*
X197996143Y-105557533D01*
X197996143Y-105557533D02*
X197996143Y-105709914D01*
X197996143Y-105709914D02*
X198034239Y-105786104D01*
X198034239Y-105786104D02*
X198072334Y-105824200D01*
X198072334Y-105824200D02*
X198148524Y-105862295D01*
X198148524Y-105862295D02*
X198300905Y-105862295D01*
X198300905Y-105862295D02*
X198377096Y-105824200D01*
X198377096Y-105824200D02*
X198415191Y-105786104D01*
X198415191Y-105786104D02*
X198453286Y-105709914D01*
X198453286Y-105709914D02*
X198453286Y-105557533D01*
X198453286Y-105557533D02*
X198415191Y-105481342D01*
X198415191Y-105481342D02*
X198377096Y-105443247D01*
X198377096Y-105443247D02*
X198300905Y-105405152D01*
X196929476Y-107710390D02*
X196853286Y-107672295D01*
X196853286Y-107672295D02*
X196739000Y-107672295D01*
X196739000Y-107672295D02*
X196624714Y-107710390D01*
X196624714Y-107710390D02*
X196548524Y-107786580D01*
X196548524Y-107786580D02*
X196510429Y-107862771D01*
X196510429Y-107862771D02*
X196472333Y-108015152D01*
X196472333Y-108015152D02*
X196472333Y-108129438D01*
X196472333Y-108129438D02*
X196510429Y-108281819D01*
X196510429Y-108281819D02*
X196548524Y-108358009D01*
X196548524Y-108358009D02*
X196624714Y-108434200D01*
X196624714Y-108434200D02*
X196739000Y-108472295D01*
X196739000Y-108472295D02*
X196815191Y-108472295D01*
X196815191Y-108472295D02*
X196929476Y-108434200D01*
X196929476Y-108434200D02*
X196967572Y-108396104D01*
X196967572Y-108396104D02*
X196967572Y-108129438D01*
X196967572Y-108129438D02*
X196815191Y-108129438D01*
X197310429Y-108472295D02*
X197310429Y-107672295D01*
X197310429Y-107672295D02*
X197767572Y-108472295D01*
X197767572Y-108472295D02*
X197767572Y-107672295D01*
X198148524Y-108472295D02*
X198148524Y-107672295D01*
X198148524Y-107672295D02*
X198339000Y-107672295D01*
X198339000Y-107672295D02*
X198453286Y-107710390D01*
X198453286Y-107710390D02*
X198529476Y-107786580D01*
X198529476Y-107786580D02*
X198567571Y-107862771D01*
X198567571Y-107862771D02*
X198605667Y-108015152D01*
X198605667Y-108015152D02*
X198605667Y-108129438D01*
X198605667Y-108129438D02*
X198567571Y-108281819D01*
X198567571Y-108281819D02*
X198529476Y-108358009D01*
X198529476Y-108358009D02*
X198453286Y-108434200D01*
X198453286Y-108434200D02*
X198339000Y-108472295D01*
X198339000Y-108472295D02*
X198148524Y-108472295D01*
X196929476Y-110250390D02*
X196853286Y-110212295D01*
X196853286Y-110212295D02*
X196739000Y-110212295D01*
X196739000Y-110212295D02*
X196624714Y-110250390D01*
X196624714Y-110250390D02*
X196548524Y-110326580D01*
X196548524Y-110326580D02*
X196510429Y-110402771D01*
X196510429Y-110402771D02*
X196472333Y-110555152D01*
X196472333Y-110555152D02*
X196472333Y-110669438D01*
X196472333Y-110669438D02*
X196510429Y-110821819D01*
X196510429Y-110821819D02*
X196548524Y-110898009D01*
X196548524Y-110898009D02*
X196624714Y-110974200D01*
X196624714Y-110974200D02*
X196739000Y-111012295D01*
X196739000Y-111012295D02*
X196815191Y-111012295D01*
X196815191Y-111012295D02*
X196929476Y-110974200D01*
X196929476Y-110974200D02*
X196967572Y-110936104D01*
X196967572Y-110936104D02*
X196967572Y-110669438D01*
X196967572Y-110669438D02*
X196815191Y-110669438D01*
X197310429Y-111012295D02*
X197310429Y-110212295D01*
X197310429Y-110212295D02*
X197767572Y-111012295D01*
X197767572Y-111012295D02*
X197767572Y-110212295D01*
X198148524Y-111012295D02*
X198148524Y-110212295D01*
X198148524Y-110212295D02*
X198339000Y-110212295D01*
X198339000Y-110212295D02*
X198453286Y-110250390D01*
X198453286Y-110250390D02*
X198529476Y-110326580D01*
X198529476Y-110326580D02*
X198567571Y-110402771D01*
X198567571Y-110402771D02*
X198605667Y-110555152D01*
X198605667Y-110555152D02*
X198605667Y-110669438D01*
X198605667Y-110669438D02*
X198567571Y-110821819D01*
X198567571Y-110821819D02*
X198529476Y-110898009D01*
X198529476Y-110898009D02*
X198453286Y-110974200D01*
X198453286Y-110974200D02*
X198339000Y-111012295D01*
X198339000Y-111012295D02*
X198148524Y-111012295D01*
X196662810Y-112762295D02*
X196739000Y-112762295D01*
X196739000Y-112762295D02*
X196815191Y-112800390D01*
X196815191Y-112800390D02*
X196853286Y-112838485D01*
X196853286Y-112838485D02*
X196891381Y-112914676D01*
X196891381Y-112914676D02*
X196929476Y-113067057D01*
X196929476Y-113067057D02*
X196929476Y-113257533D01*
X196929476Y-113257533D02*
X196891381Y-113409914D01*
X196891381Y-113409914D02*
X196853286Y-113486104D01*
X196853286Y-113486104D02*
X196815191Y-113524200D01*
X196815191Y-113524200D02*
X196739000Y-113562295D01*
X196739000Y-113562295D02*
X196662810Y-113562295D01*
X196662810Y-113562295D02*
X196586619Y-113524200D01*
X196586619Y-113524200D02*
X196548524Y-113486104D01*
X196548524Y-113486104D02*
X196510429Y-113409914D01*
X196510429Y-113409914D02*
X196472333Y-113257533D01*
X196472333Y-113257533D02*
X196472333Y-113067057D01*
X196472333Y-113067057D02*
X196510429Y-112914676D01*
X196510429Y-112914676D02*
X196548524Y-112838485D01*
X196548524Y-112838485D02*
X196586619Y-112800390D01*
X196586619Y-112800390D02*
X196662810Y-112762295D01*
X197691381Y-113562295D02*
X197234238Y-113562295D01*
X197462810Y-113562295D02*
X197462810Y-112762295D01*
X197462810Y-112762295D02*
X197386619Y-112876580D01*
X197386619Y-112876580D02*
X197310429Y-112952771D01*
X197310429Y-112952771D02*
X197234238Y-112990866D01*
X197958048Y-112762295D02*
X198491382Y-112762295D01*
X198491382Y-112762295D02*
X198148524Y-113562295D01*
X196662810Y-115362295D02*
X196739000Y-115362295D01*
X196739000Y-115362295D02*
X196815191Y-115400390D01*
X196815191Y-115400390D02*
X196853286Y-115438485D01*
X196853286Y-115438485D02*
X196891381Y-115514676D01*
X196891381Y-115514676D02*
X196929476Y-115667057D01*
X196929476Y-115667057D02*
X196929476Y-115857533D01*
X196929476Y-115857533D02*
X196891381Y-116009914D01*
X196891381Y-116009914D02*
X196853286Y-116086104D01*
X196853286Y-116086104D02*
X196815191Y-116124200D01*
X196815191Y-116124200D02*
X196739000Y-116162295D01*
X196739000Y-116162295D02*
X196662810Y-116162295D01*
X196662810Y-116162295D02*
X196586619Y-116124200D01*
X196586619Y-116124200D02*
X196548524Y-116086104D01*
X196548524Y-116086104D02*
X196510429Y-116009914D01*
X196510429Y-116009914D02*
X196472333Y-115857533D01*
X196472333Y-115857533D02*
X196472333Y-115667057D01*
X196472333Y-115667057D02*
X196510429Y-115514676D01*
X196510429Y-115514676D02*
X196548524Y-115438485D01*
X196548524Y-115438485D02*
X196586619Y-115400390D01*
X196586619Y-115400390D02*
X196662810Y-115362295D01*
X197234238Y-115438485D02*
X197272334Y-115400390D01*
X197272334Y-115400390D02*
X197348524Y-115362295D01*
X197348524Y-115362295D02*
X197539000Y-115362295D01*
X197539000Y-115362295D02*
X197615191Y-115400390D01*
X197615191Y-115400390D02*
X197653286Y-115438485D01*
X197653286Y-115438485D02*
X197691381Y-115514676D01*
X197691381Y-115514676D02*
X197691381Y-115590866D01*
X197691381Y-115590866D02*
X197653286Y-115705152D01*
X197653286Y-115705152D02*
X197196143Y-116162295D01*
X197196143Y-116162295D02*
X197691381Y-116162295D01*
X198186620Y-115362295D02*
X198262810Y-115362295D01*
X198262810Y-115362295D02*
X198339001Y-115400390D01*
X198339001Y-115400390D02*
X198377096Y-115438485D01*
X198377096Y-115438485D02*
X198415191Y-115514676D01*
X198415191Y-115514676D02*
X198453286Y-115667057D01*
X198453286Y-115667057D02*
X198453286Y-115857533D01*
X198453286Y-115857533D02*
X198415191Y-116009914D01*
X198415191Y-116009914D02*
X198377096Y-116086104D01*
X198377096Y-116086104D02*
X198339001Y-116124200D01*
X198339001Y-116124200D02*
X198262810Y-116162295D01*
X198262810Y-116162295D02*
X198186620Y-116162295D01*
X198186620Y-116162295D02*
X198110429Y-116124200D01*
X198110429Y-116124200D02*
X198072334Y-116086104D01*
X198072334Y-116086104D02*
X198034239Y-116009914D01*
X198034239Y-116009914D02*
X197996143Y-115857533D01*
X197996143Y-115857533D02*
X197996143Y-115667057D01*
X197996143Y-115667057D02*
X198034239Y-115514676D01*
X198034239Y-115514676D02*
X198072334Y-115438485D01*
X198072334Y-115438485D02*
X198110429Y-115400390D01*
X198110429Y-115400390D02*
X198186620Y-115362295D01*
X196662810Y-117862295D02*
X196739000Y-117862295D01*
X196739000Y-117862295D02*
X196815191Y-117900390D01*
X196815191Y-117900390D02*
X196853286Y-117938485D01*
X196853286Y-117938485D02*
X196891381Y-118014676D01*
X196891381Y-118014676D02*
X196929476Y-118167057D01*
X196929476Y-118167057D02*
X196929476Y-118357533D01*
X196929476Y-118357533D02*
X196891381Y-118509914D01*
X196891381Y-118509914D02*
X196853286Y-118586104D01*
X196853286Y-118586104D02*
X196815191Y-118624200D01*
X196815191Y-118624200D02*
X196739000Y-118662295D01*
X196739000Y-118662295D02*
X196662810Y-118662295D01*
X196662810Y-118662295D02*
X196586619Y-118624200D01*
X196586619Y-118624200D02*
X196548524Y-118586104D01*
X196548524Y-118586104D02*
X196510429Y-118509914D01*
X196510429Y-118509914D02*
X196472333Y-118357533D01*
X196472333Y-118357533D02*
X196472333Y-118167057D01*
X196472333Y-118167057D02*
X196510429Y-118014676D01*
X196510429Y-118014676D02*
X196548524Y-117938485D01*
X196548524Y-117938485D02*
X196586619Y-117900390D01*
X196586619Y-117900390D02*
X196662810Y-117862295D01*
X197234238Y-117938485D02*
X197272334Y-117900390D01*
X197272334Y-117900390D02*
X197348524Y-117862295D01*
X197348524Y-117862295D02*
X197539000Y-117862295D01*
X197539000Y-117862295D02*
X197615191Y-117900390D01*
X197615191Y-117900390D02*
X197653286Y-117938485D01*
X197653286Y-117938485D02*
X197691381Y-118014676D01*
X197691381Y-118014676D02*
X197691381Y-118090866D01*
X197691381Y-118090866D02*
X197653286Y-118205152D01*
X197653286Y-118205152D02*
X197196143Y-118662295D01*
X197196143Y-118662295D02*
X197691381Y-118662295D01*
X197996143Y-117938485D02*
X198034239Y-117900390D01*
X198034239Y-117900390D02*
X198110429Y-117862295D01*
X198110429Y-117862295D02*
X198300905Y-117862295D01*
X198300905Y-117862295D02*
X198377096Y-117900390D01*
X198377096Y-117900390D02*
X198415191Y-117938485D01*
X198415191Y-117938485D02*
X198453286Y-118014676D01*
X198453286Y-118014676D02*
X198453286Y-118090866D01*
X198453286Y-118090866D02*
X198415191Y-118205152D01*
X198415191Y-118205152D02*
X197958048Y-118662295D01*
X197958048Y-118662295D02*
X198453286Y-118662295D01*
X196662810Y-120372295D02*
X196739000Y-120372295D01*
X196739000Y-120372295D02*
X196815191Y-120410390D01*
X196815191Y-120410390D02*
X196853286Y-120448485D01*
X196853286Y-120448485D02*
X196891381Y-120524676D01*
X196891381Y-120524676D02*
X196929476Y-120677057D01*
X196929476Y-120677057D02*
X196929476Y-120867533D01*
X196929476Y-120867533D02*
X196891381Y-121019914D01*
X196891381Y-121019914D02*
X196853286Y-121096104D01*
X196853286Y-121096104D02*
X196815191Y-121134200D01*
X196815191Y-121134200D02*
X196739000Y-121172295D01*
X196739000Y-121172295D02*
X196662810Y-121172295D01*
X196662810Y-121172295D02*
X196586619Y-121134200D01*
X196586619Y-121134200D02*
X196548524Y-121096104D01*
X196548524Y-121096104D02*
X196510429Y-121019914D01*
X196510429Y-121019914D02*
X196472333Y-120867533D01*
X196472333Y-120867533D02*
X196472333Y-120677057D01*
X196472333Y-120677057D02*
X196510429Y-120524676D01*
X196510429Y-120524676D02*
X196548524Y-120448485D01*
X196548524Y-120448485D02*
X196586619Y-120410390D01*
X196586619Y-120410390D02*
X196662810Y-120372295D01*
X197234238Y-120448485D02*
X197272334Y-120410390D01*
X197272334Y-120410390D02*
X197348524Y-120372295D01*
X197348524Y-120372295D02*
X197539000Y-120372295D01*
X197539000Y-120372295D02*
X197615191Y-120410390D01*
X197615191Y-120410390D02*
X197653286Y-120448485D01*
X197653286Y-120448485D02*
X197691381Y-120524676D01*
X197691381Y-120524676D02*
X197691381Y-120600866D01*
X197691381Y-120600866D02*
X197653286Y-120715152D01*
X197653286Y-120715152D02*
X197196143Y-121172295D01*
X197196143Y-121172295D02*
X197691381Y-121172295D01*
X198377096Y-120638961D02*
X198377096Y-121172295D01*
X198186620Y-120334200D02*
X197996143Y-120905628D01*
X197996143Y-120905628D02*
X198491382Y-120905628D01*
X196929476Y-123712295D02*
X196472333Y-123712295D01*
X196700905Y-123712295D02*
X196700905Y-122912295D01*
X196700905Y-122912295D02*
X196624714Y-123026580D01*
X196624714Y-123026580D02*
X196548524Y-123102771D01*
X196548524Y-123102771D02*
X196472333Y-123140866D01*
X197424715Y-122912295D02*
X197500905Y-122912295D01*
X197500905Y-122912295D02*
X197577096Y-122950390D01*
X197577096Y-122950390D02*
X197615191Y-122988485D01*
X197615191Y-122988485D02*
X197653286Y-123064676D01*
X197653286Y-123064676D02*
X197691381Y-123217057D01*
X197691381Y-123217057D02*
X197691381Y-123407533D01*
X197691381Y-123407533D02*
X197653286Y-123559914D01*
X197653286Y-123559914D02*
X197615191Y-123636104D01*
X197615191Y-123636104D02*
X197577096Y-123674200D01*
X197577096Y-123674200D02*
X197500905Y-123712295D01*
X197500905Y-123712295D02*
X197424715Y-123712295D01*
X197424715Y-123712295D02*
X197348524Y-123674200D01*
X197348524Y-123674200D02*
X197310429Y-123636104D01*
X197310429Y-123636104D02*
X197272334Y-123559914D01*
X197272334Y-123559914D02*
X197234238Y-123407533D01*
X197234238Y-123407533D02*
X197234238Y-123217057D01*
X197234238Y-123217057D02*
X197272334Y-123064676D01*
X197272334Y-123064676D02*
X197310429Y-122988485D01*
X197310429Y-122988485D02*
X197348524Y-122950390D01*
X197348524Y-122950390D02*
X197424715Y-122912295D01*
X198186620Y-122912295D02*
X198262810Y-122912295D01*
X198262810Y-122912295D02*
X198339001Y-122950390D01*
X198339001Y-122950390D02*
X198377096Y-122988485D01*
X198377096Y-122988485D02*
X198415191Y-123064676D01*
X198415191Y-123064676D02*
X198453286Y-123217057D01*
X198453286Y-123217057D02*
X198453286Y-123407533D01*
X198453286Y-123407533D02*
X198415191Y-123559914D01*
X198415191Y-123559914D02*
X198377096Y-123636104D01*
X198377096Y-123636104D02*
X198339001Y-123674200D01*
X198339001Y-123674200D02*
X198262810Y-123712295D01*
X198262810Y-123712295D02*
X198186620Y-123712295D01*
X198186620Y-123712295D02*
X198110429Y-123674200D01*
X198110429Y-123674200D02*
X198072334Y-123636104D01*
X198072334Y-123636104D02*
X198034239Y-123559914D01*
X198034239Y-123559914D02*
X197996143Y-123407533D01*
X197996143Y-123407533D02*
X197996143Y-123217057D01*
X197996143Y-123217057D02*
X198034239Y-123064676D01*
X198034239Y-123064676D02*
X198072334Y-122988485D01*
X198072334Y-122988485D02*
X198110429Y-122950390D01*
X198110429Y-122950390D02*
X198186620Y-122912295D01*
X196929476Y-128792295D02*
X196472333Y-128792295D01*
X196700905Y-128792295D02*
X196700905Y-127992295D01*
X196700905Y-127992295D02*
X196624714Y-128106580D01*
X196624714Y-128106580D02*
X196548524Y-128182771D01*
X196548524Y-128182771D02*
X196472333Y-128220866D01*
X197424715Y-127992295D02*
X197500905Y-127992295D01*
X197500905Y-127992295D02*
X197577096Y-128030390D01*
X197577096Y-128030390D02*
X197615191Y-128068485D01*
X197615191Y-128068485D02*
X197653286Y-128144676D01*
X197653286Y-128144676D02*
X197691381Y-128297057D01*
X197691381Y-128297057D02*
X197691381Y-128487533D01*
X197691381Y-128487533D02*
X197653286Y-128639914D01*
X197653286Y-128639914D02*
X197615191Y-128716104D01*
X197615191Y-128716104D02*
X197577096Y-128754200D01*
X197577096Y-128754200D02*
X197500905Y-128792295D01*
X197500905Y-128792295D02*
X197424715Y-128792295D01*
X197424715Y-128792295D02*
X197348524Y-128754200D01*
X197348524Y-128754200D02*
X197310429Y-128716104D01*
X197310429Y-128716104D02*
X197272334Y-128639914D01*
X197272334Y-128639914D02*
X197234238Y-128487533D01*
X197234238Y-128487533D02*
X197234238Y-128297057D01*
X197234238Y-128297057D02*
X197272334Y-128144676D01*
X197272334Y-128144676D02*
X197310429Y-128068485D01*
X197310429Y-128068485D02*
X197348524Y-128030390D01*
X197348524Y-128030390D02*
X197424715Y-127992295D01*
X198377096Y-128258961D02*
X198377096Y-128792295D01*
X198186620Y-127954200D02*
X197996143Y-128525628D01*
X197996143Y-128525628D02*
X198491382Y-128525628D01*
D12*
X198218285Y-130140328D02*
X198218285Y-131140328D01*
X198218285Y-130283185D02*
X198289714Y-130211757D01*
X198289714Y-130211757D02*
X198432571Y-130140328D01*
X198432571Y-130140328D02*
X198646857Y-130140328D01*
X198646857Y-130140328D02*
X198789714Y-130211757D01*
X198789714Y-130211757D02*
X198861143Y-130354614D01*
X198861143Y-130354614D02*
X198861143Y-131140328D01*
X199575428Y-131140328D02*
X199575428Y-130140328D01*
X199575428Y-129640328D02*
X199504000Y-129711757D01*
X199504000Y-129711757D02*
X199575428Y-129783185D01*
X199575428Y-129783185D02*
X199646857Y-129711757D01*
X199646857Y-129711757D02*
X199575428Y-129640328D01*
X199575428Y-129640328D02*
X199575428Y-129783185D01*
X200932572Y-131068900D02*
X200789714Y-131140328D01*
X200789714Y-131140328D02*
X200504000Y-131140328D01*
X200504000Y-131140328D02*
X200361143Y-131068900D01*
X200361143Y-131068900D02*
X200289714Y-130997471D01*
X200289714Y-130997471D02*
X200218286Y-130854614D01*
X200218286Y-130854614D02*
X200218286Y-130426042D01*
X200218286Y-130426042D02*
X200289714Y-130283185D01*
X200289714Y-130283185D02*
X200361143Y-130211757D01*
X200361143Y-130211757D02*
X200504000Y-130140328D01*
X200504000Y-130140328D02*
X200789714Y-130140328D01*
X200789714Y-130140328D02*
X200932572Y-130211757D01*
X202146857Y-131068900D02*
X202004000Y-131140328D01*
X202004000Y-131140328D02*
X201718286Y-131140328D01*
X201718286Y-131140328D02*
X201575428Y-131068900D01*
X201575428Y-131068900D02*
X201504000Y-130926042D01*
X201504000Y-130926042D02*
X201504000Y-130354614D01*
X201504000Y-130354614D02*
X201575428Y-130211757D01*
X201575428Y-130211757D02*
X201718286Y-130140328D01*
X201718286Y-130140328D02*
X202004000Y-130140328D01*
X202004000Y-130140328D02*
X202146857Y-130211757D01*
X202146857Y-130211757D02*
X202218286Y-130354614D01*
X202218286Y-130354614D02*
X202218286Y-130497471D01*
X202218286Y-130497471D02*
X201504000Y-130640328D01*
X202861142Y-130997471D02*
X202932571Y-131068900D01*
X202932571Y-131068900D02*
X202861142Y-131140328D01*
X202861142Y-131140328D02*
X202789714Y-131068900D01*
X202789714Y-131068900D02*
X202861142Y-130997471D01*
X202861142Y-130997471D02*
X202861142Y-131140328D01*
X202861142Y-130568900D02*
X202789714Y-129711757D01*
X202789714Y-129711757D02*
X202861142Y-129640328D01*
X202861142Y-129640328D02*
X202932571Y-129711757D01*
X202932571Y-129711757D02*
X202861142Y-130568900D01*
X202861142Y-130568900D02*
X202861142Y-129640328D01*
X203575428Y-130140328D02*
X203575428Y-131140328D01*
X203575428Y-130283185D02*
X203646857Y-130211757D01*
X203646857Y-130211757D02*
X203789714Y-130140328D01*
X203789714Y-130140328D02*
X204004000Y-130140328D01*
X204004000Y-130140328D02*
X204146857Y-130211757D01*
X204146857Y-130211757D02*
X204218286Y-130354614D01*
X204218286Y-130354614D02*
X204218286Y-131140328D01*
X205575429Y-131140328D02*
X205575429Y-130354614D01*
X205575429Y-130354614D02*
X205504000Y-130211757D01*
X205504000Y-130211757D02*
X205361143Y-130140328D01*
X205361143Y-130140328D02*
X205075429Y-130140328D01*
X205075429Y-130140328D02*
X204932571Y-130211757D01*
X205575429Y-131068900D02*
X205432571Y-131140328D01*
X205432571Y-131140328D02*
X205075429Y-131140328D01*
X205075429Y-131140328D02*
X204932571Y-131068900D01*
X204932571Y-131068900D02*
X204861143Y-130926042D01*
X204861143Y-130926042D02*
X204861143Y-130783185D01*
X204861143Y-130783185D02*
X204932571Y-130640328D01*
X204932571Y-130640328D02*
X205075429Y-130568900D01*
X205075429Y-130568900D02*
X205432571Y-130568900D01*
X205432571Y-130568900D02*
X205575429Y-130497471D01*
X206289714Y-130140328D02*
X206289714Y-131140328D01*
X206289714Y-130283185D02*
X206361143Y-130211757D01*
X206361143Y-130211757D02*
X206504000Y-130140328D01*
X206504000Y-130140328D02*
X206718286Y-130140328D01*
X206718286Y-130140328D02*
X206861143Y-130211757D01*
X206861143Y-130211757D02*
X206932572Y-130354614D01*
X206932572Y-130354614D02*
X206932572Y-131140328D01*
X207861143Y-131140328D02*
X207718286Y-131068900D01*
X207718286Y-131068900D02*
X207646857Y-130997471D01*
X207646857Y-130997471D02*
X207575429Y-130854614D01*
X207575429Y-130854614D02*
X207575429Y-130426042D01*
X207575429Y-130426042D02*
X207646857Y-130283185D01*
X207646857Y-130283185D02*
X207718286Y-130211757D01*
X207718286Y-130211757D02*
X207861143Y-130140328D01*
X207861143Y-130140328D02*
X208075429Y-130140328D01*
X208075429Y-130140328D02*
X208218286Y-130211757D01*
X208218286Y-130211757D02*
X208289715Y-130283185D01*
X208289715Y-130283185D02*
X208361143Y-130426042D01*
X208361143Y-130426042D02*
X208361143Y-130854614D01*
X208361143Y-130854614D02*
X208289715Y-130997471D01*
X208289715Y-130997471D02*
X208218286Y-131068900D01*
X208218286Y-131068900D02*
X208075429Y-131140328D01*
X208075429Y-131140328D02*
X207861143Y-131140328D01*
D13*
%TO.C,MCU1*%
X211890000Y-132240000D02*
X211890000Y-99220000D01*
X194110000Y-132240000D02*
X211890000Y-132240000D01*
X194110000Y-99220000D02*
X194110000Y-132240000D01*
X211890000Y-99220000D02*
X194110000Y-99220000D01*
D14*
%TO.C,D1*%
X289500000Y-164250000D02*
X289500000Y-163750000D01*
X289900000Y-164250000D02*
X289500000Y-164850000D01*
X289100000Y-164250000D02*
X289900000Y-164250000D01*
X289500000Y-164850000D02*
X289100000Y-164250000D01*
X289500000Y-164850000D02*
X290050000Y-164850000D01*
X289500000Y-164850000D02*
X288950000Y-164850000D01*
X289500000Y-165250000D02*
X289500000Y-164850000D01*
%TO.C,D2*%
X289500000Y-145250000D02*
X289500000Y-144750000D01*
X289900000Y-145250000D02*
X289500000Y-145850000D01*
X289100000Y-145250000D02*
X289900000Y-145250000D01*
X289500000Y-145850000D02*
X289100000Y-145250000D01*
X289500000Y-145850000D02*
X290050000Y-145850000D01*
X289500000Y-145850000D02*
X288950000Y-145850000D01*
X289500000Y-146250000D02*
X289500000Y-145850000D01*
%TO.C,D3*%
X289500000Y-126250000D02*
X289500000Y-125750000D01*
X289900000Y-126250000D02*
X289500000Y-126850000D01*
X289100000Y-126250000D02*
X289900000Y-126250000D01*
X289500000Y-126850000D02*
X289100000Y-126250000D01*
X289500000Y-126850000D02*
X290050000Y-126850000D01*
X289500000Y-126850000D02*
X288950000Y-126850000D01*
X289500000Y-127250000D02*
X289500000Y-126850000D01*
%TO.C,D4*%
X270500000Y-164250000D02*
X270500000Y-163750000D01*
X270900000Y-164250000D02*
X270500000Y-164850000D01*
X270100000Y-164250000D02*
X270900000Y-164250000D01*
X270500000Y-164850000D02*
X270100000Y-164250000D01*
X270500000Y-164850000D02*
X271050000Y-164850000D01*
X270500000Y-164850000D02*
X269950000Y-164850000D01*
X270500000Y-165250000D02*
X270500000Y-164850000D01*
%TO.C,D5*%
X270500000Y-145250000D02*
X270500000Y-144750000D01*
X270900000Y-145250000D02*
X270500000Y-145850000D01*
X270100000Y-145250000D02*
X270900000Y-145250000D01*
X270500000Y-145850000D02*
X270100000Y-145250000D01*
X270500000Y-145850000D02*
X271050000Y-145850000D01*
X270500000Y-145850000D02*
X269950000Y-145850000D01*
X270500000Y-146250000D02*
X270500000Y-145850000D01*
%TO.C,D6*%
X270500000Y-126250000D02*
X270500000Y-125750000D01*
X270900000Y-126250000D02*
X270500000Y-126850000D01*
X270100000Y-126250000D02*
X270900000Y-126250000D01*
X270500000Y-126850000D02*
X270100000Y-126250000D01*
X270500000Y-126850000D02*
X271050000Y-126850000D01*
X270500000Y-126850000D02*
X269950000Y-126850000D01*
X270500000Y-127250000D02*
X270500000Y-126850000D01*
%TO.C,D7*%
X251500000Y-156250000D02*
X251500000Y-155750000D01*
X251900000Y-156250000D02*
X251500000Y-156850000D01*
X251100000Y-156250000D02*
X251900000Y-156250000D01*
X251500000Y-156850000D02*
X251100000Y-156250000D01*
X251500000Y-156850000D02*
X252050000Y-156850000D01*
X251500000Y-156850000D02*
X250950000Y-156850000D01*
X251500000Y-157250000D02*
X251500000Y-156850000D01*
%TO.C,D8*%
X251500000Y-137250000D02*
X251500000Y-136750000D01*
X251900000Y-137250000D02*
X251500000Y-137850000D01*
X251100000Y-137250000D02*
X251900000Y-137250000D01*
X251500000Y-137850000D02*
X251100000Y-137250000D01*
X251500000Y-137850000D02*
X252050000Y-137850000D01*
X251500000Y-137850000D02*
X250950000Y-137850000D01*
X251500000Y-138250000D02*
X251500000Y-137850000D01*
%TO.C,D9*%
X251500000Y-118250000D02*
X251500000Y-117750000D01*
X251900000Y-118250000D02*
X251500000Y-118850000D01*
X251100000Y-118250000D02*
X251900000Y-118250000D01*
X251500000Y-118850000D02*
X251100000Y-118250000D01*
X251500000Y-118850000D02*
X252050000Y-118850000D01*
X251500000Y-118850000D02*
X250950000Y-118850000D01*
X251500000Y-119250000D02*
X251500000Y-118850000D01*
%TO.C,D10*%
X232500000Y-151250000D02*
X232500000Y-150750000D01*
X232900000Y-151250000D02*
X232500000Y-151850000D01*
X232100000Y-151250000D02*
X232900000Y-151250000D01*
X232500000Y-151850000D02*
X232100000Y-151250000D01*
X232500000Y-151850000D02*
X233050000Y-151850000D01*
X232500000Y-151850000D02*
X231950000Y-151850000D01*
X232500000Y-152250000D02*
X232500000Y-151850000D01*
%TO.C,D11*%
X232500000Y-132250000D02*
X232500000Y-131750000D01*
X232900000Y-132250000D02*
X232500000Y-132850000D01*
X232100000Y-132250000D02*
X232900000Y-132250000D01*
X232500000Y-132850000D02*
X232100000Y-132250000D01*
X232500000Y-132850000D02*
X233050000Y-132850000D01*
X232500000Y-132850000D02*
X231950000Y-132850000D01*
X232500000Y-133250000D02*
X232500000Y-132850000D01*
%TO.C,D12*%
X232500000Y-113250000D02*
X232500000Y-112750000D01*
X232900000Y-113250000D02*
X232500000Y-113850000D01*
X232100000Y-113250000D02*
X232900000Y-113250000D01*
X232500000Y-113850000D02*
X232100000Y-113250000D01*
X232500000Y-113850000D02*
X233050000Y-113850000D01*
X232500000Y-113850000D02*
X231950000Y-113850000D01*
X232500000Y-114250000D02*
X232500000Y-113850000D01*
%TO.C,D13*%
X213500000Y-156250000D02*
X213500000Y-155750000D01*
X213900000Y-156250000D02*
X213500000Y-156850000D01*
X213100000Y-156250000D02*
X213900000Y-156250000D01*
X213500000Y-156850000D02*
X213100000Y-156250000D01*
X213500000Y-156850000D02*
X214050000Y-156850000D01*
X213500000Y-156850000D02*
X212950000Y-156850000D01*
X213500000Y-157250000D02*
X213500000Y-156850000D01*
%TO.C,D14*%
X194500000Y-159250000D02*
X194500000Y-158750000D01*
X194900000Y-159250000D02*
X194500000Y-159850000D01*
X194100000Y-159250000D02*
X194900000Y-159250000D01*
X194500000Y-159850000D02*
X194100000Y-159250000D01*
X194500000Y-159850000D02*
X195050000Y-159850000D01*
X194500000Y-159850000D02*
X193950000Y-159850000D01*
X194500000Y-160250000D02*
X194500000Y-159850000D01*
%TO.C,D15*%
X223000000Y-180000000D02*
X223000000Y-179500000D01*
X223400000Y-180000000D02*
X223000000Y-180600000D01*
X222600000Y-180000000D02*
X223400000Y-180000000D01*
X223000000Y-180600000D02*
X222600000Y-180000000D01*
X223000000Y-180600000D02*
X223550000Y-180600000D01*
X223000000Y-180600000D02*
X222450000Y-180600000D01*
X223000000Y-181000000D02*
X223000000Y-180600000D01*
%TO.C,D16*%
X201972017Y-183400493D02*
X201902430Y-182905359D01*
X202368124Y-183344824D02*
X202055521Y-183994654D01*
X201575909Y-183456162D02*
X202368124Y-183344824D01*
X202055521Y-183994654D02*
X201575909Y-183456162D01*
X202055521Y-183994654D02*
X202600168Y-183918109D01*
X202055521Y-183994654D02*
X201510873Y-184071199D01*
X202111190Y-184390761D02*
X202055521Y-183994654D01*
%TO.C,D17*%
X179296226Y-186521758D02*
X179100861Y-186061505D01*
X179664428Y-186365465D02*
X179530665Y-187074061D01*
X178928024Y-186678050D02*
X179664428Y-186365465D01*
X179530665Y-187074061D02*
X178928024Y-186678050D01*
X179530665Y-187074061D02*
X180036943Y-186859159D01*
X179530665Y-187074061D02*
X179024387Y-187288963D01*
X179686957Y-187442263D02*
X179530665Y-187074061D01*
%TO.C,D18*%
X198250000Y-144000000D02*
X197750000Y-144000000D01*
X198250000Y-143600000D02*
X198850000Y-144000000D01*
X198250000Y-144400000D02*
X198250000Y-143600000D01*
X198850000Y-144000000D02*
X198250000Y-144400000D01*
X198850000Y-144000000D02*
X198850000Y-143450000D01*
X198850000Y-144000000D02*
X198850000Y-144550000D01*
X199250000Y-144000000D02*
X198850000Y-144000000D01*
%TO.C,D19*%
X198500000Y-118750000D02*
X198500000Y-118250000D01*
X198900000Y-118750000D02*
X198500000Y-119350000D01*
X198100000Y-118750000D02*
X198900000Y-118750000D01*
X198500000Y-119350000D02*
X198100000Y-118750000D01*
X198500000Y-119350000D02*
X199050000Y-119350000D01*
X198500000Y-119350000D02*
X197950000Y-119350000D01*
X198500000Y-119750000D02*
X198500000Y-119350000D01*
%TO.C,D20*%
X216500000Y-119250000D02*
X216500000Y-118750000D01*
X216900000Y-119250000D02*
X216500000Y-119850000D01*
X216100000Y-119250000D02*
X216900000Y-119250000D01*
X216500000Y-119850000D02*
X216100000Y-119250000D01*
X216500000Y-119850000D02*
X217050000Y-119850000D01*
X216500000Y-119850000D02*
X215950000Y-119850000D01*
X216500000Y-120250000D02*
X216500000Y-119850000D01*
%TO.C,D21*%
X213500000Y-137250000D02*
X213500000Y-136750000D01*
X213900000Y-137250000D02*
X213500000Y-137850000D01*
X213100000Y-137250000D02*
X213900000Y-137250000D01*
X213500000Y-137850000D02*
X213100000Y-137250000D01*
X213500000Y-137850000D02*
X214050000Y-137850000D01*
X213500000Y-137850000D02*
X212950000Y-137850000D01*
X213500000Y-138250000D02*
X213500000Y-137850000D01*
D15*
%TO.C,B1*%
X200350000Y-100275000D02*
X200350000Y-99725000D01*
X201375000Y-98150000D02*
X200450000Y-98150000D01*
X205150000Y-98150000D02*
X204225000Y-98150000D01*
X205150000Y-101850000D02*
X200450000Y-101850000D01*
X205250000Y-100275000D02*
X205250000Y-99725000D01*
%TD*%
D16*
%TO.C,MCU1*%
X195380000Y-103030000D03*
X195380000Y-105570000D03*
X195380000Y-108110000D03*
X195380000Y-110650000D03*
X195380000Y-113190000D03*
X195380000Y-115730000D03*
X195380000Y-118270000D03*
X195380000Y-120810000D03*
X195380000Y-123350000D03*
X195380000Y-125890000D03*
X195380000Y-128430000D03*
X195380000Y-130970000D03*
X210620000Y-130970000D03*
X210620000Y-128430000D03*
X210620000Y-125890000D03*
X210620000Y-123350000D03*
X210620000Y-120810000D03*
X210620000Y-118270000D03*
X210620000Y-115730000D03*
X210620000Y-113190000D03*
X210620000Y-110650000D03*
X210620000Y-108110000D03*
X210620000Y-105570000D03*
X210620000Y-103030000D03*
X197920000Y-125890000D03*
X200460000Y-125890000D03*
X203000000Y-125890000D03*
%TD*%
M02*
