%TF.GenerationSoftware,KiCad,Pcbnew,8.0.6*%
%TF.CreationDate,2024-12-23T22:30:19+01:00*%
%TF.ProjectId,right,72696768-742e-46b6-9963-61645f706362,v1.0.0*%
%TF.SameCoordinates,Original*%
%TF.FileFunction,Paste,Top*%
%TF.FilePolarity,Positive*%
%FSLAX46Y46*%
G04 Gerber Fmt 4.6, Leading zero omitted, Abs format (unit mm)*
G04 Created by KiCad (PCBNEW 8.0.6) date 2024-12-23 22:30:19*
%MOMM*%
%LPD*%
G01*
G04 APERTURE LIST*
G04 Aperture macros list*
%AMRotRect*
0 Rectangle, with rotation*
0 The origin of the aperture is its center*
0 $1 length*
0 $2 width*
0 $3 Rotation angle, in degrees counterclockwise*
0 Add horizontal line*
21,1,$1,$2,0,0,$3*%
G04 Aperture macros list end*
%ADD10R,1.200000X0.900000*%
%ADD11RotRect,0.900000X1.200000X98.000000*%
%ADD12RotRect,0.900000X1.200000X113.000000*%
%ADD13R,0.900000X1.200000*%
%ADD14R,1.550000X1.000000*%
G04 APERTURE END LIST*
D10*
%TO.C,D1*%
X289500000Y-166150000D03*
X289500000Y-162850000D03*
%TD*%
%TO.C,D2*%
X289500000Y-147150000D03*
X289500000Y-143850000D03*
%TD*%
%TO.C,D3*%
X289500000Y-128150000D03*
X289500000Y-124850000D03*
%TD*%
%TO.C,D4*%
X270500000Y-166150000D03*
X270500000Y-162850000D03*
%TD*%
%TO.C,D5*%
X270500000Y-147150000D03*
X270500000Y-143850000D03*
%TD*%
%TO.C,D6*%
X270500000Y-128150000D03*
X270500000Y-124850000D03*
%TD*%
%TO.C,D7*%
X251500000Y-158150000D03*
X251500000Y-154850000D03*
%TD*%
%TO.C,D8*%
X251500000Y-139150000D03*
X251500000Y-135850000D03*
%TD*%
%TO.C,D9*%
X251500000Y-120150000D03*
X251500000Y-116850000D03*
%TD*%
%TO.C,D10*%
X232500000Y-153150000D03*
X232500000Y-149850000D03*
%TD*%
%TO.C,D11*%
X232500000Y-134150000D03*
X232500000Y-130850000D03*
%TD*%
%TO.C,D12*%
X232500000Y-115150000D03*
X232500000Y-111850000D03*
%TD*%
%TO.C,D13*%
X213500000Y-158150000D03*
X213500000Y-154850000D03*
%TD*%
%TO.C,D14*%
X194500000Y-161150000D03*
X194500000Y-157850000D03*
%TD*%
%TO.C,D15*%
X223000000Y-181900000D03*
X223000000Y-178600000D03*
%TD*%
D11*
%TO.C,D16*%
X202236446Y-185282002D03*
X201777174Y-182014118D03*
%TD*%
D12*
%TO.C,D17*%
X180038615Y-188270717D03*
X178749203Y-185233051D03*
%TD*%
D13*
%TO.C,D18*%
X200150000Y-144000000D03*
X196850000Y-144000000D03*
%TD*%
D10*
%TO.C,D19*%
X198500000Y-120650000D03*
X198500000Y-117350000D03*
%TD*%
%TO.C,D20*%
X216500000Y-121150000D03*
X216500000Y-117850000D03*
%TD*%
%TO.C,D21*%
X213500000Y-139150000D03*
X213500000Y-135850000D03*
%TD*%
D14*
%TO.C,B1*%
X200175000Y-99150000D03*
X205425000Y-99150000D03*
X200175000Y-100850000D03*
X205425000Y-100850000D03*
%TD*%
M02*
