0
SECTION
2
HEADER
9
$INSUNITS
70
4
0
ENDSEC
0
SECTION
2
TABLES
0
TABLE
2
LTYPE
0
LTYPE
72
65
70
64
2
CONTINUOUS
3
______
73
0
40
0
0
ENDTAB
0
TABLE
2
LAYER
0
ENDTAB
0
ENDSEC
0
SECTION
2
ENTITIES
0
LINE
8
0
10
43
20
-167
11
57
21
-167
0
LINE
8
0
10
57
20
-167
11
57
21
-153
0
LINE
8
0
10
57
20
-153
11
43
21
-153
0
LINE
8
0
10
43
20
-153
11
43
21
-167
0
LINE
8
0
10
43
20
-148
11
57
21
-148
0
LINE
8
0
10
57
20
-148
11
57
21
-134
0
LINE
8
0
10
57
20
-134
11
43
21
-134
0
LINE
8
0
10
43
20
-134
11
43
21
-148
0
LINE
8
0
10
43
20
-129
11
57
21
-129
0
LINE
8
0
10
57
20
-129
11
57
21
-115
0
LINE
8
0
10
57
20
-115
11
43
21
-115
0
LINE
8
0
10
43
20
-115
11
43
21
-129
0
LINE
8
0
10
62
20
-167
11
76
21
-167
0
LINE
8
0
10
76
20
-167
11
76
21
-153
0
LINE
8
0
10
76
20
-153
11
62
21
-153
0
LINE
8
0
10
62
20
-153
11
62
21
-167
0
LINE
8
0
10
62
20
-148
11
76
21
-148
0
LINE
8
0
10
76
20
-148
11
76
21
-134
0
LINE
8
0
10
76
20
-134
11
62
21
-134
0
LINE
8
0
10
62
20
-134
11
62
21
-148
0
LINE
8
0
10
62
20
-129
11
76
21
-129
0
LINE
8
0
10
76
20
-129
11
76
21
-115
0
LINE
8
0
10
76
20
-115
11
62
21
-115
0
LINE
8
0
10
62
20
-115
11
62
21
-129
0
LINE
8
0
10
81
20
-159
11
95
21
-159
0
LINE
8
0
10
95
20
-159
11
95
21
-145
0
LINE
8
0
10
95
20
-145
11
81
21
-145
0
LINE
8
0
10
81
20
-145
11
81
21
-159
0
LINE
8
0
10
81
20
-140
11
95
21
-140
0
LINE
8
0
10
95
20
-140
11
95
21
-126
0
LINE
8
0
10
95
20
-126
11
81
21
-126
0
LINE
8
0
10
81
20
-126
11
81
21
-140
0
LINE
8
0
10
81
20
-121
11
95
21
-121
0
LINE
8
0
10
95
20
-121
11
95
21
-107
0
LINE
8
0
10
95
20
-107
11
81
21
-107
0
LINE
8
0
10
81
20
-107
11
81
21
-121
0
LINE
8
0
10
100
20
-154
11
114
21
-154
0
LINE
8
0
10
114
20
-154
11
114
21
-140
0
LINE
8
0
10
114
20
-140
11
100
21
-140
0
LINE
8
0
10
100
20
-140
11
100
21
-154
0
LINE
8
0
10
100
20
-135
11
114
21
-135
0
LINE
8
0
10
114
20
-135
11
114
21
-121
0
LINE
8
0
10
114
20
-121
11
100
21
-121
0
LINE
8
0
10
100
20
-121
11
100
21
-135
0
LINE
8
0
10
100
20
-116
11
114
21
-116
0
LINE
8
0
10
114
20
-116
11
114
21
-102
0
LINE
8
0
10
114
20
-102
11
100
21
-102
0
LINE
8
0
10
100
20
-102
11
100
21
-116
0
LINE
8
0
10
119
20
-159
11
133
21
-159
0
LINE
8
0
10
133
20
-159
11
133
21
-145
0
LINE
8
0
10
133
20
-145
11
119
21
-145
0
LINE
8
0
10
119
20
-145
11
119
21
-159
0
LINE
8
0
10
119
20
-140
11
133
21
-140
0
LINE
8
0
10
133
20
-140
11
133
21
-126
0
LINE
8
0
10
133
20
-126
11
119
21
-126
0
LINE
8
0
10
119
20
-126
11
119
21
-140
0
LINE
8
0
10
119
20
-121
11
133
21
-121
0
LINE
8
0
10
133
20
-121
11
133
21
-107
0
LINE
8
0
10
133
20
-107
11
119
21
-107
0
LINE
8
0
10
119
20
-107
11
119
21
-121
0
LINE
8
0
10
138
20
-162
11
152
21
-162
0
LINE
8
0
10
152
20
-162
11
152
21
-148
0
LINE
8
0
10
152
20
-148
11
138
21
-148
0
LINE
8
0
10
138
20
-148
11
138
21
-162
0
LINE
8
0
10
138
20
-143
11
152
21
-143
0
LINE
8
0
10
152
20
-143
11
152
21
-129
0
LINE
8
0
10
152
20
-129
11
138
21
-129
0
LINE
8
0
10
138
20
-129
11
138
21
-143
0
LINE
8
0
10
138
20
-124
11
152
21
-124
0
LINE
8
0
10
152
20
-124
11
152
21
-110
0
LINE
8
0
10
152
20
-110
11
138
21
-110
0
LINE
8
0
10
138
20
-110
11
138
21
-124
0
LINE
8
0
10
109.5
20
-182.75
11
123.5
21
-182.75
0
LINE
8
0
10
123.5
20
-182.75
11
123.5
21
-168.75
0
LINE
8
0
10
123.5
20
-168.75
11
109.5
21
-168.75
0
LINE
8
0
10
109.5
20
-168.75
11
109.5
21
-182.75
0
LINE
8
0
10
130.2863698
20
-184.1057202
11
144.1501228
21
-186.0541436
0
LINE
8
0
10
144.1501228
20
-186.0541436
11
146.0985462
21
-172.1903906
0
LINE
8
0
10
146.0985462
20
-172.1903906
11
132.2347932
21
-170.2419672
0
LINE
8
0
10
132.2347932
20
-170.2419672
11
130.2863698
21
-184.1057202
0
LINE
8
0
10
153.2819425
20
-183.3875443
11
166.1690105
21
-188.8577801
0
LINE
8
0
10
166.1690105
20
-188.8577801
11
171.6392463
21
-175.9707121
0
LINE
8
0
10
171.6392463
20
-175.9707121
11
158.7521783
21
-170.5004763
0
LINE
8
0
10
158.7521783
20
-170.5004763
11
153.2819425
21
-183.3875443
0
LINE
8
0
10
290
20
-167
11
304
21
-167
0
LINE
8
0
10
304
20
-167
11
304
21
-153
0
LINE
8
0
10
304
20
-153
11
290
21
-153
0
LINE
8
0
10
290
20
-153
11
290
21
-167
0
LINE
8
0
10
290
20
-148
11
304
21
-148
0
LINE
8
0
10
304
20
-148
11
304
21
-134
0
LINE
8
0
10
304
20
-134
11
290
21
-134
0
LINE
8
0
10
290
20
-134
11
290
21
-148
0
LINE
8
0
10
290
20
-129
11
304
21
-129
0
LINE
8
0
10
304
20
-129
11
304
21
-115
0
LINE
8
0
10
304
20
-115
11
290
21
-115
0
LINE
8
0
10
290
20
-115
11
290
21
-129
0
LINE
8
0
10
271
20
-167
11
285
21
-167
0
LINE
8
0
10
285
20
-167
11
285
21
-153
0
LINE
8
0
10
285
20
-153
11
271
21
-153
0
LINE
8
0
10
271
20
-153
11
271
21
-167
0
LINE
8
0
10
271
20
-148
11
285
21
-148
0
LINE
8
0
10
285
20
-148
11
285
21
-134
0
LINE
8
0
10
285
20
-134
11
271
21
-134
0
LINE
8
0
10
271
20
-134
11
271
21
-148
0
LINE
8
0
10
271
20
-129
11
285
21
-129
0
LINE
8
0
10
285
20
-129
11
285
21
-115
0
LINE
8
0
10
285
20
-115
11
271
21
-115
0
LINE
8
0
10
271
20
-115
11
271
21
-129
0
LINE
8
0
10
252
20
-159
11
266
21
-159
0
LINE
8
0
10
266
20
-159
11
266
21
-145
0
LINE
8
0
10
266
20
-145
11
252
21
-145
0
LINE
8
0
10
252
20
-145
11
252
21
-159
0
LINE
8
0
10
252
20
-140
11
266
21
-140
0
LINE
8
0
10
266
20
-140
11
266
21
-126
0
LINE
8
0
10
266
20
-126
11
252
21
-126
0
LINE
8
0
10
252
20
-126
11
252
21
-140
0
LINE
8
0
10
252
20
-121
11
266
21
-121
0
LINE
8
0
10
266
20
-121
11
266
21
-107
0
LINE
8
0
10
266
20
-107
11
252
21
-107
0
LINE
8
0
10
252
20
-107
11
252
21
-121
0
LINE
8
0
10
233
20
-154
11
247
21
-154
0
LINE
8
0
10
247
20
-154
11
247
21
-140
0
LINE
8
0
10
247
20
-140
11
233
21
-140
0
LINE
8
0
10
233
20
-140
11
233
21
-154
0
LINE
8
0
10
233
20
-135
11
247
21
-135
0
LINE
8
0
10
247
20
-135
11
247
21
-121
0
LINE
8
0
10
247
20
-121
11
233
21
-121
0
LINE
8
0
10
233
20
-121
11
233
21
-135
0
LINE
8
0
10
233
20
-116
11
247
21
-116
0
LINE
8
0
10
247
20
-116
11
247
21
-102
0
LINE
8
0
10
247
20
-102
11
233
21
-102
0
LINE
8
0
10
233
20
-102
11
233
21
-116
0
LINE
8
0
10
214
20
-159
11
228
21
-159
0
LINE
8
0
10
228
20
-159
11
228
21
-145
0
LINE
8
0
10
228
20
-145
11
214
21
-145
0
LINE
8
0
10
214
20
-145
11
214
21
-159
0
LINE
8
0
10
214
20
-140
11
228
21
-140
0
LINE
8
0
10
228
20
-140
11
228
21
-126
0
LINE
8
0
10
228
20
-126
11
214
21
-126
0
LINE
8
0
10
214
20
-126
11
214
21
-140
0
LINE
8
0
10
214
20
-121
11
228
21
-121
0
LINE
8
0
10
228
20
-121
11
228
21
-107
0
LINE
8
0
10
228
20
-107
11
214
21
-107
0
LINE
8
0
10
214
20
-107
11
214
21
-121
0
LINE
8
0
10
195
20
-162
11
209
21
-162
0
LINE
8
0
10
209
20
-162
11
209
21
-148
0
LINE
8
0
10
209
20
-148
11
195
21
-148
0
LINE
8
0
10
195
20
-148
11
195
21
-162
0
LINE
8
0
10
195
20
-143
11
209
21
-143
0
LINE
8
0
10
209
20
-143
11
209
21
-129
0
LINE
8
0
10
209
20
-129
11
195
21
-129
0
LINE
8
0
10
195
20
-129
11
195
21
-143
0
LINE
8
0
10
195
20
-124
11
209
21
-124
0
LINE
8
0
10
209
20
-124
11
209
21
-110
0
LINE
8
0
10
209
20
-110
11
195
21
-110
0
LINE
8
0
10
195
20
-110
11
195
21
-124
0
LINE
8
0
10
223.5
20
-182.75
11
237.5
21
-182.75
0
LINE
8
0
10
237.5
20
-182.75
11
237.5
21
-168.75
0
LINE
8
0
10
237.5
20
-168.75
11
223.5
21
-168.75
0
LINE
8
0
10
223.5
20
-168.75
11
223.5
21
-182.75
0
LINE
8
0
10
202.8498772
20
-186.0541436
11
216.7136302
21
-184.1057202
0
LINE
8
0
10
216.7136302
20
-184.1057202
11
214.7652068
21
-170.2419672
0
LINE
8
0
10
214.7652068
20
-170.2419672
11
200.9014538
21
-172.1903906
0
LINE
8
0
10
200.9014538
20
-172.1903906
11
202.8498772
21
-186.0541436
0
LINE
8
0
10
180.8309895
20
-188.8577801
11
193.7180575
21
-183.3875443
0
LINE
8
0
10
193.7180575
20
-183.3875443
11
188.2478217
21
-170.5004763
0
LINE
8
0
10
188.2478217
20
-170.5004763
11
175.3607537
21
-175.9707121
0
LINE
8
0
10
175.3607537
20
-175.9707121
11
180.8309895
21
-188.8577801
0
ENDSEC
0
EOF