0
SECTION
2
HEADER
9
$INSUNITS
70
4
0
ENDSEC
0
SECTION
2
TABLES
0
TABLE
2
LTYPE
0
LTYPE
72
65
70
64
2
CONTINUOUS
3
______
73
0
40
0
0
ENDTAB
0
TABLE
2
LAYER
0
ENDTAB
0
ENDSEC
0
SECTION
2
ENTITIES
0
LINE
8
0
10
-10.025
20
-12.025
11
29.575
21
-12.025
0
LINE
8
0
10
-12.025
20
-10.025
11
-12.025
21
68.675
0
LINE
8
0
10
-10.025
20
70.675
11
25.075
21
70.675
0
LINE
8
0
10
31.575
20
-10.025
11
31.575
21
-6.025
0
LINE
8
0
10
33.575
20
-4.025
11
49.125
21
-4.025
0
LINE
8
0
10
51.125
20
-2.025
11
51.125
21
-1.025
0
LINE
8
0
10
44.625
20
78.675
11
29.075
21
78.675
0
LINE
8
0
10
27.075
20
76.675
11
27.075
21
72.675
0
LINE
8
0
10
53.125
20
0.975
11
64.175
21
0.975
0
LINE
8
0
10
70.675
20
80.675
11
70.675
21
81.675
0
LINE
8
0
10
68.675
20
83.675
11
48.625
21
83.675
0
LINE
8
0
10
46.625
20
81.675
11
46.625
21
80.675
0
LINE
8
0
10
68.175
20
-4.025
11
83.725
21
-4.025
0
LINE
8
0
10
66.175
20
-1.025
11
66.175
21
-2.025
0
LINE
8
0
10
90.225
20
77.675
11
90.225
21
78.675
0
LINE
8
0
10
90.225
20
78.675
11
72.675
21
78.675
0
LINE
8
0
10
85.725
20
-7.025
11
107.775
21
-7.025
0
LINE
8
0
10
109.775
20
-5.025
11
109.775
21
73.675
0
LINE
8
0
10
85.725
20
-6.025
11
85.725
21
-7.025
0
LINE
8
0
10
107.775
20
75.675
11
92.225
21
75.675
0
ARC
8
0
10
29.575
20
-10.025
40
2
50
270
51
0
0
ARC
8
0
10
33.575
20
-6.025
40
2
50
90
51
180
0
ARC
8
0
10
49.125
20
-2.025
40
2
50
270
51
0
0
ARC
8
0
10
53.125
20
-1.025
40
2
50
90
51
180
0
ARC
8
0
10
64.175
20
-1.025
40
2
50
0
51
90
0
ARC
8
0
10
68.175
20
-2.025
40
2
50
180
51
270
0
ARC
8
0
10
83.725
20
-6.025
40
2
50
0
51
90
0
ARC
8
0
10
107.775
20
-5.025
40
2
50
270
51
0
0
ARC
8
0
10
107.775
20
73.675
40
2
50
0
51
90
0
ARC
8
0
10
92.225
20
77.675
40
2
50
180
51
270
0
ARC
8
0
10
72.675
20
80.675
40
2
50
180
51
270
0
ARC
8
0
10
68.675
20
81.675
40
2
50
0
51
90
0
ARC
8
0
10
48.625
20
81.675
40
2
50
90
51
180
0
ARC
8
0
10
44.625
20
80.675
40
2
50
270
51
0
0
ARC
8
0
10
29.075
20
76.675
40
2
50
90
51
180
0
ARC
8
0
10
25.075
20
72.675
40
2
50
270
51
0
0
ARC
8
0
10
-10.025
20
68.675
40
2
50
90
51
180
0
ARC
8
0
10
-10.025
20
-10.025
40
2
50
180
51
270
0
ENDSEC
0
EOF