0
SECTION
2
HEADER
9
$INSUNITS
70
4
0
ENDSEC
0
SECTION
2
TABLES
0
TABLE
2
LTYPE
0
LTYPE
72
65
70
64
2
CONTINUOUS
3
______
73
0
40
0
0
ENDTAB
0
TABLE
2
LAYER
0
ENDTAB
0
ENDSEC
0
SECTION
2
ENTITIES
0
LINE
8
0
10
98.0698155
20
-176.5
11
35.5
21
-176.5
0
LINE
8
0
10
33.5
20
-174.5
11
33.5
21
-107.5
0
LINE
8
0
10
35.5
20
-105.5
11
69.5
21
-105.5
0
LINE
8
0
10
71.5
20
-103.5
11
71.5
21
-99.5
0
LINE
8
0
10
73.5
20
-97.5
11
88.5
21
-97.5
0
LINE
8
0
10
90.5
20
-95.5
11
90.5
21
-94.5
0
LINE
8
0
10
92.5
20
-92.5
11
121.5
21
-92.5
0
LINE
8
0
10
123.5
20
-94.5
11
123.5
21
-96.5
0
LINE
8
0
10
123.5
20
-96.5
11
159.5
21
-96.5
0
LINE
8
0
10
161.5
20
-98.5
11
161.5
21
-156.5
0
LINE
8
0
10
161.5
20
-156.5
11
162.0188348
21
-156.4064543
0
LINE
8
0
10
162.0188348
20
-156.4064543
11
184.1109512
21
-165.7840014
0
LINE
8
0
10
185.1704988
20
-168.4064733
11
170.1273503
21
-203.8459102
0
LINE
8
0
10
167.5048784
20
-204.9054578
11
145.6839745
21
-195.6430336
0
LINE
8
0
10
145.1198721
20
-195.4958897
11
135.9424776
21
-194.4925486
0
LINE
8
0
10
135.8495404
20
-194.4845762
11
101.8851454
21
-192.367505
0
LINE
8
0
10
100.0095938
20
-190.3612204
11
100.0697897
21
-178.5101586
0
ARC
8
0
10
35.5
20
-174.5
40
2
50
180
51
270
0
ARC
8
0
10
35.5
20
-107.5
40
2
50
90
51
180
0
ARC
8
0
10
69.5
20
-103.5
40
2
50
270
51
0
0
ARC
8
0
10
73.5
20
-99.5
40
2
50
90
51
180
0
ARC
8
0
10
88.5
20
-95.5
40
2
50
270
51
0
0
ARC
8
0
10
92.5
20
-94.5
40
2
50
90
51
180
0
ARC
8
0
10
121.5
20
-94.5
40
2
50
0
51
90
0
ARC
8
0
10
159.5
20
-98.5
40
2
50
0
51
90
0
ARC
8
0
10
183.329489
20
-167.6250112
40
2
50
337.0000025
51
67.0000025
0
ARC
8
0
10
168.2863405
20
-203.064448
40
2
50
247.0000025
51
337.0000025
0
ARC
8
0
10
144.9025123
20
-197.4840433
40
2
50
67.0000025
51
83.7607768
0
ARC
8
0
10
135.7251178
20
-196.4807022
40
2
50
83.7607768
51
86.4332518
0
ARC
8
0
10
102.009568
20
-190.371379
40
2
50
179.7089763
51
266.4332518
0
ARC
8
0
10
98.0698155
20
-178.5
40
2
50
359.7089763
51
90
0
ENDSEC
0
EOF