0
SECTION
2
HEADER
9
$INSUNITS
70
4
0
ENDSEC
0
SECTION
2
TABLES
0
TABLE
2
LTYPE
0
LTYPE
72
65
70
64
2
CONTINUOUS
3
______
73
0
40
0
0
ENDTAB
0
TABLE
2
LAYER
0
ENDTAB
0
ENDSEC
0
SECTION
2
ENTITIES
0
LINE
8
0
10
97.1617702
20
-171.5
11
40.5
21
-171.5
0
LINE
8
0
10
38.5
20
-169.5
11
38.5
21
-112.5
0
LINE
8
0
10
40.5
20
-110.5
11
74.5
21
-110.5
0
LINE
8
0
10
76.5
20
-108.5
11
76.5
21
-104.5
0
LINE
8
0
10
78.5
20
-102.5
11
93.5
21
-102.5
0
LINE
8
0
10
95.5
20
-100.5
11
95.5
21
-99.5
0
LINE
8
0
10
97.5
20
-97.5
11
116.5
21
-97.5
0
LINE
8
0
10
118.5
20
-99.5
11
118.5
21
-100.5
0
LINE
8
0
10
120.5
20
-102.5
11
124
21
-102.5
0
LINE
8
0
10
126
20
-100.5
11
126
21
-99.5
0
LINE
8
0
10
128
20
-97.5
11
154.5
21
-97.5
0
LINE
8
0
10
156.5
20
-99.5
11
156.5
21
-155.8048397
0
LINE
8
0
10
156.9311587
20
-157.045298
11
159.7482162
21
-160.6081071
0
LINE
8
0
10
160.5355954
20
-161.2086585
11
177.5547713
21
-168.43287
0
LINE
8
0
10
178.6143189
20
-171.0553419
11
167.4784817
21
-197.2897302
0
LINE
8
0
10
164.8560098
20
-198.3492778
11
147.6194698
21
-191.0328006
0
LINE
8
0
10
147.0937686
20
-190.8902312
11
136.6475156
21
-189.5433006
0
LINE
8
0
10
136.5361062
20
-189.5320958
11
106.2328496
21
-187.3392146
0
LINE
8
0
10
104.5284533
20
-186.1074061
11
99.0105181
21
-172.7370246
0
ARC
8
0
10
40.5
20
-169.5
40
2
50
180
51
270
0
ARC
8
0
10
40.5
20
-112.5
40
2
50
90
51
180
0
ARC
8
0
10
74.5
20
-108.5
40
2
50
270
51
0
0
ARC
8
0
10
78.5
20
-104.5
40
2
50
90
51
180
0
ARC
8
0
10
93.5
20
-100.5
40
2
50
270
51
0
0
ARC
8
0
10
97.5
20
-99.5
40
2
50
90
51
180
0
ARC
8
0
10
116.5
20
-99.5
40
2
50
0
51
90
0
ARC
8
0
10
120.5
20
-100.5
40
2
50
180
51
270
0
ARC
8
0
10
124
20
-100.5
40
2
50
270
51
0
0
ARC
8
0
10
128
20
-99.5
40
2
50
90
51
180
0
ARC
8
0
10
154.5
20
-99.5
40
2
50
0
51
90
0
ARC
8
0
10
158.5
20
-155.8048397
40
2
50
180
51
218.3328716
0
ARC
8
0
10
161.3170576
20
-159.3676487
40
2
50
218.3328716
51
247.0000025
0
ARC
8
0
10
176.7733091
20
-170.2738798
40
2
50
337.0000025
51
67.0000025
0
ARC
8
0
10
165.6374719
20
-196.508268
40
2
50
247.0000025
51
337.0000025
0
ARC
8
0
10
146.8380076
20
-192.8738104
40
2
50
67.0000025
51
82.6528685
0
ARC
8
0
10
136.3917546
20
-191.5268797
40
2
50
82.6528685
51
85.8610323
0
ARC
8
0
10
106.3772012
20
-185.3444307
40
2
50
202.425865
51
265.8610323
0
ARC
8
0
10
97.1617702
20
-173.5
40
2
50
22.425865
51
90
0
ENDSEC
0
EOF