0
SECTION
2
HEADER
9
$INSUNITS
70
4
0
ENDSEC
0
SECTION
2
TABLES
0
TABLE
2
LTYPE
0
LTYPE
72
65
70
64
2
CONTINUOUS
3
______
73
0
40
0
0
ENDTAB
0
TABLE
2
LAYER
0
ENDTAB
0
ENDSEC
0
SECTION
2
ENTITIES
0
LINE
8
0
10
98.0698155
20
-176.5
11
35.5
21
-176.5
0
LINE
8
0
10
33.5
20
-174.5
11
33.5
21
-107.5
0
LINE
8
0
10
35.5
20
-105.5
11
69.5
21
-105.5
0
LINE
8
0
10
71.5
20
-103.5
11
71.5
21
-99.5
0
LINE
8
0
10
73.5
20
-97.5
11
88.5
21
-97.5
0
LINE
8
0
10
90.5
20
-95.5
11
90.5
21
-94.5
0
LINE
8
0
10
92.5
20
-92.5
11
121.5
21
-92.5
0
LINE
8
0
10
123.5
20
-94.5
11
123.5
21
-96.5
0
LINE
8
0
10
123.5
20
-96.5
11
159.5
21
-96.5
0
LINE
8
0
10
161.5
20
-98.5
11
161.5
21
-156.5
0
LINE
8
0
10
161.5
20
-156.5
11
162.0188348
21
-156.4064543
0
LINE
8
0
10
162.0188348
20
-156.4064543
11
184.1109512
21
-165.7840014
0
LINE
8
0
10
185.1704988
20
-168.4064733
11
183.4099683
21
-172.5540232
0
LINE
8
0
10
178.6602118
20
-183.7437483
11
170.1273503
21
-203.8459102
0
LINE
8
0
10
167.5048784
20
-204.9054578
11
145.6839745
21
-195.6430336
0
LINE
8
0
10
145.1198721
20
-195.4958897
11
135.9424776
21
-194.4925486
0
LINE
8
0
10
135.8495404
20
-194.4845762
11
101.8851454
21
-192.367505
0
LINE
8
0
10
100.0095938
20
-190.3612204
11
100.0697897
21
-178.5101586
0
ARC
8
0
10
35.5
20
-174.5
40
2
50
180
51
270
0
ARC
8
0
10
35.5
20
-107.5
40
2
50
90
51
180
0
ARC
8
0
10
69.5
20
-103.5
40
2
50
270
51
0
0
ARC
8
0
10
73.5
20
-99.5
40
2
50
90
51
180
0
ARC
8
0
10
88.5
20
-95.5
40
2
50
270
51
0
0
ARC
8
0
10
92.5
20
-94.5
40
2
50
90
51
180
0
ARC
8
0
10
121.5
20
-94.5
40
2
50
0
51
90
0
ARC
8
0
10
159.5
20
-98.5
40
2
50
0
51
90
0
ARC
8
0
10
183.329489
20
-167.6250112
40
2
50
337.0000025
51
67.0000025
0
ARC
8
0
10
168.2863405
20
-203.064448
40
2
50
247.0000025
51
337.0000025
0
ARC
8
0
10
144.9025123
20
-197.4840433
40
2
50
67.0000025
51
83.7607768
0
ARC
8
0
10
135.7251178
20
-196.4807022
40
2
50
83.7607768
51
86.4332518
0
ARC
8
0
10
102.009568
20
-190.371379
40
2
50
179.7089763
51
266.4332518
0
ARC
8
0
10
98.0698155
20
-178.5
40
2
50
359.7089763
51
90
0
LINE
8
0
10
43
20
-167
11
57
21
-167
0
LINE
8
0
10
57
20
-167
11
57
21
-153
0
LINE
8
0
10
57
20
-153
11
43
21
-153
0
LINE
8
0
10
43
20
-153
11
43
21
-167
0
LINE
8
0
10
43
20
-148
11
57
21
-148
0
LINE
8
0
10
57
20
-148
11
57
21
-134
0
LINE
8
0
10
57
20
-134
11
43
21
-134
0
LINE
8
0
10
43
20
-134
11
43
21
-148
0
LINE
8
0
10
43
20
-129
11
57
21
-129
0
LINE
8
0
10
57
20
-129
11
57
21
-115
0
LINE
8
0
10
57
20
-115
11
43
21
-115
0
LINE
8
0
10
43
20
-115
11
43
21
-129
0
LINE
8
0
10
62
20
-167
11
76
21
-167
0
LINE
8
0
10
76
20
-167
11
76
21
-153
0
LINE
8
0
10
76
20
-153
11
62
21
-153
0
LINE
8
0
10
62
20
-153
11
62
21
-167
0
LINE
8
0
10
62
20
-148
11
76
21
-148
0
LINE
8
0
10
76
20
-148
11
76
21
-134
0
LINE
8
0
10
76
20
-134
11
62
21
-134
0
LINE
8
0
10
62
20
-134
11
62
21
-148
0
LINE
8
0
10
62
20
-129
11
76
21
-129
0
LINE
8
0
10
76
20
-129
11
76
21
-115
0
LINE
8
0
10
76
20
-115
11
62
21
-115
0
LINE
8
0
10
62
20
-115
11
62
21
-129
0
LINE
8
0
10
81
20
-159
11
95
21
-159
0
LINE
8
0
10
95
20
-159
11
95
21
-145
0
LINE
8
0
10
95
20
-145
11
81
21
-145
0
LINE
8
0
10
81
20
-145
11
81
21
-159
0
LINE
8
0
10
81
20
-140
11
95
21
-140
0
LINE
8
0
10
95
20
-140
11
95
21
-126
0
LINE
8
0
10
95
20
-126
11
81
21
-126
0
LINE
8
0
10
81
20
-126
11
81
21
-140
0
LINE
8
0
10
81
20
-121
11
95
21
-121
0
LINE
8
0
10
95
20
-121
11
95
21
-107
0
LINE
8
0
10
95
20
-107
11
81
21
-107
0
LINE
8
0
10
81
20
-107
11
81
21
-121
0
LINE
8
0
10
100
20
-154
11
114
21
-154
0
LINE
8
0
10
114
20
-154
11
114
21
-140
0
LINE
8
0
10
114
20
-140
11
100
21
-140
0
LINE
8
0
10
100
20
-140
11
100
21
-154
0
LINE
8
0
10
100
20
-135
11
114
21
-135
0
LINE
8
0
10
114
20
-135
11
114
21
-121
0
LINE
8
0
10
114
20
-121
11
100
21
-121
0
LINE
8
0
10
100
20
-121
11
100
21
-135
0
LINE
8
0
10
100
20
-116
11
114
21
-116
0
LINE
8
0
10
114
20
-116
11
114
21
-102
0
LINE
8
0
10
114
20
-102
11
100
21
-102
0
LINE
8
0
10
100
20
-102
11
100
21
-116
0
LINE
8
0
10
119
20
-159
11
133
21
-159
0
LINE
8
0
10
133
20
-159
11
133
21
-145
0
LINE
8
0
10
133
20
-145
11
119
21
-145
0
LINE
8
0
10
119
20
-145
11
119
21
-159
0
LINE
8
0
10
119
20
-140
11
133
21
-140
0
LINE
8
0
10
133
20
-140
11
133
21
-126
0
LINE
8
0
10
133
20
-126
11
119
21
-126
0
LINE
8
0
10
119
20
-126
11
119
21
-140
0
LINE
8
0
10
119
20
-121
11
133
21
-121
0
LINE
8
0
10
133
20
-121
11
133
21
-107
0
LINE
8
0
10
133
20
-107
11
119
21
-107
0
LINE
8
0
10
119
20
-107
11
119
21
-121
0
LINE
8
0
10
138
20
-162
11
152
21
-162
0
LINE
8
0
10
152
20
-162
11
152
21
-148
0
LINE
8
0
10
152
20
-148
11
138
21
-148
0
LINE
8
0
10
138
20
-148
11
138
21
-162
0
LINE
8
0
10
138
20
-143
11
152
21
-143
0
LINE
8
0
10
152
20
-143
11
152
21
-129
0
LINE
8
0
10
152
20
-129
11
138
21
-129
0
LINE
8
0
10
138
20
-129
11
138
21
-143
0
LINE
8
0
10
138
20
-124
11
152
21
-124
0
LINE
8
0
10
152
20
-124
11
152
21
-110
0
LINE
8
0
10
152
20
-110
11
138
21
-110
0
LINE
8
0
10
138
20
-110
11
138
21
-124
0
LINE
8
0
10
109.5
20
-182.75
11
123.5
21
-182.75
0
LINE
8
0
10
123.5
20
-182.75
11
123.5
21
-168.75
0
LINE
8
0
10
123.5
20
-168.75
11
109.5
21
-168.75
0
LINE
8
0
10
109.5
20
-168.75
11
109.5
21
-182.75
0
LINE
8
0
10
130.2863698
20
-184.1057202
11
144.1501228
21
-186.0541436
0
LINE
8
0
10
144.1501228
20
-186.0541436
11
146.0985462
21
-172.1903906
0
LINE
8
0
10
146.0985462
20
-172.1903906
11
132.2347932
21
-170.2419672
0
LINE
8
0
10
132.2347932
20
-170.2419672
11
130.2863698
21
-184.1057202
0
LINE
8
0
10
153.2819425
20
-183.3875443
11
166.1690105
21
-188.8577801
0
LINE
8
0
10
166.1690105
20
-188.8577801
11
171.6392463
21
-175.9707121
0
LINE
8
0
10
171.6392463
20
-175.9707121
11
158.7521783
21
-170.5004763
0
LINE
8
0
10
158.7521783
20
-170.5004763
11
153.2819425
21
-183.3875443
0
LINE
8
0
10
183.4099683
20
-172.5540232
11
175.3607537
21
-175.9707121
0
LINE
8
0
10
175.3607537
20
-175.9707121
11
178.6602118
21
-183.7437483
0
ENDSEC
0
EOF