0
SECTION
2
HEADER
9
$INSUNITS
70
4
0
ENDSEC
0
SECTION
2
TABLES
0
TABLE
2
LTYPE
0
LTYPE
72
65
70
64
2
CONTINUOUS
3
______
73
0
40
0
0
ENDTAB
0
TABLE
2
LAYER
0
ENDTAB
0
ENDSEC
0
SECTION
2
ENTITIES
0
LINE
8
0
10
49.5624845
20
-14.5
11
-12.5
21
-14.5
0
LINE
8
0
10
-14.5
20
-12.5
11
-14.5
21
50.5
0
LINE
8
0
10
-12.5
20
52.5
11
21.5
21
52.5
0
LINE
8
0
10
23.5
20
54.5
11
23.5
21
58.5
0
LINE
8
0
10
25.5
20
60.5
11
40.5
21
60.5
0
LINE
8
0
10
42.5
20
62.5
11
42.5
21
63.5
0
LINE
8
0
10
44.5
20
65.5
11
69.5
21
65.5
0
LINE
8
0
10
71.5
20
63.5
11
71.5
21
62.5
0
LINE
8
0
10
73.5
20
60.5
11
107.5
21
60.5
0
LINE
8
0
10
109.5
20
58.5
11
109.5
21
4.2534678
0
LINE
8
0
10
109.9971535
20
2.9338268
11
111.5554681
21
1.1591717
0
LINE
8
0
10
112.213078
20
0.6661971
11
131.7712951
21
-8.4539493
0
LINE
8
0
10
132.738674
20
-11.1118014
11
118.158344
21
-42.3794201
0
LINE
8
0
10
115.5004919
20
-43.346799
11
95.8210436
21
-34.1701216
0
LINE
8
0
10
95.2788941
20
-34.005836
11
85.6729435
21
-32.5331071
0
LINE
8
0
10
85.5047273
20
-32.514561
11
53.8066658
21
-30.3721113
0
LINE
8
0
10
51.9425436
20
-28.440124
11
51.5614775
21
-16.43654
0
ARC
8
0
10
-12.5
20
-12.5
40
2
50
180
51
270
0
ARC
8
0
10
-12.5
20
50.5
40
2
50
90
51
180
0
ARC
8
0
10
21.5
20
54.5
40
2
50
270
51
0
0
ARC
8
0
10
25.5
20
58.5
40
2
50
90
51
180
0
ARC
8
0
10
40.5
20
62.5
40
2
50
270
51
0
0
ARC
8
0
10
44.5
20
63.5
40
2
50
90
51
180
0
ARC
8
0
10
69.5
20
63.5
40
2
50
0
51
90
0
ARC
8
0
10
73.5
20
62.5
40
2
50
180
51
270
0
ARC
8
0
10
107.5
20
58.5
40
2
50
0
51
90
0
ARC
8
0
10
111.5
20
4.2534678
40
2
50
180
51
221.2861828
0
ARC
8
0
10
113.0583146
20
2.4788127
40
2
50
221.2861828
51
244.9999983
0
ARC
8
0
10
130.9260585
20
-10.2665649
40
2
50
334.9999983
51
64.9999983
0
ARC
8
0
10
116.3457284
20
-41.5341835
40
2
50
244.9999983
51
334.9999983
0
ARC
8
0
10
94.9758071
20
-35.9827372
40
2
50
64.9999983
51
81.2836149
0
ARC
8
0
10
85.3698565
20
-34.5100083
40
2
50
81.2836149
51
86.1333016
0
ARC
8
0
10
53.9415366
20
-28.376664
40
2
50
181.8183002
51
266.1333016
0
ARC
8
0
10
49.5624845
20
-16.5
40
2
50
1.8183002
51
90
0
ENDSEC
0
EOF