0
SECTION
2
HEADER
9
$INSUNITS
70
4
0
ENDSEC
0
SECTION
2
TABLES
0
TABLE
2
LTYPE
0
LTYPE
72
65
70
64
2
CONTINUOUS
3
______
73
0
40
0
0
ENDTAB
0
TABLE
2
LAYER
0
ENDTAB
0
ENDSEC
0
SECTION
2
ENTITIES
0
LINE
8
0
10
249.8382298
20
-171.5
11
306.5
21
-171.5
0
LINE
8
0
10
308.5
20
-169.5
11
308.5
21
-112.5
0
LINE
8
0
10
306.5
20
-110.5
11
272.5
21
-110.5
0
LINE
8
0
10
270.5
20
-108.5
11
270.5
21
-104.5
0
LINE
8
0
10
268.5
20
-102.5
11
253.5
21
-102.5
0
LINE
8
0
10
251.5
20
-100.5
11
251.5
21
-99.5
0
LINE
8
0
10
249.5
20
-97.5
11
230.5
21
-97.5
0
LINE
8
0
10
228.5
20
-99.5
11
228.5
21
-100.5
0
LINE
8
0
10
226.5
20
-102.5
11
223
21
-102.5
0
LINE
8
0
10
221
20
-100.5
11
221
21
-99.5
0
LINE
8
0
10
219
20
-97.5
11
192.5
21
-97.5
0
LINE
8
0
10
190.5
20
-99.5
11
190.5
21
-155.8048397
0
LINE
8
0
10
190.0688413
20
-157.045298
11
187.2517838
21
-160.6081071
0
LINE
8
0
10
186.4644046
20
-161.2086585
11
169.4452287
21
-168.43287
0
LINE
8
0
10
168.3856811
20
-171.0553419
11
179.5215183
21
-197.2897302
0
LINE
8
0
10
182.1439902
20
-198.3492778
11
199.3805302
21
-191.0328006
0
LINE
8
0
10
199.9062314
20
-190.8902312
11
210.3524844
21
-189.5433006
0
LINE
8
0
10
210.4638938
20
-189.5320958
11
240.7671504
21
-187.3392146
0
LINE
8
0
10
242.4715467
20
-186.1074061
11
247.9894819
21
-172.7370246
0
ARC
8
0
10
306.5
20
-169.5
40
2
50
270
51
0
0
ARC
8
0
10
306.5
20
-112.5
40
2
50
0
51
90
0
ARC
8
0
10
272.5
20
-108.5
40
2
50
180
51
270
0
ARC
8
0
10
268.5
20
-104.5
40
2
50
0
51
90
0
ARC
8
0
10
253.5
20
-100.5
40
2
50
180
51
270
0
ARC
8
0
10
249.5
20
-99.5
40
2
50
0
51
90
0
ARC
8
0
10
230.5
20
-99.5
40
2
50
90
51
180
0
ARC
8
0
10
226.5
20
-100.5
40
2
50
270
51
0
0
ARC
8
0
10
223
20
-100.5
40
2
50
180
51
270
0
ARC
8
0
10
219
20
-99.5
40
2
50
0
51
90
0
ARC
8
0
10
192.5
20
-99.5
40
2
50
90
51
180
0
ARC
8
0
10
188.5
20
-155.8048397
40
2
50
321.6671284
51
0
0
ARC
8
0
10
185.6829424
20
-159.3676487
40
2
50
292.9999975
51
321.6671284
0
ARC
8
0
10
170.2266909
20
-170.2738798
40
2
50
112.9999975
51
202.9999975
0
ARC
8
0
10
181.3625281
20
-196.508268
40
2
50
202.9999975
51
292.9999975
0
ARC
8
0
10
200.1619924
20
-192.8738104
40
2
50
97.3471315
51
112.9999975
0
ARC
8
0
10
210.6082454
20
-191.5268797
40
2
50
94.1389677
51
97.3471315
0
ARC
8
0
10
240.6227988
20
-185.3444307
40
2
50
274.1389677
51
337.574135
0
ARC
8
0
10
249.8382298
20
-173.5
40
2
50
90
51
157.574135
0
ENDSEC
0
EOF