%TF.GenerationSoftware,KiCad,Pcbnew,8.0.6*%
%TF.CreationDate,2024-12-24T11:46:23+01:00*%
%TF.ProjectId,right,72696768-742e-46b6-9963-61645f706362,v1.0.0*%
%TF.SameCoordinates,Original*%
%TF.FileFunction,Copper,L1,Top*%
%TF.FilePolarity,Positive*%
%FSLAX46Y46*%
G04 Gerber Fmt 4.6, Leading zero omitted, Abs format (unit mm)*
G04 Created by KiCad (PCBNEW 8.0.6) date 2024-12-24 11:46:23*
%MOMM*%
%LPD*%
G01*
G04 APERTURE LIST*
G04 Aperture macros list*
%AMRotRect*
0 Rectangle, with rotation*
0 The origin of the aperture is its center*
0 $1 length*
0 $2 width*
0 $3 Rotation angle, in degrees counterclockwise*
0 Add horizontal line*
21,1,$1,$2,0,0,$3*%
G04 Aperture macros list end*
%TA.AperFunction,WasherPad*%
%ADD10C,1.000000*%
%TD*%
%TA.AperFunction,ComponentPad*%
%ADD11R,1.700000X1.200000*%
%TD*%
%TA.AperFunction,ComponentPad*%
%ADD12O,1.700000X1.200000*%
%TD*%
%TA.AperFunction,SMDPad,CuDef*%
%ADD13R,1.550000X1.000000*%
%TD*%
%TA.AperFunction,ComponentPad*%
%ADD14R,1.778000X1.778000*%
%TD*%
%TA.AperFunction,SMDPad,CuDef*%
%ADD15R,1.200000X0.900000*%
%TD*%
%TA.AperFunction,ComponentPad*%
%ADD16C,1.905000*%
%TD*%
%TA.AperFunction,SMDPad,CuDef*%
%ADD17R,0.900000X1.200000*%
%TD*%
%TA.AperFunction,ComponentPad*%
%ADD18RotRect,1.778000X1.778000X113.000000*%
%TD*%
%TA.AperFunction,SMDPad,CuDef*%
%ADD19RotRect,0.900000X1.200000X113.000000*%
%TD*%
%TA.AperFunction,ComponentPad*%
%ADD20RotRect,1.778000X1.778000X98.000000*%
%TD*%
%TA.AperFunction,SMDPad,CuDef*%
%ADD21RotRect,0.900000X1.200000X98.000000*%
%TD*%
%TA.AperFunction,ComponentPad*%
%ADD22C,1.752600*%
%TD*%
%TA.AperFunction,ViaPad*%
%ADD23C,0.800000*%
%TD*%
%TA.AperFunction,Conductor*%
%ADD24C,0.250000*%
%TD*%
G04 APERTURE END LIST*
D10*
%TO.P,T1,*%
%TO.N,*%
X213500000Y-99500000D03*
X216500000Y-99500000D03*
%TD*%
D11*
%TO.P,JST1,1*%
%TO.N,pos*%
X256000000Y-107000000D03*
D12*
%TO.P,JST1,2*%
%TO.N,GND*%
X256000000Y-109000000D03*
%TD*%
D13*
%TO.P,B1,1*%
%TO.N,GND*%
X200175000Y-99150000D03*
X205425000Y-99150000D03*
%TO.P,B1,2*%
%TO.N,RST*%
X200175000Y-100850000D03*
X205425000Y-100850000D03*
%TD*%
D14*
%TO.P,D14,1*%
%TO.N,P106*%
X194500000Y-163310000D03*
D15*
X194500000Y-161150000D03*
%TO.P,D14,2*%
%TO.N,mirror_ColF_Row1*%
X194500000Y-157850000D03*
D16*
X194500000Y-155690000D03*
%TD*%
D14*
%TO.P,D8,1*%
%TO.N,P111*%
X251500000Y-141310000D03*
D15*
X251500000Y-139150000D03*
%TO.P,D8,2*%
%TO.N,mirror_ColC_Row2*%
X251500000Y-135850000D03*
D16*
X251500000Y-133690000D03*
%TD*%
D14*
%TO.P,D5,1*%
%TO.N,P111*%
X270500000Y-149310000D03*
D15*
X270500000Y-147150000D03*
%TO.P,D5,2*%
%TO.N,mirror_ColB_Row2*%
X270500000Y-143850000D03*
D16*
X270500000Y-141690000D03*
%TD*%
D14*
%TO.P,D12,1*%
%TO.N,P113*%
X232500000Y-117310000D03*
D15*
X232500000Y-115150000D03*
%TO.P,D12,2*%
%TO.N,mirror_ColD_Row3*%
X232500000Y-111850000D03*
D16*
X232500000Y-109690000D03*
%TD*%
D14*
%TO.P,D3,1*%
%TO.N,P113*%
X289500000Y-130310000D03*
D15*
X289500000Y-128150000D03*
%TO.P,D3,2*%
%TO.N,mirror_ColA_Row3*%
X289500000Y-124850000D03*
D16*
X289500000Y-122690000D03*
%TD*%
D14*
%TO.P,D18,1*%
%TO.N,P111*%
X202310000Y-144000000D03*
D17*
X200150000Y-144000000D03*
%TO.P,D18,2*%
%TO.N,mirror_ColF_Row2*%
X196850000Y-144000000D03*
D16*
X194690000Y-144000000D03*
%TD*%
D14*
%TO.P,D10,1*%
%TO.N,P106*%
X232500000Y-155310000D03*
D15*
X232500000Y-153150000D03*
%TO.P,D10,2*%
%TO.N,mirror_ColD_Row1*%
X232500000Y-149850000D03*
D16*
X232500000Y-147690000D03*
%TD*%
D14*
%TO.P,D9,1*%
%TO.N,P113*%
X251500000Y-122310000D03*
D15*
X251500000Y-120150000D03*
%TO.P,D9,2*%
%TO.N,mirror_ColC_Row3*%
X251500000Y-116850000D03*
D16*
X251500000Y-114690000D03*
%TD*%
D14*
%TO.P,D2,1*%
%TO.N,P111*%
X289500000Y-149310000D03*
D15*
X289500000Y-147150000D03*
%TO.P,D2,2*%
%TO.N,mirror_ColA_Row2*%
X289500000Y-143850000D03*
D16*
X289500000Y-141690000D03*
%TD*%
D18*
%TO.P,D17,1*%
%TO.N,P104*%
X180882596Y-190259007D03*
D19*
X180038615Y-188270717D03*
%TO.P,D17,2*%
%TO.N,mirror_ColF_Row0*%
X178749203Y-185233051D03*
D16*
X177905222Y-183244761D03*
%TD*%
D14*
%TO.P,D21,1*%
%TO.N,P111*%
X213500000Y-141310000D03*
D15*
X213500000Y-139150000D03*
%TO.P,D21,2*%
%TO.N,mirror_ColE_Row2*%
X213500000Y-135850000D03*
D16*
X213500000Y-133690000D03*
%TD*%
D14*
%TO.P,D7,1*%
%TO.N,P106*%
X251500000Y-160310000D03*
D15*
X251500000Y-158150000D03*
%TO.P,D7,2*%
%TO.N,mirror_ColC_Row1*%
X251500000Y-154850000D03*
D16*
X251500000Y-152690000D03*
%TD*%
D14*
%TO.P,D20,1*%
%TO.N,P113*%
X216500000Y-123310000D03*
D15*
X216500000Y-121150000D03*
%TO.P,D20,2*%
%TO.N,mirror_ColE_Row3*%
X216500000Y-117850000D03*
D16*
X216500000Y-115690000D03*
%TD*%
D20*
%TO.P,D16,1*%
%TO.N,P104*%
X202537061Y-187420981D03*
D21*
X202236446Y-185282002D03*
%TO.P,D16,2*%
%TO.N,mirror_ColE_Row0*%
X201777174Y-182014118D03*
D16*
X201476559Y-179875139D03*
%TD*%
D14*
%TO.P,D1,1*%
%TO.N,P106*%
X289500000Y-168310000D03*
D15*
X289500000Y-166150000D03*
%TO.P,D1,2*%
%TO.N,mirror_ColA_Row1*%
X289500000Y-162850000D03*
D16*
X289500000Y-160690000D03*
%TD*%
D14*
%TO.P,D6,1*%
%TO.N,P113*%
X270500000Y-130310000D03*
D15*
X270500000Y-128150000D03*
%TO.P,D6,2*%
%TO.N,mirror_ColB_Row3*%
X270500000Y-124850000D03*
D16*
X270500000Y-122690000D03*
%TD*%
D22*
%TO.P,MCU1,1*%
%TO.N,P006*%
X195380000Y-103030000D03*
%TO.P,MCU1,2*%
%TO.N,P008*%
X195380000Y-105570000D03*
%TO.P,MCU1,3*%
%TO.N,GND*%
X195380000Y-108110000D03*
%TO.P,MCU1,4*%
X195380000Y-110650000D03*
%TO.P,MCU1,5*%
%TO.N,P017*%
X195380000Y-113190000D03*
%TO.P,MCU1,6*%
%TO.N,P020*%
X195380000Y-115730000D03*
%TO.P,MCU1,7*%
%TO.N,P022*%
X195380000Y-118270000D03*
%TO.P,MCU1,8*%
%TO.N,P024*%
X195380000Y-120810000D03*
%TO.P,MCU1,9*%
%TO.N,P100*%
X195380000Y-123350000D03*
%TO.P,MCU1,10*%
%TO.N,P011*%
X195380000Y-125890000D03*
%TO.P,MCU1,11*%
%TO.N,P104*%
X195380000Y-128430000D03*
%TO.P,MCU1,12*%
%TO.N,P106*%
X195380000Y-130970000D03*
%TO.P,MCU1,13*%
%TO.N,P009*%
X210620000Y-130970000D03*
%TO.P,MCU1,14*%
%TO.N,P010*%
X210620000Y-128430000D03*
%TO.P,MCU1,15*%
%TO.N,P111*%
X210620000Y-125890000D03*
%TO.P,MCU1,16*%
%TO.N,P113*%
X210620000Y-123350000D03*
%TO.P,MCU1,17*%
%TO.N,P115*%
X210620000Y-120810000D03*
%TO.P,MCU1,18*%
%TO.N,P002*%
X210620000Y-118270000D03*
%TO.P,MCU1,19*%
%TO.N,P029*%
X210620000Y-115730000D03*
%TO.P,MCU1,20*%
%TO.N,P031*%
X210620000Y-113190000D03*
%TO.P,MCU1,21*%
%TO.N,VCC*%
X210620000Y-110650000D03*
%TO.P,MCU1,22*%
%TO.N,RST*%
X210620000Y-108110000D03*
%TO.P,MCU1,23*%
%TO.N,GND*%
X210620000Y-105570000D03*
%TO.P,MCU1,24*%
%TO.N,RAW*%
X210620000Y-103030000D03*
%TO.P,MCU1,31*%
%TO.N,P101*%
X197920000Y-125890000D03*
%TO.P,MCU1,32*%
%TO.N,P102*%
X200460000Y-125890000D03*
%TO.P,MCU1,33*%
%TO.N,P107*%
X203000000Y-125890000D03*
%TD*%
D14*
%TO.P,D4,1*%
%TO.N,P106*%
X270500000Y-168310000D03*
D15*
X270500000Y-166150000D03*
%TO.P,D4,2*%
%TO.N,mirror_ColB_Row1*%
X270500000Y-162850000D03*
D16*
X270500000Y-160690000D03*
%TD*%
D14*
%TO.P,D13,1*%
%TO.N,P106*%
X213500000Y-160310000D03*
D15*
X213500000Y-158150000D03*
%TO.P,D13,2*%
%TO.N,mirror_ColE_Row1*%
X213500000Y-154850000D03*
D16*
X213500000Y-152690000D03*
%TD*%
D14*
%TO.P,D15,1*%
%TO.N,P104*%
X223000000Y-184060000D03*
D15*
X223000000Y-181900000D03*
%TO.P,D15,2*%
%TO.N,mirror_ColD_Row0*%
X223000000Y-178600000D03*
D16*
X223000000Y-176440000D03*
%TD*%
D14*
%TO.P,D11,1*%
%TO.N,P111*%
X232500000Y-136310000D03*
D15*
X232500000Y-134150000D03*
%TO.P,D11,2*%
%TO.N,mirror_ColD_Row2*%
X232500000Y-130850000D03*
D16*
X232500000Y-128690000D03*
%TD*%
D14*
%TO.P,D19,1*%
%TO.N,P113*%
X198500000Y-122810000D03*
D15*
X198500000Y-120650000D03*
%TO.P,D19,2*%
%TO.N,mirror_ColF_Row3*%
X198500000Y-117350000D03*
D16*
X198500000Y-115190000D03*
%TD*%
D23*
%TO.N,GND*%
X214000000Y-105000000D03*
%TO.N,P115*%
X231000000Y-120000000D03*
X227000000Y-122000000D03*
%TO.N,pos*%
X214000000Y-103000000D03*
X250000000Y-107000000D03*
%TO.N,GND*%
X250000000Y-109000000D03*
%TO.N,P009*%
X204400000Y-123200000D03*
X204400000Y-119000000D03*
%TD*%
D24*
%TO.N,GND*%
X200175000Y-99150000D02*
X200400000Y-99375000D01*
X200400000Y-99375000D02*
X205200000Y-99375000D01*
X205200000Y-99375000D02*
X205425000Y-99150000D01*
%TO.N,mirror_ColD_Row3*%
X232500000Y-109690000D02*
X232500000Y-111850000D01*
%TO.N,mirror_ColF_Row3*%
X198500000Y-115190000D02*
X198500000Y-117350000D01*
%TO.N,P113*%
X232500000Y-117310000D02*
X232500000Y-115150000D01*
%TO.N,mirror_ColC_Row3*%
X251500000Y-114690000D02*
X251500000Y-116850000D01*
%TO.N,mirror_ColB_Row3*%
X270500000Y-122690000D02*
X270500000Y-124850000D01*
%TO.N,mirror_ColA_Row3*%
X289500000Y-122690000D02*
X289500000Y-124850000D01*
%TO.N,mirror_ColA_Row2*%
X289500000Y-141690000D02*
X289500000Y-143850000D01*
%TO.N,mirror_ColB_Row2*%
X270500000Y-141690000D02*
X270500000Y-143850000D01*
%TO.N,mirror_ColC_Row2*%
X251500000Y-133690000D02*
X251500000Y-135850000D01*
%TO.N,mirror_ColD_Row2*%
X232500000Y-128690000D02*
X232500000Y-130850000D01*
%TO.N,P106*%
X232500000Y-153150000D02*
X232500000Y-155310000D01*
%TO.N,mirror_ColE_Row2*%
X213500000Y-133690000D02*
X213500000Y-135850000D01*
%TO.N,mirror_ColF_Row2*%
X196850000Y-144000000D02*
X194690000Y-144000000D01*
%TO.N,P111*%
X200150000Y-144000000D02*
X202310000Y-144000000D01*
%TO.N,mirror_ColA_Row1*%
X289500000Y-160690000D02*
X289500000Y-162850000D01*
%TO.N,mirror_ColB_Row1*%
X270500000Y-160690000D02*
X270500000Y-162850000D01*
%TO.N,mirror_ColC_Row1*%
X251500000Y-152690000D02*
X251500000Y-154850000D01*
%TO.N,mirror_ColD_Row1*%
X232500000Y-147690000D02*
X232500000Y-149850000D01*
%TO.N,mirror_ColE_Row1*%
X213500000Y-152690000D02*
X213500000Y-154850000D01*
%TO.N,mirror_ColF_Row1*%
X194500000Y-155690000D02*
X194500000Y-157850000D01*
%TO.N,mirror_ColD_Row0*%
X223000000Y-176440000D02*
X223000000Y-178600000D01*
%TO.N,mirror_ColE_Row0*%
X201476559Y-179875139D02*
X201476559Y-181713503D01*
X201476559Y-181713503D02*
X201777174Y-182014118D01*
%TO.N,mirror_ColF_Row0*%
X177905222Y-183244761D02*
X177905222Y-184389070D01*
X177905222Y-184389070D02*
X178749203Y-185233051D01*
%TO.N,P111*%
X213500000Y-139150000D02*
X211821300Y-137471300D01*
X211821300Y-127091300D02*
X210620000Y-125890000D01*
X211821300Y-137471300D02*
X211821300Y-127091300D01*
%TO.N,P104*%
X202236446Y-185282002D02*
X192000000Y-175045556D01*
X192000000Y-131810000D02*
X195380000Y-128430000D01*
X192000000Y-175045556D02*
X192000000Y-131810000D01*
%TO.N,P106*%
X194500000Y-161150000D02*
X193222500Y-159872500D01*
X193222500Y-159872500D02*
X193222500Y-133127500D01*
X193222500Y-133127500D02*
X195380000Y-130970000D01*
%TO.N,GND*%
X239350131Y-105000000D02*
X214000000Y-105000000D01*
X243350131Y-109000000D02*
X239350131Y-105000000D01*
X245000000Y-109000000D02*
X243350131Y-109000000D01*
%TO.N,mirror_ColE_Row3*%
X216500000Y-117850000D02*
X216500000Y-115690000D01*
%TO.N,P115*%
X229000000Y-122000000D02*
X227000000Y-122000000D01*
X231000000Y-120000000D02*
X229000000Y-122000000D01*
%TO.N,P113*%
X216500000Y-123310000D02*
X217190000Y-124000000D01*
X217190000Y-124000000D02*
X228700000Y-124000000D01*
X228700000Y-124000000D02*
X232500000Y-120200000D01*
%TO.N,RST*%
X205425000Y-100850000D02*
X205137500Y-101137500D01*
X205137500Y-101137500D02*
X205137500Y-102627500D01*
X205137500Y-102627500D02*
X210620000Y-108110000D01*
X200175000Y-100850000D02*
X201450000Y-102125000D01*
X204150000Y-102125000D02*
X205425000Y-100850000D01*
X201450000Y-102125000D02*
X204150000Y-102125000D01*
%TO.N,GND*%
X205425000Y-99150000D02*
X205700000Y-99150000D01*
X205700000Y-99150000D02*
X209418700Y-102868700D01*
X209418700Y-102868700D02*
X209418700Y-104368700D01*
X209418700Y-104368700D02*
X210620000Y-105570000D01*
X195380000Y-108110000D02*
X195380000Y-110650000D01*
X200175000Y-99150000D02*
X199900000Y-99150000D01*
X199900000Y-99150000D02*
X196581300Y-102468700D01*
X196581300Y-102468700D02*
X196581300Y-106908700D01*
X196581300Y-106908700D02*
X195380000Y-108110000D01*
%TO.N,pos*%
X215000000Y-104000000D02*
X229055945Y-104000000D01*
X214000000Y-103000000D02*
X215000000Y-104000000D01*
X229055945Y-104000000D02*
X231075525Y-101980420D01*
X244980420Y-101980420D02*
X250000000Y-107000000D01*
X231075525Y-101980420D02*
X244980420Y-101980420D01*
%TO.N,GND*%
X250000000Y-109000000D02*
X245000000Y-109000000D01*
%TO.N,P009*%
X204400000Y-119000000D02*
X204400000Y-123200000D01*
%TO.N,P113*%
X266600000Y-129000000D02*
X267910000Y-130310000D01*
X216460000Y-123350000D02*
X216500000Y-123310000D01*
X289500000Y-128150000D02*
X289500000Y-130310000D01*
X216500000Y-121150000D02*
X216500000Y-123310000D01*
X198500000Y-120650000D02*
X198500000Y-122810000D01*
X234200000Y-119200000D02*
X247400000Y-119200000D01*
X263710000Y-122310000D02*
X266600000Y-125200000D01*
X270500000Y-130310000D02*
X289500000Y-130310000D01*
X209370000Y-124600000D02*
X210620000Y-123350000D01*
X210620000Y-123350000D02*
X216460000Y-123350000D01*
X201800000Y-124600000D02*
X209370000Y-124600000D01*
X247400000Y-119200000D02*
X250510000Y-122310000D01*
X232500000Y-120200000D02*
X233200000Y-120200000D01*
X250510000Y-122310000D02*
X251500000Y-122310000D01*
X251500000Y-122310000D02*
X263710000Y-122310000D01*
X233200000Y-120200000D02*
X234200000Y-119200000D01*
X267910000Y-130310000D02*
X270500000Y-130310000D01*
X198500000Y-122810000D02*
X198995900Y-123305900D01*
X200505900Y-123305900D02*
X201800000Y-124600000D01*
X251500000Y-120150000D02*
X251500000Y-122310000D01*
X198995900Y-123305900D02*
X200505900Y-123305900D01*
X266600000Y-125200000D02*
X266600000Y-129000000D01*
X232500000Y-120200000D02*
X232500000Y-117310000D01*
X270500000Y-128150000D02*
X270500000Y-130310000D01*
%TO.N,P111*%
X232500000Y-139500000D02*
X232500000Y-136310000D01*
X262500000Y-141310000D02*
X270500000Y-149310000D01*
X251500000Y-141310000D02*
X262500000Y-141310000D01*
X230690000Y-141310000D02*
X232500000Y-139500000D01*
X232500000Y-134150000D02*
X232500000Y-136310000D01*
X213500000Y-141310000D02*
X230690000Y-141310000D01*
X210810000Y-144000000D02*
X213500000Y-141310000D01*
X270500000Y-147150000D02*
X270500000Y-149310000D01*
X244310000Y-136310000D02*
X249310000Y-141310000D01*
X270500000Y-149310000D02*
X289500000Y-149310000D01*
X213500000Y-139150000D02*
X213500000Y-141310000D01*
X251500000Y-139150000D02*
X251500000Y-141310000D01*
X232500000Y-136310000D02*
X244310000Y-136310000D01*
X249310000Y-141310000D02*
X251500000Y-141310000D01*
X289500000Y-147150000D02*
X289500000Y-149310000D01*
X202310000Y-144000000D02*
X210810000Y-144000000D01*
%TO.N,P104*%
X202537060Y-187420981D02*
X219639019Y-187420981D01*
X223000000Y-184060000D02*
X223000000Y-181900000D01*
X202236446Y-187120367D02*
X202537060Y-187420981D01*
X180882595Y-190259007D02*
X199699034Y-190259007D01*
X202236446Y-185282002D02*
X202236446Y-187120367D01*
X180038615Y-188270717D02*
X180038615Y-189415027D01*
X219639019Y-187420981D02*
X223000000Y-184060000D01*
X199699034Y-190259007D02*
X202537060Y-187420981D01*
X180038615Y-189415027D02*
X180882595Y-190259007D01*
%TO.N,P106*%
X233690000Y-160310000D02*
X251500000Y-160310000D01*
X289500000Y-166150000D02*
X289500000Y-168310000D01*
X213500000Y-160810000D02*
X213500000Y-160310000D01*
X211000000Y-163310000D02*
X230690000Y-163310000D01*
X211000000Y-163310000D02*
X213500000Y-160810000D01*
X232500000Y-161500000D02*
X232500000Y-155310000D01*
X270500000Y-166150000D02*
X270500000Y-168310000D01*
X194500000Y-163310000D02*
X211000000Y-163310000D01*
X270500000Y-168310000D02*
X289500000Y-168310000D01*
X230690000Y-163310000D02*
X232500000Y-161500000D01*
X232500000Y-161500000D02*
X233690000Y-160310000D01*
X251500000Y-158150000D02*
X251500000Y-160310000D01*
X251500000Y-160310000D02*
X264310000Y-160310000D01*
X267000000Y-167000000D02*
X268310000Y-168310000D01*
X267000000Y-163000000D02*
X267000000Y-167000000D01*
X213500000Y-158150000D02*
X213500000Y-160310000D01*
X268310000Y-168310000D02*
X270500000Y-168310000D01*
X264310000Y-160310000D02*
X267000000Y-163000000D01*
X194500000Y-161150000D02*
X194500000Y-163310000D01*
%TD*%
M02*
