M48
; DRILL file {KiCad 8.0.6} date 2024-12-24T11:46:21+0100
; FORMAT={-:-/ absolute / inch / decimal}
; #@! TF.CreationDate,2024-12-24T11:46:21+01:00
; #@! TF.GenerationSoftware,Kicad,Pcbnew,8.0.6
; #@! TF.FileFunction,Plated,1,2,PTH
FMAT,2
INCH
; #@! TA.AperFunction,Plated,PTH,ViaDrill
T1C0.0157
; #@! TA.AperFunction,Plated,PTH,ComponentDrill
T2C0.0295
; #@! TA.AperFunction,Plated,PTH,ComponentDrill
T3C0.0390
; #@! TA.AperFunction,Plated,PTH,ComponentDrill
T4C0.0430
%
G90
G05
T1
X8.0472Y-4.685
X8.0472Y-4.8504
X8.4252Y-4.0551
X8.4252Y-4.1339
X8.937Y-4.8031
X9.0945Y-4.7244
X9.8425Y-4.2126
X9.8425Y-4.2913
T2
X10.0787Y-4.2126
X10.0787Y-4.2913
T3
X7.0041Y-7.2144
X7.1214Y-7.4905
X7.6575Y-6.1295
X7.6575Y-6.4295
X7.665Y-5.6693
X7.815Y-4.535
X7.815Y-4.835
X7.9321Y-7.0817
X7.965Y-5.6693
X7.9739Y-7.3788
X8.4055Y-5.2634
X8.4055Y-5.5634
X8.4055Y-6.0114
X8.4055Y-6.3114
X8.5236Y-4.5547
X8.5236Y-4.8547
X8.7795Y-6.9465
X8.7795Y-7.2465
X9.1535Y-4.3185
X9.1535Y-4.6185
X9.1535Y-5.0665
X9.1535Y-5.3665
X9.1535Y-5.8146
X9.1535Y-6.1146
X9.9016Y-4.5154
X9.9016Y-4.8154
X9.9016Y-5.2634
X9.9016Y-5.5634
X9.9016Y-6.0114
X9.9016Y-6.3114
X10.6496Y-4.8303
X10.6496Y-5.1303
X10.6496Y-5.5783
X10.6496Y-5.8783
X10.6496Y-6.3264
X10.6496Y-6.6264
X11.3976Y-4.8303
X11.3976Y-5.1303
X11.3976Y-5.5783
X11.3976Y-5.8783
X11.3976Y-6.3264
X11.3976Y-6.6264
T4
X7.6921Y-4.0563
X7.6921Y-4.1563
X7.6921Y-4.2563
X7.6921Y-4.3563
X7.6921Y-4.4563
X7.6921Y-4.5563
X7.6921Y-4.6563
X7.6921Y-4.7563
X7.6921Y-4.8563
X7.6921Y-4.9563
X7.6921Y-5.0563
X7.6921Y-5.1563
X7.7921Y-4.9563
X7.8921Y-4.9563
X7.9921Y-4.9563
X8.2921Y-4.0563
X8.2921Y-4.1563
X8.2921Y-4.2563
X8.2921Y-4.3563
X8.2921Y-4.4563
X8.2921Y-4.5563
X8.2921Y-4.6563
X8.2921Y-4.7563
X8.2921Y-4.8563
X8.2921Y-4.9563
X8.2921Y-5.0563
X8.2921Y-5.1563
M30
