%TF.GenerationSoftware,KiCad,Pcbnew,8.0.6*%
%TF.CreationDate,2024-12-24T11:46:23+01:00*%
%TF.ProjectId,right,72696768-742e-46b6-9963-61645f706362,v1.0.0*%
%TF.SameCoordinates,Original*%
%TF.FileFunction,Copper,L2,Bot*%
%TF.FilePolarity,Positive*%
%FSLAX46Y46*%
G04 Gerber Fmt 4.6, Leading zero omitted, Abs format (unit mm)*
G04 Created by KiCad (PCBNEW 8.0.6) date 2024-12-24 11:46:23*
%MOMM*%
%LPD*%
G01*
G04 APERTURE LIST*
G04 Aperture macros list*
%AMRotRect*
0 Rectangle, with rotation*
0 The origin of the aperture is its center*
0 $1 length*
0 $2 width*
0 $3 Rotation angle, in degrees counterclockwise*
0 Add horizontal line*
21,1,$1,$2,0,0,$3*%
G04 Aperture macros list end*
%TA.AperFunction,SMDPad,CuDef*%
%ADD10R,0.900000X0.900000*%
%TD*%
%TA.AperFunction,WasherPad*%
%ADD11C,1.000000*%
%TD*%
%TA.AperFunction,SMDPad,CuDef*%
%ADD12R,0.900000X1.250000*%
%TD*%
%TA.AperFunction,ComponentPad*%
%ADD13R,1.700000X1.200000*%
%TD*%
%TA.AperFunction,ComponentPad*%
%ADD14O,1.700000X1.200000*%
%TD*%
%TA.AperFunction,SMDPad,CuDef*%
%ADD15R,2.500000X2.550000*%
%TD*%
%TA.AperFunction,ComponentPad*%
%ADD16R,1.778000X1.778000*%
%TD*%
%TA.AperFunction,SMDPad,CuDef*%
%ADD17R,1.200000X0.900000*%
%TD*%
%TA.AperFunction,ComponentPad*%
%ADD18C,1.905000*%
%TD*%
%TA.AperFunction,SMDPad,CuDef*%
%ADD19RotRect,2.550000X2.500000X278.000000*%
%TD*%
%TA.AperFunction,SMDPad,CuDef*%
%ADD20RotRect,2.550000X2.500000X293.000000*%
%TD*%
%TA.AperFunction,SMDPad,CuDef*%
%ADD21R,0.900000X1.200000*%
%TD*%
%TA.AperFunction,ComponentPad*%
%ADD22RotRect,1.778000X1.778000X113.000000*%
%TD*%
%TA.AperFunction,SMDPad,CuDef*%
%ADD23RotRect,0.900000X1.200000X113.000000*%
%TD*%
%TA.AperFunction,SMDPad,CuDef*%
%ADD24R,2.550000X2.500000*%
%TD*%
%TA.AperFunction,ComponentPad*%
%ADD25RotRect,1.778000X1.778000X98.000000*%
%TD*%
%TA.AperFunction,SMDPad,CuDef*%
%ADD26RotRect,0.900000X1.200000X98.000000*%
%TD*%
%TA.AperFunction,ComponentPad*%
%ADD27C,1.752600*%
%TD*%
%TA.AperFunction,ViaPad*%
%ADD28C,0.800000*%
%TD*%
%TA.AperFunction,Conductor*%
%ADD29C,0.250000*%
%TD*%
G04 APERTURE END LIST*
D10*
%TO.P,T1,*%
%TO.N,*%
X211300000Y-98400000D03*
X211300000Y-100600000D03*
D11*
X213500000Y-99500000D03*
X216500000Y-99500000D03*
D10*
X218700000Y-98400000D03*
X218700000Y-100600000D03*
D12*
%TO.P,T1,1*%
%TO.N,pos*%
X212750000Y-101575000D03*
%TO.P,T1,2*%
%TO.N,RAW*%
X215750000Y-101575000D03*
%TO.P,T1,3*%
%TO.N,N/C*%
X217250000Y-101575000D03*
%TD*%
D13*
%TO.P,JST1,1*%
%TO.N,pos*%
X256000000Y-107000000D03*
D14*
%TO.P,JST1,2*%
%TO.N,GND*%
X256000000Y-109000000D03*
%TD*%
D15*
%TO.P,S12,1*%
%TO.N,P115*%
X242540000Y-101915000D03*
%TO.P,S12,2*%
%TO.N,mirror_ColD_Row3*%
X245080000Y-114842000D03*
%TD*%
D16*
%TO.P,D14,1*%
%TO.N,P106*%
X194500000Y-163310000D03*
D17*
X194500000Y-161150000D03*
%TO.P,D14,2*%
%TO.N,mirror_ColF_Row1*%
X194500000Y-157850000D03*
D18*
X194500000Y-155690000D03*
%TD*%
D16*
%TO.P,D8,1*%
%TO.N,P111*%
X251500000Y-141310000D03*
D17*
X251500000Y-139150000D03*
%TO.P,D8,2*%
%TO.N,mirror_ColC_Row2*%
X251500000Y-135850000D03*
D18*
X251500000Y-133690000D03*
%TD*%
D15*
%TO.P,S15,1*%
%TO.N,P010*%
X223540000Y-106915000D03*
%TO.P,S15,2*%
%TO.N,mirror_ColE_Row3*%
X226080000Y-119842000D03*
%TD*%
%TO.P,S10,1*%
%TO.N,P115*%
X242540000Y-139915000D03*
%TO.P,S10,2*%
%TO.N,mirror_ColD_Row1*%
X245080000Y-152842000D03*
%TD*%
%TO.P,S3,1*%
%TO.N,P031*%
X299540000Y-114915000D03*
%TO.P,S3,2*%
%TO.N,mirror_ColA_Row3*%
X302080000Y-127842000D03*
%TD*%
%TO.P,S11,1*%
%TO.N,P115*%
X242540000Y-120915000D03*
%TO.P,S11,2*%
%TO.N,mirror_ColD_Row2*%
X245080000Y-133842000D03*
%TD*%
%TO.P,S7,1*%
%TO.N,P002*%
X261540000Y-144915000D03*
%TO.P,S7,2*%
%TO.N,mirror_ColC_Row1*%
X264080000Y-157842000D03*
%TD*%
%TO.P,S14,1*%
%TO.N,P010*%
X223540000Y-125915000D03*
%TO.P,S14,2*%
%TO.N,mirror_ColE_Row2*%
X226080000Y-138842000D03*
%TD*%
D16*
%TO.P,D5,1*%
%TO.N,P111*%
X270500000Y-149310000D03*
D17*
X270500000Y-147150000D03*
%TO.P,D5,2*%
%TO.N,mirror_ColB_Row2*%
X270500000Y-143850000D03*
D18*
X270500000Y-141690000D03*
%TD*%
D15*
%TO.P,S18,1*%
%TO.N,P115*%
X233040000Y-168665000D03*
%TO.P,S18,2*%
%TO.N,mirror_ColD_Row0*%
X235580000Y-181592000D03*
%TD*%
D19*
%TO.P,S19,1*%
%TO.N,P010*%
X210336781Y-170778506D03*
%TO.P,S19,2*%
%TO.N,mirror_ColE_Row0*%
X214651153Y-183226202D03*
%TD*%
D15*
%TO.P,S9,1*%
%TO.N,P002*%
X261540000Y-106915000D03*
%TO.P,S9,2*%
%TO.N,mirror_ColC_Row3*%
X264080000Y-119842000D03*
%TD*%
D16*
%TO.P,D12,1*%
%TO.N,P113*%
X232500000Y-117310000D03*
D17*
X232500000Y-115150000D03*
%TO.P,D12,2*%
%TO.N,mirror_ColD_Row3*%
X232500000Y-111850000D03*
D18*
X232500000Y-109690000D03*
%TD*%
D16*
%TO.P,D3,1*%
%TO.N,P113*%
X289500000Y-130310000D03*
D17*
X289500000Y-128150000D03*
%TO.P,D3,2*%
%TO.N,mirror_ColA_Row3*%
X289500000Y-124850000D03*
D18*
X289500000Y-122690000D03*
%TD*%
D15*
%TO.P,S5,1*%
%TO.N,P029*%
X280540000Y-133915000D03*
%TO.P,S5,2*%
%TO.N,mirror_ColB_Row2*%
X283080000Y-146842000D03*
%TD*%
D20*
%TO.P,S20,1*%
%TO.N,P009*%
X184109158Y-172164894D03*
%TO.P,S20,2*%
%TO.N,mirror_ColF_Row0*%
X191498222Y-183071803D03*
%TD*%
D15*
%TO.P,S8,1*%
%TO.N,P002*%
X261540000Y-125915000D03*
%TO.P,S8,2*%
%TO.N,mirror_ColC_Row2*%
X264080000Y-138842000D03*
%TD*%
D16*
%TO.P,D18,1*%
%TO.N,P111*%
X202310000Y-144000000D03*
D21*
X200150000Y-144000000D03*
%TO.P,D18,2*%
%TO.N,mirror_ColF_Row2*%
X196850000Y-144000000D03*
D18*
X194690000Y-144000000D03*
%TD*%
D16*
%TO.P,D10,1*%
%TO.N,P106*%
X232500000Y-155310000D03*
D17*
X232500000Y-153150000D03*
%TO.P,D10,2*%
%TO.N,mirror_ColD_Row1*%
X232500000Y-149850000D03*
D18*
X232500000Y-147690000D03*
%TD*%
D16*
%TO.P,D9,1*%
%TO.N,P113*%
X251500000Y-122310000D03*
D17*
X251500000Y-120150000D03*
%TO.P,D9,2*%
%TO.N,mirror_ColC_Row3*%
X251500000Y-116850000D03*
D18*
X251500000Y-114690000D03*
%TD*%
D16*
%TO.P,D2,1*%
%TO.N,P111*%
X289500000Y-149310000D03*
D17*
X289500000Y-147150000D03*
%TO.P,D2,2*%
%TO.N,mirror_ColA_Row2*%
X289500000Y-143850000D03*
D18*
X289500000Y-141690000D03*
%TD*%
D15*
%TO.P,S16,1*%
%TO.N,P009*%
X204540000Y-147915000D03*
%TO.P,S16,2*%
%TO.N,mirror_ColF_Row1*%
X207080000Y-160842000D03*
%TD*%
D22*
%TO.P,D17,1*%
%TO.N,P104*%
X180882596Y-190259007D03*
D23*
X180038615Y-188270717D03*
%TO.P,D17,2*%
%TO.N,mirror_ColF_Row0*%
X178749203Y-185233051D03*
D18*
X177905222Y-183244761D03*
%TD*%
D16*
%TO.P,D21,1*%
%TO.N,P111*%
X213500000Y-141310000D03*
D17*
X213500000Y-139150000D03*
%TO.P,D21,2*%
%TO.N,mirror_ColE_Row2*%
X213500000Y-135850000D03*
D18*
X213500000Y-133690000D03*
%TD*%
D16*
%TO.P,D7,1*%
%TO.N,P106*%
X251500000Y-160310000D03*
D17*
X251500000Y-158150000D03*
%TO.P,D7,2*%
%TO.N,mirror_ColC_Row1*%
X251500000Y-154850000D03*
D18*
X251500000Y-152690000D03*
%TD*%
D16*
%TO.P,D20,1*%
%TO.N,P113*%
X216500000Y-123310000D03*
D17*
X216500000Y-121150000D03*
%TO.P,D20,2*%
%TO.N,mirror_ColE_Row3*%
X216500000Y-117850000D03*
D18*
X216500000Y-115690000D03*
%TD*%
D15*
%TO.P,S17,1*%
%TO.N,P009*%
X204540000Y-109915000D03*
%TO.P,S17,2*%
%TO.N,mirror_ColF_Row3*%
X207080000Y-122842000D03*
%TD*%
D24*
%TO.P,S21,1*%
%TO.N,P009*%
X209085000Y-138540000D03*
%TO.P,S21,2*%
%TO.N,mirror_ColF_Row2*%
X196158000Y-141080000D03*
%TD*%
D25*
%TO.P,D16,1*%
%TO.N,P104*%
X202537061Y-187420981D03*
D26*
X202236446Y-185282002D03*
%TO.P,D16,2*%
%TO.N,mirror_ColE_Row0*%
X201777174Y-182014118D03*
D18*
X201476559Y-179875139D03*
%TD*%
D15*
%TO.P,S2,1*%
%TO.N,P031*%
X299540000Y-133915000D03*
%TO.P,S2,2*%
%TO.N,mirror_ColA_Row2*%
X302080000Y-146842000D03*
%TD*%
D16*
%TO.P,D1,1*%
%TO.N,P106*%
X289500000Y-168310000D03*
D17*
X289500000Y-166150000D03*
%TO.P,D1,2*%
%TO.N,mirror_ColA_Row1*%
X289500000Y-162850000D03*
D18*
X289500000Y-160690000D03*
%TD*%
D16*
%TO.P,D6,1*%
%TO.N,P113*%
X270500000Y-130310000D03*
D17*
X270500000Y-128150000D03*
%TO.P,D6,2*%
%TO.N,mirror_ColB_Row3*%
X270500000Y-124850000D03*
D18*
X270500000Y-122690000D03*
%TD*%
D27*
%TO.P,MCU1,1*%
%TO.N,P006*%
X195380000Y-103030000D03*
%TO.P,MCU1,2*%
%TO.N,P008*%
X195380000Y-105570000D03*
%TO.P,MCU1,3*%
%TO.N,GND*%
X195380000Y-108110000D03*
%TO.P,MCU1,4*%
X195380000Y-110650000D03*
%TO.P,MCU1,5*%
%TO.N,P017*%
X195380000Y-113190000D03*
%TO.P,MCU1,6*%
%TO.N,P020*%
X195380000Y-115730000D03*
%TO.P,MCU1,7*%
%TO.N,P022*%
X195380000Y-118270000D03*
%TO.P,MCU1,8*%
%TO.N,P024*%
X195380000Y-120810000D03*
%TO.P,MCU1,9*%
%TO.N,P100*%
X195380000Y-123350000D03*
%TO.P,MCU1,10*%
%TO.N,P011*%
X195380000Y-125890000D03*
%TO.P,MCU1,11*%
%TO.N,P104*%
X195380000Y-128430000D03*
%TO.P,MCU1,12*%
%TO.N,P106*%
X195380000Y-130970000D03*
%TO.P,MCU1,13*%
%TO.N,P009*%
X210620000Y-130970000D03*
%TO.P,MCU1,14*%
%TO.N,P010*%
X210620000Y-128430000D03*
%TO.P,MCU1,15*%
%TO.N,P111*%
X210620000Y-125890000D03*
%TO.P,MCU1,16*%
%TO.N,P113*%
X210620000Y-123350000D03*
%TO.P,MCU1,17*%
%TO.N,P115*%
X210620000Y-120810000D03*
%TO.P,MCU1,18*%
%TO.N,P002*%
X210620000Y-118270000D03*
%TO.P,MCU1,19*%
%TO.N,P029*%
X210620000Y-115730000D03*
%TO.P,MCU1,20*%
%TO.N,P031*%
X210620000Y-113190000D03*
%TO.P,MCU1,21*%
%TO.N,VCC*%
X210620000Y-110650000D03*
%TO.P,MCU1,22*%
%TO.N,RST*%
X210620000Y-108110000D03*
%TO.P,MCU1,23*%
%TO.N,GND*%
X210620000Y-105570000D03*
%TO.P,MCU1,24*%
%TO.N,RAW*%
X210620000Y-103030000D03*
%TO.P,MCU1,31*%
%TO.N,P101*%
X197920000Y-125890000D03*
%TO.P,MCU1,32*%
%TO.N,P102*%
X200460000Y-125890000D03*
%TO.P,MCU1,33*%
%TO.N,P107*%
X203000000Y-125890000D03*
%TD*%
D16*
%TO.P,D4,1*%
%TO.N,P106*%
X270500000Y-168310000D03*
D17*
X270500000Y-166150000D03*
%TO.P,D4,2*%
%TO.N,mirror_ColB_Row1*%
X270500000Y-162850000D03*
D18*
X270500000Y-160690000D03*
%TD*%
D15*
%TO.P,S4,1*%
%TO.N,P029*%
X280540000Y-152915000D03*
%TO.P,S4,2*%
%TO.N,mirror_ColB_Row1*%
X283080000Y-165842000D03*
%TD*%
D16*
%TO.P,D13,1*%
%TO.N,P106*%
X213500000Y-160310000D03*
D17*
X213500000Y-158150000D03*
%TO.P,D13,2*%
%TO.N,mirror_ColE_Row1*%
X213500000Y-154850000D03*
D18*
X213500000Y-152690000D03*
%TD*%
D15*
%TO.P,S1,1*%
%TO.N,P031*%
X299540000Y-152915000D03*
%TO.P,S1,2*%
%TO.N,mirror_ColA_Row1*%
X302080000Y-165842000D03*
%TD*%
D16*
%TO.P,D15,1*%
%TO.N,P104*%
X223000000Y-184060000D03*
D17*
X223000000Y-181900000D03*
%TO.P,D15,2*%
%TO.N,mirror_ColD_Row0*%
X223000000Y-178600000D03*
D18*
X223000000Y-176440000D03*
%TD*%
D15*
%TO.P,S13,1*%
%TO.N,P010*%
X223540000Y-144915000D03*
%TO.P,S13,2*%
%TO.N,mirror_ColE_Row1*%
X226080000Y-157842000D03*
%TD*%
D16*
%TO.P,D11,1*%
%TO.N,P111*%
X232500000Y-136310000D03*
D17*
X232500000Y-134150000D03*
%TO.P,D11,2*%
%TO.N,mirror_ColD_Row2*%
X232500000Y-130850000D03*
D18*
X232500000Y-128690000D03*
%TD*%
D16*
%TO.P,D19,1*%
%TO.N,P113*%
X198500000Y-122810000D03*
D17*
X198500000Y-120650000D03*
%TO.P,D19,2*%
%TO.N,mirror_ColF_Row3*%
X198500000Y-117350000D03*
D18*
X198500000Y-115190000D03*
%TD*%
D15*
%TO.P,S6,1*%
%TO.N,P029*%
X280540000Y-114915000D03*
%TO.P,S6,2*%
%TO.N,mirror_ColB_Row3*%
X283080000Y-127842000D03*
%TD*%
D28*
%TO.N,GND*%
X214000000Y-105000000D03*
%TO.N,P115*%
X231000000Y-120000000D03*
X227000000Y-122000000D03*
%TO.N,pos*%
X214000000Y-103000000D03*
X250000000Y-107000000D03*
%TO.N,GND*%
X250000000Y-109000000D03*
%TO.N,P009*%
X204400000Y-123200000D03*
X204400000Y-119000000D03*
%TD*%
D29*
%TO.N,P031*%
X299540000Y-114915000D02*
X296906802Y-112281802D01*
X296906802Y-112281802D02*
X271031802Y-112281802D01*
X271031802Y-112281802D02*
X263500000Y-104750000D01*
X263500000Y-104750000D02*
X250442792Y-104750000D01*
X250442792Y-104750000D02*
X244692792Y-99000000D01*
X244692792Y-99000000D02*
X231863604Y-99000000D01*
X231863604Y-99000000D02*
X227363604Y-103500000D01*
X220310000Y-103500000D02*
X210620000Y-113190000D01*
X227363604Y-103500000D02*
X220310000Y-103500000D01*
%TO.N,P029*%
X280540000Y-114915000D02*
X272715000Y-114915000D01*
X272715000Y-114915000D02*
X263115000Y-105315000D01*
X263115000Y-105315000D02*
X250065000Y-105315000D01*
X250065000Y-105315000D02*
X244500000Y-99750000D01*
X232181802Y-99750000D02*
X227431802Y-104500000D01*
X244500000Y-99750000D02*
X232181802Y-99750000D01*
X227431802Y-104500000D02*
X221175000Y-104500000D01*
X221175000Y-104500000D02*
X210620000Y-115055000D01*
X210620000Y-115055000D02*
X210620000Y-115730000D01*
%TO.N,P113*%
X198500000Y-120650000D02*
X198500000Y-122810000D01*
%TO.N,mirror_ColD_Row3*%
X232500000Y-109690000D02*
X232500000Y-111850000D01*
%TO.N,P113*%
X232500000Y-115150000D02*
X232500000Y-117310000D01*
X251500000Y-122310000D02*
X251500000Y-120150000D01*
X270500000Y-128150000D02*
X270500000Y-130310000D01*
X289500000Y-130310000D02*
X289500000Y-128150000D01*
%TO.N,P111*%
X289500000Y-149310000D02*
X289500000Y-147150000D01*
X270500000Y-149310000D02*
X270500000Y-147150000D01*
X251500000Y-139150000D02*
X251500000Y-141310000D01*
X232500000Y-134150000D02*
X232500000Y-136310000D01*
X213500000Y-139150000D02*
X213500000Y-141310000D01*
X200150000Y-144000000D02*
X202310000Y-144000000D01*
%TO.N,P106*%
X289500000Y-166150000D02*
X289500000Y-168310000D01*
X270500000Y-166150000D02*
X270500000Y-168310000D01*
X251500000Y-158150000D02*
X251500000Y-160310000D01*
X232500000Y-153150000D02*
X232500000Y-155310000D01*
X213500000Y-158150000D02*
X213500000Y-160310000D01*
X194500000Y-161150000D02*
X194500000Y-163310000D01*
%TO.N,P104*%
X223000000Y-181900000D02*
X223000000Y-184060000D01*
X202236446Y-185282002D02*
X202236446Y-187120366D01*
X202236446Y-187120366D02*
X202537061Y-187420981D01*
X180038615Y-188270717D02*
X180038615Y-189415026D01*
X180038615Y-189415026D02*
X180882596Y-190259007D01*
%TO.N,P002*%
X261540000Y-106915000D02*
X260700000Y-106075000D01*
X219774100Y-109115900D02*
X210620000Y-118270000D01*
X260700000Y-106075000D02*
X249875000Y-106075000D01*
X221965000Y-105315000D02*
X219774100Y-107505900D01*
X249875000Y-106075000D02*
X244115000Y-100315000D01*
X244115000Y-100315000D02*
X232685000Y-100315000D01*
X232685000Y-100315000D02*
X227685000Y-105315000D01*
X227685000Y-105315000D02*
X221965000Y-105315000D01*
X219774100Y-107505900D02*
X219774100Y-109115900D01*
%TO.N,GND*%
X214000000Y-105000000D02*
X213430000Y-105570000D01*
X213430000Y-105570000D02*
X210620000Y-105570000D01*
%TO.N,P113*%
X216500000Y-121150000D02*
X216500000Y-123310000D01*
%TO.N,P115*%
X231915000Y-120915000D02*
X231000000Y-120000000D01*
X227000000Y-122000000D02*
X220000000Y-122000000D01*
X220000000Y-122000000D02*
X218000000Y-120000000D01*
X242540000Y-120915000D02*
X231915000Y-120915000D01*
X218000000Y-120000000D02*
X211430000Y-120000000D01*
X211430000Y-120000000D02*
X210620000Y-120810000D01*
%TO.N,mirror_ColE_Row3*%
X216500000Y-117850000D02*
X224088000Y-117850000D01*
X224088000Y-117850000D02*
X226080000Y-119842000D01*
%TO.N,mirror_ColF_Row2*%
X196850000Y-144000000D02*
X194690000Y-144000000D01*
X196158000Y-141080000D02*
X196158000Y-143308000D01*
X196158000Y-143308000D02*
X196850000Y-144000000D01*
%TO.N,RAW*%
X215750000Y-101575000D02*
X215750000Y-102450000D01*
X215750000Y-102450000D02*
X214200000Y-104000000D01*
X211590000Y-104000000D02*
X210620000Y-103030000D01*
X214200000Y-104000000D02*
X211590000Y-104000000D01*
%TO.N,pos*%
X214000000Y-103000000D02*
X212750000Y-101750000D01*
X212750000Y-101750000D02*
X212750000Y-101575000D01*
X256000000Y-107000000D02*
X250000000Y-107000000D01*
%TO.N,GND*%
X256000000Y-109000000D02*
X250000000Y-109000000D01*
X210875000Y-105315000D02*
X210620000Y-105570000D01*
%TO.N,P031*%
X299540000Y-152915000D02*
X304085000Y-152915000D01*
X304085000Y-152915000D02*
X307000000Y-150000000D01*
X307000000Y-150000000D02*
X307000000Y-132000000D01*
X307000000Y-132000000D02*
X307000000Y-122375000D01*
X299540000Y-133915000D02*
X305085000Y-133915000D01*
X305085000Y-133915000D02*
X307000000Y-132000000D01*
X307000000Y-122375000D02*
X299540000Y-114915000D01*
%TO.N,P029*%
X287000000Y-149000000D02*
X287000000Y-130000000D01*
X287000000Y-130000000D02*
X287000000Y-121375000D01*
X280540000Y-133915000D02*
X283085000Y-133915000D01*
X283085000Y-133915000D02*
X287000000Y-130000000D01*
X283085000Y-152915000D02*
X287000000Y-149000000D01*
X287000000Y-121375000D02*
X280540000Y-114915000D01*
X280540000Y-152915000D02*
X283085000Y-152915000D01*
%TO.N,P002*%
X263085000Y-125915000D02*
X267000000Y-122000000D01*
X261540000Y-125915000D02*
X263085000Y-125915000D01*
X267000000Y-141000000D02*
X267000000Y-112000000D01*
X261540000Y-144915000D02*
X263085000Y-144915000D01*
X263085000Y-144915000D02*
X267000000Y-141000000D01*
X267000000Y-112000000D02*
X261915000Y-106915000D01*
X261915000Y-106915000D02*
X261540000Y-106915000D01*
%TO.N,P115*%
X248000000Y-137000000D02*
X248000000Y-117000000D01*
X248000000Y-117000000D02*
X248000000Y-105000000D01*
X242540000Y-120915000D02*
X244085000Y-120915000D01*
X244085000Y-120915000D02*
X248000000Y-117000000D01*
X248000000Y-160000000D02*
X248000000Y-137000000D01*
X245085000Y-139915000D02*
X248000000Y-137000000D01*
X242540000Y-139915000D02*
X245085000Y-139915000D01*
X233040000Y-168665000D02*
X239335000Y-168665000D01*
X239335000Y-168665000D02*
X248000000Y-160000000D01*
X248000000Y-105000000D02*
X244915000Y-101915000D01*
X244915000Y-101915000D02*
X242540000Y-101915000D01*
%TO.N,P010*%
X223540000Y-125915000D02*
X213135000Y-125915000D01*
X213135000Y-125915000D02*
X210620000Y-128430000D01*
X230000000Y-160000000D02*
X230000000Y-142000000D01*
X230000000Y-142000000D02*
X230000000Y-123000000D01*
X223540000Y-144915000D02*
X227085000Y-144915000D01*
X227085000Y-144915000D02*
X230000000Y-142000000D01*
X230000000Y-123000000D02*
X230000000Y-113375000D01*
X223540000Y-125915000D02*
X227085000Y-125915000D01*
X227085000Y-125915000D02*
X230000000Y-123000000D01*
X210336781Y-170778506D02*
X219221494Y-170778506D01*
X219221494Y-170778506D02*
X230000000Y-160000000D01*
X230000000Y-113375000D02*
X223540000Y-106915000D01*
%TO.N,P009*%
X211000000Y-145000000D02*
X211000000Y-137000000D01*
X211000000Y-137000000D02*
X211000000Y-131350000D01*
X209085000Y-138540000D02*
X209460000Y-138540000D01*
X209460000Y-138540000D02*
X211000000Y-137000000D01*
X211000000Y-160097000D02*
X211000000Y-145000000D01*
X204540000Y-147915000D02*
X208085000Y-147915000D01*
X208085000Y-147915000D02*
X211000000Y-145000000D01*
X184109158Y-172164894D02*
X198932106Y-172164894D01*
X198932106Y-172164894D02*
X211000000Y-160097000D01*
X211000000Y-131350000D02*
X210620000Y-130970000D01*
X204400000Y-123200000D02*
X204400000Y-124750000D01*
X204540000Y-109915000D02*
X206415000Y-111790000D01*
X206415000Y-111790000D02*
X206415000Y-116985000D01*
X204400000Y-124750000D02*
X210620000Y-130970000D01*
X206415000Y-116985000D02*
X204400000Y-119000000D01*
%TO.N,mirror_ColF_Row3*%
X198500000Y-117350000D02*
X201550000Y-120400000D01*
X201550000Y-120400000D02*
X204638000Y-120400000D01*
X204638000Y-120400000D02*
X207080000Y-122842000D01*
X198500000Y-115190000D02*
X198500000Y-117350000D01*
%TO.N,mirror_ColE_Row3*%
X216500000Y-115690000D02*
X216500000Y-117850000D01*
%TO.N,mirror_ColD_Row3*%
X232500000Y-111850000D02*
X238050000Y-117400000D01*
X238050000Y-117400000D02*
X242522000Y-117400000D01*
X242522000Y-117400000D02*
X245080000Y-114842000D01*
%TO.N,mirror_ColC_Row3*%
X251500000Y-116850000D02*
X256850000Y-122200000D01*
X256850000Y-122200000D02*
X261722000Y-122200000D01*
X261722000Y-122200000D02*
X264080000Y-119842000D01*
X251500000Y-114690000D02*
X251500000Y-116850000D01*
%TO.N,mirror_ColB_Row3*%
X270500000Y-124850000D02*
X275250000Y-129600000D01*
X275250000Y-129600000D02*
X281322000Y-129600000D01*
X281322000Y-129600000D02*
X283080000Y-127842000D01*
X270500000Y-122690000D02*
X270500000Y-124850000D01*
%TO.N,mirror_ColA_Row3*%
X289500000Y-124850000D02*
X289500000Y-124900000D01*
X289500000Y-124900000D02*
X294600000Y-130000000D01*
X294600000Y-130000000D02*
X299922000Y-130000000D01*
X299922000Y-130000000D02*
X302080000Y-127842000D01*
X289500000Y-122690000D02*
X289500000Y-124850000D01*
%TO.N,mirror_ColA_Row2*%
X289500000Y-143850000D02*
X295050000Y-149400000D01*
X295050000Y-149400000D02*
X299522000Y-149400000D01*
X299522000Y-149400000D02*
X302080000Y-146842000D01*
X289500000Y-141690000D02*
X289500000Y-143850000D01*
%TO.N,mirror_ColB_Row2*%
X270500000Y-143850000D02*
X275450000Y-148800000D01*
X275450000Y-148800000D02*
X281122000Y-148800000D01*
X281122000Y-148800000D02*
X283080000Y-146842000D01*
X270500000Y-141690000D02*
X270500000Y-143850000D01*
%TO.N,mirror_ColC_Row2*%
X251500000Y-135900000D02*
X256200000Y-140600000D01*
X251500000Y-135850000D02*
X251500000Y-135900000D01*
X262322000Y-140600000D02*
X264080000Y-138842000D01*
X256200000Y-140600000D02*
X262322000Y-140600000D01*
X251500000Y-133690000D02*
X251500000Y-135850000D01*
%TO.N,mirror_ColD_Row2*%
X232500000Y-130850000D02*
X237450000Y-135800000D01*
X237450000Y-135800000D02*
X243122000Y-135800000D01*
X243122000Y-135800000D02*
X245080000Y-133842000D01*
X232500000Y-128690000D02*
X232500000Y-130850000D01*
%TO.N,mirror_ColE_Row2*%
X218400000Y-140750000D02*
X218400000Y-140800000D01*
X213500000Y-135850000D02*
X218400000Y-140750000D01*
X218400000Y-140800000D02*
X224122000Y-140800000D01*
X224122000Y-140800000D02*
X226080000Y-138842000D01*
X213500000Y-133690000D02*
X213500000Y-135850000D01*
%TO.N,mirror_ColA_Row1*%
X289500000Y-162850000D02*
X294850000Y-168200000D01*
X294850000Y-168200000D02*
X299722000Y-168200000D01*
X299722000Y-168200000D02*
X302080000Y-165842000D01*
X289500000Y-160690000D02*
X289500000Y-162850000D01*
%TO.N,mirror_ColB_Row1*%
X270500000Y-162850000D02*
X275850000Y-168200000D01*
X275850000Y-168200000D02*
X280722000Y-168200000D01*
X280722000Y-168200000D02*
X283080000Y-165842000D01*
X270500000Y-160690000D02*
X270500000Y-162850000D01*
%TO.N,mirror_ColC_Row1*%
X251500000Y-154850000D02*
X256650000Y-160000000D01*
X256650000Y-160000000D02*
X261922000Y-160000000D01*
X261922000Y-160000000D02*
X264080000Y-157842000D01*
X251500000Y-152690000D02*
X251500000Y-154850000D01*
%TO.N,mirror_ColD_Row1*%
X232500000Y-149850000D02*
X237650000Y-155000000D01*
X237650000Y-155000000D02*
X242922000Y-155000000D01*
X242922000Y-155000000D02*
X245080000Y-152842000D01*
X232500000Y-147690000D02*
X232500000Y-149850000D01*
%TO.N,mirror_ColE_Row1*%
X213500000Y-154850000D02*
X219050000Y-160400000D01*
X219050000Y-160400000D02*
X223522000Y-160400000D01*
X223522000Y-160400000D02*
X226080000Y-157842000D01*
X213500000Y-152690000D02*
X213500000Y-154850000D01*
%TO.N,mirror_ColF_Row1*%
X194500000Y-157850000D02*
X198450000Y-161800000D01*
X198450000Y-161800000D02*
X206122000Y-161800000D01*
X206122000Y-161800000D02*
X207080000Y-160842000D01*
X194500000Y-155690000D02*
X194500000Y-157850000D01*
%TO.N,mirror_ColE_Row0*%
X201777174Y-182014118D02*
X204014118Y-182014118D01*
X206400000Y-185800000D02*
X212077355Y-185800000D01*
X204014118Y-182014118D02*
X204800000Y-182800000D01*
X204800000Y-184200000D02*
X206400000Y-185800000D01*
X204800000Y-182800000D02*
X204800000Y-184200000D01*
X212077355Y-185800000D02*
X214651153Y-183226202D01*
%TO.N,mirror_ColD_Row0*%
X223000000Y-178600000D02*
X224600000Y-178600000D01*
X227400000Y-184800000D02*
X232372000Y-184800000D01*
X223000000Y-176440000D02*
X223000000Y-178600000D01*
X225800000Y-179800000D02*
X225800000Y-183200000D01*
X232372000Y-184800000D02*
X235580000Y-181592000D01*
X224600000Y-178600000D02*
X225800000Y-179800000D01*
X225800000Y-183200000D02*
X227400000Y-184800000D01*
%TO.N,mirror_ColE_Row0*%
X201476560Y-181713504D02*
X201777174Y-182014118D01*
X201476560Y-179875139D02*
X201476560Y-181713504D01*
%TO.N,mirror_ColF_Row0*%
X183400000Y-188000000D02*
X186570025Y-188000000D01*
X177905223Y-184389071D02*
X178749203Y-185233051D01*
X177905223Y-183244761D02*
X177905223Y-184389071D01*
X180633051Y-185233051D02*
X183400000Y-188000000D01*
X178749203Y-185233051D02*
X180633051Y-185233051D01*
X186570025Y-188000000D02*
X191498222Y-183071803D01*
%TD*%
M02*
