M48
; DRILL file {KiCad 8.0.6} date 2024-12-24T11:46:21+0100
; FORMAT={-:-/ absolute / inch / decimal}
; #@! TF.CreationDate,2024-12-24T11:46:21+01:00
; #@! TF.GenerationSoftware,Kicad,Pcbnew,8.0.6
; #@! TF.FileFunction,NonPlated,1,2,NPTH
FMAT,2
INCH
; #@! TA.AperFunction,NonPlated,NPTH,ComponentDrill
T1C0.0295
; #@! TA.AperFunction,NonPlated,NPTH,ComponentDrill
T2C0.0354
; #@! TA.AperFunction,NonPlated,NPTH,ComponentDrill
T3C0.0670
; #@! TA.AperFunction,NonPlated,NPTH,ComponentDrill
T4C0.1181
; #@! TA.AperFunction,NonPlated,NPTH,ComponentDrill
T5C0.1570
%
G90
G05
T1
X7.9843Y-3.8829
X7.9843Y-3.9911
T2
X8.4055Y-3.9173
X8.5236Y-3.9173
T3
X7.1872Y-6.8899
X7.3435Y-7.2581
X7.7528Y-5.3543
X7.9528Y-4.4063
X7.9528Y-4.8063
X7.9528Y-5.9024
X7.9528Y-6.3024
X8.1528Y-5.3543
X8.1929Y-6.8156
X8.2486Y-7.2118
X8.7008Y-4.2882
X8.7008Y-4.6882
X8.7008Y-5.0362
X8.7008Y-5.4362
X8.7008Y-5.7843
X8.7008Y-6.1843
X9.0748Y-6.7193
X9.0748Y-7.1193
X9.4488Y-4.0913
X9.4488Y-4.4913
X9.4488Y-4.8394
X9.4488Y-5.2394
X9.4488Y-5.5874
X9.4488Y-5.9874
X10.1969Y-4.2882
X10.1969Y-4.6882
X10.1969Y-5.0362
X10.1969Y-5.4362
X10.1969Y-5.7843
X10.1969Y-6.1843
X10.9449Y-4.6031
X10.9449Y-5.0031
X10.9449Y-5.3512
X10.9449Y-5.7512
X10.9449Y-6.0992
X10.9449Y-6.4992
X11.6929Y-4.6031
X11.6929Y-5.0031
X11.6929Y-5.3512
X11.6929Y-5.7512
X11.6929Y-6.0992
X11.6929Y-6.4992
T4
X7.2988Y-6.8968
X7.4885Y-7.0879
X7.8528Y-5.5543
X8.0528Y-4.4563
X8.0528Y-5.9524
X8.1028Y-5.4543
X8.1528Y-4.7063
X8.1528Y-6.2024
X8.2989Y-6.8512
X8.4327Y-7.0849
X8.8008Y-4.3382
X8.8008Y-5.0862
X8.8008Y-5.8343
X8.9008Y-4.5882
X8.9008Y-5.3362
X8.9008Y-6.0843
X9.1748Y-6.7693
X9.2748Y-7.0193
X9.5488Y-4.1413
X9.5488Y-4.8894
X9.5488Y-5.6374
X9.6488Y-4.3913
X9.6488Y-5.1394
X9.6488Y-5.8874
X10.2969Y-4.3382
X10.2969Y-5.0862
X10.2969Y-5.8343
X10.3969Y-4.5882
X10.3969Y-5.3362
X10.3969Y-6.0843
X11.0449Y-4.6531
X11.0449Y-5.4012
X11.0449Y-6.1492
X11.1449Y-4.9031
X11.1449Y-5.6512
X11.1449Y-6.3992
X11.7929Y-4.6531
X11.7929Y-5.4012
X11.7929Y-6.1492
X11.8929Y-4.9031
X11.8929Y-5.6512
X11.8929Y-6.3992
T5
X7.2653Y-7.074
X7.9528Y-4.6063
X7.9528Y-5.3543
X7.9528Y-6.1024
X8.2208Y-7.0137
X8.7008Y-4.4882
X8.7008Y-5.2362
X8.7008Y-5.9843
X9.0748Y-6.9193
X9.4488Y-4.2913
X9.4488Y-5.0394
X9.4488Y-5.7874
X10.1969Y-4.4882
X10.1969Y-5.2362
X10.1969Y-5.9843
X10.9449Y-4.8031
X10.9449Y-5.5512
X10.9449Y-6.2992
X11.6929Y-4.8031
X11.6929Y-5.5512
X11.6929Y-6.2992
M30
