%TF.GenerationSoftware,KiCad,Pcbnew,8.0.6*%
%TF.CreationDate,2024-12-24T11:18:05+01:00*%
%TF.ProjectId,left,6c656674-2e6b-4696-9361-645f70636258,v1.0.0*%
%TF.SameCoordinates,Original*%
%TF.FileFunction,Legend,Bot*%
%TF.FilePolarity,Positive*%
%FSLAX46Y46*%
G04 Gerber Fmt 4.6, Leading zero omitted, Abs format (unit mm)*
G04 Created by KiCad (PCBNEW 8.0.6) date 2024-12-24 11:18:05*
%MOMM*%
%LPD*%
G01*
G04 APERTURE LIST*
%ADD10C,0.150000*%
%ADD11C,0.100000*%
%ADD12C,0.381000*%
%ADD13C,1.752600*%
G04 APERTURE END LIST*
D10*
X140562809Y-102592295D02*
X140486619Y-102592295D01*
X140486619Y-102592295D02*
X140410428Y-102630390D01*
X140410428Y-102630390D02*
X140372333Y-102668485D01*
X140372333Y-102668485D02*
X140334238Y-102744676D01*
X140334238Y-102744676D02*
X140296143Y-102897057D01*
X140296143Y-102897057D02*
X140296143Y-103087533D01*
X140296143Y-103087533D02*
X140334238Y-103239914D01*
X140334238Y-103239914D02*
X140372333Y-103316104D01*
X140372333Y-103316104D02*
X140410428Y-103354200D01*
X140410428Y-103354200D02*
X140486619Y-103392295D01*
X140486619Y-103392295D02*
X140562809Y-103392295D01*
X140562809Y-103392295D02*
X140639000Y-103354200D01*
X140639000Y-103354200D02*
X140677095Y-103316104D01*
X140677095Y-103316104D02*
X140715190Y-103239914D01*
X140715190Y-103239914D02*
X140753286Y-103087533D01*
X140753286Y-103087533D02*
X140753286Y-102897057D01*
X140753286Y-102897057D02*
X140715190Y-102744676D01*
X140715190Y-102744676D02*
X140677095Y-102668485D01*
X140677095Y-102668485D02*
X140639000Y-102630390D01*
X140639000Y-102630390D02*
X140562809Y-102592295D01*
X139800904Y-102592295D02*
X139724714Y-102592295D01*
X139724714Y-102592295D02*
X139648523Y-102630390D01*
X139648523Y-102630390D02*
X139610428Y-102668485D01*
X139610428Y-102668485D02*
X139572333Y-102744676D01*
X139572333Y-102744676D02*
X139534238Y-102897057D01*
X139534238Y-102897057D02*
X139534238Y-103087533D01*
X139534238Y-103087533D02*
X139572333Y-103239914D01*
X139572333Y-103239914D02*
X139610428Y-103316104D01*
X139610428Y-103316104D02*
X139648523Y-103354200D01*
X139648523Y-103354200D02*
X139724714Y-103392295D01*
X139724714Y-103392295D02*
X139800904Y-103392295D01*
X139800904Y-103392295D02*
X139877095Y-103354200D01*
X139877095Y-103354200D02*
X139915190Y-103316104D01*
X139915190Y-103316104D02*
X139953285Y-103239914D01*
X139953285Y-103239914D02*
X139991381Y-103087533D01*
X139991381Y-103087533D02*
X139991381Y-102897057D01*
X139991381Y-102897057D02*
X139953285Y-102744676D01*
X139953285Y-102744676D02*
X139915190Y-102668485D01*
X139915190Y-102668485D02*
X139877095Y-102630390D01*
X139877095Y-102630390D02*
X139800904Y-102592295D01*
X138848523Y-102592295D02*
X139000904Y-102592295D01*
X139000904Y-102592295D02*
X139077095Y-102630390D01*
X139077095Y-102630390D02*
X139115190Y-102668485D01*
X139115190Y-102668485D02*
X139191380Y-102782771D01*
X139191380Y-102782771D02*
X139229476Y-102935152D01*
X139229476Y-102935152D02*
X139229476Y-103239914D01*
X139229476Y-103239914D02*
X139191380Y-103316104D01*
X139191380Y-103316104D02*
X139153285Y-103354200D01*
X139153285Y-103354200D02*
X139077095Y-103392295D01*
X139077095Y-103392295D02*
X138924714Y-103392295D01*
X138924714Y-103392295D02*
X138848523Y-103354200D01*
X138848523Y-103354200D02*
X138810428Y-103316104D01*
X138810428Y-103316104D02*
X138772333Y-103239914D01*
X138772333Y-103239914D02*
X138772333Y-103049438D01*
X138772333Y-103049438D02*
X138810428Y-102973247D01*
X138810428Y-102973247D02*
X138848523Y-102935152D01*
X138848523Y-102935152D02*
X138924714Y-102897057D01*
X138924714Y-102897057D02*
X139077095Y-102897057D01*
X139077095Y-102897057D02*
X139153285Y-102935152D01*
X139153285Y-102935152D02*
X139191380Y-102973247D01*
X139191380Y-102973247D02*
X139229476Y-103049438D01*
X151370524Y-123712295D02*
X151827667Y-123712295D01*
X151599095Y-123712295D02*
X151599095Y-122912295D01*
X151599095Y-122912295D02*
X151675286Y-123026580D01*
X151675286Y-123026580D02*
X151751476Y-123102771D01*
X151751476Y-123102771D02*
X151827667Y-123140866D01*
X150608619Y-123712295D02*
X151065762Y-123712295D01*
X150837190Y-123712295D02*
X150837190Y-122912295D01*
X150837190Y-122912295D02*
X150913381Y-123026580D01*
X150913381Y-123026580D02*
X150989571Y-123102771D01*
X150989571Y-123102771D02*
X151065762Y-123140866D01*
X150341952Y-122912295D02*
X149846714Y-122912295D01*
X149846714Y-122912295D02*
X150113380Y-123217057D01*
X150113380Y-123217057D02*
X149999095Y-123217057D01*
X149999095Y-123217057D02*
X149922904Y-123255152D01*
X149922904Y-123255152D02*
X149884809Y-123293247D01*
X149884809Y-123293247D02*
X149846714Y-123369438D01*
X149846714Y-123369438D02*
X149846714Y-123559914D01*
X149846714Y-123559914D02*
X149884809Y-123636104D01*
X149884809Y-123636104D02*
X149922904Y-123674200D01*
X149922904Y-123674200D02*
X149999095Y-123712295D01*
X149999095Y-123712295D02*
X150227666Y-123712295D01*
X150227666Y-123712295D02*
X150303857Y-123674200D01*
X150303857Y-123674200D02*
X150341952Y-123636104D01*
X151903857Y-110212295D02*
X151637190Y-111012295D01*
X151637190Y-111012295D02*
X151370524Y-110212295D01*
X150646714Y-110936104D02*
X150684810Y-110974200D01*
X150684810Y-110974200D02*
X150799095Y-111012295D01*
X150799095Y-111012295D02*
X150875286Y-111012295D01*
X150875286Y-111012295D02*
X150989572Y-110974200D01*
X150989572Y-110974200D02*
X151065762Y-110898009D01*
X151065762Y-110898009D02*
X151103857Y-110821819D01*
X151103857Y-110821819D02*
X151141953Y-110669438D01*
X151141953Y-110669438D02*
X151141953Y-110555152D01*
X151141953Y-110555152D02*
X151103857Y-110402771D01*
X151103857Y-110402771D02*
X151065762Y-110326580D01*
X151065762Y-110326580D02*
X150989572Y-110250390D01*
X150989572Y-110250390D02*
X150875286Y-110212295D01*
X150875286Y-110212295D02*
X150799095Y-110212295D01*
X150799095Y-110212295D02*
X150684810Y-110250390D01*
X150684810Y-110250390D02*
X150646714Y-110288485D01*
X149846714Y-110936104D02*
X149884810Y-110974200D01*
X149884810Y-110974200D02*
X149999095Y-111012295D01*
X149999095Y-111012295D02*
X150075286Y-111012295D01*
X150075286Y-111012295D02*
X150189572Y-110974200D01*
X150189572Y-110974200D02*
X150265762Y-110898009D01*
X150265762Y-110898009D02*
X150303857Y-110821819D01*
X150303857Y-110821819D02*
X150341953Y-110669438D01*
X150341953Y-110669438D02*
X150341953Y-110555152D01*
X150341953Y-110555152D02*
X150303857Y-110402771D01*
X150303857Y-110402771D02*
X150265762Y-110326580D01*
X150265762Y-110326580D02*
X150189572Y-110250390D01*
X150189572Y-110250390D02*
X150075286Y-110212295D01*
X150075286Y-110212295D02*
X149999095Y-110212295D01*
X149999095Y-110212295D02*
X149884810Y-110250390D01*
X149884810Y-110250390D02*
X149846714Y-110288485D01*
X151370524Y-121172295D02*
X151827667Y-121172295D01*
X151599095Y-121172295D02*
X151599095Y-120372295D01*
X151599095Y-120372295D02*
X151675286Y-120486580D01*
X151675286Y-120486580D02*
X151751476Y-120562771D01*
X151751476Y-120562771D02*
X151827667Y-120600866D01*
X150608619Y-121172295D02*
X151065762Y-121172295D01*
X150837190Y-121172295D02*
X150837190Y-120372295D01*
X150837190Y-120372295D02*
X150913381Y-120486580D01*
X150913381Y-120486580D02*
X150989571Y-120562771D01*
X150989571Y-120562771D02*
X151065762Y-120600866D01*
X149884809Y-120372295D02*
X150265761Y-120372295D01*
X150265761Y-120372295D02*
X150303857Y-120753247D01*
X150303857Y-120753247D02*
X150265761Y-120715152D01*
X150265761Y-120715152D02*
X150189571Y-120677057D01*
X150189571Y-120677057D02*
X149999095Y-120677057D01*
X149999095Y-120677057D02*
X149922904Y-120715152D01*
X149922904Y-120715152D02*
X149884809Y-120753247D01*
X149884809Y-120753247D02*
X149846714Y-120829438D01*
X149846714Y-120829438D02*
X149846714Y-121019914D01*
X149846714Y-121019914D02*
X149884809Y-121096104D01*
X149884809Y-121096104D02*
X149922904Y-121134200D01*
X149922904Y-121134200D02*
X149999095Y-121172295D01*
X149999095Y-121172295D02*
X150189571Y-121172295D01*
X150189571Y-121172295D02*
X150265761Y-121134200D01*
X150265761Y-121134200D02*
X150303857Y-121096104D01*
X140562809Y-120372295D02*
X140486619Y-120372295D01*
X140486619Y-120372295D02*
X140410428Y-120410390D01*
X140410428Y-120410390D02*
X140372333Y-120448485D01*
X140372333Y-120448485D02*
X140334238Y-120524676D01*
X140334238Y-120524676D02*
X140296143Y-120677057D01*
X140296143Y-120677057D02*
X140296143Y-120867533D01*
X140296143Y-120867533D02*
X140334238Y-121019914D01*
X140334238Y-121019914D02*
X140372333Y-121096104D01*
X140372333Y-121096104D02*
X140410428Y-121134200D01*
X140410428Y-121134200D02*
X140486619Y-121172295D01*
X140486619Y-121172295D02*
X140562809Y-121172295D01*
X140562809Y-121172295D02*
X140639000Y-121134200D01*
X140639000Y-121134200D02*
X140677095Y-121096104D01*
X140677095Y-121096104D02*
X140715190Y-121019914D01*
X140715190Y-121019914D02*
X140753286Y-120867533D01*
X140753286Y-120867533D02*
X140753286Y-120677057D01*
X140753286Y-120677057D02*
X140715190Y-120524676D01*
X140715190Y-120524676D02*
X140677095Y-120448485D01*
X140677095Y-120448485D02*
X140639000Y-120410390D01*
X140639000Y-120410390D02*
X140562809Y-120372295D01*
X139991381Y-120448485D02*
X139953285Y-120410390D01*
X139953285Y-120410390D02*
X139877095Y-120372295D01*
X139877095Y-120372295D02*
X139686619Y-120372295D01*
X139686619Y-120372295D02*
X139610428Y-120410390D01*
X139610428Y-120410390D02*
X139572333Y-120448485D01*
X139572333Y-120448485D02*
X139534238Y-120524676D01*
X139534238Y-120524676D02*
X139534238Y-120600866D01*
X139534238Y-120600866D02*
X139572333Y-120715152D01*
X139572333Y-120715152D02*
X140029476Y-121172295D01*
X140029476Y-121172295D02*
X139534238Y-121172295D01*
X138848523Y-120638961D02*
X138848523Y-121172295D01*
X139038999Y-120334200D02*
X139229476Y-120905628D01*
X139229476Y-120905628D02*
X138734237Y-120905628D01*
X140562809Y-117862295D02*
X140486619Y-117862295D01*
X140486619Y-117862295D02*
X140410428Y-117900390D01*
X140410428Y-117900390D02*
X140372333Y-117938485D01*
X140372333Y-117938485D02*
X140334238Y-118014676D01*
X140334238Y-118014676D02*
X140296143Y-118167057D01*
X140296143Y-118167057D02*
X140296143Y-118357533D01*
X140296143Y-118357533D02*
X140334238Y-118509914D01*
X140334238Y-118509914D02*
X140372333Y-118586104D01*
X140372333Y-118586104D02*
X140410428Y-118624200D01*
X140410428Y-118624200D02*
X140486619Y-118662295D01*
X140486619Y-118662295D02*
X140562809Y-118662295D01*
X140562809Y-118662295D02*
X140639000Y-118624200D01*
X140639000Y-118624200D02*
X140677095Y-118586104D01*
X140677095Y-118586104D02*
X140715190Y-118509914D01*
X140715190Y-118509914D02*
X140753286Y-118357533D01*
X140753286Y-118357533D02*
X140753286Y-118167057D01*
X140753286Y-118167057D02*
X140715190Y-118014676D01*
X140715190Y-118014676D02*
X140677095Y-117938485D01*
X140677095Y-117938485D02*
X140639000Y-117900390D01*
X140639000Y-117900390D02*
X140562809Y-117862295D01*
X139991381Y-117938485D02*
X139953285Y-117900390D01*
X139953285Y-117900390D02*
X139877095Y-117862295D01*
X139877095Y-117862295D02*
X139686619Y-117862295D01*
X139686619Y-117862295D02*
X139610428Y-117900390D01*
X139610428Y-117900390D02*
X139572333Y-117938485D01*
X139572333Y-117938485D02*
X139534238Y-118014676D01*
X139534238Y-118014676D02*
X139534238Y-118090866D01*
X139534238Y-118090866D02*
X139572333Y-118205152D01*
X139572333Y-118205152D02*
X140029476Y-118662295D01*
X140029476Y-118662295D02*
X139534238Y-118662295D01*
X139229476Y-117938485D02*
X139191380Y-117900390D01*
X139191380Y-117900390D02*
X139115190Y-117862295D01*
X139115190Y-117862295D02*
X138924714Y-117862295D01*
X138924714Y-117862295D02*
X138848523Y-117900390D01*
X138848523Y-117900390D02*
X138810428Y-117938485D01*
X138810428Y-117938485D02*
X138772333Y-118014676D01*
X138772333Y-118014676D02*
X138772333Y-118090866D01*
X138772333Y-118090866D02*
X138810428Y-118205152D01*
X138810428Y-118205152D02*
X139267571Y-118662295D01*
X139267571Y-118662295D02*
X138772333Y-118662295D01*
X140562809Y-115362295D02*
X140486619Y-115362295D01*
X140486619Y-115362295D02*
X140410428Y-115400390D01*
X140410428Y-115400390D02*
X140372333Y-115438485D01*
X140372333Y-115438485D02*
X140334238Y-115514676D01*
X140334238Y-115514676D02*
X140296143Y-115667057D01*
X140296143Y-115667057D02*
X140296143Y-115857533D01*
X140296143Y-115857533D02*
X140334238Y-116009914D01*
X140334238Y-116009914D02*
X140372333Y-116086104D01*
X140372333Y-116086104D02*
X140410428Y-116124200D01*
X140410428Y-116124200D02*
X140486619Y-116162295D01*
X140486619Y-116162295D02*
X140562809Y-116162295D01*
X140562809Y-116162295D02*
X140639000Y-116124200D01*
X140639000Y-116124200D02*
X140677095Y-116086104D01*
X140677095Y-116086104D02*
X140715190Y-116009914D01*
X140715190Y-116009914D02*
X140753286Y-115857533D01*
X140753286Y-115857533D02*
X140753286Y-115667057D01*
X140753286Y-115667057D02*
X140715190Y-115514676D01*
X140715190Y-115514676D02*
X140677095Y-115438485D01*
X140677095Y-115438485D02*
X140639000Y-115400390D01*
X140639000Y-115400390D02*
X140562809Y-115362295D01*
X139991381Y-115438485D02*
X139953285Y-115400390D01*
X139953285Y-115400390D02*
X139877095Y-115362295D01*
X139877095Y-115362295D02*
X139686619Y-115362295D01*
X139686619Y-115362295D02*
X139610428Y-115400390D01*
X139610428Y-115400390D02*
X139572333Y-115438485D01*
X139572333Y-115438485D02*
X139534238Y-115514676D01*
X139534238Y-115514676D02*
X139534238Y-115590866D01*
X139534238Y-115590866D02*
X139572333Y-115705152D01*
X139572333Y-115705152D02*
X140029476Y-116162295D01*
X140029476Y-116162295D02*
X139534238Y-116162295D01*
X139038999Y-115362295D02*
X138962809Y-115362295D01*
X138962809Y-115362295D02*
X138886618Y-115400390D01*
X138886618Y-115400390D02*
X138848523Y-115438485D01*
X138848523Y-115438485D02*
X138810428Y-115514676D01*
X138810428Y-115514676D02*
X138772333Y-115667057D01*
X138772333Y-115667057D02*
X138772333Y-115857533D01*
X138772333Y-115857533D02*
X138810428Y-116009914D01*
X138810428Y-116009914D02*
X138848523Y-116086104D01*
X138848523Y-116086104D02*
X138886618Y-116124200D01*
X138886618Y-116124200D02*
X138962809Y-116162295D01*
X138962809Y-116162295D02*
X139038999Y-116162295D01*
X139038999Y-116162295D02*
X139115190Y-116124200D01*
X139115190Y-116124200D02*
X139153285Y-116086104D01*
X139153285Y-116086104D02*
X139191380Y-116009914D01*
X139191380Y-116009914D02*
X139229476Y-115857533D01*
X139229476Y-115857533D02*
X139229476Y-115667057D01*
X139229476Y-115667057D02*
X139191380Y-115514676D01*
X139191380Y-115514676D02*
X139153285Y-115438485D01*
X139153285Y-115438485D02*
X139115190Y-115400390D01*
X139115190Y-115400390D02*
X139038999Y-115362295D01*
X151364190Y-105170390D02*
X151440380Y-105132295D01*
X151440380Y-105132295D02*
X151554666Y-105132295D01*
X151554666Y-105132295D02*
X151668952Y-105170390D01*
X151668952Y-105170390D02*
X151745142Y-105246580D01*
X151745142Y-105246580D02*
X151783237Y-105322771D01*
X151783237Y-105322771D02*
X151821333Y-105475152D01*
X151821333Y-105475152D02*
X151821333Y-105589438D01*
X151821333Y-105589438D02*
X151783237Y-105741819D01*
X151783237Y-105741819D02*
X151745142Y-105818009D01*
X151745142Y-105818009D02*
X151668952Y-105894200D01*
X151668952Y-105894200D02*
X151554666Y-105932295D01*
X151554666Y-105932295D02*
X151478475Y-105932295D01*
X151478475Y-105932295D02*
X151364190Y-105894200D01*
X151364190Y-105894200D02*
X151326094Y-105856104D01*
X151326094Y-105856104D02*
X151326094Y-105589438D01*
X151326094Y-105589438D02*
X151478475Y-105589438D01*
X150983237Y-105932295D02*
X150983237Y-105132295D01*
X150983237Y-105132295D02*
X150526094Y-105932295D01*
X150526094Y-105932295D02*
X150526094Y-105132295D01*
X150145142Y-105932295D02*
X150145142Y-105132295D01*
X150145142Y-105132295D02*
X149954666Y-105132295D01*
X149954666Y-105132295D02*
X149840380Y-105170390D01*
X149840380Y-105170390D02*
X149764190Y-105246580D01*
X149764190Y-105246580D02*
X149726095Y-105322771D01*
X149726095Y-105322771D02*
X149687999Y-105475152D01*
X149687999Y-105475152D02*
X149687999Y-105589438D01*
X149687999Y-105589438D02*
X149726095Y-105741819D01*
X149726095Y-105741819D02*
X149764190Y-105818009D01*
X149764190Y-105818009D02*
X149840380Y-105894200D01*
X149840380Y-105894200D02*
X149954666Y-105932295D01*
X149954666Y-105932295D02*
X150145142Y-105932295D01*
X140562809Y-105062295D02*
X140486619Y-105062295D01*
X140486619Y-105062295D02*
X140410428Y-105100390D01*
X140410428Y-105100390D02*
X140372333Y-105138485D01*
X140372333Y-105138485D02*
X140334238Y-105214676D01*
X140334238Y-105214676D02*
X140296143Y-105367057D01*
X140296143Y-105367057D02*
X140296143Y-105557533D01*
X140296143Y-105557533D02*
X140334238Y-105709914D01*
X140334238Y-105709914D02*
X140372333Y-105786104D01*
X140372333Y-105786104D02*
X140410428Y-105824200D01*
X140410428Y-105824200D02*
X140486619Y-105862295D01*
X140486619Y-105862295D02*
X140562809Y-105862295D01*
X140562809Y-105862295D02*
X140639000Y-105824200D01*
X140639000Y-105824200D02*
X140677095Y-105786104D01*
X140677095Y-105786104D02*
X140715190Y-105709914D01*
X140715190Y-105709914D02*
X140753286Y-105557533D01*
X140753286Y-105557533D02*
X140753286Y-105367057D01*
X140753286Y-105367057D02*
X140715190Y-105214676D01*
X140715190Y-105214676D02*
X140677095Y-105138485D01*
X140677095Y-105138485D02*
X140639000Y-105100390D01*
X140639000Y-105100390D02*
X140562809Y-105062295D01*
X139800904Y-105062295D02*
X139724714Y-105062295D01*
X139724714Y-105062295D02*
X139648523Y-105100390D01*
X139648523Y-105100390D02*
X139610428Y-105138485D01*
X139610428Y-105138485D02*
X139572333Y-105214676D01*
X139572333Y-105214676D02*
X139534238Y-105367057D01*
X139534238Y-105367057D02*
X139534238Y-105557533D01*
X139534238Y-105557533D02*
X139572333Y-105709914D01*
X139572333Y-105709914D02*
X139610428Y-105786104D01*
X139610428Y-105786104D02*
X139648523Y-105824200D01*
X139648523Y-105824200D02*
X139724714Y-105862295D01*
X139724714Y-105862295D02*
X139800904Y-105862295D01*
X139800904Y-105862295D02*
X139877095Y-105824200D01*
X139877095Y-105824200D02*
X139915190Y-105786104D01*
X139915190Y-105786104D02*
X139953285Y-105709914D01*
X139953285Y-105709914D02*
X139991381Y-105557533D01*
X139991381Y-105557533D02*
X139991381Y-105367057D01*
X139991381Y-105367057D02*
X139953285Y-105214676D01*
X139953285Y-105214676D02*
X139915190Y-105138485D01*
X139915190Y-105138485D02*
X139877095Y-105100390D01*
X139877095Y-105100390D02*
X139800904Y-105062295D01*
X139077095Y-105405152D02*
X139153285Y-105367057D01*
X139153285Y-105367057D02*
X139191380Y-105328961D01*
X139191380Y-105328961D02*
X139229476Y-105252771D01*
X139229476Y-105252771D02*
X139229476Y-105214676D01*
X139229476Y-105214676D02*
X139191380Y-105138485D01*
X139191380Y-105138485D02*
X139153285Y-105100390D01*
X139153285Y-105100390D02*
X139077095Y-105062295D01*
X139077095Y-105062295D02*
X138924714Y-105062295D01*
X138924714Y-105062295D02*
X138848523Y-105100390D01*
X138848523Y-105100390D02*
X138810428Y-105138485D01*
X138810428Y-105138485D02*
X138772333Y-105214676D01*
X138772333Y-105214676D02*
X138772333Y-105252771D01*
X138772333Y-105252771D02*
X138810428Y-105328961D01*
X138810428Y-105328961D02*
X138848523Y-105367057D01*
X138848523Y-105367057D02*
X138924714Y-105405152D01*
X138924714Y-105405152D02*
X139077095Y-105405152D01*
X139077095Y-105405152D02*
X139153285Y-105443247D01*
X139153285Y-105443247D02*
X139191380Y-105481342D01*
X139191380Y-105481342D02*
X139229476Y-105557533D01*
X139229476Y-105557533D02*
X139229476Y-105709914D01*
X139229476Y-105709914D02*
X139191380Y-105786104D01*
X139191380Y-105786104D02*
X139153285Y-105824200D01*
X139153285Y-105824200D02*
X139077095Y-105862295D01*
X139077095Y-105862295D02*
X138924714Y-105862295D01*
X138924714Y-105862295D02*
X138848523Y-105824200D01*
X138848523Y-105824200D02*
X138810428Y-105786104D01*
X138810428Y-105786104D02*
X138772333Y-105709914D01*
X138772333Y-105709914D02*
X138772333Y-105557533D01*
X138772333Y-105557533D02*
X138810428Y-105481342D01*
X138810428Y-105481342D02*
X138848523Y-105443247D01*
X138848523Y-105443247D02*
X138924714Y-105405152D01*
X151637190Y-115292295D02*
X151561000Y-115292295D01*
X151561000Y-115292295D02*
X151484809Y-115330390D01*
X151484809Y-115330390D02*
X151446714Y-115368485D01*
X151446714Y-115368485D02*
X151408619Y-115444676D01*
X151408619Y-115444676D02*
X151370524Y-115597057D01*
X151370524Y-115597057D02*
X151370524Y-115787533D01*
X151370524Y-115787533D02*
X151408619Y-115939914D01*
X151408619Y-115939914D02*
X151446714Y-116016104D01*
X151446714Y-116016104D02*
X151484809Y-116054200D01*
X151484809Y-116054200D02*
X151561000Y-116092295D01*
X151561000Y-116092295D02*
X151637190Y-116092295D01*
X151637190Y-116092295D02*
X151713381Y-116054200D01*
X151713381Y-116054200D02*
X151751476Y-116016104D01*
X151751476Y-116016104D02*
X151789571Y-115939914D01*
X151789571Y-115939914D02*
X151827667Y-115787533D01*
X151827667Y-115787533D02*
X151827667Y-115597057D01*
X151827667Y-115597057D02*
X151789571Y-115444676D01*
X151789571Y-115444676D02*
X151751476Y-115368485D01*
X151751476Y-115368485D02*
X151713381Y-115330390D01*
X151713381Y-115330390D02*
X151637190Y-115292295D01*
X151065762Y-115368485D02*
X151027666Y-115330390D01*
X151027666Y-115330390D02*
X150951476Y-115292295D01*
X150951476Y-115292295D02*
X150761000Y-115292295D01*
X150761000Y-115292295D02*
X150684809Y-115330390D01*
X150684809Y-115330390D02*
X150646714Y-115368485D01*
X150646714Y-115368485D02*
X150608619Y-115444676D01*
X150608619Y-115444676D02*
X150608619Y-115520866D01*
X150608619Y-115520866D02*
X150646714Y-115635152D01*
X150646714Y-115635152D02*
X151103857Y-116092295D01*
X151103857Y-116092295D02*
X150608619Y-116092295D01*
X150227666Y-116092295D02*
X150075285Y-116092295D01*
X150075285Y-116092295D02*
X149999095Y-116054200D01*
X149999095Y-116054200D02*
X149960999Y-116016104D01*
X149960999Y-116016104D02*
X149884809Y-115901819D01*
X149884809Y-115901819D02*
X149846714Y-115749438D01*
X149846714Y-115749438D02*
X149846714Y-115444676D01*
X149846714Y-115444676D02*
X149884809Y-115368485D01*
X149884809Y-115368485D02*
X149922904Y-115330390D01*
X149922904Y-115330390D02*
X149999095Y-115292295D01*
X149999095Y-115292295D02*
X150151476Y-115292295D01*
X150151476Y-115292295D02*
X150227666Y-115330390D01*
X150227666Y-115330390D02*
X150265761Y-115368485D01*
X150265761Y-115368485D02*
X150303857Y-115444676D01*
X150303857Y-115444676D02*
X150303857Y-115635152D01*
X150303857Y-115635152D02*
X150265761Y-115711342D01*
X150265761Y-115711342D02*
X150227666Y-115749438D01*
X150227666Y-115749438D02*
X150151476Y-115787533D01*
X150151476Y-115787533D02*
X149999095Y-115787533D01*
X149999095Y-115787533D02*
X149922904Y-115749438D01*
X149922904Y-115749438D02*
X149884809Y-115711342D01*
X149884809Y-115711342D02*
X149846714Y-115635152D01*
X151637190Y-117832295D02*
X151561000Y-117832295D01*
X151561000Y-117832295D02*
X151484809Y-117870390D01*
X151484809Y-117870390D02*
X151446714Y-117908485D01*
X151446714Y-117908485D02*
X151408619Y-117984676D01*
X151408619Y-117984676D02*
X151370524Y-118137057D01*
X151370524Y-118137057D02*
X151370524Y-118327533D01*
X151370524Y-118327533D02*
X151408619Y-118479914D01*
X151408619Y-118479914D02*
X151446714Y-118556104D01*
X151446714Y-118556104D02*
X151484809Y-118594200D01*
X151484809Y-118594200D02*
X151561000Y-118632295D01*
X151561000Y-118632295D02*
X151637190Y-118632295D01*
X151637190Y-118632295D02*
X151713381Y-118594200D01*
X151713381Y-118594200D02*
X151751476Y-118556104D01*
X151751476Y-118556104D02*
X151789571Y-118479914D01*
X151789571Y-118479914D02*
X151827667Y-118327533D01*
X151827667Y-118327533D02*
X151827667Y-118137057D01*
X151827667Y-118137057D02*
X151789571Y-117984676D01*
X151789571Y-117984676D02*
X151751476Y-117908485D01*
X151751476Y-117908485D02*
X151713381Y-117870390D01*
X151713381Y-117870390D02*
X151637190Y-117832295D01*
X150875285Y-117832295D02*
X150799095Y-117832295D01*
X150799095Y-117832295D02*
X150722904Y-117870390D01*
X150722904Y-117870390D02*
X150684809Y-117908485D01*
X150684809Y-117908485D02*
X150646714Y-117984676D01*
X150646714Y-117984676D02*
X150608619Y-118137057D01*
X150608619Y-118137057D02*
X150608619Y-118327533D01*
X150608619Y-118327533D02*
X150646714Y-118479914D01*
X150646714Y-118479914D02*
X150684809Y-118556104D01*
X150684809Y-118556104D02*
X150722904Y-118594200D01*
X150722904Y-118594200D02*
X150799095Y-118632295D01*
X150799095Y-118632295D02*
X150875285Y-118632295D01*
X150875285Y-118632295D02*
X150951476Y-118594200D01*
X150951476Y-118594200D02*
X150989571Y-118556104D01*
X150989571Y-118556104D02*
X151027666Y-118479914D01*
X151027666Y-118479914D02*
X151065762Y-118327533D01*
X151065762Y-118327533D02*
X151065762Y-118137057D01*
X151065762Y-118137057D02*
X151027666Y-117984676D01*
X151027666Y-117984676D02*
X150989571Y-117908485D01*
X150989571Y-117908485D02*
X150951476Y-117870390D01*
X150951476Y-117870390D02*
X150875285Y-117832295D01*
X150303857Y-117908485D02*
X150265761Y-117870390D01*
X150265761Y-117870390D02*
X150189571Y-117832295D01*
X150189571Y-117832295D02*
X149999095Y-117832295D01*
X149999095Y-117832295D02*
X149922904Y-117870390D01*
X149922904Y-117870390D02*
X149884809Y-117908485D01*
X149884809Y-117908485D02*
X149846714Y-117984676D01*
X149846714Y-117984676D02*
X149846714Y-118060866D01*
X149846714Y-118060866D02*
X149884809Y-118175152D01*
X149884809Y-118175152D02*
X150341952Y-118632295D01*
X150341952Y-118632295D02*
X149846714Y-118632295D01*
X151326095Y-103392295D02*
X151592762Y-103011342D01*
X151783238Y-103392295D02*
X151783238Y-102592295D01*
X151783238Y-102592295D02*
X151478476Y-102592295D01*
X151478476Y-102592295D02*
X151402286Y-102630390D01*
X151402286Y-102630390D02*
X151364191Y-102668485D01*
X151364191Y-102668485D02*
X151326095Y-102744676D01*
X151326095Y-102744676D02*
X151326095Y-102858961D01*
X151326095Y-102858961D02*
X151364191Y-102935152D01*
X151364191Y-102935152D02*
X151402286Y-102973247D01*
X151402286Y-102973247D02*
X151478476Y-103011342D01*
X151478476Y-103011342D02*
X151783238Y-103011342D01*
X151021334Y-103163723D02*
X150640381Y-103163723D01*
X151097524Y-103392295D02*
X150830857Y-102592295D01*
X150830857Y-102592295D02*
X150564191Y-103392295D01*
X150373715Y-102592295D02*
X150183239Y-103392295D01*
X150183239Y-103392295D02*
X150030858Y-102820866D01*
X150030858Y-102820866D02*
X149878477Y-103392295D01*
X149878477Y-103392295D02*
X149688001Y-102592295D01*
X140296143Y-128792295D02*
X140753286Y-128792295D01*
X140524714Y-128792295D02*
X140524714Y-127992295D01*
X140524714Y-127992295D02*
X140600905Y-128106580D01*
X140600905Y-128106580D02*
X140677095Y-128182771D01*
X140677095Y-128182771D02*
X140753286Y-128220866D01*
X139800904Y-127992295D02*
X139724714Y-127992295D01*
X139724714Y-127992295D02*
X139648523Y-128030390D01*
X139648523Y-128030390D02*
X139610428Y-128068485D01*
X139610428Y-128068485D02*
X139572333Y-128144676D01*
X139572333Y-128144676D02*
X139534238Y-128297057D01*
X139534238Y-128297057D02*
X139534238Y-128487533D01*
X139534238Y-128487533D02*
X139572333Y-128639914D01*
X139572333Y-128639914D02*
X139610428Y-128716104D01*
X139610428Y-128716104D02*
X139648523Y-128754200D01*
X139648523Y-128754200D02*
X139724714Y-128792295D01*
X139724714Y-128792295D02*
X139800904Y-128792295D01*
X139800904Y-128792295D02*
X139877095Y-128754200D01*
X139877095Y-128754200D02*
X139915190Y-128716104D01*
X139915190Y-128716104D02*
X139953285Y-128639914D01*
X139953285Y-128639914D02*
X139991381Y-128487533D01*
X139991381Y-128487533D02*
X139991381Y-128297057D01*
X139991381Y-128297057D02*
X139953285Y-128144676D01*
X139953285Y-128144676D02*
X139915190Y-128068485D01*
X139915190Y-128068485D02*
X139877095Y-128030390D01*
X139877095Y-128030390D02*
X139800904Y-127992295D01*
X138848523Y-128258961D02*
X138848523Y-128792295D01*
X139038999Y-127954200D02*
X139229476Y-128525628D01*
X139229476Y-128525628D02*
X138734237Y-128525628D01*
X140296143Y-123712295D02*
X140753286Y-123712295D01*
X140524714Y-123712295D02*
X140524714Y-122912295D01*
X140524714Y-122912295D02*
X140600905Y-123026580D01*
X140600905Y-123026580D02*
X140677095Y-123102771D01*
X140677095Y-123102771D02*
X140753286Y-123140866D01*
X139800904Y-122912295D02*
X139724714Y-122912295D01*
X139724714Y-122912295D02*
X139648523Y-122950390D01*
X139648523Y-122950390D02*
X139610428Y-122988485D01*
X139610428Y-122988485D02*
X139572333Y-123064676D01*
X139572333Y-123064676D02*
X139534238Y-123217057D01*
X139534238Y-123217057D02*
X139534238Y-123407533D01*
X139534238Y-123407533D02*
X139572333Y-123559914D01*
X139572333Y-123559914D02*
X139610428Y-123636104D01*
X139610428Y-123636104D02*
X139648523Y-123674200D01*
X139648523Y-123674200D02*
X139724714Y-123712295D01*
X139724714Y-123712295D02*
X139800904Y-123712295D01*
X139800904Y-123712295D02*
X139877095Y-123674200D01*
X139877095Y-123674200D02*
X139915190Y-123636104D01*
X139915190Y-123636104D02*
X139953285Y-123559914D01*
X139953285Y-123559914D02*
X139991381Y-123407533D01*
X139991381Y-123407533D02*
X139991381Y-123217057D01*
X139991381Y-123217057D02*
X139953285Y-123064676D01*
X139953285Y-123064676D02*
X139915190Y-122988485D01*
X139915190Y-122988485D02*
X139877095Y-122950390D01*
X139877095Y-122950390D02*
X139800904Y-122912295D01*
X139038999Y-122912295D02*
X138962809Y-122912295D01*
X138962809Y-122912295D02*
X138886618Y-122950390D01*
X138886618Y-122950390D02*
X138848523Y-122988485D01*
X138848523Y-122988485D02*
X138810428Y-123064676D01*
X138810428Y-123064676D02*
X138772333Y-123217057D01*
X138772333Y-123217057D02*
X138772333Y-123407533D01*
X138772333Y-123407533D02*
X138810428Y-123559914D01*
X138810428Y-123559914D02*
X138848523Y-123636104D01*
X138848523Y-123636104D02*
X138886618Y-123674200D01*
X138886618Y-123674200D02*
X138962809Y-123712295D01*
X138962809Y-123712295D02*
X139038999Y-123712295D01*
X139038999Y-123712295D02*
X139115190Y-123674200D01*
X139115190Y-123674200D02*
X139153285Y-123636104D01*
X139153285Y-123636104D02*
X139191380Y-123559914D01*
X139191380Y-123559914D02*
X139229476Y-123407533D01*
X139229476Y-123407533D02*
X139229476Y-123217057D01*
X139229476Y-123217057D02*
X139191380Y-123064676D01*
X139191380Y-123064676D02*
X139153285Y-122988485D01*
X139153285Y-122988485D02*
X139115190Y-122950390D01*
X139115190Y-122950390D02*
X139038999Y-122912295D01*
X151637190Y-112752295D02*
X151561000Y-112752295D01*
X151561000Y-112752295D02*
X151484809Y-112790390D01*
X151484809Y-112790390D02*
X151446714Y-112828485D01*
X151446714Y-112828485D02*
X151408619Y-112904676D01*
X151408619Y-112904676D02*
X151370524Y-113057057D01*
X151370524Y-113057057D02*
X151370524Y-113247533D01*
X151370524Y-113247533D02*
X151408619Y-113399914D01*
X151408619Y-113399914D02*
X151446714Y-113476104D01*
X151446714Y-113476104D02*
X151484809Y-113514200D01*
X151484809Y-113514200D02*
X151561000Y-113552295D01*
X151561000Y-113552295D02*
X151637190Y-113552295D01*
X151637190Y-113552295D02*
X151713381Y-113514200D01*
X151713381Y-113514200D02*
X151751476Y-113476104D01*
X151751476Y-113476104D02*
X151789571Y-113399914D01*
X151789571Y-113399914D02*
X151827667Y-113247533D01*
X151827667Y-113247533D02*
X151827667Y-113057057D01*
X151827667Y-113057057D02*
X151789571Y-112904676D01*
X151789571Y-112904676D02*
X151751476Y-112828485D01*
X151751476Y-112828485D02*
X151713381Y-112790390D01*
X151713381Y-112790390D02*
X151637190Y-112752295D01*
X151103857Y-112752295D02*
X150608619Y-112752295D01*
X150608619Y-112752295D02*
X150875285Y-113057057D01*
X150875285Y-113057057D02*
X150761000Y-113057057D01*
X150761000Y-113057057D02*
X150684809Y-113095152D01*
X150684809Y-113095152D02*
X150646714Y-113133247D01*
X150646714Y-113133247D02*
X150608619Y-113209438D01*
X150608619Y-113209438D02*
X150608619Y-113399914D01*
X150608619Y-113399914D02*
X150646714Y-113476104D01*
X150646714Y-113476104D02*
X150684809Y-113514200D01*
X150684809Y-113514200D02*
X150761000Y-113552295D01*
X150761000Y-113552295D02*
X150989571Y-113552295D01*
X150989571Y-113552295D02*
X151065762Y-113514200D01*
X151065762Y-113514200D02*
X151103857Y-113476104D01*
X149846714Y-113552295D02*
X150303857Y-113552295D01*
X150075285Y-113552295D02*
X150075285Y-112752295D01*
X150075285Y-112752295D02*
X150151476Y-112866580D01*
X150151476Y-112866580D02*
X150227666Y-112942771D01*
X150227666Y-112942771D02*
X150303857Y-112980866D01*
X151370524Y-126252295D02*
X151827667Y-126252295D01*
X151599095Y-126252295D02*
X151599095Y-125452295D01*
X151599095Y-125452295D02*
X151675286Y-125566580D01*
X151675286Y-125566580D02*
X151751476Y-125642771D01*
X151751476Y-125642771D02*
X151827667Y-125680866D01*
X150608619Y-126252295D02*
X151065762Y-126252295D01*
X150837190Y-126252295D02*
X150837190Y-125452295D01*
X150837190Y-125452295D02*
X150913381Y-125566580D01*
X150913381Y-125566580D02*
X150989571Y-125642771D01*
X150989571Y-125642771D02*
X151065762Y-125680866D01*
X149846714Y-126252295D02*
X150303857Y-126252295D01*
X150075285Y-126252295D02*
X150075285Y-125452295D01*
X150075285Y-125452295D02*
X150151476Y-125566580D01*
X150151476Y-125566580D02*
X150227666Y-125642771D01*
X150227666Y-125642771D02*
X150303857Y-125680866D01*
X140448523Y-107710390D02*
X140524713Y-107672295D01*
X140524713Y-107672295D02*
X140638999Y-107672295D01*
X140638999Y-107672295D02*
X140753285Y-107710390D01*
X140753285Y-107710390D02*
X140829475Y-107786580D01*
X140829475Y-107786580D02*
X140867570Y-107862771D01*
X140867570Y-107862771D02*
X140905666Y-108015152D01*
X140905666Y-108015152D02*
X140905666Y-108129438D01*
X140905666Y-108129438D02*
X140867570Y-108281819D01*
X140867570Y-108281819D02*
X140829475Y-108358009D01*
X140829475Y-108358009D02*
X140753285Y-108434200D01*
X140753285Y-108434200D02*
X140638999Y-108472295D01*
X140638999Y-108472295D02*
X140562808Y-108472295D01*
X140562808Y-108472295D02*
X140448523Y-108434200D01*
X140448523Y-108434200D02*
X140410427Y-108396104D01*
X140410427Y-108396104D02*
X140410427Y-108129438D01*
X140410427Y-108129438D02*
X140562808Y-108129438D01*
X140067570Y-108472295D02*
X140067570Y-107672295D01*
X140067570Y-107672295D02*
X139610427Y-108472295D01*
X139610427Y-108472295D02*
X139610427Y-107672295D01*
X139229475Y-108472295D02*
X139229475Y-107672295D01*
X139229475Y-107672295D02*
X139038999Y-107672295D01*
X139038999Y-107672295D02*
X138924713Y-107710390D01*
X138924713Y-107710390D02*
X138848523Y-107786580D01*
X138848523Y-107786580D02*
X138810428Y-107862771D01*
X138810428Y-107862771D02*
X138772332Y-108015152D01*
X138772332Y-108015152D02*
X138772332Y-108129438D01*
X138772332Y-108129438D02*
X138810428Y-108281819D01*
X138810428Y-108281819D02*
X138848523Y-108358009D01*
X138848523Y-108358009D02*
X138924713Y-108434200D01*
X138924713Y-108434200D02*
X139038999Y-108472295D01*
X139038999Y-108472295D02*
X139229475Y-108472295D01*
X151637190Y-127992295D02*
X151561000Y-127992295D01*
X151561000Y-127992295D02*
X151484809Y-128030390D01*
X151484809Y-128030390D02*
X151446714Y-128068485D01*
X151446714Y-128068485D02*
X151408619Y-128144676D01*
X151408619Y-128144676D02*
X151370524Y-128297057D01*
X151370524Y-128297057D02*
X151370524Y-128487533D01*
X151370524Y-128487533D02*
X151408619Y-128639914D01*
X151408619Y-128639914D02*
X151446714Y-128716104D01*
X151446714Y-128716104D02*
X151484809Y-128754200D01*
X151484809Y-128754200D02*
X151561000Y-128792295D01*
X151561000Y-128792295D02*
X151637190Y-128792295D01*
X151637190Y-128792295D02*
X151713381Y-128754200D01*
X151713381Y-128754200D02*
X151751476Y-128716104D01*
X151751476Y-128716104D02*
X151789571Y-128639914D01*
X151789571Y-128639914D02*
X151827667Y-128487533D01*
X151827667Y-128487533D02*
X151827667Y-128297057D01*
X151827667Y-128297057D02*
X151789571Y-128144676D01*
X151789571Y-128144676D02*
X151751476Y-128068485D01*
X151751476Y-128068485D02*
X151713381Y-128030390D01*
X151713381Y-128030390D02*
X151637190Y-127992295D01*
X150608619Y-128792295D02*
X151065762Y-128792295D01*
X150837190Y-128792295D02*
X150837190Y-127992295D01*
X150837190Y-127992295D02*
X150913381Y-128106580D01*
X150913381Y-128106580D02*
X150989571Y-128182771D01*
X150989571Y-128182771D02*
X151065762Y-128220866D01*
X150113380Y-127992295D02*
X150037190Y-127992295D01*
X150037190Y-127992295D02*
X149960999Y-128030390D01*
X149960999Y-128030390D02*
X149922904Y-128068485D01*
X149922904Y-128068485D02*
X149884809Y-128144676D01*
X149884809Y-128144676D02*
X149846714Y-128297057D01*
X149846714Y-128297057D02*
X149846714Y-128487533D01*
X149846714Y-128487533D02*
X149884809Y-128639914D01*
X149884809Y-128639914D02*
X149922904Y-128716104D01*
X149922904Y-128716104D02*
X149960999Y-128754200D01*
X149960999Y-128754200D02*
X150037190Y-128792295D01*
X150037190Y-128792295D02*
X150113380Y-128792295D01*
X150113380Y-128792295D02*
X150189571Y-128754200D01*
X150189571Y-128754200D02*
X150227666Y-128716104D01*
X150227666Y-128716104D02*
X150265761Y-128639914D01*
X150265761Y-128639914D02*
X150303857Y-128487533D01*
X150303857Y-128487533D02*
X150303857Y-128297057D01*
X150303857Y-128297057D02*
X150265761Y-128144676D01*
X150265761Y-128144676D02*
X150227666Y-128068485D01*
X150227666Y-128068485D02*
X150189571Y-128030390D01*
X150189571Y-128030390D02*
X150113380Y-127992295D01*
X151326094Y-108472295D02*
X151592761Y-108091342D01*
X151783237Y-108472295D02*
X151783237Y-107672295D01*
X151783237Y-107672295D02*
X151478475Y-107672295D01*
X151478475Y-107672295D02*
X151402285Y-107710390D01*
X151402285Y-107710390D02*
X151364190Y-107748485D01*
X151364190Y-107748485D02*
X151326094Y-107824676D01*
X151326094Y-107824676D02*
X151326094Y-107938961D01*
X151326094Y-107938961D02*
X151364190Y-108015152D01*
X151364190Y-108015152D02*
X151402285Y-108053247D01*
X151402285Y-108053247D02*
X151478475Y-108091342D01*
X151478475Y-108091342D02*
X151783237Y-108091342D01*
X151021333Y-108434200D02*
X150907047Y-108472295D01*
X150907047Y-108472295D02*
X150716571Y-108472295D01*
X150716571Y-108472295D02*
X150640380Y-108434200D01*
X150640380Y-108434200D02*
X150602285Y-108396104D01*
X150602285Y-108396104D02*
X150564190Y-108319914D01*
X150564190Y-108319914D02*
X150564190Y-108243723D01*
X150564190Y-108243723D02*
X150602285Y-108167533D01*
X150602285Y-108167533D02*
X150640380Y-108129438D01*
X150640380Y-108129438D02*
X150716571Y-108091342D01*
X150716571Y-108091342D02*
X150868952Y-108053247D01*
X150868952Y-108053247D02*
X150945142Y-108015152D01*
X150945142Y-108015152D02*
X150983237Y-107977057D01*
X150983237Y-107977057D02*
X151021333Y-107900866D01*
X151021333Y-107900866D02*
X151021333Y-107824676D01*
X151021333Y-107824676D02*
X150983237Y-107748485D01*
X150983237Y-107748485D02*
X150945142Y-107710390D01*
X150945142Y-107710390D02*
X150868952Y-107672295D01*
X150868952Y-107672295D02*
X150678475Y-107672295D01*
X150678475Y-107672295D02*
X150564190Y-107710390D01*
X150335618Y-107672295D02*
X149878475Y-107672295D01*
X150107047Y-108472295D02*
X150107047Y-107672295D01*
X140448523Y-110250390D02*
X140524713Y-110212295D01*
X140524713Y-110212295D02*
X140638999Y-110212295D01*
X140638999Y-110212295D02*
X140753285Y-110250390D01*
X140753285Y-110250390D02*
X140829475Y-110326580D01*
X140829475Y-110326580D02*
X140867570Y-110402771D01*
X140867570Y-110402771D02*
X140905666Y-110555152D01*
X140905666Y-110555152D02*
X140905666Y-110669438D01*
X140905666Y-110669438D02*
X140867570Y-110821819D01*
X140867570Y-110821819D02*
X140829475Y-110898009D01*
X140829475Y-110898009D02*
X140753285Y-110974200D01*
X140753285Y-110974200D02*
X140638999Y-111012295D01*
X140638999Y-111012295D02*
X140562808Y-111012295D01*
X140562808Y-111012295D02*
X140448523Y-110974200D01*
X140448523Y-110974200D02*
X140410427Y-110936104D01*
X140410427Y-110936104D02*
X140410427Y-110669438D01*
X140410427Y-110669438D02*
X140562808Y-110669438D01*
X140067570Y-111012295D02*
X140067570Y-110212295D01*
X140067570Y-110212295D02*
X139610427Y-111012295D01*
X139610427Y-111012295D02*
X139610427Y-110212295D01*
X139229475Y-111012295D02*
X139229475Y-110212295D01*
X139229475Y-110212295D02*
X139038999Y-110212295D01*
X139038999Y-110212295D02*
X138924713Y-110250390D01*
X138924713Y-110250390D02*
X138848523Y-110326580D01*
X138848523Y-110326580D02*
X138810428Y-110402771D01*
X138810428Y-110402771D02*
X138772332Y-110555152D01*
X138772332Y-110555152D02*
X138772332Y-110669438D01*
X138772332Y-110669438D02*
X138810428Y-110821819D01*
X138810428Y-110821819D02*
X138848523Y-110898009D01*
X138848523Y-110898009D02*
X138924713Y-110974200D01*
X138924713Y-110974200D02*
X139038999Y-111012295D01*
X139038999Y-111012295D02*
X139229475Y-111012295D01*
X140562809Y-112762295D02*
X140486619Y-112762295D01*
X140486619Y-112762295D02*
X140410428Y-112800390D01*
X140410428Y-112800390D02*
X140372333Y-112838485D01*
X140372333Y-112838485D02*
X140334238Y-112914676D01*
X140334238Y-112914676D02*
X140296143Y-113067057D01*
X140296143Y-113067057D02*
X140296143Y-113257533D01*
X140296143Y-113257533D02*
X140334238Y-113409914D01*
X140334238Y-113409914D02*
X140372333Y-113486104D01*
X140372333Y-113486104D02*
X140410428Y-113524200D01*
X140410428Y-113524200D02*
X140486619Y-113562295D01*
X140486619Y-113562295D02*
X140562809Y-113562295D01*
X140562809Y-113562295D02*
X140639000Y-113524200D01*
X140639000Y-113524200D02*
X140677095Y-113486104D01*
X140677095Y-113486104D02*
X140715190Y-113409914D01*
X140715190Y-113409914D02*
X140753286Y-113257533D01*
X140753286Y-113257533D02*
X140753286Y-113067057D01*
X140753286Y-113067057D02*
X140715190Y-112914676D01*
X140715190Y-112914676D02*
X140677095Y-112838485D01*
X140677095Y-112838485D02*
X140639000Y-112800390D01*
X140639000Y-112800390D02*
X140562809Y-112762295D01*
X139534238Y-113562295D02*
X139991381Y-113562295D01*
X139762809Y-113562295D02*
X139762809Y-112762295D01*
X139762809Y-112762295D02*
X139839000Y-112876580D01*
X139839000Y-112876580D02*
X139915190Y-112952771D01*
X139915190Y-112952771D02*
X139991381Y-112990866D01*
X139267571Y-112762295D02*
X138734237Y-112762295D01*
X138734237Y-112762295D02*
X139077095Y-113562295D01*
%TO.C,T1*%
X129950000Y-98150000D02*
X129950000Y-101000000D01*
X129950000Y-101000000D02*
X136550000Y-101000000D01*
X133250000Y-98150000D02*
X129950000Y-98150000D01*
X133250000Y-98150000D02*
X136550000Y-98150000D01*
X135200000Y-98150000D02*
X131300000Y-98150000D01*
X136550000Y-101000000D02*
X136550000Y-98150000D01*
D11*
%TO.C,D4*%
X60100000Y-164250000D02*
X60900000Y-164250000D01*
X60500000Y-164250000D02*
X60500000Y-163750000D01*
X60500000Y-164850000D02*
X59950000Y-164850000D01*
X60500000Y-164850000D02*
X60100000Y-164250000D01*
X60500000Y-164850000D02*
X61050000Y-164850000D01*
X60500000Y-165250000D02*
X60500000Y-164850000D01*
X60900000Y-164250000D02*
X60500000Y-164850000D01*
%TO.C,D5*%
X60100000Y-145250000D02*
X60900000Y-145250000D01*
X60500000Y-145250000D02*
X60500000Y-144750000D01*
X60500000Y-145850000D02*
X59950000Y-145850000D01*
X60500000Y-145850000D02*
X60100000Y-145250000D01*
X60500000Y-145850000D02*
X61050000Y-145850000D01*
X60500000Y-146250000D02*
X60500000Y-145850000D01*
X60900000Y-145250000D02*
X60500000Y-145850000D01*
%TO.C,D19*%
X152584965Y-181190564D02*
X152741257Y-180822362D01*
X152607494Y-180113766D02*
X153343898Y-180426351D01*
X152741257Y-180822362D02*
X152234979Y-180607460D01*
X152741257Y-180822362D02*
X152607494Y-180113766D01*
X152741257Y-180822362D02*
X153247535Y-181037264D01*
X152975696Y-180270059D02*
X153171061Y-179809806D01*
X153343898Y-180426351D02*
X152741257Y-180822362D01*
%TO.C,D10*%
X98100000Y-151250000D02*
X98900000Y-151250000D01*
X98500000Y-151250000D02*
X98500000Y-150750000D01*
X98500000Y-151850000D02*
X97950000Y-151850000D01*
X98500000Y-151850000D02*
X98100000Y-151250000D01*
X98500000Y-151850000D02*
X99050000Y-151850000D01*
X98500000Y-152250000D02*
X98500000Y-151850000D01*
X98900000Y-151250000D02*
X98500000Y-151850000D01*
%TO.C,D18*%
X128787587Y-181118054D02*
X129579802Y-181229392D01*
X129044521Y-182163991D02*
X129100190Y-181767884D01*
X129100190Y-181767884D02*
X128555543Y-181691339D01*
X129100190Y-181767884D02*
X128787587Y-181118054D01*
X129100190Y-181767884D02*
X129644838Y-181844429D01*
X129183694Y-181173723D02*
X129253281Y-180678589D01*
X129579802Y-181229392D02*
X129100190Y-181767884D01*
%TO.C,D8*%
X79100000Y-137250000D02*
X79900000Y-137250000D01*
X79500000Y-137250000D02*
X79500000Y-136750000D01*
X79500000Y-137850000D02*
X78950000Y-137850000D01*
X79500000Y-137850000D02*
X79100000Y-137250000D01*
X79500000Y-137850000D02*
X80050000Y-137850000D01*
X79500000Y-138250000D02*
X79500000Y-137850000D01*
X79900000Y-137250000D02*
X79500000Y-137850000D01*
%TO.C,D21*%
X141100000Y-118750000D02*
X141900000Y-118750000D01*
X141500000Y-118750000D02*
X141500000Y-118250000D01*
X141500000Y-119350000D02*
X140950000Y-119350000D01*
X141500000Y-119350000D02*
X141100000Y-118750000D01*
X141500000Y-119350000D02*
X142050000Y-119350000D01*
X141500000Y-119750000D02*
X141500000Y-119350000D01*
X141900000Y-118750000D02*
X141500000Y-119350000D01*
%TO.C,D6*%
X60100000Y-126250000D02*
X60900000Y-126250000D01*
X60500000Y-126250000D02*
X60500000Y-125750000D01*
X60500000Y-126850000D02*
X59950000Y-126850000D01*
X60500000Y-126850000D02*
X60100000Y-126250000D01*
X60500000Y-126850000D02*
X61050000Y-126850000D01*
X60500000Y-127250000D02*
X60500000Y-126850000D01*
X60900000Y-126250000D02*
X60500000Y-126850000D01*
D10*
%TO.C,JST1*%
X116750000Y-105050000D02*
X116750000Y-110950000D01*
X116750000Y-110950000D02*
X124350000Y-110950000D01*
X121250000Y-106750000D02*
X121250000Y-107250000D01*
X121500000Y-107000000D02*
X121000000Y-107000000D01*
X122750000Y-105750000D02*
X124350000Y-105750000D01*
X122750000Y-110250000D02*
X122750000Y-105750000D01*
X124350000Y-105050000D02*
X116750000Y-105050000D01*
X124350000Y-105750000D02*
X124350000Y-105050000D01*
X124350000Y-110250000D02*
X122750000Y-110250000D01*
X124350000Y-110950000D02*
X124350000Y-110250000D01*
D11*
%TO.C,D11*%
X98100000Y-132250000D02*
X98900000Y-132250000D01*
X98500000Y-132250000D02*
X98500000Y-131750000D01*
X98500000Y-132850000D02*
X97950000Y-132850000D01*
X98500000Y-132850000D02*
X98100000Y-132250000D01*
X98500000Y-132850000D02*
X99050000Y-132850000D01*
X98500000Y-133250000D02*
X98500000Y-132850000D01*
X98900000Y-132250000D02*
X98500000Y-132850000D01*
%TO.C,D1*%
X41100000Y-164250000D02*
X41900000Y-164250000D01*
X41500000Y-164250000D02*
X41500000Y-163750000D01*
X41500000Y-164850000D02*
X40950000Y-164850000D01*
X41500000Y-164850000D02*
X41100000Y-164250000D01*
X41500000Y-164850000D02*
X42050000Y-164850000D01*
X41500000Y-165250000D02*
X41500000Y-164850000D01*
X41900000Y-164250000D02*
X41500000Y-164850000D01*
%TO.C,D3*%
X41100000Y-126250000D02*
X41900000Y-126250000D01*
X41500000Y-126250000D02*
X41500000Y-125750000D01*
X41500000Y-126850000D02*
X40950000Y-126850000D01*
X41500000Y-126850000D02*
X41100000Y-126250000D01*
X41500000Y-126850000D02*
X42050000Y-126850000D01*
X41500000Y-127250000D02*
X41500000Y-126850000D01*
X41900000Y-126250000D02*
X41500000Y-126850000D01*
%TO.C,D14*%
X117100000Y-137250000D02*
X117900000Y-137250000D01*
X117500000Y-137250000D02*
X117500000Y-136750000D01*
X117500000Y-137850000D02*
X116950000Y-137850000D01*
X117500000Y-137850000D02*
X117100000Y-137250000D01*
X117500000Y-137850000D02*
X118050000Y-137850000D01*
X117500000Y-138250000D02*
X117500000Y-137850000D01*
X117900000Y-137250000D02*
X117500000Y-137850000D01*
%TO.C,D7*%
X79100000Y-156250000D02*
X79900000Y-156250000D01*
X79500000Y-156250000D02*
X79500000Y-155750000D01*
X79500000Y-156850000D02*
X78950000Y-156850000D01*
X79500000Y-156850000D02*
X79100000Y-156250000D01*
X79500000Y-156850000D02*
X80050000Y-156850000D01*
X79500000Y-157250000D02*
X79500000Y-156850000D01*
X79900000Y-156250000D02*
X79500000Y-156850000D01*
%TO.C,D17*%
X107600000Y-180000000D02*
X108400000Y-180000000D01*
X108000000Y-180000000D02*
X108000000Y-179500000D01*
X108000000Y-180600000D02*
X107450000Y-180600000D01*
X108000000Y-180600000D02*
X107600000Y-180000000D01*
X108000000Y-180600000D02*
X108550000Y-180600000D01*
X108000000Y-181000000D02*
X108000000Y-180600000D01*
X108400000Y-180000000D02*
X108000000Y-180600000D01*
D12*
%TO.C,MCU1*%
X136410000Y-99220000D02*
X136410000Y-132240000D01*
X136410000Y-132240000D02*
X154190000Y-132240000D01*
X154190000Y-99220000D02*
X136410000Y-99220000D01*
X154190000Y-132240000D02*
X154190000Y-99220000D01*
D11*
%TO.C,D16*%
X136100000Y-159250000D02*
X136900000Y-159250000D01*
X136500000Y-159250000D02*
X136500000Y-158750000D01*
X136500000Y-159850000D02*
X135950000Y-159850000D01*
X136500000Y-159850000D02*
X136100000Y-159250000D01*
X136500000Y-159850000D02*
X137050000Y-159850000D01*
X136500000Y-160250000D02*
X136500000Y-159850000D01*
X136900000Y-159250000D02*
X136500000Y-159850000D01*
%TO.C,D9*%
X79100000Y-118250000D02*
X79900000Y-118250000D01*
X79500000Y-118250000D02*
X79500000Y-117750000D01*
X79500000Y-118850000D02*
X78950000Y-118850000D01*
X79500000Y-118850000D02*
X79100000Y-118250000D01*
X79500000Y-118850000D02*
X80050000Y-118850000D01*
X79500000Y-119250000D02*
X79500000Y-118850000D01*
X79900000Y-118250000D02*
X79500000Y-118850000D01*
%TO.C,D15*%
X117100000Y-118250000D02*
X117900000Y-118250000D01*
X117500000Y-118250000D02*
X117500000Y-117750000D01*
X117500000Y-118850000D02*
X116950000Y-118850000D01*
X117500000Y-118850000D02*
X117100000Y-118250000D01*
X117500000Y-118850000D02*
X118050000Y-118850000D01*
X117500000Y-119250000D02*
X117500000Y-118850000D01*
X117900000Y-118250000D02*
X117500000Y-118850000D01*
%TO.C,D2*%
X41100000Y-145250000D02*
X41900000Y-145250000D01*
X41500000Y-145250000D02*
X41500000Y-144750000D01*
X41500000Y-145850000D02*
X40950000Y-145850000D01*
X41500000Y-145850000D02*
X41100000Y-145250000D01*
X41500000Y-145850000D02*
X42050000Y-145850000D01*
X41500000Y-146250000D02*
X41500000Y-145850000D01*
X41900000Y-145250000D02*
X41500000Y-145850000D01*
%TO.C,D12*%
X98100000Y-113250000D02*
X98900000Y-113250000D01*
X98500000Y-113250000D02*
X98500000Y-112750000D01*
X98500000Y-113850000D02*
X97950000Y-113850000D01*
X98500000Y-113850000D02*
X98100000Y-113250000D01*
X98500000Y-113850000D02*
X99050000Y-113850000D01*
X98500000Y-114250000D02*
X98500000Y-113850000D01*
X98900000Y-113250000D02*
X98500000Y-113850000D01*
%TO.C,D13*%
X117100000Y-156250000D02*
X117900000Y-156250000D01*
X117500000Y-156250000D02*
X117500000Y-155750000D01*
X117500000Y-156850000D02*
X116950000Y-156850000D01*
X117500000Y-156850000D02*
X117100000Y-156250000D01*
X117500000Y-156850000D02*
X118050000Y-156850000D01*
X117500000Y-157250000D02*
X117500000Y-156850000D01*
X117900000Y-156250000D02*
X117500000Y-156850000D01*
%TO.C,D20*%
X141250000Y-143600000D02*
X141850000Y-144000000D01*
X141250000Y-144000000D02*
X140750000Y-144000000D01*
X141250000Y-144400000D02*
X141250000Y-143600000D01*
X141850000Y-144000000D02*
X141250000Y-144400000D01*
X141850000Y-144000000D02*
X141850000Y-143450000D01*
X141850000Y-144000000D02*
X141850000Y-144550000D01*
X142250000Y-144000000D02*
X141850000Y-144000000D01*
%TD*%
D13*
%TO.C,MCU1*%
X137680000Y-103030000D03*
X137680000Y-105570000D03*
X137680000Y-108110000D03*
X137680000Y-110650000D03*
X137680000Y-113190000D03*
X137680000Y-115730000D03*
X137680000Y-118270000D03*
X137680000Y-120810000D03*
X137680000Y-123350000D03*
X137680000Y-125890000D03*
X137680000Y-128430000D03*
X137680000Y-130970000D03*
X152920000Y-130970000D03*
X152920000Y-128430000D03*
X152920000Y-125890000D03*
X152920000Y-123350000D03*
X152920000Y-120810000D03*
X152920000Y-118270000D03*
X152920000Y-115730000D03*
X152920000Y-113190000D03*
X152920000Y-110650000D03*
X152920000Y-108110000D03*
X152920000Y-105570000D03*
X152920000Y-103030000D03*
X140220000Y-125890000D03*
X142760000Y-125890000D03*
X145300000Y-125890000D03*
%TD*%
M02*
