%TF.GenerationSoftware,KiCad,Pcbnew,8.0.6*%
%TF.CreationDate,2024-12-24T11:18:05+01:00*%
%TF.ProjectId,left,6c656674-2e6b-4696-9361-645f70636258,v1.0.0*%
%TF.SameCoordinates,Original*%
%TF.FileFunction,Copper,L1,Top*%
%TF.FilePolarity,Positive*%
%FSLAX46Y46*%
G04 Gerber Fmt 4.6, Leading zero omitted, Abs format (unit mm)*
G04 Created by KiCad (PCBNEW 8.0.6) date 2024-12-24 11:18:05*
%MOMM*%
%LPD*%
G01*
G04 APERTURE LIST*
G04 Aperture macros list*
%AMRotRect*
0 Rectangle, with rotation*
0 The origin of the aperture is its center*
0 $1 length*
0 $2 width*
0 $3 Rotation angle, in degrees counterclockwise*
0 Add horizontal line*
21,1,$1,$2,0,0,$3*%
G04 Aperture macros list end*
%TA.AperFunction,WasherPad*%
%ADD10C,1.000000*%
%TD*%
%TA.AperFunction,ComponentPad*%
%ADD11R,1.778000X1.778000*%
%TD*%
%TA.AperFunction,SMDPad,CuDef*%
%ADD12R,1.200000X0.900000*%
%TD*%
%TA.AperFunction,ComponentPad*%
%ADD13C,1.905000*%
%TD*%
%TA.AperFunction,ComponentPad*%
%ADD14RotRect,1.778000X1.778000X67.000000*%
%TD*%
%TA.AperFunction,SMDPad,CuDef*%
%ADD15RotRect,0.900000X1.200000X67.000000*%
%TD*%
%TA.AperFunction,ComponentPad*%
%ADD16RotRect,1.778000X1.778000X82.000000*%
%TD*%
%TA.AperFunction,SMDPad,CuDef*%
%ADD17RotRect,0.900000X1.200000X82.000000*%
%TD*%
%TA.AperFunction,ComponentPad*%
%ADD18R,1.700000X1.200000*%
%TD*%
%TA.AperFunction,ComponentPad*%
%ADD19O,1.700000X1.200000*%
%TD*%
%TA.AperFunction,ComponentPad*%
%ADD20C,1.752600*%
%TD*%
%TA.AperFunction,SMDPad,CuDef*%
%ADD21R,1.550000X1.000000*%
%TD*%
%TA.AperFunction,SMDPad,CuDef*%
%ADD22R,0.900000X1.200000*%
%TD*%
%TA.AperFunction,ViaPad*%
%ADD23C,0.800000*%
%TD*%
%TA.AperFunction,Conductor*%
%ADD24C,0.250000*%
%TD*%
G04 APERTURE END LIST*
D10*
%TO.P,T1,*%
%TO.N,*%
X131750000Y-99500000D03*
X134750000Y-99500000D03*
%TD*%
D11*
%TO.P,D4,1*%
%TO.N,P011*%
X60500000Y-168310000D03*
D12*
X60500000Y-166150000D03*
%TO.P,D4,2*%
%TO.N,ColB_Row1*%
X60500000Y-162850000D03*
D13*
X60500000Y-160690000D03*
%TD*%
D11*
%TO.P,D5,1*%
%TO.N,P009*%
X60500000Y-149310000D03*
D12*
X60500000Y-147150000D03*
%TO.P,D5,2*%
%TO.N,ColB_Row2*%
X60500000Y-143850000D03*
D13*
X60500000Y-141690000D03*
%TD*%
D14*
%TO.P,D19,1*%
%TO.N,P115*%
X151389326Y-184007308D03*
D15*
X152233307Y-182019018D03*
%TO.P,D19,2*%
%TO.N,ColF_Row0*%
X153522719Y-178981352D03*
D13*
X154366700Y-176993062D03*
%TD*%
D11*
%TO.P,D10,1*%
%TO.N,P011*%
X98500000Y-155310000D03*
D12*
X98500000Y-153150000D03*
%TO.P,D10,2*%
%TO.N,ColD_Row1*%
X98500000Y-149850000D03*
D13*
X98500000Y-147690000D03*
%TD*%
D16*
%TO.P,D18,1*%
%TO.N,P115*%
X128618650Y-185194211D03*
D17*
X128919265Y-183055232D03*
%TO.P,D18,2*%
%TO.N,ColE_Row0*%
X129378537Y-179787348D03*
D13*
X129679152Y-177648369D03*
%TD*%
D11*
%TO.P,D8,1*%
%TO.N,P009*%
X79500000Y-141310000D03*
D12*
X79500000Y-139150000D03*
%TO.P,D8,2*%
%TO.N,ColC_Row2*%
X79500000Y-135850000D03*
D13*
X79500000Y-133690000D03*
%TD*%
D11*
%TO.P,D21,1*%
%TO.N,P100*%
X141500000Y-122810000D03*
D12*
X141500000Y-120650000D03*
%TO.P,D21,2*%
%TO.N,ColF_Row3*%
X141500000Y-117350000D03*
D13*
X141500000Y-115190000D03*
%TD*%
D11*
%TO.P,D6,1*%
%TO.N,P100*%
X60500000Y-130310000D03*
D12*
X60500000Y-128150000D03*
%TO.P,D6,2*%
%TO.N,ColB_Row3*%
X60500000Y-124850000D03*
D13*
X60500000Y-122690000D03*
%TD*%
D18*
%TO.P,JST1,1*%
%TO.N,pos*%
X123000000Y-107000000D03*
D19*
%TO.P,JST1,2*%
%TO.N,GND*%
X123000000Y-109000000D03*
%TD*%
D11*
%TO.P,D11,1*%
%TO.N,P009*%
X98500000Y-136310000D03*
D12*
X98500000Y-134150000D03*
%TO.P,D11,2*%
%TO.N,ColD_Row2*%
X98500000Y-130850000D03*
D13*
X98500000Y-128690000D03*
%TD*%
D11*
%TO.P,D1,1*%
%TO.N,P011*%
X41500000Y-168310000D03*
D12*
X41500000Y-166150000D03*
%TO.P,D1,2*%
%TO.N,ColA_Row1*%
X41500000Y-162850000D03*
D13*
X41500000Y-160690000D03*
%TD*%
D11*
%TO.P,D3,1*%
%TO.N,P100*%
X41500000Y-130310000D03*
D12*
X41500000Y-128150000D03*
%TO.P,D3,2*%
%TO.N,ColA_Row3*%
X41500000Y-124850000D03*
D13*
X41500000Y-122690000D03*
%TD*%
D11*
%TO.P,D14,1*%
%TO.N,P009*%
X117500000Y-141310000D03*
D12*
X117500000Y-139150000D03*
%TO.P,D14,2*%
%TO.N,ColE_Row2*%
X117500000Y-135850000D03*
D13*
X117500000Y-133690000D03*
%TD*%
D11*
%TO.P,D7,1*%
%TO.N,P011*%
X79500000Y-160310000D03*
D12*
X79500000Y-158150000D03*
%TO.P,D7,2*%
%TO.N,ColC_Row1*%
X79500000Y-154850000D03*
D13*
X79500000Y-152690000D03*
%TD*%
D11*
%TO.P,D17,1*%
%TO.N,P115*%
X108000000Y-184060000D03*
D12*
X108000000Y-181900000D03*
%TO.P,D17,2*%
%TO.N,ColD_Row0*%
X108000000Y-178600000D03*
D13*
X108000000Y-176440000D03*
%TD*%
D20*
%TO.P,MCU1,1*%
%TO.N,P006*%
X137680000Y-103030000D03*
%TO.P,MCU1,2*%
%TO.N,P008*%
X137680000Y-105570000D03*
%TO.P,MCU1,3*%
%TO.N,GND*%
X137680000Y-108110000D03*
%TO.P,MCU1,4*%
X137680000Y-110650000D03*
%TO.P,MCU1,5*%
%TO.N,P017*%
X137680000Y-113190000D03*
%TO.P,MCU1,6*%
%TO.N,P020*%
X137680000Y-115730000D03*
%TO.P,MCU1,7*%
%TO.N,P022*%
X137680000Y-118270000D03*
%TO.P,MCU1,8*%
%TO.N,P024*%
X137680000Y-120810000D03*
%TO.P,MCU1,9*%
%TO.N,P100*%
X137680000Y-123350000D03*
%TO.P,MCU1,10*%
%TO.N,P011*%
X137680000Y-125890000D03*
%TO.P,MCU1,11*%
%TO.N,P104*%
X137680000Y-128430000D03*
%TO.P,MCU1,12*%
%TO.N,P106*%
X137680000Y-130970000D03*
%TO.P,MCU1,13*%
%TO.N,P009*%
X152920000Y-130970000D03*
%TO.P,MCU1,14*%
%TO.N,P010*%
X152920000Y-128430000D03*
%TO.P,MCU1,15*%
%TO.N,P111*%
X152920000Y-125890000D03*
%TO.P,MCU1,16*%
%TO.N,P113*%
X152920000Y-123350000D03*
%TO.P,MCU1,17*%
%TO.N,P115*%
X152920000Y-120810000D03*
%TO.P,MCU1,18*%
%TO.N,P002*%
X152920000Y-118270000D03*
%TO.P,MCU1,19*%
%TO.N,P029*%
X152920000Y-115730000D03*
%TO.P,MCU1,20*%
%TO.N,P031*%
X152920000Y-113190000D03*
%TO.P,MCU1,21*%
%TO.N,VCC*%
X152920000Y-110650000D03*
%TO.P,MCU1,22*%
%TO.N,RST*%
X152920000Y-108110000D03*
%TO.P,MCU1,23*%
%TO.N,GND*%
X152920000Y-105570000D03*
%TO.P,MCU1,24*%
%TO.N,RAW*%
X152920000Y-103030000D03*
%TO.P,MCU1,31*%
%TO.N,P101*%
X140220000Y-125890000D03*
%TO.P,MCU1,32*%
%TO.N,P102*%
X142760000Y-125890000D03*
%TO.P,MCU1,33*%
%TO.N,P107*%
X145300000Y-125890000D03*
%TD*%
D21*
%TO.P,B1,1*%
%TO.N,GND*%
X142375000Y-99150000D03*
X147625000Y-99150000D03*
%TO.P,B1,2*%
%TO.N,RST*%
X142375000Y-100850000D03*
X147625000Y-100850000D03*
%TD*%
D11*
%TO.P,D16,1*%
%TO.N,P011*%
X136500000Y-163310000D03*
D12*
X136500000Y-161150000D03*
%TO.P,D16,2*%
%TO.N,ColF_Row1*%
X136500000Y-157850000D03*
D13*
X136500000Y-155690000D03*
%TD*%
D11*
%TO.P,D9,1*%
%TO.N,P100*%
X79500000Y-122310000D03*
D12*
X79500000Y-120150000D03*
%TO.P,D9,2*%
%TO.N,ColC_Row3*%
X79500000Y-116850000D03*
D13*
X79500000Y-114690000D03*
%TD*%
D11*
%TO.P,D15,1*%
%TO.N,P100*%
X117500000Y-122310000D03*
D12*
X117500000Y-120150000D03*
%TO.P,D15,2*%
%TO.N,ColE_Row3*%
X117500000Y-116850000D03*
D13*
X117500000Y-114690000D03*
%TD*%
D11*
%TO.P,D2,1*%
%TO.N,P009*%
X41500000Y-149310000D03*
D12*
X41500000Y-147150000D03*
%TO.P,D2,2*%
%TO.N,ColA_Row2*%
X41500000Y-143850000D03*
D13*
X41500000Y-141690000D03*
%TD*%
D11*
%TO.P,D12,1*%
%TO.N,P100*%
X98500000Y-117310000D03*
D12*
X98500000Y-115150000D03*
%TO.P,D12,2*%
%TO.N,ColD_Row3*%
X98500000Y-111850000D03*
D13*
X98500000Y-109690000D03*
%TD*%
D11*
%TO.P,D13,1*%
%TO.N,P011*%
X117500000Y-160310000D03*
D12*
X117500000Y-158150000D03*
%TO.P,D13,2*%
%TO.N,ColE_Row1*%
X117500000Y-154850000D03*
D13*
X117500000Y-152690000D03*
%TD*%
D11*
%TO.P,D20,1*%
%TO.N,P009*%
X145310000Y-144000000D03*
D22*
X143150000Y-144000000D03*
%TO.P,D20,2*%
%TO.N,ColF_Row2*%
X139850000Y-144000000D03*
D13*
X137690000Y-144000000D03*
%TD*%
D23*
%TO.N,P006*%
X58000000Y-112600000D03*
X126600000Y-102200000D03*
%TO.N,P020*%
X131500000Y-123500000D03*
X135000000Y-123500000D03*
X135000000Y-117000000D03*
X135000000Y-119500000D03*
%TO.N,P011*%
X135600000Y-141600000D03*
X135600000Y-149000000D03*
%TO.N,pos*%
X128425000Y-101575000D03*
X123000000Y-105000000D03*
%TD*%
D24*
%TO.N,P006*%
X112600000Y-99200000D02*
X116400000Y-103000000D01*
X116400000Y-103000000D02*
X125800000Y-103000000D01*
X99200000Y-104600000D02*
X104600000Y-99200000D01*
X104600000Y-99200000D02*
X112600000Y-99200000D01*
X125800000Y-103000000D02*
X126600000Y-102200000D01*
X84800000Y-104600000D02*
X99200000Y-104600000D01*
X58000000Y-112600000D02*
X76800000Y-112600000D01*
X76800000Y-112600000D02*
X84800000Y-104600000D01*
%TO.N,ColA_Row1*%
X41500000Y-162850000D02*
X41500000Y-160690000D01*
%TO.N,ColA_Row2*%
X41500000Y-143850000D02*
X41500000Y-141690000D01*
%TO.N,ColA_Row3*%
X41500000Y-124850000D02*
X41500000Y-122690000D01*
%TO.N,ColB_Row1*%
X60500000Y-162850000D02*
X60500000Y-160690000D01*
%TO.N,ColB_Row2*%
X60500000Y-143850000D02*
X60500000Y-141690000D01*
%TO.N,ColB_Row3*%
X60500000Y-124850000D02*
X60500000Y-122690000D01*
%TO.N,ColC_Row1*%
X79500000Y-154850000D02*
X79500000Y-152690000D01*
%TO.N,ColC_Row2*%
X79500000Y-133690000D02*
X79500000Y-135850000D01*
%TO.N,ColC_Row3*%
X79500000Y-116850000D02*
X79500000Y-114690000D01*
%TO.N,P020*%
X131500000Y-123500000D02*
X135000000Y-123500000D01*
X135000000Y-119500000D02*
X135000000Y-117000000D01*
%TO.N,ColD_Row1*%
X98500000Y-149850000D02*
X98500000Y-147690000D01*
%TO.N,ColD_Row2*%
X98500000Y-128690000D02*
X98500000Y-130850000D01*
%TO.N,ColD_Row3*%
X98500000Y-109690000D02*
X98500000Y-111850000D01*
%TO.N,ColE_Row1*%
X117500000Y-154850000D02*
X117500000Y-152690000D01*
%TO.N,ColE_Row2*%
X117500000Y-135850000D02*
X117500000Y-133690000D01*
%TO.N,ColE_Row3*%
X117500000Y-114690000D02*
X117500000Y-116850000D01*
%TO.N,ColF_Row1*%
X136500000Y-157850000D02*
X136500000Y-155690000D01*
%TO.N,ColF_Row3*%
X141500000Y-117350000D02*
X141500000Y-115190000D01*
%TO.N,ColD_Row0*%
X108000000Y-178600000D02*
X108000000Y-176440000D01*
%TO.N,ColE_Row0*%
X129378537Y-177948983D02*
X129679151Y-177648369D01*
X129378537Y-179787348D02*
X129378537Y-177948983D01*
%TO.N,ColF_Row0*%
X153522719Y-177837042D02*
X154366699Y-176993062D01*
X153522719Y-178981352D02*
X153522719Y-177837042D01*
%TO.N,ColF_Row2*%
X137690000Y-144000000D02*
X139850000Y-144000000D01*
%TO.N,GND*%
X128600000Y-103400000D02*
X133485000Y-103400000D01*
X142375000Y-99150000D02*
X142600000Y-99375000D01*
X150570000Y-105570000D02*
X152920000Y-105570000D01*
X134400000Y-107200000D02*
X135310000Y-108110000D01*
X123000000Y-109000000D02*
X128600000Y-103400000D01*
X147625000Y-99150000D02*
X147900000Y-99150000D01*
X147900000Y-99150000D02*
X150570000Y-101820000D01*
X147400000Y-99375000D02*
X147625000Y-99150000D01*
X142375000Y-99150000D02*
X142650000Y-99150000D01*
X140000000Y-101250000D02*
X142100000Y-99150000D01*
X137680000Y-108110000D02*
X139190000Y-108110000D01*
X134400000Y-104315000D02*
X134400000Y-107200000D01*
X135310000Y-108110000D02*
X137680000Y-108110000D01*
X139190000Y-108110000D02*
X140000000Y-107300000D01*
X142600000Y-99375000D02*
X147400000Y-99375000D01*
X137680000Y-108110000D02*
X137680000Y-110650000D01*
X133485000Y-103400000D02*
X134400000Y-104315000D01*
X140000000Y-107300000D02*
X140000000Y-101250000D01*
X142375000Y-99150000D02*
X142500000Y-99150000D01*
X150570000Y-101820000D02*
X150570000Y-105570000D01*
X142100000Y-99150000D02*
X142375000Y-99150000D01*
%TO.N,RST*%
X147625000Y-100850000D02*
X147625000Y-104054275D01*
X151680725Y-108110000D02*
X152920000Y-108110000D01*
X147625000Y-104054275D02*
X151680725Y-108110000D01*
X142600000Y-100625000D02*
X147400000Y-100625000D01*
X142375000Y-100850000D02*
X142600000Y-100625000D01*
X147400000Y-100625000D02*
X147625000Y-100850000D01*
%TO.N,P115*%
X149000000Y-188000000D02*
X151389327Y-185610673D01*
X155600000Y-160800000D02*
X155600000Y-123490000D01*
X126805789Y-185194211D02*
X128618651Y-185194211D01*
X108000000Y-184060000D02*
X109940000Y-186000000D01*
X130194211Y-185194211D02*
X133000000Y-188000000D01*
X151389327Y-182862998D02*
X152233307Y-182019018D01*
X128919265Y-183055232D02*
X128919265Y-184893597D01*
X150800000Y-180585711D02*
X150800000Y-165600000D01*
X108000000Y-181900000D02*
X108000000Y-184060000D01*
X126000000Y-186000000D02*
X126805789Y-185194211D01*
X128618651Y-185194211D02*
X130194211Y-185194211D01*
X128919265Y-184893597D02*
X128618651Y-185194211D01*
X151389327Y-185610673D02*
X151389327Y-184007308D01*
X155600000Y-123490000D02*
X152920000Y-120810000D01*
X133000000Y-188000000D02*
X149000000Y-188000000D01*
X152233307Y-182019018D02*
X150800000Y-180585711D01*
X151389327Y-184007308D02*
X151389327Y-182862998D01*
X150800000Y-165600000D02*
X155600000Y-160800000D01*
X109940000Y-186000000D02*
X126000000Y-186000000D01*
%TO.N,P009*%
X153800000Y-144000000D02*
X154600000Y-143200000D01*
X117500000Y-141310000D02*
X131510000Y-141310000D01*
X154600000Y-132650000D02*
X152920000Y-130970000D01*
X79500000Y-147700000D02*
X79500000Y-139150000D01*
X98500000Y-139700000D02*
X98500000Y-138600000D01*
X117500000Y-141310000D02*
X115410000Y-141310000D01*
X144500000Y-145700000D02*
X144500000Y-144810000D01*
X114800000Y-138900000D02*
X113300000Y-137400000D01*
X115410000Y-141310000D02*
X114800000Y-140700000D01*
X41500000Y-149310000D02*
X60500000Y-149310000D01*
X60500000Y-149310000D02*
X77890000Y-149310000D01*
X98500000Y-138600000D02*
X98500000Y-134150000D01*
X100200000Y-138600000D02*
X98500000Y-138600000D01*
X135900000Y-145700000D02*
X144500000Y-145700000D01*
X145310000Y-144000000D02*
X153800000Y-144000000D01*
X144500000Y-144810000D02*
X145310000Y-144000000D01*
X154600000Y-143200000D02*
X154600000Y-132650000D01*
X79500000Y-141310000D02*
X96890000Y-141310000D01*
X131510000Y-141310000D02*
X135900000Y-145700000D01*
X41500000Y-147150000D02*
X41500000Y-149310000D01*
X60500000Y-147150000D02*
X60500000Y-149310000D01*
X77890000Y-149310000D02*
X79500000Y-147700000D01*
X96890000Y-141310000D02*
X98500000Y-139700000D01*
X117500000Y-139150000D02*
X117500000Y-141310000D01*
X113300000Y-137400000D02*
X101400000Y-137400000D01*
X145310000Y-144000000D02*
X143150000Y-144000000D01*
X114800000Y-140700000D02*
X114800000Y-138900000D01*
X101400000Y-137400000D02*
X100200000Y-138600000D01*
%TO.N,P100*%
X140960000Y-123350000D02*
X141500000Y-122810000D01*
X115310000Y-122310000D02*
X117500000Y-122310000D01*
X117500000Y-120150000D02*
X117500000Y-122310000D01*
X112810000Y-117310000D02*
X114500000Y-119000000D01*
X79500000Y-129000000D02*
X79500000Y-120150000D01*
X141500000Y-122810000D02*
X141500000Y-120650000D01*
X78190000Y-130310000D02*
X79500000Y-129000000D01*
X114500000Y-119000000D02*
X114500000Y-121500000D01*
X79500000Y-122310000D02*
X97190000Y-122310000D01*
X114500000Y-121500000D02*
X115310000Y-122310000D01*
X98500000Y-121000000D02*
X98500000Y-115150000D01*
X136640000Y-122310000D02*
X137680000Y-123350000D01*
X60500000Y-130310000D02*
X60500000Y-128150000D01*
X137680000Y-123350000D02*
X140960000Y-123350000D01*
X41500000Y-130310000D02*
X60500000Y-130310000D01*
X97190000Y-122310000D02*
X98500000Y-121000000D01*
X41500000Y-128150000D02*
X41500000Y-130310000D01*
X117500000Y-122310000D02*
X136640000Y-122310000D01*
X60500000Y-130310000D02*
X78190000Y-130310000D01*
X98500000Y-117310000D02*
X112810000Y-117310000D01*
%TO.N,P011*%
X98500000Y-158500000D02*
X100310000Y-160310000D01*
X136500000Y-161150000D02*
X136500000Y-163310000D01*
X135600000Y-150400000D02*
X140200000Y-155000000D01*
X79500000Y-162000000D02*
X79500000Y-160310000D01*
X135600000Y-149000000D02*
X135600000Y-150400000D01*
X77690000Y-168310000D02*
X79500000Y-166500000D01*
X100310000Y-160310000D02*
X117500000Y-160310000D01*
X117500000Y-158150000D02*
X117500000Y-160310000D01*
X140200000Y-160200000D02*
X137090000Y-163310000D01*
X135600000Y-141600000D02*
X135600000Y-127970000D01*
X79500000Y-166500000D02*
X79500000Y-162000000D01*
X60500000Y-168310000D02*
X60500000Y-166150000D01*
X137090000Y-163310000D02*
X136500000Y-163310000D01*
X41500000Y-166150000D02*
X41500000Y-168310000D01*
X140200000Y-155000000D02*
X140200000Y-160200000D01*
X96690000Y-160310000D02*
X98500000Y-158500000D01*
X79500000Y-160310000D02*
X96690000Y-160310000D01*
X135600000Y-127970000D02*
X137680000Y-125890000D01*
X98500000Y-153150000D02*
X98500000Y-155310000D01*
X41500000Y-168310000D02*
X60500000Y-168310000D01*
X117500000Y-160310000D02*
X120310000Y-160310000D01*
X98500000Y-158500000D02*
X98500000Y-155310000D01*
X79500000Y-158150000D02*
X79500000Y-162000000D01*
X120310000Y-160310000D02*
X123310000Y-163310000D01*
X123310000Y-163310000D02*
X136500000Y-163310000D01*
X60500000Y-168310000D02*
X77690000Y-168310000D01*
%TO.N,pos*%
X123000000Y-105000000D02*
X125400000Y-105000000D01*
X128425000Y-101975000D02*
X128425000Y-101575000D01*
X125400000Y-105000000D02*
X128425000Y-101975000D01*
%TD*%
M02*
