%TF.GenerationSoftware,KiCad,Pcbnew,8.0.6*%
%TF.CreationDate,2024-12-24T11:18:05+01:00*%
%TF.ProjectId,left,6c656674-2e6b-4696-9361-645f70636258,v1.0.0*%
%TF.SameCoordinates,Original*%
%TF.FileFunction,Profile,NP*%
%FSLAX46Y46*%
G04 Gerber Fmt 4.6, Leading zero omitted, Abs format (unit mm)*
G04 Created by KiCad (PCBNEW 8.0.6) date 2024-12-24 11:18:05*
%MOMM*%
%LPD*%
G01*
G04 APERTURE LIST*
%TA.AperFunction,Profile*%
%ADD10C,0.150000*%
%TD*%
G04 APERTURE END LIST*
D10*
X147093769Y-190890232D02*
G75*
G02*
X147619469Y-191032804I-255769J-1983568D01*
G01*
X95500000Y-99500000D02*
G75*
G02*
X97500000Y-97500000I2000000J0D01*
G01*
X136536106Y-189532096D02*
X106232850Y-187339215D01*
X95500000Y-100500000D02*
X95500000Y-99500000D01*
X177554771Y-168432870D02*
G75*
G02*
X178614339Y-171055350I-781471J-1841030D01*
G01*
X97500000Y-97500000D02*
X116500000Y-97500000D01*
X120500000Y-102500000D02*
X124000000Y-102500000D01*
X136536107Y-189532096D02*
G75*
G02*
X136647516Y-189543299I-144407J-1995604D01*
G01*
X126000000Y-100500000D02*
X126000000Y-99500000D01*
X154500000Y-97500000D02*
G75*
G02*
X156500000Y-99500000I0J-2000000D01*
G01*
X160535595Y-161208658D02*
X177554771Y-168432870D01*
X156500000Y-99500000D02*
X156500000Y-155804840D01*
X118500000Y-99500000D02*
X118500000Y-100500000D01*
X167478482Y-197289730D02*
G75*
G02*
X164856018Y-198349260I-1840982J781430D01*
G01*
X156931159Y-157045298D02*
G75*
G02*
X156499976Y-155804840I1568841J1240498D01*
G01*
X104528453Y-186107406D02*
X99010518Y-172737025D01*
X76500000Y-108500000D02*
G75*
G02*
X74500000Y-110500000I-2000000J0D01*
G01*
X116500000Y-97500000D02*
G75*
G02*
X118500000Y-99500000I0J-2000000D01*
G01*
X78500000Y-102500000D02*
X93500000Y-102500000D01*
X76500000Y-104500000D02*
G75*
G02*
X78500000Y-102500000I2000000J0D01*
G01*
X38500000Y-112500000D02*
G75*
G02*
X40500000Y-110500000I2000000J0D01*
G01*
X178614319Y-171055342D02*
X167478482Y-197289730D01*
X128000000Y-97500000D02*
X154500000Y-97500000D01*
X164856010Y-198349278D02*
X147619470Y-191032801D01*
X40500000Y-171500000D02*
G75*
G02*
X38500000Y-169500000I0J2000000D01*
G01*
X147093769Y-190890231D02*
X136647516Y-189543301D01*
X160535595Y-161208659D02*
G75*
G02*
X159748241Y-160608087I781505J1840959D01*
G01*
X120500000Y-102500000D02*
G75*
G02*
X118500000Y-100500000I0J2000000D01*
G01*
X97161770Y-171500000D02*
X40500000Y-171500000D01*
X126000000Y-100500000D02*
G75*
G02*
X124000000Y-102500000I-2000000J0D01*
G01*
X95500000Y-100500000D02*
G75*
G02*
X93500000Y-102500000I-2000000J0D01*
G01*
X38500000Y-169500000D02*
X38500000Y-112500000D01*
X106232849Y-187339215D02*
G75*
G02*
X104528434Y-186107414I144351J1994815D01*
G01*
X126000000Y-99500000D02*
G75*
G02*
X128000000Y-97500000I2000000J0D01*
G01*
X97161770Y-171500000D02*
G75*
G02*
X99010544Y-172737014I30J-2000000D01*
G01*
X76500000Y-108500000D02*
X76500000Y-104500000D01*
X40500000Y-110500000D02*
X74500000Y-110500000D01*
X156931159Y-157045298D02*
X159748216Y-160608107D01*
M02*
