%TF.GenerationSoftware,KiCad,Pcbnew,8.0.6*%
%TF.CreationDate,2024-12-24T11:18:05+01:00*%
%TF.ProjectId,left,6c656674-2e6b-4696-9361-645f70636258,v1.0.0*%
%TF.SameCoordinates,Original*%
%TF.FileFunction,Soldermask,Bot*%
%TF.FilePolarity,Negative*%
%FSLAX46Y46*%
G04 Gerber Fmt 4.6, Leading zero omitted, Abs format (unit mm)*
G04 Created by KiCad (PCBNEW 8.0.6) date 2024-12-24 11:18:05*
%MOMM*%
%LPD*%
G01*
G04 APERTURE LIST*
G04 Aperture macros list*
%AMRoundRect*
0 Rectangle with rounded corners*
0 $1 Rounding radius*
0 $2 $3 $4 $5 $6 $7 $8 $9 X,Y pos of 4 corners*
0 Add a 4 corners polygon primitive as box body*
4,1,4,$2,$3,$4,$5,$6,$7,$8,$9,$2,$3,0*
0 Add four circle primitives for the rounded corners*
1,1,$1+$1,$2,$3*
1,1,$1+$1,$4,$5*
1,1,$1+$1,$6,$7*
1,1,$1+$1,$8,$9*
0 Add four rect primitives between the rounded corners*
20,1,$1+$1,$2,$3,$4,$5,0*
20,1,$1+$1,$4,$5,$6,$7,0*
20,1,$1+$1,$6,$7,$8,$9,0*
20,1,$1+$1,$8,$9,$2,$3,0*%
G04 Aperture macros list end*
%ADD10RoundRect,0.050000X-0.450000X-0.450000X0.450000X-0.450000X0.450000X0.450000X-0.450000X0.450000X0*%
%ADD11C,1.100000*%
%ADD12RoundRect,0.050000X-0.450000X-0.625000X0.450000X-0.625000X0.450000X0.625000X-0.450000X0.625000X0*%
%ADD13RoundRect,0.050000X0.889000X-0.889000X0.889000X0.889000X-0.889000X0.889000X-0.889000X-0.889000X0*%
%ADD14RoundRect,0.050000X0.600000X-0.450000X0.600000X0.450000X-0.600000X0.450000X-0.600000X-0.450000X0*%
%ADD15C,2.005000*%
%ADD16C,1.801800*%
%ADD17C,3.100000*%
%ADD18C,4.087800*%
%ADD19RoundRect,0.050000X-1.250000X1.275000X-1.250000X-1.275000X1.250000X-1.275000X1.250000X1.275000X0*%
%ADD20RoundRect,0.050000X0.470969X-1.165689X1.165689X0.470969X-0.470969X1.165689X-1.165689X-0.470969X0*%
%ADD21RoundRect,0.050000X0.376474X-0.648666X0.728132X0.179789X-0.376474X0.648666X-0.728132X-0.179789X0*%
%ADD22RoundRect,0.050000X-1.060389X1.436558X-1.415281X-1.088625X1.060389X-1.436558X1.415281X1.088625X0*%
%ADD23RoundRect,0.050000X0.756623X-1.004073X1.004073X0.756623X-0.756623X1.004073X-1.004073X-0.756623X0*%
%ADD24RoundRect,0.050000X0.531533X-0.529124X0.656789X0.362117X-0.531533X0.529124X-0.656789X-0.362117X0*%
%ADD25RoundRect,0.050000X-0.850000X0.600000X-0.850000X-0.600000X0.850000X-0.600000X0.850000X0.600000X0*%
%ADD26O,1.800000X1.300000*%
%ADD27C,1.852600*%
%ADD28RoundRect,0.050000X1.275000X1.250000X-1.275000X1.250000X-1.275000X-1.250000X1.275000X-1.250000X0*%
%ADD29C,0.850000*%
%ADD30RoundRect,0.050000X-0.652449X1.662058X-1.648813X-0.685230X0.652449X-1.662058X1.648813X0.685230X0*%
%ADD31RoundRect,0.050000X0.889000X0.889000X-0.889000X0.889000X-0.889000X-0.889000X0.889000X-0.889000X0*%
%ADD32RoundRect,0.050000X0.450000X0.600000X-0.450000X0.600000X-0.450000X-0.600000X0.450000X-0.600000X0*%
G04 APERTURE END LIST*
D10*
%TO.C,T1*%
X129550000Y-98400000D03*
X129550000Y-100600000D03*
D11*
X131750000Y-99500000D03*
X134750000Y-99500000D03*
D10*
X136950000Y-98400000D03*
X136950000Y-100600000D03*
D12*
X131000000Y-101575000D03*
X134000000Y-101575000D03*
X135500000Y-101575000D03*
%TD*%
D13*
%TO.C,D4*%
X60500000Y-168310000D03*
D14*
X60500000Y-166150000D03*
X60500000Y-162850000D03*
D15*
X60500000Y-160690000D03*
%TD*%
D13*
%TO.C,D5*%
X60500000Y-149310000D03*
D14*
X60500000Y-147150000D03*
X60500000Y-143850000D03*
D15*
X60500000Y-141690000D03*
%TD*%
D16*
%TO.C,S13*%
X126000000Y-146920000D03*
D17*
X128540000Y-148190000D03*
D18*
X126000000Y-152000000D03*
D17*
X131080000Y-154540000D03*
D16*
X126000000Y-157080000D03*
D19*
X128540000Y-144915000D03*
X131080000Y-157842000D03*
%TD*%
D20*
%TO.C,D19*%
X151389326Y-184007308D03*
D21*
X152233307Y-182019018D03*
X153522719Y-178981352D03*
D15*
X154366700Y-176993062D03*
%TD*%
D16*
%TO.C,S17*%
X145000000Y-111920000D03*
D17*
X147540000Y-113190000D03*
D18*
X145000000Y-117000000D03*
D17*
X150080000Y-119540000D03*
D16*
X145000000Y-122080000D03*
D19*
X147540000Y-109915000D03*
X150080000Y-122842000D03*
%TD*%
D16*
%TO.C,S8*%
X88000000Y-127920000D03*
D17*
X90540000Y-129190000D03*
D18*
X88000000Y-133000000D03*
D17*
X93080000Y-135540000D03*
D16*
X88000000Y-138080000D03*
D19*
X90540000Y-125915000D03*
X93080000Y-138842000D03*
%TD*%
D13*
%TO.C,D10*%
X98500000Y-155310000D03*
D14*
X98500000Y-153150000D03*
X98500000Y-149850000D03*
D15*
X98500000Y-147690000D03*
%TD*%
D16*
%TO.C,S19*%
X138899457Y-173117493D03*
D17*
X141237988Y-174728633D03*
D18*
X138192458Y-178148055D03*
D17*
X142869520Y-181370335D03*
D16*
X137485459Y-183178617D03*
D22*
X141693780Y-171485505D03*
X142409971Y-184640200D03*
%TD*%
D16*
%TO.C,S1*%
X50000000Y-154920000D03*
D17*
X52540000Y-156190000D03*
D18*
X50000000Y-160000000D03*
D17*
X55080000Y-162540000D03*
D16*
X50000000Y-165080000D03*
D19*
X52540000Y-152915000D03*
X55080000Y-165842000D03*
%TD*%
D23*
%TO.C,D18*%
X128618650Y-185194211D03*
D24*
X128919265Y-183055232D03*
X129378537Y-179787348D03*
D15*
X129679152Y-177648369D03*
%TD*%
D16*
%TO.C,S9*%
X88000000Y-108920000D03*
D17*
X90540000Y-110190000D03*
D18*
X88000000Y-114000000D03*
D17*
X93080000Y-116540000D03*
D16*
X88000000Y-119080000D03*
D19*
X90540000Y-106915000D03*
X93080000Y-119842000D03*
%TD*%
D16*
%TO.C,S14*%
X126000000Y-127920000D03*
D17*
X128540000Y-129190000D03*
D18*
X126000000Y-133000000D03*
D17*
X131080000Y-135540000D03*
D16*
X126000000Y-138080000D03*
D19*
X128540000Y-125915000D03*
X131080000Y-138842000D03*
%TD*%
D13*
%TO.C,D8*%
X79500000Y-141310000D03*
D14*
X79500000Y-139150000D03*
X79500000Y-135850000D03*
D15*
X79500000Y-133690000D03*
%TD*%
D16*
%TO.C,S12*%
X107000000Y-103920000D03*
D17*
X109540000Y-105190000D03*
D18*
X107000000Y-109000000D03*
D17*
X112080000Y-111540000D03*
D16*
X107000000Y-114080000D03*
D19*
X109540000Y-101915000D03*
X112080000Y-114842000D03*
%TD*%
D16*
%TO.C,S10*%
X107000000Y-141920000D03*
D17*
X109540000Y-143190000D03*
D18*
X107000000Y-147000000D03*
D17*
X112080000Y-149540000D03*
D16*
X107000000Y-152080000D03*
D19*
X109540000Y-139915000D03*
X112080000Y-152842000D03*
%TD*%
D13*
%TO.C,D21*%
X141500000Y-122810000D03*
D14*
X141500000Y-120650000D03*
X141500000Y-117350000D03*
D15*
X141500000Y-115190000D03*
%TD*%
D13*
%TO.C,D6*%
X60500000Y-130310000D03*
D14*
X60500000Y-128150000D03*
X60500000Y-124850000D03*
D15*
X60500000Y-122690000D03*
%TD*%
D25*
%TO.C,JST1*%
X123000000Y-107000000D03*
D26*
X123000000Y-109000000D03*
%TD*%
D16*
%TO.C,S11*%
X107000000Y-122920000D03*
D17*
X109540000Y-124190000D03*
D18*
X107000000Y-128000000D03*
D17*
X112080000Y-130540000D03*
D16*
X107000000Y-133080000D03*
D19*
X109540000Y-120915000D03*
X112080000Y-133842000D03*
%TD*%
D13*
%TO.C,D11*%
X98500000Y-136310000D03*
D14*
X98500000Y-134150000D03*
X98500000Y-130850000D03*
D15*
X98500000Y-128690000D03*
%TD*%
D13*
%TO.C,D1*%
X41500000Y-168310000D03*
D14*
X41500000Y-166150000D03*
X41500000Y-162850000D03*
D15*
X41500000Y-160690000D03*
%TD*%
D16*
%TO.C,S2*%
X50000000Y-135920000D03*
D17*
X52540000Y-137190000D03*
D18*
X50000000Y-141000000D03*
D17*
X55080000Y-143540000D03*
D16*
X50000000Y-146080000D03*
D19*
X52540000Y-133915000D03*
X55080000Y-146842000D03*
%TD*%
D13*
%TO.C,D3*%
X41500000Y-130310000D03*
D14*
X41500000Y-128150000D03*
X41500000Y-124850000D03*
D15*
X41500000Y-122690000D03*
%TD*%
D13*
%TO.C,D14*%
X117500000Y-141310000D03*
D14*
X117500000Y-139150000D03*
X117500000Y-135850000D03*
D15*
X117500000Y-133690000D03*
%TD*%
D13*
%TO.C,D7*%
X79500000Y-160310000D03*
D14*
X79500000Y-158150000D03*
X79500000Y-154850000D03*
D15*
X79500000Y-152690000D03*
%TD*%
D13*
%TO.C,D17*%
X108000000Y-184060000D03*
D14*
X108000000Y-181900000D03*
X108000000Y-178600000D03*
D15*
X108000000Y-176440000D03*
%TD*%
D27*
%TO.C,MCU1*%
X137680000Y-103030000D03*
X137680000Y-105570000D03*
X137680000Y-108110000D03*
X137680000Y-110650000D03*
X137680000Y-113190000D03*
X137680000Y-115730000D03*
X137680000Y-118270000D03*
X137680000Y-120810000D03*
X137680000Y-123350000D03*
X137680000Y-125890000D03*
X137680000Y-128430000D03*
X137680000Y-130970000D03*
X152920000Y-130970000D03*
X152920000Y-128430000D03*
X152920000Y-125890000D03*
X152920000Y-123350000D03*
X152920000Y-120810000D03*
X152920000Y-118270000D03*
X152920000Y-115730000D03*
X152920000Y-113190000D03*
X152920000Y-110650000D03*
X152920000Y-108110000D03*
X152920000Y-105570000D03*
X152920000Y-103030000D03*
X140220000Y-125890000D03*
X142760000Y-125890000D03*
X145300000Y-125890000D03*
%TD*%
D16*
%TO.C,S21*%
X150080000Y-136000000D03*
D17*
X148810000Y-138540000D03*
D18*
X145000000Y-136000000D03*
D17*
X142460000Y-141080000D03*
D16*
X139920000Y-136000000D03*
D28*
X152085000Y-138540000D03*
X139158000Y-141080000D03*
%TD*%
D29*
%TO.C,B1*%
X145000000Y-98625000D03*
X145000000Y-101375000D03*
%TD*%
D13*
%TO.C,D16*%
X136500000Y-163310000D03*
D14*
X136500000Y-161150000D03*
X136500000Y-157850000D03*
D15*
X136500000Y-155690000D03*
%TD*%
D13*
%TO.C,D9*%
X79500000Y-122310000D03*
D14*
X79500000Y-120150000D03*
X79500000Y-116850000D03*
D15*
X79500000Y-114690000D03*
%TD*%
D16*
%TO.C,S20*%
X164445508Y-175002963D03*
D17*
X166287362Y-177164462D03*
D18*
X162460594Y-179679128D03*
D17*
X166144302Y-184002124D03*
D16*
X160475680Y-184355293D03*
D30*
X167567006Y-174149808D03*
X164854106Y-187041631D03*
%TD*%
D16*
%TO.C,S4*%
X69000000Y-154920000D03*
D17*
X71540000Y-156190000D03*
D18*
X69000000Y-160000000D03*
D17*
X74080000Y-162540000D03*
D16*
X69000000Y-165080000D03*
D19*
X71540000Y-152915000D03*
X74080000Y-165842000D03*
%TD*%
D13*
%TO.C,D15*%
X117500000Y-122310000D03*
D14*
X117500000Y-120150000D03*
X117500000Y-116850000D03*
D15*
X117500000Y-114690000D03*
%TD*%
D16*
%TO.C,S6*%
X69000000Y-116920000D03*
D17*
X71540000Y-118190000D03*
D18*
X69000000Y-122000000D03*
D17*
X74080000Y-124540000D03*
D16*
X69000000Y-127080000D03*
D19*
X71540000Y-114915000D03*
X74080000Y-127842000D03*
%TD*%
D16*
%TO.C,S15*%
X126000000Y-108920000D03*
D17*
X128540000Y-110190000D03*
D18*
X126000000Y-114000000D03*
D17*
X131080000Y-116540000D03*
D16*
X126000000Y-119080000D03*
D19*
X128540000Y-106915000D03*
X131080000Y-119842000D03*
%TD*%
D16*
%TO.C,S5*%
X69000000Y-135920000D03*
D17*
X71540000Y-137190000D03*
D18*
X69000000Y-141000000D03*
D17*
X74080000Y-143540000D03*
D16*
X69000000Y-146080000D03*
D19*
X71540000Y-133915000D03*
X74080000Y-146842000D03*
%TD*%
D13*
%TO.C,D2*%
X41500000Y-149310000D03*
D14*
X41500000Y-147150000D03*
X41500000Y-143850000D03*
D15*
X41500000Y-141690000D03*
%TD*%
D16*
%TO.C,S18*%
X116500000Y-170670000D03*
D17*
X119040000Y-171940000D03*
D18*
X116500000Y-175750000D03*
D17*
X121580000Y-178290000D03*
D16*
X116500000Y-180830000D03*
D19*
X119040000Y-168665000D03*
X121580000Y-181592000D03*
%TD*%
D13*
%TO.C,D12*%
X98500000Y-117310000D03*
D14*
X98500000Y-115150000D03*
X98500000Y-111850000D03*
D15*
X98500000Y-109690000D03*
%TD*%
D13*
%TO.C,D13*%
X117500000Y-160310000D03*
D14*
X117500000Y-158150000D03*
X117500000Y-154850000D03*
D15*
X117500000Y-152690000D03*
%TD*%
D16*
%TO.C,S7*%
X88000000Y-146920000D03*
D17*
X90540000Y-148190000D03*
D18*
X88000000Y-152000000D03*
D17*
X93080000Y-154540000D03*
D16*
X88000000Y-157080000D03*
D19*
X90540000Y-144915000D03*
X93080000Y-157842000D03*
%TD*%
D31*
%TO.C,D20*%
X145310000Y-144000000D03*
D32*
X143150000Y-144000000D03*
X139850000Y-144000000D03*
D15*
X137690000Y-144000000D03*
%TD*%
D16*
%TO.C,S16*%
X145000000Y-149920000D03*
D17*
X147540000Y-151190000D03*
D18*
X145000000Y-155000000D03*
D17*
X150080000Y-157540000D03*
D16*
X145000000Y-160080000D03*
D19*
X147540000Y-147915000D03*
X150080000Y-160842000D03*
%TD*%
D16*
%TO.C,S3*%
X50000000Y-116920000D03*
D17*
X52540000Y-118190000D03*
D18*
X50000000Y-122000000D03*
D17*
X55080000Y-124540000D03*
D16*
X50000000Y-127080000D03*
D19*
X52540000Y-114915000D03*
X55080000Y-127842000D03*
%TD*%
M02*
