%TF.GenerationSoftware,KiCad,Pcbnew,8.0.6*%
%TF.CreationDate,2024-12-24T11:18:05+01:00*%
%TF.ProjectId,left,6c656674-2e6b-4696-9361-645f70636258,v1.0.0*%
%TF.SameCoordinates,Original*%
%TF.FileFunction,Copper,L2,Bot*%
%TF.FilePolarity,Positive*%
%FSLAX46Y46*%
G04 Gerber Fmt 4.6, Leading zero omitted, Abs format (unit mm)*
G04 Created by KiCad (PCBNEW 8.0.6) date 2024-12-24 11:18:05*
%MOMM*%
%LPD*%
G01*
G04 APERTURE LIST*
G04 Aperture macros list*
%AMRotRect*
0 Rectangle, with rotation*
0 The origin of the aperture is its center*
0 $1 length*
0 $2 width*
0 $3 Rotation angle, in degrees counterclockwise*
0 Add horizontal line*
21,1,$1,$2,0,0,$3*%
G04 Aperture macros list end*
%TA.AperFunction,SMDPad,CuDef*%
%ADD10R,0.900000X0.900000*%
%TD*%
%TA.AperFunction,WasherPad*%
%ADD11C,1.000000*%
%TD*%
%TA.AperFunction,SMDPad,CuDef*%
%ADD12R,0.900000X1.250000*%
%TD*%
%TA.AperFunction,ComponentPad*%
%ADD13R,1.778000X1.778000*%
%TD*%
%TA.AperFunction,SMDPad,CuDef*%
%ADD14R,1.200000X0.900000*%
%TD*%
%TA.AperFunction,ComponentPad*%
%ADD15C,1.905000*%
%TD*%
%TA.AperFunction,SMDPad,CuDef*%
%ADD16R,2.500000X2.550000*%
%TD*%
%TA.AperFunction,ComponentPad*%
%ADD17RotRect,1.778000X1.778000X67.000000*%
%TD*%
%TA.AperFunction,SMDPad,CuDef*%
%ADD18RotRect,0.900000X1.200000X67.000000*%
%TD*%
%TA.AperFunction,SMDPad,CuDef*%
%ADD19RotRect,2.550000X2.500000X262.000000*%
%TD*%
%TA.AperFunction,ComponentPad*%
%ADD20RotRect,1.778000X1.778000X82.000000*%
%TD*%
%TA.AperFunction,SMDPad,CuDef*%
%ADD21RotRect,0.900000X1.200000X82.000000*%
%TD*%
%TA.AperFunction,ComponentPad*%
%ADD22R,1.700000X1.200000*%
%TD*%
%TA.AperFunction,ComponentPad*%
%ADD23O,1.700000X1.200000*%
%TD*%
%TA.AperFunction,ComponentPad*%
%ADD24C,1.752600*%
%TD*%
%TA.AperFunction,SMDPad,CuDef*%
%ADD25R,2.550000X2.500000*%
%TD*%
%TA.AperFunction,SMDPad,CuDef*%
%ADD26RotRect,2.550000X2.500000X247.000000*%
%TD*%
%TA.AperFunction,SMDPad,CuDef*%
%ADD27R,0.900000X1.200000*%
%TD*%
%TA.AperFunction,ViaPad*%
%ADD28C,0.800000*%
%TD*%
%TA.AperFunction,Conductor*%
%ADD29C,0.250000*%
%TD*%
G04 APERTURE END LIST*
D10*
%TO.P,T1,*%
%TO.N,*%
X129550000Y-98400000D03*
X129550000Y-100600000D03*
D11*
X131750000Y-99500000D03*
X134750000Y-99500000D03*
D10*
X136950000Y-98400000D03*
X136950000Y-100600000D03*
D12*
%TO.P,T1,1*%
%TO.N,pos*%
X131000000Y-101575000D03*
%TO.P,T1,2*%
%TO.N,RAW*%
X134000000Y-101575000D03*
%TO.P,T1,3*%
%TO.N,N/C*%
X135500000Y-101575000D03*
%TD*%
D13*
%TO.P,D4,1*%
%TO.N,P011*%
X60500000Y-168310000D03*
D14*
X60500000Y-166150000D03*
%TO.P,D4,2*%
%TO.N,ColB_Row1*%
X60500000Y-162850000D03*
D15*
X60500000Y-160690000D03*
%TD*%
D13*
%TO.P,D5,1*%
%TO.N,P009*%
X60500000Y-149310000D03*
D14*
X60500000Y-147150000D03*
%TO.P,D5,2*%
%TO.N,ColB_Row2*%
X60500000Y-143850000D03*
D15*
X60500000Y-141690000D03*
%TD*%
D16*
%TO.P,S13,1*%
%TO.N,P022*%
X128540000Y-144915000D03*
%TO.P,S13,2*%
%TO.N,ColE_Row1*%
X131080000Y-157842000D03*
%TD*%
D17*
%TO.P,D19,1*%
%TO.N,P115*%
X151389326Y-184007308D03*
D18*
X152233307Y-182019018D03*
%TO.P,D19,2*%
%TO.N,ColF_Row0*%
X153522719Y-178981352D03*
D15*
X154366700Y-176993062D03*
%TD*%
D16*
%TO.P,S17,1*%
%TO.N,P029*%
X147540000Y-109915000D03*
%TO.P,S17,2*%
%TO.N,ColF_Row3*%
X150080000Y-122842000D03*
%TD*%
%TO.P,S8,1*%
%TO.N,P017*%
X90540000Y-125915000D03*
%TO.P,S8,2*%
%TO.N,ColC_Row2*%
X93080000Y-138842000D03*
%TD*%
D13*
%TO.P,D10,1*%
%TO.N,P011*%
X98500000Y-155310000D03*
D14*
X98500000Y-153150000D03*
%TO.P,D10,2*%
%TO.N,ColD_Row1*%
X98500000Y-149850000D03*
D15*
X98500000Y-147690000D03*
%TD*%
D19*
%TO.P,S19,1*%
%TO.N,P022*%
X141693780Y-171485505D03*
%TO.P,S19,2*%
%TO.N,ColE_Row0*%
X142409971Y-184640200D03*
%TD*%
D16*
%TO.P,S1,1*%
%TO.N,P006*%
X52540000Y-152915000D03*
%TO.P,S1,2*%
%TO.N,ColA_Row1*%
X55080000Y-165842000D03*
%TD*%
D20*
%TO.P,D18,1*%
%TO.N,P115*%
X128618650Y-185194211D03*
D21*
X128919265Y-183055232D03*
%TO.P,D18,2*%
%TO.N,ColE_Row0*%
X129378537Y-179787348D03*
D15*
X129679152Y-177648369D03*
%TD*%
D16*
%TO.P,S9,1*%
%TO.N,P017*%
X90540000Y-106915000D03*
%TO.P,S9,2*%
%TO.N,ColC_Row3*%
X93080000Y-119842000D03*
%TD*%
%TO.P,S14,1*%
%TO.N,P022*%
X128540000Y-125915000D03*
%TO.P,S14,2*%
%TO.N,ColE_Row2*%
X131080000Y-138842000D03*
%TD*%
D13*
%TO.P,D8,1*%
%TO.N,P009*%
X79500000Y-141310000D03*
D14*
X79500000Y-139150000D03*
%TO.P,D8,2*%
%TO.N,ColC_Row2*%
X79500000Y-135850000D03*
D15*
X79500000Y-133690000D03*
%TD*%
D16*
%TO.P,S12,1*%
%TO.N,P020*%
X109540000Y-101915000D03*
%TO.P,S12,2*%
%TO.N,ColD_Row3*%
X112080000Y-114842000D03*
%TD*%
%TO.P,S10,1*%
%TO.N,P020*%
X109540000Y-139915000D03*
%TO.P,S10,2*%
%TO.N,ColD_Row1*%
X112080000Y-152842000D03*
%TD*%
D13*
%TO.P,D21,1*%
%TO.N,P100*%
X141500000Y-122810000D03*
D14*
X141500000Y-120650000D03*
%TO.P,D21,2*%
%TO.N,ColF_Row3*%
X141500000Y-117350000D03*
D15*
X141500000Y-115190000D03*
%TD*%
D13*
%TO.P,D6,1*%
%TO.N,P100*%
X60500000Y-130310000D03*
D14*
X60500000Y-128150000D03*
%TO.P,D6,2*%
%TO.N,ColB_Row3*%
X60500000Y-124850000D03*
D15*
X60500000Y-122690000D03*
%TD*%
D22*
%TO.P,JST1,1*%
%TO.N,pos*%
X123000000Y-107000000D03*
D23*
%TO.P,JST1,2*%
%TO.N,GND*%
X123000000Y-109000000D03*
%TD*%
D16*
%TO.P,S11,1*%
%TO.N,P020*%
X109540000Y-120915000D03*
%TO.P,S11,2*%
%TO.N,ColD_Row2*%
X112080000Y-133842000D03*
%TD*%
D13*
%TO.P,D11,1*%
%TO.N,P009*%
X98500000Y-136310000D03*
D14*
X98500000Y-134150000D03*
%TO.P,D11,2*%
%TO.N,ColD_Row2*%
X98500000Y-130850000D03*
D15*
X98500000Y-128690000D03*
%TD*%
D13*
%TO.P,D1,1*%
%TO.N,P011*%
X41500000Y-168310000D03*
D14*
X41500000Y-166150000D03*
%TO.P,D1,2*%
%TO.N,ColA_Row1*%
X41500000Y-162850000D03*
D15*
X41500000Y-160690000D03*
%TD*%
D16*
%TO.P,S2,1*%
%TO.N,P006*%
X52540000Y-133915000D03*
%TO.P,S2,2*%
%TO.N,ColA_Row2*%
X55080000Y-146842000D03*
%TD*%
D13*
%TO.P,D3,1*%
%TO.N,P100*%
X41500000Y-130310000D03*
D14*
X41500000Y-128150000D03*
%TO.P,D3,2*%
%TO.N,ColA_Row3*%
X41500000Y-124850000D03*
D15*
X41500000Y-122690000D03*
%TD*%
D13*
%TO.P,D14,1*%
%TO.N,P009*%
X117500000Y-141310000D03*
D14*
X117500000Y-139150000D03*
%TO.P,D14,2*%
%TO.N,ColE_Row2*%
X117500000Y-135850000D03*
D15*
X117500000Y-133690000D03*
%TD*%
D13*
%TO.P,D7,1*%
%TO.N,P011*%
X79500000Y-160310000D03*
D14*
X79500000Y-158150000D03*
%TO.P,D7,2*%
%TO.N,ColC_Row1*%
X79500000Y-154850000D03*
D15*
X79500000Y-152690000D03*
%TD*%
D13*
%TO.P,D17,1*%
%TO.N,P115*%
X108000000Y-184060000D03*
D14*
X108000000Y-181900000D03*
%TO.P,D17,2*%
%TO.N,ColD_Row0*%
X108000000Y-178600000D03*
D15*
X108000000Y-176440000D03*
%TD*%
D24*
%TO.P,MCU1,1*%
%TO.N,P006*%
X137680000Y-103030000D03*
%TO.P,MCU1,2*%
%TO.N,P008*%
X137680000Y-105570000D03*
%TO.P,MCU1,3*%
%TO.N,GND*%
X137680000Y-108110000D03*
%TO.P,MCU1,4*%
X137680000Y-110650000D03*
%TO.P,MCU1,5*%
%TO.N,P017*%
X137680000Y-113190000D03*
%TO.P,MCU1,6*%
%TO.N,P020*%
X137680000Y-115730000D03*
%TO.P,MCU1,7*%
%TO.N,P022*%
X137680000Y-118270000D03*
%TO.P,MCU1,8*%
%TO.N,P024*%
X137680000Y-120810000D03*
%TO.P,MCU1,9*%
%TO.N,P100*%
X137680000Y-123350000D03*
%TO.P,MCU1,10*%
%TO.N,P011*%
X137680000Y-125890000D03*
%TO.P,MCU1,11*%
%TO.N,P104*%
X137680000Y-128430000D03*
%TO.P,MCU1,12*%
%TO.N,P106*%
X137680000Y-130970000D03*
%TO.P,MCU1,13*%
%TO.N,P009*%
X152920000Y-130970000D03*
%TO.P,MCU1,14*%
%TO.N,P010*%
X152920000Y-128430000D03*
%TO.P,MCU1,15*%
%TO.N,P111*%
X152920000Y-125890000D03*
%TO.P,MCU1,16*%
%TO.N,P113*%
X152920000Y-123350000D03*
%TO.P,MCU1,17*%
%TO.N,P115*%
X152920000Y-120810000D03*
%TO.P,MCU1,18*%
%TO.N,P002*%
X152920000Y-118270000D03*
%TO.P,MCU1,19*%
%TO.N,P029*%
X152920000Y-115730000D03*
%TO.P,MCU1,20*%
%TO.N,P031*%
X152920000Y-113190000D03*
%TO.P,MCU1,21*%
%TO.N,VCC*%
X152920000Y-110650000D03*
%TO.P,MCU1,22*%
%TO.N,RST*%
X152920000Y-108110000D03*
%TO.P,MCU1,23*%
%TO.N,GND*%
X152920000Y-105570000D03*
%TO.P,MCU1,24*%
%TO.N,RAW*%
X152920000Y-103030000D03*
%TO.P,MCU1,31*%
%TO.N,P101*%
X140220000Y-125890000D03*
%TO.P,MCU1,32*%
%TO.N,P102*%
X142760000Y-125890000D03*
%TO.P,MCU1,33*%
%TO.N,P107*%
X145300000Y-125890000D03*
%TD*%
D25*
%TO.P,S21,1*%
%TO.N,P029*%
X152085000Y-138540000D03*
%TO.P,S21,2*%
%TO.N,ColF_Row2*%
X139158000Y-141080000D03*
%TD*%
D13*
%TO.P,D16,1*%
%TO.N,P011*%
X136500000Y-163310000D03*
D14*
X136500000Y-161150000D03*
%TO.P,D16,2*%
%TO.N,ColF_Row1*%
X136500000Y-157850000D03*
D15*
X136500000Y-155690000D03*
%TD*%
D13*
%TO.P,D9,1*%
%TO.N,P100*%
X79500000Y-122310000D03*
D14*
X79500000Y-120150000D03*
%TO.P,D9,2*%
%TO.N,ColC_Row3*%
X79500000Y-116850000D03*
D15*
X79500000Y-114690000D03*
%TD*%
D26*
%TO.P,S20,1*%
%TO.N,P029*%
X167567006Y-174149808D03*
%TO.P,S20,2*%
%TO.N,ColF_Row0*%
X164854106Y-187041631D03*
%TD*%
D16*
%TO.P,S4,1*%
%TO.N,P008*%
X71540000Y-152915000D03*
%TO.P,S4,2*%
%TO.N,ColB_Row1*%
X74080000Y-165842000D03*
%TD*%
D13*
%TO.P,D15,1*%
%TO.N,P100*%
X117500000Y-122310000D03*
D14*
X117500000Y-120150000D03*
%TO.P,D15,2*%
%TO.N,ColE_Row3*%
X117500000Y-116850000D03*
D15*
X117500000Y-114690000D03*
%TD*%
D16*
%TO.P,S6,1*%
%TO.N,P008*%
X71540000Y-114915000D03*
%TO.P,S6,2*%
%TO.N,ColB_Row3*%
X74080000Y-127842000D03*
%TD*%
%TO.P,S15,1*%
%TO.N,P022*%
X128540000Y-106915000D03*
%TO.P,S15,2*%
%TO.N,ColE_Row3*%
X131080000Y-119842000D03*
%TD*%
%TO.P,S5,1*%
%TO.N,P008*%
X71540000Y-133915000D03*
%TO.P,S5,2*%
%TO.N,ColB_Row2*%
X74080000Y-146842000D03*
%TD*%
D13*
%TO.P,D2,1*%
%TO.N,P009*%
X41500000Y-149310000D03*
D14*
X41500000Y-147150000D03*
%TO.P,D2,2*%
%TO.N,ColA_Row2*%
X41500000Y-143850000D03*
D15*
X41500000Y-141690000D03*
%TD*%
D16*
%TO.P,S18,1*%
%TO.N,P020*%
X119040000Y-168665000D03*
%TO.P,S18,2*%
%TO.N,ColD_Row0*%
X121580000Y-181592000D03*
%TD*%
D13*
%TO.P,D12,1*%
%TO.N,P100*%
X98500000Y-117310000D03*
D14*
X98500000Y-115150000D03*
%TO.P,D12,2*%
%TO.N,ColD_Row3*%
X98500000Y-111850000D03*
D15*
X98500000Y-109690000D03*
%TD*%
D13*
%TO.P,D13,1*%
%TO.N,P011*%
X117500000Y-160310000D03*
D14*
X117500000Y-158150000D03*
%TO.P,D13,2*%
%TO.N,ColE_Row1*%
X117500000Y-154850000D03*
D15*
X117500000Y-152690000D03*
%TD*%
D16*
%TO.P,S7,1*%
%TO.N,P017*%
X90540000Y-144915000D03*
%TO.P,S7,2*%
%TO.N,ColC_Row1*%
X93080000Y-157842000D03*
%TD*%
D13*
%TO.P,D20,1*%
%TO.N,P009*%
X145310000Y-144000000D03*
D27*
X143150000Y-144000000D03*
%TO.P,D20,2*%
%TO.N,ColF_Row2*%
X139850000Y-144000000D03*
D15*
X137690000Y-144000000D03*
%TD*%
D16*
%TO.P,S16,1*%
%TO.N,P029*%
X147540000Y-147915000D03*
%TO.P,S16,2*%
%TO.N,ColF_Row1*%
X150080000Y-160842000D03*
%TD*%
%TO.P,S3,1*%
%TO.N,P006*%
X52540000Y-114915000D03*
%TO.P,S3,2*%
%TO.N,ColA_Row3*%
X55080000Y-127842000D03*
%TD*%
D28*
%TO.N,P006*%
X58000000Y-112600000D03*
X126600000Y-102200000D03*
%TO.N,P020*%
X131500000Y-123500000D03*
X135000000Y-123500000D03*
X135000000Y-117000000D03*
X135000000Y-119500000D03*
%TO.N,P011*%
X135600000Y-141600000D03*
X135600000Y-149000000D03*
%TO.N,pos*%
X128425000Y-101575000D03*
X123000000Y-105000000D03*
%TD*%
D29*
%TO.N,ColF_Row1*%
X136500000Y-157850000D02*
X137350000Y-157850000D01*
X137350000Y-157850000D02*
X139000000Y-159500000D01*
X139000000Y-159500000D02*
X139000000Y-162000000D01*
X139000000Y-162000000D02*
X140500000Y-163500000D01*
X140500000Y-163500000D02*
X147422000Y-163500000D01*
X147422000Y-163500000D02*
X150080000Y-160842000D01*
%TO.N,ColF_Row0*%
X153522719Y-178981352D02*
X154500000Y-179958633D01*
X154500000Y-179958633D02*
X154500000Y-184300000D01*
X154500000Y-184300000D02*
X157241631Y-187041631D01*
X157241631Y-187041631D02*
X164854107Y-187041631D01*
%TO.N,ColE_Row0*%
X129378537Y-179787348D02*
X131500000Y-181908811D01*
X131500000Y-181908811D02*
X131500000Y-183500000D01*
X131500000Y-183500000D02*
X132640200Y-184640200D01*
X132640200Y-184640200D02*
X142409971Y-184640200D01*
%TO.N,ColD_Row0*%
X108000000Y-178600000D02*
X109100000Y-178600000D01*
X109100000Y-178600000D02*
X111000000Y-180500000D01*
X111000000Y-180500000D02*
X111000000Y-182800000D01*
X111000000Y-182800000D02*
X112700000Y-184500000D01*
X112700000Y-184500000D02*
X118672000Y-184500000D01*
X118672000Y-184500000D02*
X121580000Y-181592000D01*
%TO.N,ColE_Row1*%
X117500000Y-154850000D02*
X118850000Y-154850000D01*
X121900000Y-159500000D02*
X129422000Y-159500000D01*
X118850000Y-154850000D02*
X120000000Y-156000000D01*
X120000000Y-156000000D02*
X120000000Y-157600000D01*
X120000000Y-157600000D02*
X121900000Y-159500000D01*
X129422000Y-159500000D02*
X131080000Y-157842000D01*
%TO.N,ColE_Row2*%
X118850000Y-135850000D02*
X120000000Y-137000000D01*
X120000000Y-137000000D02*
X120000000Y-139000000D01*
X120000000Y-139000000D02*
X122000000Y-141000000D01*
X117500000Y-135850000D02*
X118850000Y-135850000D01*
X128922000Y-141000000D02*
X131080000Y-138842000D01*
X122000000Y-141000000D02*
X128922000Y-141000000D01*
%TO.N,ColE_Row3*%
X117500000Y-116850000D02*
X119350000Y-116850000D01*
X122200000Y-122000000D02*
X128922000Y-122000000D01*
X119350000Y-116850000D02*
X120500000Y-118000000D01*
X120500000Y-118000000D02*
X120500000Y-120300000D01*
X120500000Y-120300000D02*
X122200000Y-122000000D01*
X128922000Y-122000000D02*
X131080000Y-119842000D01*
%TO.N,ColD_Row3*%
X98500000Y-111850000D02*
X100350000Y-111850000D01*
X100350000Y-111850000D02*
X101500000Y-113000000D01*
X103400000Y-117000000D02*
X109922000Y-117000000D01*
X101500000Y-113000000D02*
X101500000Y-115100000D01*
X101500000Y-115100000D02*
X103400000Y-117000000D01*
X109922000Y-117000000D02*
X112080000Y-114842000D01*
%TO.N,ColD_Row2*%
X98500000Y-130850000D02*
X99850000Y-130850000D01*
X101500000Y-132500000D02*
X101500000Y-134900000D01*
X99850000Y-130850000D02*
X101500000Y-132500000D01*
X101500000Y-134900000D02*
X103600000Y-137000000D01*
X103600000Y-137000000D02*
X108922000Y-137000000D01*
X108922000Y-137000000D02*
X112080000Y-133842000D01*
%TO.N,ColD_Row1*%
X98500000Y-149850000D02*
X99850000Y-149850000D01*
X99850000Y-149850000D02*
X101600000Y-151600000D01*
X101600000Y-151600000D02*
X101600000Y-153600000D01*
X104000000Y-156000000D02*
X108922000Y-156000000D01*
X101600000Y-153600000D02*
X104000000Y-156000000D01*
X108922000Y-156000000D02*
X112080000Y-152842000D01*
%TO.N,ColC_Row1*%
X82400000Y-156400000D02*
X82400000Y-158000000D01*
X80850000Y-154850000D02*
X82400000Y-156400000D01*
X84400000Y-160000000D02*
X90922000Y-160000000D01*
X82400000Y-158000000D02*
X84400000Y-160000000D01*
X79500000Y-154850000D02*
X80850000Y-154850000D01*
X90922000Y-160000000D02*
X93080000Y-157842000D01*
%TO.N,ColC_Row2*%
X79500000Y-133690000D02*
X81190000Y-133690000D01*
X82500000Y-138300000D02*
X84700000Y-140500000D01*
X81190000Y-133690000D02*
X82500000Y-135000000D01*
X82500000Y-135000000D02*
X82500000Y-138300000D01*
X84700000Y-140500000D02*
X91422000Y-140500000D01*
X91422000Y-140500000D02*
X93080000Y-138842000D01*
%TO.N,ColC_Row3*%
X79500000Y-116850000D02*
X80850000Y-116850000D01*
X82600000Y-118600000D02*
X82600000Y-120400000D01*
X80850000Y-116850000D02*
X82600000Y-118600000D01*
X84200000Y-122000000D02*
X90922000Y-122000000D01*
X82600000Y-120400000D02*
X84200000Y-122000000D01*
X90922000Y-122000000D02*
X93080000Y-119842000D01*
%TO.N,ColB_Row3*%
X63500000Y-126500000D02*
X63500000Y-128300000D01*
X61850000Y-124850000D02*
X63500000Y-126500000D01*
X60500000Y-124850000D02*
X61850000Y-124850000D01*
X63500000Y-128300000D02*
X65200000Y-130000000D01*
X71922000Y-130000000D02*
X74080000Y-127842000D01*
X65200000Y-130000000D02*
X71922000Y-130000000D01*
%TO.N,ColB_Row2*%
X62250000Y-143850000D02*
X63800000Y-145400000D01*
X65200000Y-149000000D02*
X71922000Y-149000000D01*
X63800000Y-145400000D02*
X63800000Y-147600000D01*
X60500000Y-143850000D02*
X62250000Y-143850000D01*
X63800000Y-147600000D02*
X65200000Y-149000000D01*
X71922000Y-149000000D02*
X74080000Y-146842000D01*
%TO.N,ColB_Row1*%
X60500000Y-162850000D02*
X61850000Y-162850000D01*
X61850000Y-162850000D02*
X63500000Y-164500000D01*
X63500000Y-164500000D02*
X63500000Y-166100000D01*
X63500000Y-166100000D02*
X65400000Y-168000000D01*
X65400000Y-168000000D02*
X71922000Y-168000000D01*
X71922000Y-168000000D02*
X74080000Y-165842000D01*
%TO.N,ColA_Row1*%
X41500000Y-162850000D02*
X43350000Y-162850000D01*
X46800000Y-168000000D02*
X52922000Y-168000000D01*
X43350000Y-162850000D02*
X45000000Y-164500000D01*
X52922000Y-168000000D02*
X55080000Y-165842000D01*
X45000000Y-164500000D02*
X45000000Y-166200000D01*
X45000000Y-166200000D02*
X46800000Y-168000000D01*
%TO.N,ColA_Row2*%
X41500000Y-143850000D02*
X43350000Y-143850000D01*
X43350000Y-143850000D02*
X44800000Y-145300000D01*
X44800000Y-147200000D02*
X46600000Y-149000000D01*
X44800000Y-145300000D02*
X44800000Y-147200000D01*
X46600000Y-149000000D02*
X52922000Y-149000000D01*
X52922000Y-149000000D02*
X55080000Y-146842000D01*
%TO.N,ColA_Row3*%
X41500000Y-124850000D02*
X43350000Y-124850000D01*
X47000000Y-130000000D02*
X52922000Y-130000000D01*
X52922000Y-130000000D02*
X55080000Y-127842000D01*
X43350000Y-124850000D02*
X45000000Y-126500000D01*
X45000000Y-126500000D02*
X45000000Y-128000000D01*
X45000000Y-128000000D02*
X47000000Y-130000000D01*
%TO.N,P006*%
X129800000Y-102700000D02*
X137350000Y-102700000D01*
X137350000Y-102700000D02*
X137680000Y-103030000D01*
X129400000Y-102300000D02*
X129800000Y-102700000D01*
X55085000Y-133915000D02*
X58000000Y-131000000D01*
X52540000Y-152915000D02*
X56085000Y-152915000D01*
X58000000Y-131000000D02*
X58000000Y-118000000D01*
X126700000Y-102300000D02*
X129400000Y-102300000D01*
X52540000Y-133915000D02*
X55085000Y-133915000D01*
X58000000Y-118000000D02*
X54915000Y-114915000D01*
X54915000Y-114915000D02*
X52540000Y-114915000D01*
X55685000Y-114915000D02*
X58000000Y-112600000D01*
X126600000Y-102200000D02*
X126700000Y-102300000D01*
X52540000Y-114915000D02*
X55685000Y-114915000D01*
X56085000Y-152915000D02*
X58000000Y-151000000D01*
X58000000Y-151000000D02*
X58000000Y-131000000D01*
X137650000Y-103000000D02*
X137680000Y-103030000D01*
%TO.N,ColA_Row1*%
X41500000Y-160690000D02*
X41500000Y-162850000D01*
%TO.N,ColA_Row2*%
X41500000Y-141690000D02*
X41500000Y-143850000D01*
%TO.N,ColA_Row3*%
X41500000Y-122690000D02*
X41500000Y-124850000D01*
%TO.N,P008*%
X132170000Y-105570000D02*
X137680000Y-105570000D01*
X130000000Y-103400000D02*
X132170000Y-105570000D01*
X118200000Y-103400000D02*
X130000000Y-103400000D01*
X95400000Y-105000000D02*
X101800000Y-98600000D01*
X113400000Y-98600000D02*
X118200000Y-103400000D01*
X76915000Y-114915000D02*
X71540000Y-114915000D01*
X71540000Y-152915000D02*
X75085000Y-152915000D01*
X101800000Y-98600000D02*
X113400000Y-98600000D01*
X77000000Y-115000000D02*
X76915000Y-114915000D01*
X71540000Y-133915000D02*
X74585000Y-133915000D01*
X77000000Y-151000000D02*
X77000000Y-131500000D01*
X74585000Y-133915000D02*
X77000000Y-131500000D01*
X77000000Y-131500000D02*
X77000000Y-115000000D01*
X86830000Y-105000000D02*
X95400000Y-105000000D01*
X75085000Y-152915000D02*
X77000000Y-151000000D01*
X76915000Y-114915000D02*
X86830000Y-105000000D01*
%TO.N,ColB_Row1*%
X60500000Y-160690000D02*
X60500000Y-162850000D01*
%TO.N,ColB_Row2*%
X60500000Y-141690000D02*
X60500000Y-143850000D01*
%TO.N,ColB_Row3*%
X60500000Y-122690000D02*
X60500000Y-124850000D01*
%TO.N,P017*%
X116000000Y-104000000D02*
X129200000Y-104000000D01*
X129200000Y-104000000D02*
X134800000Y-109600000D01*
X112000000Y-100000000D02*
X116000000Y-104000000D01*
X108000000Y-100000000D02*
X112000000Y-100000000D01*
X135690000Y-113190000D02*
X137680000Y-113190000D01*
X134800000Y-109600000D02*
X134800000Y-112300000D01*
X96000000Y-142000000D02*
X96000000Y-123500000D01*
X93085000Y-144915000D02*
X96000000Y-142000000D01*
X134800000Y-112300000D02*
X135690000Y-113190000D01*
X94885000Y-106915000D02*
X96000000Y-105800000D01*
X90540000Y-125915000D02*
X93585000Y-125915000D01*
X91655000Y-105800000D02*
X90540000Y-106915000D01*
X102200000Y-105800000D02*
X108000000Y-100000000D01*
X96000000Y-105800000D02*
X102200000Y-105800000D01*
X90540000Y-106915000D02*
X94885000Y-106915000D01*
X96000000Y-123500000D02*
X96000000Y-105800000D01*
X93585000Y-125915000D02*
X96000000Y-123500000D01*
X90540000Y-144915000D02*
X93085000Y-144915000D01*
%TO.N,ColC_Row1*%
X79500000Y-152690000D02*
X79500000Y-154850000D01*
%TO.N,ColC_Row2*%
X79500000Y-135850000D02*
X79500000Y-133690000D01*
%TO.N,ColC_Row3*%
X79500000Y-114690000D02*
X79500000Y-116850000D01*
%TO.N,P020*%
X135000000Y-123500000D02*
X135000000Y-119500000D01*
X115000000Y-105400000D02*
X111515000Y-101915000D01*
X111515000Y-101915000D02*
X109540000Y-101915000D01*
X117165000Y-168665000D02*
X115000000Y-166500000D01*
X115000000Y-118000000D02*
X115000000Y-105400000D01*
X115000000Y-126000000D02*
X118500000Y-126000000D01*
X121000000Y-123500000D02*
X131500000Y-123500000D01*
X115000000Y-137500000D02*
X115000000Y-137000000D01*
X112585000Y-139915000D02*
X115000000Y-137500000D01*
X109540000Y-120915000D02*
X112085000Y-120915000D01*
X119040000Y-168665000D02*
X117165000Y-168665000D01*
X135000000Y-117000000D02*
X136270000Y-115730000D01*
X115000000Y-166500000D02*
X115000000Y-137000000D01*
X136270000Y-115730000D02*
X137680000Y-115730000D01*
X118500000Y-126000000D02*
X121000000Y-123500000D01*
X112085000Y-120915000D02*
X115000000Y-118000000D01*
X115000000Y-126000000D02*
X115000000Y-118000000D01*
X109540000Y-139915000D02*
X112585000Y-139915000D01*
X115000000Y-137000000D02*
X115000000Y-126000000D01*
%TO.N,ColD_Row1*%
X98500000Y-147690000D02*
X98500000Y-149850000D01*
%TO.N,ColD_Row2*%
X98500000Y-128690000D02*
X98500000Y-130850000D01*
%TO.N,ColD_Row3*%
X98500000Y-109690000D02*
X98500000Y-111850000D01*
%TO.N,P022*%
X134500000Y-143500000D02*
X134500000Y-169000000D01*
X133500000Y-109900000D02*
X130515000Y-106915000D01*
X128540000Y-125915000D02*
X132085000Y-125915000D01*
X133085000Y-144915000D02*
X134500000Y-143500000D01*
X132085000Y-125915000D02*
X133500000Y-124500000D01*
X136985505Y-171485505D02*
X141693780Y-171485505D01*
X133500000Y-121000000D02*
X133500000Y-109900000D01*
X134500000Y-143500000D02*
X133500000Y-142500000D01*
X133500000Y-142500000D02*
X133500000Y-123000000D01*
X130515000Y-106915000D02*
X128540000Y-106915000D01*
X133500000Y-123000000D02*
X133500000Y-121000000D01*
X128540000Y-144915000D02*
X133085000Y-144915000D01*
X134500000Y-169000000D02*
X136985505Y-171485505D01*
X133500000Y-121000000D02*
X133500000Y-118500000D01*
X133730000Y-118270000D02*
X137680000Y-118270000D01*
X133500000Y-118500000D02*
X133730000Y-118270000D01*
%TO.N,ColE_Row1*%
X117500000Y-152690000D02*
X117500000Y-154850000D01*
%TO.N,ColE_Row2*%
X117500000Y-133690000D02*
X117500000Y-135850000D01*
%TO.N,ColE_Row3*%
X117500000Y-114690000D02*
X117500000Y-116850000D01*
%TO.N,P029*%
X155500000Y-118310000D02*
X152920000Y-115730000D01*
X155500000Y-138540000D02*
X155500000Y-135125000D01*
X149500000Y-111000000D02*
X149500000Y-114500000D01*
X155500000Y-138540000D02*
X155500000Y-145000000D01*
X155500000Y-138540000D02*
X155500000Y-118310000D01*
X155500000Y-145000000D02*
X155500000Y-162082802D01*
X149500000Y-114500000D02*
X150730000Y-115730000D01*
X150730000Y-115730000D02*
X152920000Y-115730000D01*
X147540000Y-147915000D02*
X152585000Y-147915000D01*
X155500000Y-162082802D02*
X167567006Y-174149808D01*
X152585000Y-147915000D02*
X155500000Y-145000000D01*
X148415000Y-109915000D02*
X149500000Y-111000000D01*
X147540000Y-109915000D02*
X148415000Y-109915000D01*
X155500000Y-135125000D02*
X152085000Y-138540000D01*
%TO.N,ColF_Row1*%
X136500000Y-155690000D02*
X136500000Y-157850000D01*
%TO.N,ColF_Row3*%
X141500000Y-117350000D02*
X143518900Y-119368900D01*
X146606900Y-119368900D02*
X150080000Y-122842000D01*
X143518900Y-119368900D02*
X146606900Y-119368900D01*
X141500000Y-115190000D02*
X141500000Y-117350000D01*
%TO.N,ColD_Row0*%
X108000000Y-176440000D02*
X108000000Y-178600000D01*
%TO.N,ColE_Row0*%
X129679151Y-177648369D02*
X129679151Y-179486734D01*
X129679151Y-179486734D02*
X129378537Y-179787348D01*
%TO.N,ColF_Row0*%
X154366699Y-176993062D02*
X154366699Y-178137372D01*
X154366699Y-178137372D02*
X153522719Y-178981352D01*
%TO.N,ColF_Row2*%
X139850000Y-144000000D02*
X137690000Y-144000000D01*
X139158000Y-143308000D02*
X139850000Y-144000000D01*
X139158000Y-141080000D02*
X139158000Y-143308000D01*
%TO.N,RAW*%
X134000000Y-101575000D02*
X134000000Y-101500000D01*
X141030000Y-103030000D02*
X152920000Y-103030000D01*
X140000000Y-102500000D02*
X140500000Y-103000000D01*
X138825000Y-99825000D02*
X140000000Y-101000000D01*
X135675000Y-99825000D02*
X138825000Y-99825000D01*
X140000000Y-101000000D02*
X140000000Y-102500000D01*
X141000000Y-103000000D02*
X141030000Y-103030000D01*
X134000000Y-101500000D02*
X135675000Y-99825000D01*
X140500000Y-103000000D02*
X141000000Y-103000000D01*
%TO.N,P115*%
X151389327Y-182862998D02*
X152233307Y-182019018D01*
X151389327Y-184007308D02*
X151389327Y-182862998D01*
X128618651Y-183355846D02*
X128919265Y-183055232D01*
X108000000Y-184060000D02*
X108000000Y-181900000D01*
X128618651Y-185194211D02*
X128618651Y-183355846D01*
%TO.N,P009*%
X41500000Y-149310000D02*
X41500000Y-147150000D01*
X117500000Y-141310000D02*
X117500000Y-139150000D01*
X143150000Y-144000000D02*
X145310000Y-144000000D01*
X60500000Y-149310000D02*
X60500000Y-147150000D01*
X98500000Y-136310000D02*
X98500000Y-134150000D01*
X79500000Y-141310000D02*
X79500000Y-139150000D01*
%TO.N,P100*%
X117500000Y-120150000D02*
X117500000Y-122310000D01*
X41500000Y-128150000D02*
X41500000Y-130310000D01*
X79500000Y-122310000D02*
X79500000Y-120150000D01*
X98500000Y-117310000D02*
X98500000Y-115150000D01*
X141500000Y-122810000D02*
X141500000Y-120650000D01*
X60500000Y-130310000D02*
X60500000Y-128150000D01*
%TO.N,P011*%
X79500000Y-160310000D02*
X79500000Y-158150000D01*
X117500000Y-160310000D02*
X117500000Y-158150000D01*
X60500000Y-168310000D02*
X60500000Y-166150000D01*
X136500000Y-163310000D02*
X136500000Y-161150000D01*
X98500000Y-155310000D02*
X98500000Y-153150000D01*
X135600000Y-141600000D02*
X135600000Y-149000000D01*
X41500000Y-168310000D02*
X41500000Y-166150000D01*
%TO.N,pos*%
X131000000Y-101575000D02*
X128425000Y-101575000D01*
X123000000Y-107000000D02*
X123000000Y-105000000D01*
%TD*%
M02*
