M48
; DRILL file {KiCad 8.0.6} date 2024-12-24T11:18:03+0100
; FORMAT={-:-/ absolute / inch / decimal}
; #@! TF.CreationDate,2024-12-24T11:18:03+01:00
; #@! TF.GenerationSoftware,Kicad,Pcbnew,8.0.6
; #@! TF.FileFunction,NonPlated,1,2,NPTH
FMAT,2
INCH
; #@! TA.AperFunction,NonPlated,NPTH,ComponentDrill
T1C0.0295
; #@! TA.AperFunction,NonPlated,NPTH,ComponentDrill
T2C0.0354
; #@! TA.AperFunction,NonPlated,NPTH,ComponentDrill
T3C0.0670
; #@! TA.AperFunction,NonPlated,NPTH,ComponentDrill
T4C0.1181
; #@! TA.AperFunction,NonPlated,NPTH,ComponentDrill
T5C0.1570
%
G90
G05
T1
X5.7087Y-3.8829
X5.7087Y-3.9911
T2
X5.187Y-3.9173
X5.3051Y-3.9173
T3
X1.9685Y-4.6031
X1.9685Y-5.0031
X1.9685Y-5.3512
X1.9685Y-5.7512
X1.9685Y-6.0992
X1.9685Y-6.4992
X2.7165Y-4.6031
X2.7165Y-5.0031
X2.7165Y-5.3512
X2.7165Y-5.7512
X2.7165Y-6.0992
X2.7165Y-6.4992
X3.4646Y-4.2882
X3.4646Y-4.6882
X3.4646Y-5.0362
X3.4646Y-5.4362
X3.4646Y-5.7843
X3.4646Y-6.1843
X4.2126Y-4.0913
X4.2126Y-4.4913
X4.2126Y-4.8394
X4.2126Y-5.2394
X4.2126Y-5.5874
X4.2126Y-5.9874
X4.5866Y-6.7193
X4.5866Y-7.1193
X4.9606Y-4.2882
X4.9606Y-4.6882
X4.9606Y-5.0362
X4.9606Y-5.4362
X4.9606Y-5.7843
X4.9606Y-6.1843
X5.4128Y-7.2118
X5.4685Y-6.8156
X5.5087Y-5.3543
X5.7087Y-4.4063
X5.7087Y-4.8063
X5.7087Y-5.9024
X5.7087Y-6.3024
X5.9087Y-5.3543
X6.3179Y-7.2581
X6.4742Y-6.8899
T4
X2.0685Y-4.6531
X2.0685Y-5.4012
X2.0685Y-6.1492
X2.1685Y-4.9031
X2.1685Y-5.6512
X2.1685Y-6.3992
X2.8165Y-4.6531
X2.8165Y-5.4012
X2.8165Y-6.1492
X2.9165Y-4.9031
X2.9165Y-5.6512
X2.9165Y-6.3992
X3.5646Y-4.3382
X3.5646Y-5.0862
X3.5646Y-5.8343
X3.6646Y-4.5882
X3.6646Y-5.3362
X3.6646Y-6.0843
X4.3126Y-4.1413
X4.3126Y-4.8894
X4.3126Y-5.6374
X4.4126Y-4.3913
X4.4126Y-5.1394
X4.4126Y-5.8874
X4.6866Y-6.7693
X4.7866Y-7.0193
X5.0606Y-4.3382
X5.0606Y-5.0862
X5.0606Y-5.8343
X5.1606Y-4.5882
X5.1606Y-5.3362
X5.1606Y-6.0843
X5.5606Y-6.8791
X5.6087Y-5.5543
X5.6248Y-7.1406
X5.8087Y-4.4563
X5.8087Y-5.9524
X5.8587Y-5.4543
X5.9087Y-4.7063
X5.9087Y-6.2024
X6.5411Y-7.2442
X6.5467Y-6.975
T5
X1.9685Y-4.8031
X1.9685Y-5.5512
X1.9685Y-6.2992
X2.7165Y-4.8031
X2.7165Y-5.5512
X2.7165Y-6.2992
X3.4646Y-4.4882
X3.4646Y-5.2362
X3.4646Y-5.9843
X4.2126Y-4.2913
X4.2126Y-5.0394
X4.2126Y-5.7874
X4.5866Y-6.9193
X4.9606Y-4.4882
X4.9606Y-5.2362
X4.9606Y-5.9843
X5.4406Y-7.0137
X5.7087Y-4.6063
X5.7087Y-5.3543
X5.7087Y-6.1024
X6.3961Y-7.074
M30
