M48
; DRILL file {KiCad 8.0.6} date 2024-12-24T11:18:03+0100
; FORMAT={-:-/ absolute / inch / decimal}
; #@! TF.CreationDate,2024-12-24T11:18:03+01:00
; #@! TF.GenerationSoftware,Kicad,Pcbnew,8.0.6
; #@! TF.FileFunction,Plated,1,2,PTH
FMAT,2
INCH
; #@! TA.AperFunction,Plated,PTH,ViaDrill
T1C0.0157
; #@! TA.AperFunction,Plated,PTH,ComponentDrill
T2C0.0295
; #@! TA.AperFunction,Plated,PTH,ComponentDrill
T3C0.0390
; #@! TA.AperFunction,Plated,PTH,ComponentDrill
T4C0.0430
%
G90
G05
T1
X2.2835Y-4.4331
X4.8425Y-4.1339
X4.9843Y-4.0236
X5.0561Y-3.999
X5.1772Y-4.8622
X5.315Y-4.6063
X5.315Y-4.7047
X5.315Y-4.8622
X5.3386Y-5.5748
X5.3386Y-5.8661
T2
X4.8425Y-4.2126
X4.8425Y-4.2913
T3
X1.6339Y-4.8303
X1.6339Y-5.1303
X1.6339Y-5.5783
X1.6339Y-5.8783
X1.6339Y-6.3264
X1.6339Y-6.6264
X2.3819Y-4.8303
X2.3819Y-5.1303
X2.3819Y-5.5783
X2.3819Y-5.8783
X2.3819Y-6.3264
X2.3819Y-6.6264
X3.1299Y-4.5154
X3.1299Y-4.8154
X3.1299Y-5.2634
X3.1299Y-5.5634
X3.1299Y-6.0114
X3.1299Y-6.3114
X3.878Y-4.3185
X3.878Y-4.6185
X3.878Y-5.0665
X3.878Y-5.3665
X3.878Y-5.8146
X3.878Y-6.1146
X4.252Y-6.9465
X4.252Y-7.2465
X4.626Y-4.5154
X4.626Y-4.8154
X4.626Y-5.2634
X4.626Y-5.5634
X4.626Y-6.0114
X4.626Y-6.3114
X5.0637Y-7.2911
X5.1055Y-6.994
X5.374Y-6.1295
X5.374Y-6.4295
X5.4209Y-5.6693
X5.5709Y-4.535
X5.5709Y-4.835
X5.7209Y-5.6693
X5.9602Y-7.2444
X6.0774Y-6.9682
T4
X5.4205Y-4.0563
X5.4205Y-4.1563
X5.4205Y-4.2563
X5.4205Y-4.3563
X5.4205Y-4.4563
X5.4205Y-4.5563
X5.4205Y-4.6563
X5.4205Y-4.7563
X5.4205Y-4.8563
X5.4205Y-4.9563
X5.4205Y-5.0563
X5.4205Y-5.1563
X5.5205Y-4.9563
X5.6205Y-4.9563
X5.7205Y-4.9563
X6.0205Y-4.0563
X6.0205Y-4.1563
X6.0205Y-4.2563
X6.0205Y-4.3563
X6.0205Y-4.4563
X6.0205Y-4.5563
X6.0205Y-4.6563
X6.0205Y-4.7563
X6.0205Y-4.8563
X6.0205Y-4.9563
X6.0205Y-5.0563
X6.0205Y-5.1563
M30
