0
SECTION
2
HEADER
9
$INSUNITS
70
4
0
ENDSEC
0
SECTION
2
TABLES
0
TABLE
2
LTYPE
0
LTYPE
72
65
70
64
2
CONTINUOUS
3
______
73
0
40
0
0
ENDTAB
0
TABLE
2
LAYER
0
ENDTAB
0
ENDSEC
0
SECTION
2
ENTITIES
0
LINE
8
0
10
-10.025
20
-12.025
11
29.075
21
-12.025
0
LINE
8
0
10
-12.025
20
-10.025
11
-12.025
21
67.175
0
LINE
8
0
10
-10.025
20
69.175
11
24.075
21
69.175
0
LINE
8
0
10
31.075
20
-10.025
11
31.075
21
-6.025
0
LINE
8
0
10
33.075
20
-4.025
11
48.125
21
-4.025
0
LINE
8
0
10
50.125
20
-2.025
11
50.125
21
-1.025
0
LINE
8
0
10
43.125
20
77.175
11
28.075
21
77.175
0
LINE
8
0
10
26.075
20
75.175
11
26.075
21
71.175
0
LINE
8
0
10
52.125
20
0.975
11
62.175
21
0.975
0
LINE
8
0
10
69.175
20
79.175
11
69.175
21
80.175
0
LINE
8
0
10
67.175
20
82.175
11
47.125
21
82.175
0
LINE
8
0
10
45.125
20
80.175
11
45.125
21
79.175
0
LINE
8
0
10
66.175
20
-4.025
11
81.225
21
-4.025
0
LINE
8
0
10
64.175
20
-1.025
11
64.175
21
-2.025
0
LINE
8
0
10
88.225
20
76.175
11
88.225
21
77.175
0
LINE
8
0
10
88.225
20
77.175
11
71.175
21
77.175
0
LINE
8
0
10
83.225
20
-7.025
11
105.275
21
-7.025
0
LINE
8
0
10
107.275
20
-5.025
11
107.275
21
72.175
0
LINE
8
0
10
83.225
20
-6.025
11
83.225
21
-7.025
0
LINE
8
0
10
105.275
20
74.175
11
90.225
21
74.175
0
ARC
8
0
10
29.075
20
-10.025
40
2
50
270
51
0
0
ARC
8
0
10
33.075
20
-6.025
40
2
50
90
51
180
0
ARC
8
0
10
48.125
20
-2.025
40
2
50
270
51
0
0
ARC
8
0
10
52.125
20
-1.025
40
2
50
90
51
180
0
ARC
8
0
10
62.175
20
-1.025
40
2
50
0
51
90
0
ARC
8
0
10
66.175
20
-2.025
40
2
50
180
51
270
0
ARC
8
0
10
81.225
20
-6.025
40
2
50
0
51
90
0
ARC
8
0
10
105.275
20
-5.025
40
2
50
270
51
0
0
ARC
8
0
10
105.275
20
72.175
40
2
50
0
51
90
0
ARC
8
0
10
90.225
20
76.175
40
2
50
180
51
270
0
ARC
8
0
10
71.175
20
79.175
40
2
50
180
51
270
0
ARC
8
0
10
67.175
20
80.175
40
2
50
0
51
90
0
ARC
8
0
10
47.125
20
80.175
40
2
50
90
51
180
0
ARC
8
0
10
43.125
20
79.175
40
2
50
270
51
0
0
ARC
8
0
10
28.075
20
75.175
40
2
50
90
51
180
0
ARC
8
0
10
24.075
20
71.175
40
2
50
270
51
0
0
ARC
8
0
10
-10.025
20
67.175
40
2
50
90
51
180
0
ARC
8
0
10
-10.025
20
-10.025
40
2
50
180
51
270
0
ENDSEC
0
EOF